<?xml version="1.0" encoding="iso-8859-1"?>
<!-- Generator: Adobe Illustrator 16.0.0, SVG Export Plug-In . SVG Version: 6.00 Build 0)  -->
<!DOCTYPE svg PUBLIC "-//W3C//DTD SVG 1.1//EN" "http://www.w3.org/Graphics/SVG/1.1/DTD/svg11.dtd">
<svg version="1.1" id="Layer_1" xmlns="http://www.w3.org/2000/svg" xmlns:xlink="http://www.w3.org/1999/xlink" x="0px" y="0px"
	 width="512px" height="512px" viewBox="0 0 512 512" style="enable-background:new 0 0 512 512;" xml:space="preserve">
<path d="M369.725,330.792c43.502-6.957,76.918-44.433,76.918-89.849c0-50.354-40.971-91.324-91.324-91.324
	c-40.9,0-75.195,27.196-86.791,64.338h-84.86v-35.806c37.142-11.596,64.339-45.891,64.339-86.81C248.006,40.972,207.035,0,156.681,0
	c-50.353,0-91.324,40.972-91.324,91.342c0,40.919,27.197,75.214,64.339,86.81v171.053c0,54.535,44.379,98.949,98.949,98.949h40.023
	C280.439,485.049,314.594,512,355.318,512c50.354,0,91.324-40.972,91.324-91.324C446.643,375.277,413.227,337.784,369.725,330.792z
	 M355.318,203.591c20.627,0,37.352,16.727,37.352,37.353s-16.725,37.352-37.352,37.352s-37.352-16.726-37.352-37.352
	S334.691,203.591,355.318,203.591z M156.681,53.973c20.662,0,37.353,16.761,37.353,37.369s-16.69,37.37-37.353,37.37
	c-20.661,0-37.352-16.762-37.352-37.37S136.02,53.973,156.681,53.973z M183.667,349.204V267.93h84.86
	c10.189,32.644,37.949,57.346,72.385,62.862c-34.611,5.552-62.477,30.5-72.525,63.39h-39.742
	C203.837,394.182,183.667,374.012,183.667,349.204z M355.318,458.027c-20.627,0-37.352-16.726-37.352-37.352
	s16.725-37.353,37.352-37.353s37.352,16.727,37.352,37.353S375.945,458.027,355.318,458.027z"/>
</svg>
