<?xml version="1.0" encoding="iso-8859-1"?>
<!-- Generator: Adobe Illustrator 16.0.0, SVG Export Plug-In . SVG Version: 6.00 Build 0)  -->
<!DOCTYPE svg PUBLIC "-//W3C//DTD SVG 1.1//EN" "http://www.w3.org/Graphics/SVG/1.1/DTD/svg11.dtd">
<svg version="1.1" id="Layer_1" xmlns="http://www.w3.org/2000/svg" xmlns:xlink="http://www.w3.org/1999/xlink" x="0px" y="0px"
	 width="512px" height="512px" viewBox="0 0 512 512" style="enable-background:new 0 0 512 512;" xml:space="preserve">
<g>
	<path d="M355.115,329.339c-41.08,0-75.518,27.445-86.939,64.835h-39.322c-24.81,0-44.98-20.171-44.98-44.98v-81.245h58.58v-53.977
		h-58.58v-35.843c37.145-11.597,64.343-45.894,64.343-86.798C248.216,40.975,207.243,0,156.886,0
		c-50.357,0-91.331,40.975-91.331,91.331c0,40.904,27.199,75.201,64.343,86.798v171.064c0,54.608,44.383,98.956,98.956,98.956
		h39.603C280.23,485.048,314.387,512,355.115,512c50.355,0,91.33-40.938,91.33-91.33
		C446.445,370.313,405.471,329.339,355.115,329.339z M156.886,53.977c20.627,0,37.354,16.727,37.354,37.354
		s-16.728,37.354-37.354,37.354c-20.628,0-37.354-16.727-37.354-37.354S136.258,53.977,156.886,53.977z M355.115,458.024
		c-20.664,0-37.355-16.692-37.355-37.354c0-20.593,16.691-37.354,37.355-37.354c20.662,0,37.354,16.762,37.354,37.354
		C392.469,441.332,375.777,458.024,355.115,458.024z"/>
	<polygon points="328.127,314.756 382.104,314.756 382.104,267.948 428.91,267.948 428.91,213.972 382.104,213.972 382.104,167.147 
		328.127,167.147 328.127,213.972 281.283,213.972 281.283,267.948 328.127,267.948 	"/>
</g>
</svg>
