<?xml version="1.0" encoding="iso-8859-1"?>
<!-- Generator: Adobe Illustrator 16.0.0, SVG Export Plug-In . SVG Version: 6.00 Build 0)  -->
<!DOCTYPE svg PUBLIC "-//W3C//DTD SVG 1.1//EN" "http://www.w3.org/Graphics/SVG/1.1/DTD/svg11.dtd">
<svg version="1.1" id="Layer_1" xmlns="http://www.w3.org/2000/svg" xmlns:xlink="http://www.w3.org/1999/xlink" x="0px" y="0px"
	 width="512px" height="512px" viewBox="0 0 512 512" style="enable-background:new 0 0 512 512;" xml:space="preserve">
<path d="M445.629,105.759H200.592c-36.592,0-66.37,29.778-66.37,66.371v15.759H66.37c-36.593,0-66.37,29.778-66.37,66.37v85.612
	c0,36.592,29.777,66.369,66.37,66.369h245.037c36.593,0,66.37-29.777,66.37-66.369v-15.74h67.852
	c36.593,0,66.371-29.779,66.371-66.371V172.13C512,135.538,482.222,105.759,445.629,105.759z M320.889,339.871
	c0,5.186-4.334,9.48-9.481,9.48H66.37c-5.148,0-9.481-4.295-9.481-9.48v-85.612c0-5.147,4.333-9.481,9.481-9.481h67.852v12.982
	c0,36.592,29.778,66.371,66.37,66.371h120.297V339.871z M320.889,267.24H200.592c-5.147,0-9.481-4.332-9.481-9.48v-12.982h120.297
	c5.147,0,9.481,4.334,9.481,9.481V267.24z M455.11,257.76c0,5.148-4.333,9.48-9.481,9.48h-67.852v-12.981
	c0-36.592-29.777-66.37-66.37-66.37H191.11V172.13c0-5.148,4.334-9.481,9.481-9.481h245.037c5.148,0,9.481,4.333,9.481,9.481V257.76
	z"/>
</svg>
