<?xml version="1.0" encoding="utf-8"?>
<!-- Generator: Adobe Illustrator 18.0.0, SVG Export Plug-In . SVG Version: 6.00 Build 0)  -->
<!DOCTYPE svg PUBLIC "-//W3C//DTD SVG 1.1//EN" "http://www.w3.org/Graphics/SVG/1.1/DTD/svg11.dtd">
<svg version="1.1" id="Layer_1" xmlns="http://www.w3.org/2000/svg" xmlns:xlink="http://www.w3.org/1999/xlink" x="0px" y="0px"
	 viewBox="0 0 96 96" enable-background="new 0 0 96 96" xml:space="preserve">
<g>
	<path d="M60,96c-0.1,0-0.2,0-0.2,0c-1.7-0.1-3.2-1.3-3.6-2.9L35.6,17.8L23.8,53.3C23.3,54.9,21.7,56,20,56H4v-8h13.1L32.2,2.7
		C32.8,1.1,34.3,0,36.1,0c1.8,0,3.3,1.2,3.7,2.9l20.9,76.5l11.6-28.9C72.9,49,74.4,48,76,48h16v8H78.7l-15,37.5
		C63.1,95,61.6,96,60,96z"/>
</g>
</svg>
