<?xml version="1.0" encoding="utf-8"?>
<!-- Generator: Adobe Illustrator 18.0.0, SVG Export Plug-In . SVG Version: 6.00 Build 0)  -->
<!DOCTYPE svg PUBLIC "-//W3C//DTD SVG 1.1//EN" "http://www.w3.org/Graphics/SVG/1.1/DTD/svg11.dtd">
<svg version="1.1" id="Layer_1" xmlns="http://www.w3.org/2000/svg" xmlns:xlink="http://www.w3.org/1999/xlink" x="0px" y="0px"
	 viewBox="0 0 96 96" enable-background="new 0 0 96 96" xml:space="preserve">
<path d="M87.6,74.4c0-0.1-4.9-10.9-5.9-19.1c-1-8.2-1.6-14.3-1.7-15.4C79.9,23.9,67.5,10,52,8l0-8l-8,0l0,8c-15.5,2-28,16-28,31.9
	c0,0.1-0.1,6.7-1.5,15.2c-1.3,8.2-6.1,19.2-6.2,19.3c-0.5,1.2-0.4,2.7,0.3,3.8s2,1.8,3.3,1.8h20c0,9,7.4,16,16.1,16
	C56.7,96,64,89,64,80h20c1.4,0,2.6-0.7,3.4-1.8S88.2,75.6,87.6,74.4z M48.1,88c-4.2,0-8.1-4-8.1-8h16C56,84,52.3,88,48.1,88z
	 M17.9,72c1.6-4,3.6-10.3,4.5-15.7c1.5-9.1,1.6-16,1.6-16.3c0-11.6,9.6-24,24-24s24,12.4,24,24c0,0.1,0,0.3,0,0.4
	c0,0.1,0.7,6.6,1.8,15.8c0.6,5.4,2.6,11.8,4.3,15.8H17.9z"/>
</svg>
