<?xml version="1.0" encoding="iso-8859-1"?>
<!-- Generator: Adobe Illustrator 16.0.0, SVG Export Plug-In . SVG Version: 6.00 Build 0)  -->
<!DOCTYPE svg PUBLIC "-//W3C//DTD SVG 1.1//EN" "http://www.w3.org/Graphics/SVG/1.1/DTD/svg11.dtd">
<svg version="1.1" id="Layer_1" xmlns="http://www.w3.org/2000/svg" xmlns:xlink="http://www.w3.org/1999/xlink" x="0px" y="0px"
	 width="512px" height="512px" viewBox="0 0 512 512" style="enable-background:new 0 0 512 512;" xml:space="preserve">
<g>
	<g>
		<path d="M446.584,0H115.75C70.354,0,33.417,36.917,33.417,82.312v57.583V314.5v115.146c0,45.416,36.938,82.354,82.333,82.354
			h330.834h32v-32v-83.166v-32V89.583v-32V32V0H446.584z M65.417,139.896V82.312C65.417,54.583,88,32,115.75,32h330.834v57.583
			v275.25H115.75c-27.75,0-50.333-22.542-50.333-50.334V139.896z M446.584,480H115.75c-27.75,0-50.333-22.583-50.333-50.354v-50.479
			c13.958,10.896,31.292,17.667,50.333,17.667h330.834V480z"/>
	</g>
	<g>
		<rect x="146.292" y="105.938" width="228.312" height="32"/>
	</g>
	<g>
		<rect x="146.292" y="199.417" width="228.312" height="32"/>
	</g>
</g>
</svg>
