<?xml version="1.0" encoding="utf-8"?>
<!-- Generator: Adobe Illustrator 18.0.0, SVG Export Plug-In . SVG Version: 6.00 Build 0)  -->
<!DOCTYPE svg PUBLIC "-//W3C//DTD SVG 1.1//EN" "http://www.w3.org/Graphics/SVG/1.1/DTD/svg11.dtd">
<svg version="1.1" id="Layer_1" xmlns="http://www.w3.org/2000/svg" xmlns:xlink="http://www.w3.org/1999/xlink" x="0px" y="0px"
	 viewBox="0 0 96 96" enable-background="new 0 0 96 96" xml:space="preserve">
<g>
	<path d="M4,25.5v13.8C4,41.9,2.3,44,0.2,44H0v8h0.2C2.3,52,4,54.1,4,56.7v13.8c0,9.9,6.2,18.5,15.1,20.9c1.6,0.4,3.3,0.6,4.9,0.6
		v-8c-0.9,0-1.9-0.1-2.8-0.4c-5.4-1.5-9.2-6.9-9.2-13.2V56.7c0-3.4-1.2-6.4-3.3-8.7c2-2.3,3.3-5.3,3.3-8.7V25.5
		c0-6.3,3.8-11.7,9.2-13.2c0.9-0.2,1.9-0.4,2.8-0.4V4c-1.6,0-3.3,0.2-4.9,0.6C10.2,7.1,4,15.6,4,25.5z"/>
	<path d="M95.8,44c-2.1,0-3.8-2.1-3.8-4.7V25.5c0-9.9-6.2-18.5-15.1-20.9C75.3,4.2,73.6,4,72,4v8c0.9,0,1.9,0.1,2.8,0.4
		c5.4,1.5,9.2,6.9,9.2,13.2v13.8c0,3.4,1.2,6.4,3.3,8.7c-2,2.3-3.3,5.3-3.3,8.7v13.8c0,6.3-3.8,11.7-9.2,13.2
		C73.9,83.9,72.9,84,72,84v8c1.6,0,3.3-0.2,4.9-0.6c8.9-2.4,15.1-11,15.1-20.9V56.7c0-2.6,1.7-4.7,3.8-4.7H96v-8H95.8z"/>
</g>
</svg>
