<?xml version="1.0" encoding="iso-8859-1"?>
<!-- Generator: Adobe Illustrator 16.0.0, SVG Export Plug-In . SVG Version: 6.00 Build 0)  -->
<!DOCTYPE svg PUBLIC "-//W3C//DTD SVG 1.1//EN" "http://www.w3.org/Graphics/SVG/1.1/DTD/svg11.dtd">
<svg version="1.1" id="Layer_1" xmlns="http://www.w3.org/2000/svg" xmlns:xlink="http://www.w3.org/1999/xlink" x="0px" y="0px"
	 width="512px" height="512px" viewBox="0 0 512 512" style="enable-background:new 0 0 512 512;" xml:space="preserve">
<g>
	<path d="M46.125,391.833v-89.062c0-16.875-7-34.812-18.083-46.771c11.083-11.958,18.083-29.896,18.083-46.771v-89.062
		c0-27.979,8-33.479,16.458-39.312c5.834-4,21.979-5.917,31.062-5.938l-0.021-32c-5.417,0-33.167,0.562-49.167,11.562
		c-18.208,12.541-30.333,28.5-30.333,65.688v89.062c0,16.229-10.583,28.208-14.083,28.521v4.5L0,274.25
		c3.542,0.312,14.125,12.292,14.125,28.521v89.062c0,37.188,12.125,53.146,30.333,65.688c16,11,43.75,11.562,49.167,11.562l0.021-32
		c-9.083-0.021-25.229-1.938-31.062-5.938C54.125,425.312,46.125,419.812,46.125,391.833z"/>
	<path d="M497.895,209.229v-89.062c0-37.209-12.125-53.167-30.312-65.688c-16.02-11-43.791-11.562-49.188-11.562l-0.02,32
		c9.082,0.021,25.229,1.938,31.062,5.938c8.479,5.833,16.479,11.333,16.479,39.312v89.062c0,16.875,7,34.812,18.084,46.771
		c-11.084,11.958-18.084,29.896-18.084,46.771v89.062c0,27.979-8,33.479-16.5,39.312c-5.812,4-21.959,5.917-31.041,5.938l0.02,32
		c5.396,0,33.168-0.562,49.168-11.562c18.207-12.521,30.332-28.479,30.332-65.688v-89.062c0-16.229,10.605-28.208,14.084-28.521
		v-4.5l0.021-32C508.5,237.438,497.895,225.458,497.895,209.229z"/>
</g>
</svg>
