<?xml version="1.0" encoding="utf-8"?>
<!-- Generator: Adobe Illustrator 18.0.0, SVG Export Plug-In . SVG Version: 6.00 Build 0)  -->
<!DOCTYPE svg PUBLIC "-//W3C//DTD SVG 1.1//EN" "http://www.w3.org/Graphics/SVG/1.1/DTD/svg11.dtd">
<svg version="1.1" id="Layer_1" xmlns="http://www.w3.org/2000/svg" xmlns:xlink="http://www.w3.org/1999/xlink" x="0px" y="0px"
	 viewBox="0 0 96 96" enable-background="new 0 0 96 96" xml:space="preserve">
<g>
	<path d="M70.1,64.1c-5.3-0.7-10.6,1.3-14.1,5.3c-1.7,1.9-2.8,4.2-3.5,6.6H40c-4.4,0-8-3.6-8-8V48h12v-8H32v-8.5
		c3.1-0.8,5.9-2.5,8-4.9c3-3.4,4.4-8,3.9-12.6C43,6.8,37.2,1,30.1,0.1C24.8-0.5,19.5,1.5,16,5.4c-3,3.4-4.4,8.1-3.9,12.7
		c0.8,6.4,5.7,11.8,11.9,13.4V68c0,8.8,7.2,16,16,16h12.5c1.6,6.2,7,11.1,13.5,11.9c0.7,0.1,1.4,0.1,2,0.1c4.6,0,9-2,12-5.4
		c3-3.4,4.4-8,3.9-12.6C83,70.8,77.2,65,70.1,64.1z M20.1,17.1c-0.3-2.3,0.4-4.6,1.9-6.4C23.5,9,25.7,8,28,8c0.4,0,0.7,0,1.1,0.1
		c3.5,0.5,6.4,3.3,6.9,6.9c0.3,2.3-0.4,4.6-1.9,6.3c-1.7,2-4.4,3-7,2.6C23.4,23.5,20.5,20.6,20.1,17.1z M74,85.3c-1.7,2-4.4,3-7,2.6
		c-3.5-0.4-6.4-3.3-6.9-6.9c-0.3-2.3,0.4-4.6,1.9-6.4c1.5-1.7,3.7-2.7,6-2.7c0.4,0,0.7,0,1.1,0.1c3.5,0.5,6.4,3.3,6.9,6.9
		C76.2,81.3,75.5,83.5,74,85.3z"/>
	<polygon points="72,40 72,28 64,28 64,40 52,40 52,48 64,48 64,60 72,60 72,48 84,48 84,40 	"/>
</g>
</svg>
