<?xml version="1.0" encoding="iso-8859-1"?>
<!-- Generator: Adobe Illustrator 16.0.0, SVG Export Plug-In . SVG Version: 6.00 Build 0)  -->
<!DOCTYPE svg PUBLIC "-//W3C//DTD SVG 1.1//EN" "http://www.w3.org/Graphics/SVG/1.1/DTD/svg11.dtd">
<svg version="1.1" id="Layer_1" xmlns="http://www.w3.org/2000/svg" xmlns:xlink="http://www.w3.org/1999/xlink" x="0px" y="0px"
	 width="512px" height="512px" viewBox="0 0 512 512" style="enable-background:new 0 0 512 512;" xml:space="preserve">
<g>
	<path style="fill:none;" d="M361.539,397.682c-23.215,0-42.117,18.882-42.117,42.118c0,23.215,18.902,42.078,42.117,42.078
		s42.117-18.863,42.117-42.078C403.656,416.563,384.754,397.682,361.539,397.682z"/>
	<path style="fill:none;" d="M182.461,72.24c0-23.226-18.902-42.117-42.118-42.117S98.225,49.015,98.225,72.24
		s18.902,42.118,42.118,42.118S182.461,95.466,182.461,72.24z"/>
	<path d="M361.539,367.563c-34.863,0-64.039,24.824-70.766,57.727h-90.195c-24.902,0-45.176-20.275-45.176-45.177V254.27h80.45
		v-30.117h-80.45v-81.313c32.607-6.951,57.176-35.932,57.176-70.599c0-39.833-32.412-72.235-72.235-72.235
		S68.108,32.407,68.108,72.24c0,34.667,24.568,63.647,57.177,70.599v237.274c0,41.51,33.784,75.294,75.294,75.294h90.529
		c7.178,32.314,35.98,56.588,70.432,56.588c39.824,0,72.236-32.392,72.236-72.195C433.775,399.956,401.363,367.563,361.539,367.563z
		 M98.225,72.24c0-23.226,18.902-42.117,42.118-42.117s42.118,18.892,42.118,42.117s-18.902,42.118-42.118,42.118
		S98.225,95.466,98.225,72.24z M361.539,481.878c-23.215,0-42.117-18.863-42.117-42.078c0-23.236,18.902-42.118,42.117-42.118
		s42.117,18.882,42.117,42.118C403.656,463.015,384.754,481.878,361.539,481.878z"/>
	<polygon points="376.598,224.152 376.598,156.849 346.48,156.849 346.48,224.152 279.166,224.152 279.166,254.27 346.48,254.27 
		346.48,321.563 376.598,321.563 376.598,254.27 443.893,254.27 443.893,224.152 	"/>
</g>
</svg>
