<?xml version="1.0" encoding="utf-8"?>
<!-- Generator: Adobe Illustrator 18.0.0, SVG Export Plug-In . SVG Version: 6.00 Build 0)  -->
<!DOCTYPE svg PUBLIC "-//W3C//DTD SVG 1.1//EN" "http://www.w3.org/Graphics/SVG/1.1/DTD/svg11.dtd">
<svg version="1.1" id="Layer_1" xmlns="http://www.w3.org/2000/svg" xmlns:xlink="http://www.w3.org/1999/xlink" x="0px" y="0px"
	 viewBox="0 0 96 96" enable-background="new 0 0 96 96" xml:space="preserve">
<path d="M65.3,24c1.5,0,2.7,1.2,2.7,2.7l0,11.7c0,1,0.4,1.5,1.1,1.5c0.3,0,0.7-0.1,1.1-0.4l15.7-11.2c0.4-0.3,0.8-0.4,1.1-0.4
	c0.6,0,1.1,0.5,1.1,1.5v37.2c0,1-0.4,1.5-1.1,1.5c-0.3,0-0.7-0.1-1.1-0.4L70.2,56.4c-0.4-0.3-0.8-0.4-1.1-0.4
	c-0.6,0-1.1,0.5-1.1,1.5l0,11.8c0,1.5-1.2,2.7-2.7,2.7H10.7C9.2,72,8,70.8,8,69.3l0-42.7c0-1.5,1.2-2.7,2.7-2.7H65.3 M65.3,16H10.7
	c-2.8,0-5.5,1.1-7.5,3.1c-2,2-3.1,4.7-3.1,7.5l0,42.7C0,75.2,4.8,80,10.7,80h54.7c2.8,0,5.5-1.1,7.5-3.1c1.8-1.8,2.8-4,3.1-6.4
	l5.2,3.8c1.8,1.3,3.7,1.9,5.8,1.9c5.1,0,9.1-4.2,9.1-9.5V29.4c0-5.3-4-9.5-9.1-9.5c-2,0-4,0.7-5.7,1.9l-5.3,3.8
	c-0.2-2.4-1.3-4.7-3.1-6.4C70.9,17.1,68.2,16,65.3,16L65.3,16z"/>
</svg>
