<?xml version="1.0" encoding="iso-8859-1"?>
<!-- Generator: Adobe Illustrator 16.0.0, SVG Export Plug-In . SVG Version: 6.00 Build 0)  -->
<!DOCTYPE svg PUBLIC "-//W3C//DTD SVG 1.1//EN" "http://www.w3.org/Graphics/SVG/1.1/DTD/svg11.dtd">
<svg version="1.1" id="Layer_1" xmlns="http://www.w3.org/2000/svg" xmlns:xlink="http://www.w3.org/1999/xlink" x="0px" y="0px"
	 width="512px" height="512px" viewBox="0 0 512 512" style="enable-background:new 0 0 512 512;" xml:space="preserve">
<g>
	<g>
		<path d="M256,511.984c-141.158,0-255.984-114.827-255.984-255.974C0.016,114.862,114.842,0.016,256,0.016
			c141.137,0,255.984,114.847,255.984,255.995C511.984,397.157,397.137,511.984,256,511.984z M256,30.139
			c-124.555,0-225.861,101.327-225.861,225.872c0,124.544,101.307,225.86,225.861,225.86c124.534,0,225.861-101.316,225.861-225.86
			C481.861,131.466,380.534,30.139,256,30.139z"/>
	</g>
	<g>
		<path d="M233.147,341.828c-4.146,0-8.104-1.719-10.958-4.729l-70.287-74.672l21.915-20.655l59.143,62.819l117.555-129.482
			l22.291,20.26L244.292,336.901c-2.812,3.104-6.812,4.885-10.999,4.927C233.23,341.828,233.21,341.828,233.147,341.828z"/>
	</g>
</g>
</svg>
