<?xml version="1.0" encoding="utf-8"?>
<!-- Generator: Adobe Illustrator 18.0.0, SVG Export Plug-In . SVG Version: 6.00 Build 0)  -->
<!DOCTYPE svg PUBLIC "-//W3C//DTD SVG 1.1//EN" "http://www.w3.org/Graphics/SVG/1.1/DTD/svg11.dtd">
<svg version="1.1" id="Layer_1" xmlns="http://www.w3.org/2000/svg" xmlns:xlink="http://www.w3.org/1999/xlink" x="0px" y="0px"
	 viewBox="0 0 96 96" enable-background="new 0 0 96 96" xml:space="preserve">
<g>
	<path d="M48,96C21.5,96,0,74.5,0,48C0,21.5,21.5,0,48,0c26.5,0,48,21.5,48,48C96,74.5,74.5,96,48,96z M48,8C25.9,8,8,25.9,8,48
		c0,22.1,17.9,40,40,40c22.1,0,40-17.9,40-40C88,25.9,70.1,8,48,8z"/>
</g>
<g>
	<path d="M44,68c-1.1,0-2.1-0.4-2.8-1.2L24.1,49.5l5.7-5.6l14,14.2l22.1-26.2L72,37L47.1,66.6c-0.7,0.9-1.8,1.4-2.9,1.4
		C44.1,68,44.1,68,44,68z"/>
</g>
</svg>
