<?xml version="1.0" encoding="iso-8859-1"?>
<!-- Generator: Adobe Illustrator 16.0.0, SVG Export Plug-In . SVG Version: 6.00 Build 0)  -->
<!DOCTYPE svg PUBLIC "-//W3C//DTD SVG 1.1//EN" "http://www.w3.org/Graphics/SVG/1.1/DTD/svg11.dtd">
<svg version="1.1" id="Layer_1" xmlns="http://www.w3.org/2000/svg" xmlns:xlink="http://www.w3.org/1999/xlink" x="0px" y="0px"
	 width="512px" height="512px" viewBox="0 0 512 512" style="enable-background:new 0 0 512 512;" xml:space="preserve">
<g>
	<path d="M256,0C114.843,0,0,114.843,0,256c0,141.156,114.843,256,256,256s256-114.844,256-256C512,114.843,397.157,0,256,0z
		 M256,481.883C131.451,481.883,30.118,380.549,30.118,256S131.451,30.118,256,30.118c124.55,0,225.882,101.333,225.882,225.882
		S380.55,481.883,256,481.883z"/>
	<polygon points="271.06,119.432 240.941,119.432 240.941,240.941 240.941,271.059 271.06,271.059 397.353,271.059 397.353,240.941 
		271.06,240.941 	"/>
</g>
</svg>
