<?xml version="1.0" encoding="utf-8"?>
<!-- Generator: Adobe Illustrator 18.0.0, SVG Export Plug-In . SVG Version: 6.00 Build 0)  -->
<!DOCTYPE svg PUBLIC "-//W3C//DTD SVG 1.1//EN" "http://www.w3.org/Graphics/SVG/1.1/DTD/svg11.dtd">
<svg version="1.1" id="Layer_1" xmlns="http://www.w3.org/2000/svg" xmlns:xlink="http://www.w3.org/1999/xlink" x="0px" y="0px"
	 viewBox="0 0 96 96" enable-background="new 0 0 96 96" xml:space="preserve">
<g>
	<path d="M74,80.1H22.1C9.9,80.1,0,70.2,0,58c0-11.9,8.7-21.4,20-22c3.1-11.8,14.3-20,28-20c13.8,0,25,8.2,28,20
		c11.3,0.7,20,10.1,20,22C96.1,70.2,86.2,80.1,74,80.1z M21.3,44c-7.5,0-13.2,6-13.2,14c0,7.7,6.3,14,14,14H74c7.7,0,14-6.3,14-14
		c0-8-5.7-14-13.2-14c-0.5,0-1,0-1.6,0.1l-4,0.5l-0.4-4C67.7,31,59,24.1,48,24.1c-11,0-19.6,6.9-20.7,16.5l-0.4,4l-4-0.5
		C22.3,44,21.8,44,21.3,44z"/>
</g>
</svg>
