<?xml version="1.0" encoding="utf-8"?>
<!-- Generator: Adobe Illustrator 18.0.0, SVG Export Plug-In . SVG Version: 6.00 Build 0)  -->
<!DOCTYPE svg PUBLIC "-//W3C//DTD SVG 1.1//EN" "http://www.w3.org/Graphics/SVG/1.1/DTD/svg11.dtd">
<svg version="1.1" id="Layer_1" xmlns="http://www.w3.org/2000/svg" xmlns:xlink="http://www.w3.org/1999/xlink" x="0px" y="0px"
	 viewBox="0 0 96 96" enable-background="new 0 0 96 96" xml:space="preserve">
<path d="M76,32c-4-12.6-14.9-20-28-20s-24,7.4-28,20C8.8,34.3,0,46.1,0,58.5C0,72.7,11,84,24,84v-8c-9,0-16-7.7-16-17.4
	c0-9.7,7.6-19,16.7-19c0.6,0,1.2,0,1.9,0.1C27.7,27.8,36.7,20,48,20s20.3,7.8,21.4,19.6c0.6-0.1,1.2-0.1,1.9-0.1
	c9.1,0,16.7,9.3,16.7,19c0,9.7-7,17.5-16,17.5c0,0,0,0,0,0v8l0,0c13.5,0,24-11.3,24-25.5C96,46.1,87.2,34.3,76,32z"/>
<path d="M68,66.1L50.9,49c-1.6-1.6-4.1-1.6-5.7,0L28,66l5.6,5.7L44,61.4L44,84l8,0l0-22.6l10.3,10.4L68,66.1z"/>
</svg>
