<?xml version="1.0" encoding="utf-8"?>
<!-- Generator: Adobe Illustrator 18.0.0, SVG Export Plug-In . SVG Version: 6.00 Build 0)  -->
<!DOCTYPE svg PUBLIC "-//W3C//DTD SVG 1.1//EN" "http://www.w3.org/Graphics/SVG/1.1/DTD/svg11.dtd">
<svg version="1.1" id="Layer_1" xmlns="http://www.w3.org/2000/svg" xmlns:xlink="http://www.w3.org/1999/xlink" x="0px" y="0px"
	 viewBox="0 0 96 96" enable-background="new 0 0 96 96" xml:space="preserve">
<path d="M52.2,8c0.5,0,1.1,0.4,1.2,1l1.8,11.6c0.1,0.5,0.6,1.1,1.1,1.2l4.8,1.7c0.2,0.1,0.4,0.1,0.6,0.1c0.4,0,0.9-0.1,1.2-0.3
	l9-6.5c0.2-0.1,0.4-0.2,0.7-0.2c0.3,0,0.6,0.1,0.8,0.3l5.8,5.8c0.4,0.4,0.4,1.1,0.1,1.5l-6.6,9c-0.3,0.4-0.4,1.2-0.2,1.7l1.9,4.9
	c0.2,0.5,0.7,1,1.3,1.1L87,42.7c0.5,0.1,1,0.6,1,1.2v8.3c0,0.6-0.4,1.1-1,1.2l-11.3,1.8c-0.5,0.1-1.1,0.6-1.2,1.1l-1.8,5
	c-0.2,0.5-0.1,1.3,0.2,1.7l6.4,8.9c0.3,0.4,0.3,1.1-0.1,1.5l-6,6c-0.2,0.2-0.5,0.3-0.8,0.3c-0.2,0-0.5-0.1-0.7-0.2L63,73.1
	c-0.3-0.2-0.6-0.3-0.9-0.3c-0.3,0-0.5,0.1-0.7,0.2l-5.1,2.3c-0.5,0.2-1,0.8-1.1,1.4L53.4,87c-0.1,0.5-0.6,1-1.2,1h-8.4
	c-0.5,0-1.1-0.4-1.2-1L41,76.6c-0.1-0.5-0.6-1.2-1.1-1.4l-5.1-2.4c-0.2-0.1-0.5-0.2-0.8-0.2c-0.3,0-0.7,0.1-0.9,0.3l-9,6.5
	c-0.2,0.1-0.4,0.2-0.7,0.2c-0.3,0-0.6-0.1-0.8-0.3l-5.9-5.9c-0.4-0.4-0.4-1.1-0.1-1.5l6.4-9c0.3-0.4,0.4-1.2,0.1-1.7l-2.2-5
	c-0.2-0.5-0.8-1-1.4-1.1L9,53.4c-0.5-0.1-1-0.6-1-1.2v-8.3c0-0.6,0.4-1.1,1-1.2l10.6-1.8c0.5-0.1,1.2-0.6,1.4-1.1l2.3-4.9
	c0.3-0.5,0.3-1.2-0.1-1.7l-6.7-9.1c-0.3-0.4-0.3-1.1,0.1-1.5l5.9-5.9c0.2-0.2,0.5-0.3,0.8-0.3c0.2,0,0.5,0.1,0.7,0.2l9.2,6.8
	c0.3,0.2,0.7,0.3,1.1,0.3c0.2,0,0.5,0,0.6-0.1l4.8-1.8c0.5-0.2,1-0.7,1.1-1.3L42.8,9c0.1-0.5,0.6-1,1.2-1H52.2 M48.1,56
	c2,0,4.1-0.8,5.6-2.3c3.1-3.1,3.1-8.1,0-11.2c-1.6-1.6-3.6-2.3-5.6-2.3c-2,0-4.1,0.8-5.6,2.3c-3.1,3.1-3.1,8.1,0,11.2
	C44.1,55.2,46.1,56,48.1,56 M52.2,0h-8.3c-4.5,0-8.4,3.3-9.1,7.8l-0.9,6.2l-5-3.7c-1.6-1.2-3.5-1.8-5.5-1.8c-2.4,0-4.8,1-6.5,2.7
	L11.1,17c-3.2,3.2-3.6,8.3-0.9,11.9l3.6,4.9l-6.1,1C3.3,35.5,0,39.4,0,43.9v8.3c0,4.4,3.3,8.3,7.7,9.1l5.9,1l-3.5,4.9
	c-2.6,3.6-2.2,8.7,1,11.8l5.9,5.9c1.7,1.7,4.1,2.7,6.5,2.7c1.9,0,3.8-0.6,5.4-1.7l5-3.6l1,6c0.7,4.4,4.6,7.7,9.1,7.7h8.4
	c4.4,0,8.3-3.3,9.1-7.7l1-5.9l4.9,3.5c1.6,1.1,3.4,1.7,5.3,1.7c2.4,0,4.8-1,6.5-2.7l6-6c3.2-3.2,3.6-8.3,0.9-11.9l-3.6-5l6-0.9
	c4.4-0.7,7.8-4.6,7.8-9.1v-8.3c0-4.5-3.3-8.4-7.8-9.1l-6.1-1l3.7-5c2.7-3.6,2.3-8.7-0.9-11.9l-5.8-5.8c-1.7-1.7-4.1-2.7-6.5-2.7
	c-2,0-3.8,0.6-5.4,1.7l-5,3.6l-0.9-6C60.6,3.3,56.7,0,52.2,0L52.2,0z"/>
</svg>
