<?xml version="1.0" encoding="utf-8"?>
<!-- Generator: Adobe Illustrator 18.0.0, SVG Export Plug-In . SVG Version: 6.00 Build 0)  -->
<!DOCTYPE svg PUBLIC "-//W3C//DTD SVG 1.1//EN" "http://www.w3.org/Graphics/SVG/1.1/DTD/svg11.dtd">
<svg version="1.1" id="Layer_1" xmlns="http://www.w3.org/2000/svg" xmlns:xlink="http://www.w3.org/1999/xlink" x="0px" y="0px"
	 viewBox="0 0 96 96" enable-background="new 0 0 96 96" xml:space="preserve">
<g>
	<path d="M28,96V76.1l-11.9,0C5.9,76.1,0,70.3,0,60.1V16C0,6,6,0,16,0h64c10.2,0,16,5.8,16,16v44c0,10.2-5.8,16.1-15.9,16.1l-17.9,0
		L28,96z M16,8c-5.5,0-8,2.5-8,8v44.1c0,5.7,2.3,8,8.1,8l19.9,0v14l24-14l20.1,0c5.7,0,7.9-2.3,7.9-8.1V16c0-5.8-2.2-8-8-8H16z"/>
</g>
</svg>
