<?xml version="1.0" encoding="utf-8"?>
<!-- Generator: Adobe Illustrator 18.0.0, SVG Export Plug-In . SVG Version: 6.00 Build 0)  -->
<!DOCTYPE svg PUBLIC "-//W3C//DTD SVG 1.1//EN" "http://www.w3.org/Graphics/SVG/1.1/DTD/svg11.dtd">
<svg version="1.1" id="Layer_1" xmlns="http://www.w3.org/2000/svg" xmlns:xlink="http://www.w3.org/1999/xlink" x="0px" y="0px"
	 viewBox="0 0 96 96" enable-background="new 0 0 96 96" xml:space="preserve">
<g>
	<polygon points="49.7,41.6 44,36 24,56 44,76 49.7,70.4 39.3,60 72,60 72,52 39.3,52 	"/>
	<path d="M81.4,8H68V7c0-3.9-3.2-7-7-7H35c-3.9,0-7,3.1-7,7v1H14.6C11,8,8,11,8,14.6v74.7C8,93,11,96,14.6,96h66.7
		c3.6,0,6.6-3,6.6-6.6V14.6C88,11,85,8,81.4,8z M36,8h24v8H36V8z M80,88H16V16h12v1c0,3.9,3.2,7,7,7H61c3.9,0,7-3.2,7-7v-1h12V88z"
		/>
</g>
</svg>
