<?xml version="1.0" encoding="iso-8859-1"?>
<!-- Generator: Adobe Illustrator 16.0.0, SVG Export Plug-In . SVG Version: 6.00 Build 0)  -->
<!DOCTYPE svg PUBLIC "-//W3C//DTD SVG 1.1//EN" "http://www.w3.org/Graphics/SVG/1.1/DTD/svg11.dtd">
<svg version="1.1" id="Layer_1" xmlns="http://www.w3.org/2000/svg" xmlns:xlink="http://www.w3.org/1999/xlink" x="0px" y="0px"
	 width="512px" height="512px" viewBox="0 0 512 512" style="enable-background:new 0 0 512 512;" xml:space="preserve">
<g>
	<path style="fill:none;" d="M481.883,163.142v-42.666c0-8.305-6.766-15.06-15.06-15.06H45.176c-8.293,0-15.059,6.755-15.059,15.06
		v42.666H481.883z"/>
	<path style="fill:none;" d="M30.117,193.26v198.264c0,8.314,6.766,15.06,15.059,15.06h421.647c8.294,0,15.06-6.745,15.06-15.06
		V193.26H30.117z M160.823,347.603H85.529v-30.118h75.294V347.603z M422.471,347.603H209.117v-30.118h213.354V347.603z"/>
	<path d="M466.823,75.299H45.176C20.274,75.299,0,95.563,0,120.476v271.048c0,24.922,20.274,45.178,45.176,45.178h421.647
		c24.902,0,45.177-20.256,45.177-45.178V120.476C512,95.563,491.726,75.299,466.823,75.299z M45.176,105.416h421.647
		c8.294,0,15.06,6.755,15.06,15.06v42.666H30.117v-42.666C30.117,112.171,36.883,105.416,45.176,105.416z M466.823,406.583H45.176
		c-8.293,0-15.059-6.745-15.059-15.06V193.26h451.766v198.264C481.883,399.838,475.117,406.583,466.823,406.583z"/>
	<rect x="85.529" y="317.484" width="75.294" height="30.118"/>
	<rect x="209.117" y="317.484" width="213.354" height="30.118"/>
</g>
</svg>
