<?xml version="1.0" encoding="utf-8"?>
<!-- Generator: Adobe Illustrator 18.0.0, SVG Export Plug-In . SVG Version: 6.00 Build 0)  -->
<!DOCTYPE svg PUBLIC "-//W3C//DTD SVG 1.1//EN" "http://www.w3.org/Graphics/SVG/1.1/DTD/svg11.dtd">
<svg version="1.1" id="Layer_1" xmlns="http://www.w3.org/2000/svg" xmlns:xlink="http://www.w3.org/1999/xlink" x="0px" y="0px"
	 viewBox="0 0 96 96" enable-background="new 0 0 96 96" xml:space="preserve">
<g>
	<path d="M86.5,12h-77C4.3,12,0,16.4,0,21.8v52.4C0,79.6,4.3,84,9.5,84h77c5.2,0,9.5-4.4,9.5-9.8V21.8C96,16.4,91.7,12,86.5,12z
		 M9.5,20h77c0.8,0,1.5,0.8,1.5,1.8V32H8V21.8C8,20.8,8.7,20,9.5,20z M86.5,76h-77C8.7,76,8,75.2,8,74.2V40h80v34.2
		C88,75.2,87.4,76,86.5,76z"/>
	<rect x="16" y="56" width="16" height="8"/>
	<rect x="40" y="56" width="40" height="8"/>
</g>
</svg>
