<?xml version="1.0" encoding="utf-8"?>
<!-- Generator: Adobe Illustrator 18.0.0, SVG Export Plug-In . SVG Version: 6.00 Build 0)  -->
<!DOCTYPE svg PUBLIC "-//W3C//DTD SVG 1.1//EN" "http://www.w3.org/Graphics/SVG/1.1/DTD/svg11.dtd">
<svg version="1.1" id="Layer_1" xmlns="http://www.w3.org/2000/svg" xmlns:xlink="http://www.w3.org/1999/xlink" x="0px" y="0px"
	 viewBox="0 0 96 96" enable-background="new 0 0 96 96" xml:space="preserve">
<g>
	<polygon points="48,63.8 24,41.9 29.4,36 48,53 66.5,36 71.9,41.9 	"/>
</g>
<g>
	<path d="M48,96C21.5,96,0,74.5,0,48C0,21.5,21.5,0,48,0c26.5,0,48,21.5,48,48C96,74.5,74.5,96,48,96z M48,8C25.9,8,8,25.9,8,48
		c0,22.1,17.9,40,40,40c22.1,0,40-17.9,40-40C88,25.9,70.1,8,48,8z"/>
</g>
</svg>
