<?xml version="1.0" encoding="iso-8859-1"?>
<!-- Generator: Adobe Illustrator 16.0.0, SVG Export Plug-In . SVG Version: 6.00 Build 0)  -->
<!DOCTYPE svg PUBLIC "-//W3C//DTD SVG 1.1//EN" "http://www.w3.org/Graphics/SVG/1.1/DTD/svg11.dtd">
<svg version="1.1" id="Layer_1" xmlns="http://www.w3.org/2000/svg" xmlns:xlink="http://www.w3.org/1999/xlink" x="0px" y="0px"
	 width="512px" height="512px" viewBox="0 0 512 512" style="enable-background:new 0 0 512 512;" xml:space="preserve">
<path d="M332.51-0.005H95.385c-24.917,0-45.188,20.271-45.188,45.188v421.656c0,24.896,20.271,45.166,45.188,45.166h321.23
	c24.916,0,45.188-20.271,45.188-45.166V129.297L332.51-0.005z M341.322,51.412l69.062,69.062h-54
	c-8.291,0-15.062-6.76-15.062-15.062V51.412z M416.615,481.88H95.385c-8.292,0-15.062-6.75-15.062-15.041V45.183
	c0-8.312,6.771-15.062,15.062-15.062h215.812v75.291c0,24.917,20.293,45.178,45.188,45.178h75.293v316.25
	C431.678,475.13,424.906,481.88,416.615,481.88z"/>
</svg>
