<?xml version="1.0" encoding="utf-8"?>
<!-- Generator: Adobe Illustrator 18.0.0, SVG Export Plug-In . SVG Version: 6.00 Build 0)  -->
<!DOCTYPE svg PUBLIC "-//W3C//DTD SVG 1.1//EN" "http://www.w3.org/Graphics/SVG/1.1/DTD/svg11.dtd">
<svg version="1.1" id="Layer_1" xmlns="http://www.w3.org/2000/svg" xmlns:xlink="http://www.w3.org/1999/xlink" x="0px" y="0px"
	 viewBox="0 0 96 96" enable-background="new 0 0 96 96" xml:space="preserve">
<g>
	<path fill="none" d="M65.8,24h10.9L64,11.3V22C64,23.1,65.2,24,65.8,24z"/>
	<path fill="none" d="M65.8,32c-5.2,0-9.8-4.7-9.8-10V8H17.7C16.8,8,16,8.7,16,9.5v77c0,0.8,0.8,1.5,1.7,1.5h60.6
		c0.9,0,1.7-0.7,1.7-1.5V32H65.8z"/>
	<path d="M64,0H17.7C12.3,0,8,4.3,8,9.5v77c0,5.2,4.3,9.5,9.7,9.5h60.6c5.3,0,9.7-4.3,9.7-9.5V24L64,0z M64,11.3L76.7,24H65.8
		c-0.6,0-1.8-0.9-1.8-2V11.3z M78.3,88H17.7c-0.9,0-1.7-0.7-1.7-1.5v-77C16,8.7,16.8,8,17.7,8H56v14c0,5.3,4.6,10,9.8,10H80v54.5
		C80,87.3,79.2,88,78.3,88z"/>
</g>
</svg>
