<?xml version="1.0" encoding="utf-8"?>
<!-- Generator: Adobe Illustrator 18.0.0, SVG Export Plug-In . SVG Version: 6.00 Build 0)  -->
<!DOCTYPE svg PUBLIC "-//W3C//DTD SVG 1.1//EN" "http://www.w3.org/Graphics/SVG/1.1/DTD/svg11.dtd">
<svg version="1.1" id="Layer_1" xmlns="http://www.w3.org/2000/svg" xmlns:xlink="http://www.w3.org/1999/xlink" x="0px" y="0px"
	 viewBox="0 0 96 96" enable-background="new 0 0 96 96" xml:space="preserve">
<g>
	<path fill="none" d="M47.9,13.4C43,10.5,38.7,8,32,8C21.1,8,14.4,13,12,15.2v38.6c4.5-2.9,11.2-5.7,20.1-5.7c9.1,0,15,3.5,20.2,6.6
		c4.8,2.9,9,5.4,15.7,5.4c7.9,0,13.5-2.6,16.1-4.1V18.1c-3.5,1-8.6,1.8-16,1.8C58.9,19.9,53.1,16.5,47.9,13.4z"/>
	<path d="M91.9,11.5c-0.3-2.1-2-3.6-4.1-3.6L86.4,8l-1.1,0.9c0,0-3.7,3-17.2,3c-6.9,0-11.1-2.5-16.1-5.4C46.8,3.4,40.9,0,32,0
		C14.6,0,5.4,10.5,5,11l-1,1.1v62.1v0V96h8V64c2-2.3,8.9-7.9,20.1-7.9c6.9,0,11.2,2.5,16.1,5.4c5.1,3,10.9,6.5,19.8,6.5
		c13.8,0,22.2-6.5,22.6-6.8l1.5-1.2V11.9L91.9,11.5z M84,56c-2.5,1.5-8.2,4.1-16.1,4.1c-6.7,0-10.9-2.5-15.7-5.4
		c-5.2-3.1-11-6.6-20.2-6.6c-8.8,0-15.5,2.8-20.1,5.7V15.2C14.4,13,21.1,8,32,8c6.7,0,11,2.5,15.9,5.4c5.2,3.1,11.1,6.6,20.1,6.6
		c7.4,0,12.5-0.8,16-1.8V56z"/>
</g>
</svg>
