<?xml version="1.0" encoding="utf-8"?>
<!-- Generator: Adobe Illustrator 18.0.0, SVG Export Plug-In . SVG Version: 6.00 Build 0)  -->
<!DOCTYPE svg PUBLIC "-//W3C//DTD SVG 1.1//EN" "http://www.w3.org/Graphics/SVG/1.1/DTD/svg11.dtd">
<svg version="1.1" id="Layer_1" xmlns="http://www.w3.org/2000/svg" xmlns:xlink="http://www.w3.org/1999/xlink" x="0px" y="0px"
	 viewBox="0 0 96 96" enable-background="new 0 0 96 96" xml:space="preserve">
<g>
	<polygon points="52,81.3 52,52 44,52 44,81.3 29.4,68 24,74 48,95.7 72,74 66.6,68 	"/>
	<path d="M84,20H68v-8c0-6.1-5.8-12-12-12H12C5.8,0,0,5.8,0,12v52.1C0,70.2,5.8,76,12,76h4v-8h-4c-1.8,0-4-2.2-4-3.9V12
		c0-1.8,2.2-4,4-4h44c1.7,0,4,2.2,4,4v16h24c1.8,0,4,2.2,4,3.9v32.1c0,1.8-2.1,3.9-3.9,3.9L80,68l0,8l4.1,0C90.3,76,96,70.3,96,64.1
		V31.9C96,25.8,90.2,20,84,20z"/>
</g>
</svg>
