<?xml version="1.0" encoding="iso-8859-1"?>
<!-- Generator: Adobe Illustrator 16.0.0, SVG Export Plug-In . SVG Version: 6.00 Build 0)  -->
<!DOCTYPE svg PUBLIC "-//W3C//DTD SVG 1.1//EN" "http://www.w3.org/Graphics/SVG/1.1/DTD/svg11.dtd">
<svg version="1.1" id="Layer_1" xmlns="http://www.w3.org/2000/svg" xmlns:xlink="http://www.w3.org/1999/xlink" x="0px" y="0px"
	 width="512px" height="512px" viewBox="0 0 512 512" style="enable-background:new 0 0 512 512;" xml:space="preserve">
<path d="M509.682,229.416c4.427-14.218,2.45-28.513-5.433-39.217c-7.883-10.713-20.934-16.859-35.826-16.859h-30.812V124.71
	c0-23.992-14.912-38.904-38.903-38.904H233.424V46.903c0-23.992-14.911-38.904-38.903-38.904H48.632
	c-23.574,0-48.63,13.639-48.63,38.904v408.469c0,24.087,24.543,48.629,48.63,48.629h350.076c14.019,0,24.314-7.826,30.83-18.71
	l0.418,0.133l0.57-1.843c3.476-6.401,5.717-13.64,6.572-21.104L509.682,229.416z M48.632,37.177h145.889
	c8.092,0,9.726,1.634,9.726,9.726v68.081h194.462c8.092,0,9.726,1.634,9.726,9.726v48.629H137.798
	c-28.228,0-55.601,21.475-62.325,48.896L29.18,411.111V46.903C29.18,41.175,39.438,37.177,48.632,37.177z M48.632,474.824
	c-1.463,0-3.078-0.723-4.692-1.387l59.876-244.259c3.476-14.2,19.355-26.661,33.982-26.661h330.625
	c5.584,0,9.973,1.767,12.328,4.968c2.355,3.21,2.735,7.912,1.082,13.25l-73.076,234.638h-0.323c0,0.532-0.134,1.045-0.151,1.577
	l-4.521,14.512c-1.463,1.92-3.097,3.363-5.053,3.363H48.632z"/>
</svg>
