<?xml version="1.0" encoding="utf-8"?>
<!-- Generator: Adobe Illustrator 18.0.0, SVG Export Plug-In . SVG Version: 6.00 Build 0)  -->
<!DOCTYPE svg PUBLIC "-//W3C//DTD SVG 1.1//EN" "http://www.w3.org/Graphics/SVG/1.1/DTD/svg11.dtd">
<svg version="1.1" id="Layer_1" xmlns="http://www.w3.org/2000/svg" xmlns:xlink="http://www.w3.org/1999/xlink" x="0px" y="0px"
	 viewBox="0 0 96 96" enable-background="new 0 0 96 96" xml:space="preserve">
<g>
	<path fill="none" d="M8,39v45.2c0,1.4,2.1,3.8,3.9,3.8H84c1.7,0,4-2.3,4-4.1V39H8z M80,80H61.1c-2.1,0-3.9-1-4.7-2.8
		c-0.8-1.8-0.4-3.8,1-5.3L68,60H56v-8h18.9c2.1,0,3.9,1,4.7,2.8c0.8,1.8,0.4,3.7-1,5.3L68,72h12V80z"/>
	<path fill="none" d="M88,31v-2.9c0-1.7-2.3-4.1-4-4.1l-44,0.1v-12c0-1.7-2.3-4-4-4L11.9,8C10.2,8,8,10.2,8,11.9V31H88z"/>
	<path d="M78.6,60.1c1.4-1.6,1.8-3.6,1-5.3C78.8,53,77,52,74.9,52H56v8h12L57.5,71.9c-1.4,1.6-1.8,3.6-1,5.3C57.2,79,59,80,61.1,80
		H80v-8H68L78.6,60.1z"/>
	<path d="M84,16l-36,0.1v-4c0-6.2-5.8-12-12-12L11.9,0C5.7,0,0,5.7,0,11.9v72.3C0,90.3,5.8,96,11.9,96H84c6.2,0,12-5.9,12-12.1V28.1
		C96,22,90,16,84,16z M11.9,8L36,8.1c1.7,0,4,2.3,4,4v12L84,24c1.7,0,4,2.4,4,4.1V31H8V11.9C8,10.2,10.2,8,11.9,8z M84,88H11.9
		C10.1,88,8,85.7,8,84.2V39h80v44.9C88,85.7,85.8,88,84,88z"/>
</g>
</svg>
