<?xml version="1.0" encoding="iso-8859-1"?>
<!-- Generator: Adobe Illustrator 16.0.0, SVG Export Plug-In . SVG Version: 6.00 Build 0)  -->
<!DOCTYPE svg PUBLIC "-//W3C//DTD SVG 1.1//EN" "http://www.w3.org/Graphics/SVG/1.1/DTD/svg11.dtd">
<svg version="1.1" id="Layer_1" xmlns="http://www.w3.org/2000/svg" xmlns:xlink="http://www.w3.org/1999/xlink" x="0px" y="0px"
	 width="512px" height="512px" viewBox="0 0 512 512" style="enable-background:new 0 0 512 512;" xml:space="preserve">
<g>
	<path d="M471.823,80.294H240.941V40.137C240.941,15.373,225.549,0,200.765,0H50.176C25.843,0,0,14.059,0,40.137v421.647
		C0,486.667,25.313,512,50.176,512h421.647C497.921,512,512,486.138,512,461.784V120.471C512,95.686,496.607,80.294,471.823,80.294z
		 M50.176,30.118h150.589c8.372,0,10.059,1.686,10.059,10.02v70.274h261c8.373,0,10.059,1.687,10.059,10.059v50.176H30.117V40.137
		C30.117,34.235,40.687,30.118,50.176,30.118z M471.823,481.882H50.176c-8.255,0-20.059-11.843-20.059-20.098v-261.02h451.765
		v261.02C481.882,471.294,477.745,481.882,471.823,481.882z"/>
	<path d="M424.372,320.354c3.784-4.471,4.647-10.746,2.177-16.079c-2.471-5.313-7.804-8.726-13.667-8.726H305.726v30.117h74.627
		l-71.059,83.707c-3.784,4.471-4.647,10.744-2.177,16.078c2.471,5.313,7.804,8.725,13.667,8.725h107.157v-30.117h-74.628
		L424.372,320.354z"/>
</g>
</svg>
