<?xml version="1.0" encoding="iso-8859-1"?>
<!-- Generator: Adobe Illustrator 16.0.0, SVG Export Plug-In . SVG Version: 6.00 Build 0)  -->
<!DOCTYPE svg PUBLIC "-//W3C//DTD SVG 1.1//EN" "http://www.w3.org/Graphics/SVG/1.1/DTD/svg11.dtd">
<svg version="1.1" id="Layer_1" xmlns="http://www.w3.org/2000/svg" xmlns:xlink="http://www.w3.org/1999/xlink" x="0px" y="0px"
	 width="512px" height="512px" viewBox="0 0 512 512" style="enable-background:new 0 0 512 512;" xml:space="preserve">
<g>
	<path d="M469.25,99.183H350.229V39.672c0-24.479-15.209-39.677-39.667-39.677H52.667c-24.042,0-49.584,13.916-49.584,39.677
		v307.479c0,24.562,25.021,49.583,49.584,49.583h94.229v-29.771H52.667c-8.146,0-19.834-11.667-19.834-19.812V39.672
		c0-5.833,10.459-9.917,19.834-9.917h257.896c8.25,0,9.917,1.667,9.917,9.917v89.271H469.25c8.25,0,9.917,1.667,9.917,9.917v208.292
		c0,9.375-4.062,19.812-9.917,19.812H365.104v29.771H469.25c25.771,0,39.667-25.542,39.667-49.583V138.859
		C508.917,114.016,494.083,99.183,469.25,99.183z"/>
	<polygon points="270.875,455.234 270.875,292.589 241.125,292.589 241.125,454.865 204.875,418.63 183.833,439.651 
		256.188,512.005 329.604,438.589 308.562,417.547 	"/>
</g>
</svg>
