<?xml version="1.0" encoding="utf-8"?>
<!-- Generator: Adobe Illustrator 18.0.0, SVG Export Plug-In . SVG Version: 6.00 Build 0)  -->
<!DOCTYPE svg PUBLIC "-//W3C//DTD SVG 1.1//EN" "http://www.w3.org/Graphics/SVG/1.1/DTD/svg11.dtd">
<svg version="1.1" id="Layer_1" xmlns="http://www.w3.org/2000/svg" xmlns:xlink="http://www.w3.org/1999/xlink" x="0px" y="0px"
	 viewBox="0 0 96 96" enable-background="new 0 0 96 96" xml:space="preserve">
<g>
	<path d="M72.2,95.9H11.9C5.4,95.9,0.1,90.6,0.1,84V13.5C0.1,6.1,6.1,0,13.4,0h22.9C42.9,0,48,5.3,48,12v4l24.3,0
		c6,0,11.7,5.8,11.7,12v3.9l6,0c1.9,0,3.7,0.9,4.8,2.4c1.1,1.5,1.4,3.5,0.9,5.3L79.6,90.5C78.6,93.7,75.6,95.9,72.2,95.9z M11,87.9
		c0.3,0.1,0.6,0.1,0.9,0.1H72l15.3-48.1l-63.2,0.1c-0.1,0-0.1,0-0.1,0.1L11,87.9z M13.4,7.9c-3,0-5.4,2.5-5.4,5.6v55.2l8.4-30.8
		c1-3.5,4.2-5.9,7.7-5.9L76.1,32v-4c0-1.9-2.3-4-3.8-4l-32.2-0.1V12c0-2.6-2-4-3.8-4H13.4z"/>
</g>
</svg>
