<?xml version="1.0" encoding="utf-8"?>
<!-- Generator: Adobe Illustrator 18.0.0, SVG Export Plug-In . SVG Version: 6.00 Build 0)  -->
<!DOCTYPE svg PUBLIC "-//W3C//DTD SVG 1.1//EN" "http://www.w3.org/Graphics/SVG/1.1/DTD/svg11.dtd">
<svg version="1.1" id="Layer_1" xmlns="http://www.w3.org/2000/svg" xmlns:xlink="http://www.w3.org/1999/xlink" x="0px" y="0px"
	 viewBox="0 0 96 96" enable-background="new 0 0 96 96" xml:space="preserve">
<g>
	<path fill="none" d="M64,60.4c2.3,0,4.2-1.9,4.2-4.2c0-2.3-1.9-4.2-4.2-4.2c-2.3,0-4.2,1.9-4.2,4.2C59.8,58.5,61.7,60.4,64,60.4z"
		/>
	<path fill="none" d="M32,60.4c2.3,0,4.2-1.9,4.2-4.2c0-2.3-1.9-4.2-4.2-4.2c-2.3,0-4.2,1.9-4.2,4.2C27.8,58.5,29.6,60.4,32,60.4z"
		/>
	<path fill="none" d="M88,31v-2.9c0-1.7-2.3-4.1-4-4.1l-44,0.1v-12c0-1.7-2.3-4-4-4L11.9,8C10.2,8,8,10.2,8,11.9V31H88z"/>
	<path fill="none" d="M8,39v45.2c0,1.4,2.2,3.8,3.9,3.8H84c1.7,0,4-2.3,4-4.1V39H8z M75.9,80c0-5.3-6.3-11.2-12-11.2
		c-5.7,0-12,5.8-12,11.2h-0.1H44h-0.1c0-5.3-6.3-11.2-12-11.2c-5.7,0-12,5.8-12,11.2h-8c0-6.5,4.4-12.8,10.4-16.4
		c-1.6-2.1-2.6-4.6-2.6-7.4C19.8,49.5,25.2,44,32,44c6.7,0,12.2,5.5,12.2,12.2c0,2.8-1,5.4-2.6,7.4c2.5,1.5,4.7,3.4,6.4,5.7
		c1.7-2.2,3.9-4.2,6.4-5.7c-1.6-2.1-2.6-4.6-2.6-7.4C51.8,49.5,57.3,44,64,44c6.7,0,12.2,5.5,12.2,12.2c0,2.8-1,5.4-2.6,7.4
		c5.9,3.5,10.4,9.9,10.4,16.4H75.9z"/>
	<path d="M84,16l-36,0.1v-4c0-6.2-5.8-12-12-12L11.9,0C5.7,0,0,5.7,0,11.9v72.3C0,90.3,5.8,96,11.9,96H84c6.2,0,12-5.9,12-12.1V28.1
		C96,22,90,16,84,16z M11.9,8L36,8.1c1.7,0,4,2.3,4,4v12L84,24c1.7,0,4,2.4,4,4.1V31H8V11.9C8,10.2,10.2,8,11.9,8z M84,88H11.9
		C10.2,88,8,85.7,8,84.2V39h80v44.9C88,85.7,85.8,88,84,88z"/>
	<path d="M73.6,63.6c1.6-2.1,2.6-4.6,2.6-7.4C76.2,49.5,70.7,44,64,44c-6.7,0-12.2,5.5-12.2,12.2c0,2.8,1,5.4,2.6,7.4
		c-2.5,1.5-4.7,3.4-6.4,5.7c-1.7-2.2-3.9-4.2-6.4-5.7c1.6-2.1,2.6-4.6,2.6-7.4C44.1,49.5,38.7,44,32,44c-6.7,0-12.2,5.5-12.2,12.2
		c0,2.8,1,5.4,2.6,7.4C16.4,67.2,12,73.5,12,80h8c0-5.3,6.3-11.2,12-11.2c5.7,0,12,5.8,12,11.2H44h7.9H52c0-5.3,6.3-11.2,12-11.2
		c5.7,0,12,5.8,12,11.2h8C83.9,73.5,79.5,67.2,73.6,63.6z M32,52c2.3,0,4.2,1.9,4.2,4.2c0,2.3-1.9,4.2-4.2,4.2
		c-2.3,0-4.2-1.9-4.2-4.2C27.8,53.9,29.6,52,32,52z M64,52c2.3,0,4.2,1.9,4.2,4.2c0,2.3-1.9,4.2-4.2,4.2c-2.3,0-4.2-1.9-4.2-4.2
		C59.8,53.9,61.7,52,64,52z"/>
</g>
</svg>
