<?xml version="1.0" encoding="utf-8"?>
<!-- Generator: Adobe Illustrator 18.0.0, SVG Export Plug-In . SVG Version: 6.00 Build 0)  -->
<!DOCTYPE svg PUBLIC "-//W3C//DTD SVG 1.1//EN" "http://www.w3.org/Graphics/SVG/1.1/DTD/svg11.dtd">
<svg version="1.1" id="Layer_1" xmlns="http://www.w3.org/2000/svg" xmlns:xlink="http://www.w3.org/1999/xlink" x="0px" y="0px"
	 viewBox="0 0 96 96" enable-background="new 0 0 96 96" xml:space="preserve">
<g>
	<g>
		<path d="M48,92L48,92c-3.4,0-6.7,0-8.3,0C28.7,92,0,85.5,0,56c0-7.9,3.4-18,8-24c-0.7-5.4-0.6-16.6,2.7-24.7L12,4l3.4,0.9
			C16,5,28,8.2,35.9,16c3.2-0.4,7.7-0.5,12.1-0.5c5.6,0,9.4,0.2,12.1,0.5c8-7.8,20-11,20.5-11.1L84,4l1.3,3.3
			c2.3,5.7,2.9,12.1,3,16.5c0.1,2.7,0,5.9-0.3,8.3c4.6,6,8,16.1,8,24.1C96,85.6,67.4,92,56.3,92C54.7,92,51.4,92,48,92z M16.1,31.7
			l0.9,2.2l-1.7,1.9C11.8,39.6,8,48.6,8,56c0,27.7,31.4,28,31.7,28c1.6,0,4.9,0,8.3,0c3.4,0,6.7,0,8.3,0c3.6,0,11.6-1,18.6-5
			C83.6,74.2,88,66.5,88,56.1c0-6.6-3.4-16.1-7.3-20.3L79,34l0.9-2.2c0.5-1.8,1-10.5-0.9-17.9c-4,1.5-10.5,4.5-14.5,9.2l-1.7,1.9
			l-2.4-0.7c-1.7-0.5-5.9-0.7-12.4-0.7c-3.3,0-10.1,0-12.4,0.7l-2.4,0.7l-1.7-1.9C27.4,18.3,21,15.3,17,13.8
			C15.1,21.3,15.6,29.9,16.1,31.7z"/>
	</g>
	<g>
		<path d="M68,56c0,2.2-1.7,4-3.9,4c-2.2,0-4-1.8-4-4c0-2.2,1.8-3.9,4-3.9C66.3,52.1,68,53.8,68,56z"/>
	</g>
	<g>
		<path d="M36,56c0,2.2-1.7,4-3.9,4c-2.2,0-4-1.8-4-4c0-2.2,1.8-3.9,4-3.9C34.3,52.1,36,53.8,36,56z"/>
	</g>
	<g>
		<g>
			<path d="M64.9,40.1v8c3.4,0,4.1,0.7,4.4,1c2.2,2.2,2.5,5.1,2.5,6.7c0,7-2.4,8.8-4.7,9.9c-4.4,2.2-12.1,2.5-19,2.5h-0.3
				c-6.9,0-14.6-0.3-19-2.5c-2.3-1.1-4.7-2.9-4.7-9.9c0-2.4,1-4.7,2.8-6.5c0.3-0.3,1.1-1.1,4.7-1.1c1.9,0,4.1,0.2,6.5,0.4
				c2.9,0.3,6.2,0.5,9.8,0.5c0,0,0.1,0,0.1,0c0,0,0.1,0,0.1,0c3.6,0,7.1-0.3,10.1-0.6c2.4-0.2,4.8-0.4,6.7-0.4L64.9,40.1 M64.9,40.1
				c-4.9,0-10.6,1.1-16.8,1.1c0,0-0.1,0-0.1,0c0,0-0.1,0-0.1,0c-6,0-11.5-0.9-16.2-0.9c-4.1,0-7.6,0.7-10.3,3.3
				c-3.5,3.4-5.2,7.8-5.2,12.2c0,18.4,13.9,20.4,31.7,20.4h0.3c17.8,0,31.7-2,31.7-20.4c0-4.4-1.5-9-4.9-12.4
				C72.3,40.8,68.9,40.1,64.9,40.1L64.9,40.1z"/>
		</g>
	</g>
</g>
</svg>
