<?xml version="1.0" encoding="utf-8"?>
<!-- Generator: Adobe Illustrator 18.0.0, SVG Export Plug-In . SVG Version: 6.00 Build 0)  -->
<!DOCTYPE svg PUBLIC "-//W3C//DTD SVG 1.1//EN" "http://www.w3.org/Graphics/SVG/1.1/DTD/svg11.dtd">
<svg version="1.1" id="Layer_1" xmlns="http://www.w3.org/2000/svg" xmlns:xlink="http://www.w3.org/1999/xlink" x="0px" y="0px"
	 viewBox="0 0 96 96" enable-background="new 0 0 96 96" xml:space="preserve">
<g>
	<path fill="none" d="M45.2,9.3L24,30.2V88h12V52c0-2.2,1.8-4,4-4h16c2.2,0,4,1.8,4,4v36h12V30.2L50.8,9.3
		C49.3,7.7,46.8,7.7,45.2,9.3z"/>
	<path d="M94.8,41.3L56.5,3.6C51.8-1,44.2-1,39.6,3.6L1.3,41.4l5.6,5.7l9.1-9V92c0,2.2,1.8,4,4,4h20c2.2,0,4-1.8,4-4V56h8v36
		c0,2.2,1.8,4,4,4h20c2.2,0,3.9-1.8,3.9-4V38l9.2,9L94.8,41.3z M72,88H60V52c0-2.2-1.7-4-4-4H40c-2.2,0-4,1.8-4,4v36H24V30.2
		L45.2,9.3c1.5-1.6,4-1.6,5.6,0L72,30.2V88z"/>
</g>
</svg>
