<?xml version="1.0" encoding="utf-8"?>
<!-- Generator: Adobe Illustrator 18.1.0, SVG Export Plug-In . SVG Version: 6.00 Build 0)  -->
<svg version="1.1" id="Layer_1" xmlns="http://www.w3.org/2000/svg" xmlns:xlink="http://www.w3.org/1999/xlink" x="0px" y="0px"
	 viewBox="0 0 512 512" enable-background="new 0 0 512 512" xml:space="preserve">
<path fill="#010101" d="M512.9,260.2L296.6,44c-21.2-21.2-58.3-21.2-79.6,0L0.9,260.2l21.7,21.7l75.1-75.1v261.5
	c0,8.5,6.9,15.3,15.3,15.3h101.7c8.5,0,15.3-6.9,15.3-15.3V313.1h53.8v155.2c0,8.5,6.9,15.3,15.3,15.3h101.7
	c8.5,0,15.3-6.9,15.3-15.3V206.8l75.1,75.1L512.9,260.2z M385.4,453h-71.1V297.8c0-8.5-6.9-15.3-15.3-15.3h-84.4
	c-8.5,0-15.3,6.9-15.3,15.3V453h-71V176.1L238.7,65.6c9.7-9.7,26.5-9.7,36.2,0l110.5,110.5V453z"/>
</svg>
