<?xml version="1.0" encoding="utf-8"?>
<!-- Generator: Adobe Illustrator 18.0.0, SVG Export Plug-In . SVG Version: 6.00 Build 0)  -->
<!DOCTYPE svg PUBLIC "-//W3C//DTD SVG 1.1//EN" "http://www.w3.org/Graphics/SVG/1.1/DTD/svg11.dtd">
<svg version="1.1" id="Layer_1" xmlns="http://www.w3.org/2000/svg" xmlns:xlink="http://www.w3.org/1999/xlink" x="0px" y="0px"
	 viewBox="0 0 96 96" enable-background="new 0 0 96 96" xml:space="preserve">
<g>
	<circle cx="72.3" cy="48" r="8"/>
	<path d="M71.9,31.9C80.8,31.9,88,39.1,88,48s-7.2,16.1-16.1,16.1c-6,0-11.2-3.3-14-8.1l-9.7,0l-8-6l-8,6l-7.8-6l-7.9,6l-0.3,0L8,50
		l8-6l37.3,0l2.9,0C58,37.1,64.3,31.9,71.9,31.9 M71.9,23.9c-8.8,0-16.7,4.8-20.9,12.1l-34.9,0c0,0,0,0,0,0c-1.7,0-3.4,0.5-4.8,1.6
		l-8,6c-2,1.5-3.2,3.9-3.2,6.4s1.2,4.9,3.2,6.4l8.1,6c1.4,1,3.1,1.5,4.8,1.5c0,0,0.1,0,0.1,0l0.3,0c1.7,0,3.4-0.6,4.8-1.6l3-2.3
		l3,2.3c1.4,1.1,3.2,1.7,4.9,1.7c1.7,0,3.4-0.5,4.8-1.6l3.2-2.4l3.2,2.4c1.4,1,3.1,1.6,4.8,1.6l5.6,0c4.5,5.1,11.1,8.1,18,8.1
		C85.2,72.2,96,61.3,96,48S85.2,23.9,71.9,23.9L71.9,23.9z"/>
</g>
</svg>
