<?xml version="1.0" encoding="iso-8859-1"?>
<!-- Generator: Adobe Illustrator 16.0.0, SVG Export Plug-In . SVG Version: 6.00 Build 0)  -->
<!DOCTYPE svg PUBLIC "-//W3C//DTD SVG 1.1//EN" "http://www.w3.org/Graphics/SVG/1.1/DTD/svg11.dtd">
<svg version="1.1" id="Layer_1" xmlns="http://www.w3.org/2000/svg" xmlns:xlink="http://www.w3.org/1999/xlink" x="0px" y="0px"
	 width="512px" height="512px" viewBox="0 0 512 512" style="enable-background:new 0 0 512 512;" xml:space="preserve">
<g>
	<path d="M381.186,358.372c-40.111,0-74.741-23.11-91.52-56.739H242.37l-39.537-39.52l-39.537,39.52h-9.148l-39.537-39.52
		l-39.537,39.52h-2.333l-44.296-42.186l44.296-42.187h213.741c15.26-37.315,51.889-63.629,94.703-63.629
		c56.536,0,102.37,45.853,102.37,102.37S437.722,358.372,381.186,358.372 M381.186,386.816c72.13,0,130.814-58.685,130.814-130.814
		s-58.685-130.814-130.815-130.816c-46.667,0-88.87,24.426-112.223,63.631H72.74c-7.296,0-14.333,2.795-19.611,7.832L8.833,238.844
		C3.186,244.215,0,251.659,0,259.445c0,7.787,3.186,15.232,8.833,20.604l44.298,42.184c5.278,5.037,12.315,7.844,19.611,7.844h2.333
		c7.537,0,14.778-3,20.111-8.324l19.426-19.417l19.426,19.417c5.333,5.324,12.574,8.324,20.111,8.324h9.148
		c7.537,0,14.778-3,20.111-8.324l19.426-19.417l19.426,19.417c5.333,5.324,12.574,8.324,20.111,8.324h31.092
		C297.648,365.464,337.482,386.816,381.186,386.816L381.186,386.816z"/>
	<path d="M380.333,286.409c16.815,0,30.445-13.593,30.445-30.407s-13.63-30.407-30.445-30.407
		c-16.777,0-30.406,13.593-30.406,30.407S363.556,286.409,380.333,286.409L380.333,286.409z"/>
</g>
</svg>
