<?xml version="1.0" encoding="utf-8"?>
<!-- Generator: Adobe Illustrator 18.0.0, SVG Export Plug-In . SVG Version: 6.00 Build 0)  -->
<!DOCTYPE svg PUBLIC "-//W3C//DTD SVG 1.1//EN" "http://www.w3.org/Graphics/SVG/1.1/DTD/svg11.dtd">
<svg version="1.1" id="Layer_1" xmlns="http://www.w3.org/2000/svg" xmlns:xlink="http://www.w3.org/1999/xlink" x="0px" y="0px"
	 viewBox="0 0 96 96" enable-background="new 0 0 96 96" xml:space="preserve">
<g>
	<polygon fill="none" points="29.9,60.2 15.2,45.2 8,37.8 8,83.5 	"/>
	<polygon fill="none" points="82.3,44 82.3,44 81,45.2 66.2,60.2 88,83.2 88,37.9 	"/>
	<path fill="none" d="M60.6,65.8l-8.3,8.4C51.1,75.4,49.6,76,48,76c0,0,0,0,0,0c-1.6,0-3.1-0.6-4.3-1.7l-6-6.1
		c-0.1-0.1-0.3-0.2-0.4-0.3L35.5,66L14.8,88h66.7L60.6,65.8z"/>
	<path fill="none" d="M43.6,62.5c1.3,1.1,2.8,1.5,4.4,1.5h0c1.9,0,3.6-0.6,5.1-2.1L74,40.5l0-0.1V9.5C74,8.7,73.6,8,72.8,8H23.2
		C22.4,8,22,8.7,22,9.5v30.8L43.6,62.5z M32,13h32v8H32V13z M32,29h32v8H32V29z"/>
	<path d="M86.4,28H82V9.5C82,4.3,78,0,72.8,0H23.2C18,0,14,4.3,14,9.5V28H9.5C4.3,28,0,32.2,0,37.4v49.1C0,91.8,4.3,96,9.5,96h76.9
		c5.2,0,9.6-4.2,9.6-9.5V37.4C96,32.2,91.7,28,86.4,28z M15.2,45.2l14.7,15.1L8,83.5V37.8L15.2,45.2z M35.5,66l1.9,1.9
		c0.1,0.1,0.3,0.2,0.4,0.3l6,6c1.1,1.2,2.6,1.7,4.3,1.7c0,0,0,0,0,0c1.6,0,3.1-0.6,4.3-1.7l8.3-8.5L81.5,88H14.8L35.5,66z
		 M66.2,60.1L81,45.2l1.3-1.2h0l5.7-6.1v45.3L66.2,60.1z M23.2,8h49.5C73.6,8,74,8.7,74,9.5v30.9l0,0.2L53,61.9
		c-1.5,1.5-3.3,2.1-5.1,2.1h0c-1.6,0-3-0.4-4.3-1.5L22,40.4V9.5C22,8.7,22.4,8,23.2,8z"/>
	<rect x="32" y="13" width="32" height="8"/>
	<rect x="32" y="29" width="32" height="8"/>
</g>
</svg>
