<?xml version="1.0" encoding="iso-8859-1"?>
<!-- Generator: Adobe Illustrator 16.0.0, SVG Export Plug-In . SVG Version: 6.00 Build 0)  -->
<!DOCTYPE svg PUBLIC "-//W3C//DTD SVG 1.1//EN" "http://www.w3.org/Graphics/SVG/1.1/DTD/svg11.dtd">
<svg version="1.1" id="Layer_1" xmlns="http://www.w3.org/2000/svg" xmlns:xlink="http://www.w3.org/1999/xlink" x="0px" y="0px"
	 width="512px" height="512px" viewBox="0 0 512 512" style="enable-background:new 0 0 512 512;" xml:space="preserve">
<path d="M436.706,115.47H217.411c-41.51,0-75.293,33.775-75.293,75.294v4.647H75.294C33.784,195.412,0,229.186,0,270.705v50.529
	c0,41.511,33.784,75.295,75.294,75.295h219.294c41.511,0,75.294-33.784,75.294-75.295v-4.666h66.824
	c41.51,0,75.294-33.765,75.294-75.284v-50.52C512,149.245,478.216,115.47,436.706,115.47z M339.765,321.234
	c0,24.902-20.274,45.178-45.177,45.178H75.294c-24.902,0-45.176-20.275-45.176-45.178v-50.529c0-24.911,20.273-45.176,45.176-45.176
	h66.824v15.755c0,41.52,33.783,75.284,75.293,75.284h122.354V321.234z M339.765,286.451H217.411
	c-24.901,0-45.176-20.256-45.176-45.167v-15.755h122.353c24.902,0,45.177,20.265,45.177,45.176V286.451z M481.882,241.284
	c0,24.911-20.273,45.167-45.176,45.167h-66.824v-15.746c0-41.519-33.783-75.293-75.294-75.293H172.235v-4.647
	c0-24.912,20.274-45.177,45.176-45.177h219.295c24.902,0,45.176,20.265,45.176,45.177V241.284z"/>
</svg>
