<?xml version="1.0" encoding="utf-8"?>
<!-- Generator: Adobe Illustrator 18.0.0, SVG Export Plug-In . SVG Version: 6.00 Build 0)  -->
<!DOCTYPE svg PUBLIC "-//W3C//DTD SVG 1.1//EN" "http://www.w3.org/Graphics/SVG/1.1/DTD/svg11.dtd">
<svg version="1.1" id="Layer_1" xmlns="http://www.w3.org/2000/svg" xmlns:xlink="http://www.w3.org/1999/xlink" x="0px" y="0px"
	 viewBox="0 0 96 96" enable-background="new 0 0 96 96" xml:space="preserve">
<g>
	<path fill="none" d="M56.1,40H36v4.1c0,2.2,1.8,3.9,4,3.9h20v-4.1C60,41.8,58.2,40,56.1,40z"/>
	<path fill="none" d="M28,44.1V40H12c-2.2,0-4,1.8-4,3.9v16.2c0,2.2,1.8,3.8,4,3.8h44.1c2.2,0,3.9-1.7,3.9-3.8V56H40
		C33.4,56,28,50.6,28,44.1z"/>
	<path fill="none" d="M84.1,24H40c-2.2,0-4,1.8-4,4v4h20.1C62.6,32,68,37.4,68,43.9V48h16.1c2.2,0,3.9-1.8,3.9-3.9V28
		C88,25.8,86.3,24,84.1,24z"/>
	<path d="M84.1,16H40c-6.6,0-12,5.4-12,12v4H12C5.4,32,0,37.4,0,43.9v16.2C0,66.8,5.4,72,12,72h44.1C62.6,72,68,66.8,68,60.2V56
		h16.1C90.7,56,96,50.6,96,44.1V28C96,21.4,90.7,16,84.1,16z M60,60.2c0,2.2-1.8,3.8-3.9,3.8H12c-2.2,0-4-1.7-4-3.8V43.9
		c0-2.2,1.8-3.9,4-3.9h16v4.1C28,50.6,33.4,56,40,56h20V60.2z M60,48H40c-2.2,0-4-1.8-4-3.9V40h20.1c2.2,0,3.9,1.8,3.9,3.9V48z
		 M88,44.1c0,2.2-1.7,3.9-3.9,3.9H68v-4.1C68,37.4,62.6,32,56.1,32H36v-4c0-2.2,1.8-4,4-4h44.1c2.2,0,3.9,1.8,3.9,4V44.1z"/>
</g>
</svg>
