<?xml version="1.0" encoding="iso-8859-1"?>
<!-- Generator: Adobe Illustrator 16.0.0, SVG Export Plug-In . SVG Version: 6.00 Build 0)  -->
<!DOCTYPE svg PUBLIC "-//W3C//DTD SVG 1.1//EN" "http://www.w3.org/Graphics/SVG/1.1/DTD/svg11.dtd">
<svg version="1.1" id="Layer_1" xmlns="http://www.w3.org/2000/svg" xmlns:xlink="http://www.w3.org/1999/xlink" x="0px" y="0px"
	 width="512px" height="512px" viewBox="0 0 512 512" style="enable-background:new 0 0 512 512;" xml:space="preserve">
<g>
	<g>
		<path d="M24.423,201.261c-4.021,0-7.937-1.625-10.812-4.594c-3.812-3.927-5.188-9.624-3.583-14.863
			c19.957-65.517,64.246-119.337,124.7-151.543C195.184-1.956,264.554-8.684,330.07,11.284
			c84.058,25.602,148.429,91.494,172.24,176.229l-28.999,8.135c-20.998-74.798-77.828-132.961-152.032-155.563
			c-57.809-17.593-119.034-11.666-172.405,16.76C103.938,80.79,69.107,118.277,48.713,164.076l69.704-18.738l7.833,29.082
			l-97.91,26.321C27.048,201.094,25.735,201.261,24.423,201.261z"/>
	</g>
	<g>
		<path d="M256.555,511.981c-24.707,0-49.81-3.594-74.621-11.166C97.877,475.202,33.485,409.331,9.695,324.597l28.997-8.135
			c20.999,74.798,77.829,132.939,152.012,155.553c109.743,33.478,225.716-20.937,271.963-122.69l-73.037,22.479l-8.875-28.78
			l102.39-31.508c5.312-1.656,11.104-0.209,15.062,3.718c3.938,3.948,5.396,9.729,3.771,15.062
			C468.333,440.725,366.423,511.981,256.555,511.981z"/>
	</g>
</g>
</svg>
