<?xml version="1.0" encoding="iso-8859-1"?>
<!-- Generator: Adobe Illustrator 16.0.0, SVG Export Plug-In . SVG Version: 6.00 Build 0)  -->
<!DOCTYPE svg PUBLIC "-//W3C//DTD SVG 1.1//EN" "http://www.w3.org/Graphics/SVG/1.1/DTD/svg11.dtd">
<svg version="1.1" id="Layer_1" xmlns="http://www.w3.org/2000/svg" xmlns:xlink="http://www.w3.org/1999/xlink" x="0px" y="0px"
	 width="512px" height="512px" viewBox="0 0 512 512" style="enable-background:new 0 0 512 512;" xml:space="preserve">
<g>
	<g>
		<path d="M255.424,511.987c-55.048,0-108.368-17.697-153.167-51.331c-54.674-41.049-90.088-100.92-99.723-168.614
			C-8.893,211.683,18.98,129.75,77.102,72.889l21.061,21.53c-51.288,50.185-75.891,122.472-65.798,193.384
			c17.541,123.284,132.159,209.436,255.412,191.76c59.725-8.49,112.565-39.717,148.792-87.953
			c36.228-48.237,51.497-107.682,42.997-167.406c-8.488-59.727-39.736-112.557-87.973-148.783
			c-41.186-30.914-90.568-46.539-141.273-45.195l41.768,55.893l-24.145,18.02l-57.976-77.6c-3.177-4.26-3.885-9.885-1.833-14.79
			c2.042-4.906,6.521-8.374,11.78-9.135c67.6-9.624,135.075,7.666,189.749,48.726c54.685,41.05,90.099,100.932,99.724,168.625
			c9.623,67.684-7.678,135.064-48.737,189.729c-41.05,54.663-100.942,90.067-168.646,99.702
			C279.787,511.123,267.559,511.987,255.424,511.987z"/>
	</g>
</g>
</svg>
