<?xml version="1.0" encoding="utf-8"?>
<!-- Generator: Adobe Illustrator 18.0.0, SVG Export Plug-In . SVG Version: 6.00 Build 0)  -->
<!DOCTYPE svg PUBLIC "-//W3C//DTD SVG 1.1//EN" "http://www.w3.org/Graphics/SVG/1.1/DTD/svg11.dtd">
<svg version="1.1" id="Layer_1" xmlns="http://www.w3.org/2000/svg" xmlns:xlink="http://www.w3.org/1999/xlink" x="0px" y="0px"
	 viewBox="0 0 96 96" enable-background="new 0 0 96 96" xml:space="preserve">
<g>
	<path d="M5.7,40c-1.1,0-2.2-0.5-3-1.3c-0.9-1-1.3-2.4-0.9-3.8C7.7,14.4,26.6,0,48,0c0,0,0,0,0,0c21.4,0,40.4,14.4,46.2,34.9
		l-7.7,2.2C81.7,20,65.9,8,48,8c0,0,0,0,0,0c-15.6,0-29.6,9.1-36.1,22.8l15.4-2.8l1.4,7.9l-22.3,4C6.2,40,5.9,40,5.7,40z"/>
</g>
<g>
	<path d="M48,95.9C48,95.9,48,95.9,48,95.9c-21.4,0-40.3-14.3-46.2-34.8l7.7-2.2c4.9,17.1,20.7,29,38.4,29c0,0,0,0,0,0
		c15.5,0,29.5-9.1,36.1-22.8l-15.4,2.8l-1.4-7.9l22.3-4c1.4-0.2,2.7,0.2,3.7,1.3s1.3,2.5,0.9,3.8C88.4,81.6,69.4,95.9,48,95.9z"/>
</g>
</svg>
