<?xml version="1.0" encoding="utf-8"?>
<!-- Generator: Adobe Illustrator 18.0.0, SVG Export Plug-In . SVG Version: 6.00 Build 0)  -->
<!DOCTYPE svg PUBLIC "-//W3C//DTD SVG 1.1//EN" "http://www.w3.org/Graphics/SVG/1.1/DTD/svg11.dtd">
<svg version="1.1" id="Layer_1" xmlns="http://www.w3.org/2000/svg" xmlns:xlink="http://www.w3.org/1999/xlink" x="0px" y="0px"
	 viewBox="0 0 96 96" enable-background="new 0 0 96 96" xml:space="preserve">
<g>
	<g>
		<path d="M48,96C24.5,96,3.9,78.7,0.5,54.8c-2.1-14.5,2.5-29,12.6-39.7l5.8,5.5c-8.4,8.9-12.2,21-10.5,33.1
			c3.1,21.8,23.4,37.1,45.2,34c10.6-1.5,19.9-7,26.3-15.6s9.1-19.1,7.6-29.6C84.8,22.8,68.3,8.4,48.9,8l6.4,9.8l-6.7,4.4L38.5,6.6
			c-0.8-1.1-0.9-2.6-0.3-3.8c0.6-1.2,1.7-2.1,3.1-2.3c0.8-0.1,1.6-0.2,2.4-0.3c25.5-2.4,48.3,15.7,51.9,41
			c1.8,12.7-1.4,25.3-9.1,35.6S67.5,93.7,54.8,95.5C52.5,95.8,50.2,96,48,96z"/>
	</g>
</g>
</svg>
