<?xml version="1.0" encoding="utf-8"?>
<!-- Generator: Adobe Illustrator 18.0.0, SVG Export Plug-In . SVG Version: 6.00 Build 0)  -->
<!DOCTYPE svg PUBLIC "-//W3C//DTD SVG 1.1//EN" "http://www.w3.org/Graphics/SVG/1.1/DTD/svg11.dtd">
<svg version="1.1" id="Layer_1" xmlns="http://www.w3.org/2000/svg" xmlns:xlink="http://www.w3.org/1999/xlink" x="0px" y="0px"
	 viewBox="0 0 96 96" enable-background="new 0 0 96 96" xml:space="preserve">
<g>
	<path fill="#FFFFFF" d="M43.9,82.1c-11,0-20-9-20-20V24c0-11,9-20,20-20h8.2c11,0,20,9,20,20v38.1c0,11-9,20-20,20H43.9z"/>
	<path d="M52.1,8c8.8,0,16,7.2,16,16v38.1c0,8.8-7.2,16-16,16h-8.2c-8.8,0-16-7.2-16-16V24c0-8.8,7.2-16,16-16H52.1 M52.1,0h-8.2
		c-13.2,0-24,10.8-24,24v38.1c0,13.2,10.8,24,24,24h8.2c13.2,0,24-10.8,24-24V24C76.1,10.8,65.3,0,52.1,0L52.1,0z"/>
</g>
<g>
	<path fill="#FFFFFF" d="M13,92c-2.8,0-5-2.2-5-5V41c0-2.8,2.2-5,5-5h70.1c2.8,0,5,2.2,5,5v46c0,2.8-2.2,5-5,5H13z"/>
	<g>
		<path d="M83.1,40c0.6,0,1,0.5,1,1v46c0,0.6-0.4,1-1,1H13c-0.6,0-1-0.4-1-1V41c0-0.5,0.4-1,1-1H83.1 M83.1,32H13c-5,0-9,4-9,9v46
			c0,5,4,9,9,9h70.1c5,0,9-4,9-9V41C92.1,36,88,32,83.1,32L83.1,32z"/>
	</g>
</g>
<line fill="#FFFFFF" stroke="#000000" stroke-width="8" stroke-miterlimit="10" x1="28" y1="56" x2="68.1" y2="56"/>
<line fill="#FFFFFF" stroke="#000000" stroke-width="8" stroke-miterlimit="10" x1="28" y1="72" x2="68.1" y2="72"/>
</svg>
