<?xml version="1.0" encoding="iso-8859-1"?>
<!-- Generator: Adobe Illustrator 16.0.0, SVG Export Plug-In . SVG Version: 6.00 Build 0)  -->
<!DOCTYPE svg PUBLIC "-//W3C//DTD SVG 1.1//EN" "http://www.w3.org/Graphics/SVG/1.1/DTD/svg11.dtd">
<svg version="1.1" id="Layer_1" xmlns="http://www.w3.org/2000/svg" xmlns:xlink="http://www.w3.org/1999/xlink" x="0px" y="0px"
	 width="512px" height="512px" viewBox="0 0 512 512" style="enable-background:new 0 0 512 512;" xml:space="preserve">
<g>
	<g>
		<path d="M431.042,190.25h-23.667v-72.917C407.375,52.625,354.75,0,290.042,0h-68.083C157.25,0,104.625,52.625,104.625,117.333
			v72.917H80.959c-29.417,0-53.334,23.917-53.334,53.333v215.083c0,29.417,23.917,53.334,53.334,53.334h350.083
			c29.417,0,53.333-23.917,53.333-53.334V243.583C484.375,214.167,460.459,190.25,431.042,190.25z M136.625,117.333
			c0-46.938,38.396-85.333,85.334-85.333h68.083c46.938,0,85.333,38.396,85.333,85.333v72.917h-238.75V117.333z M452.375,458.666
			c0,11.729-9.604,21.334-21.333,21.334H80.959c-11.729,0-21.334-9.604-21.334-21.334V243.583c0-11.729,9.604-21.333,21.334-21.333
			h350.083c11.729,0,21.333,9.604,21.333,21.333V458.666z"/>
	</g>
	<g>
		<rect x="147.521" y="292.5" width="222.291" height="32"/>
	</g>
	<g>
		<rect x="147.521" y="383.5" width="222.291" height="32"/>
	</g>
</g>
</svg>
