<?xml version="1.0" encoding="utf-8"?>
<!-- Generator: Adobe Illustrator 18.0.0, SVG Export Plug-In . SVG Version: 6.00 Build 0)  -->
<!DOCTYPE svg PUBLIC "-//W3C//DTD SVG 1.1//EN" "http://www.w3.org/Graphics/SVG/1.1/DTD/svg11.dtd">
<svg version="1.1" id="Layer_1" xmlns="http://www.w3.org/2000/svg" xmlns:xlink="http://www.w3.org/1999/xlink" x="0px" y="0px"
	 viewBox="0 0 96 96" enable-background="new 0 0 96 96" xml:space="preserve">
<g>
	<g>
		<path d="M48,96.1L19.9,67.9c-15.5-15.5-15.5-40.8,0-56.3C27.4,4.1,37.4,0,48,0c10.6,0,20.6,4.1,28.1,11.7
			c7.5,7.5,11.7,17.5,11.7,28.1s-4.1,20.6-11.7,28.1L48,96.1z M48,8c-8.5,0-16.5,3.3-22.5,9.3c-12.4,12.4-12.4,32.6,0,45L48,84.7
			l22.5-22.5c6-6,9.3-14,9.3-22.5s-3.3-16.5-9.3-22.5C64.5,11.3,56.5,8,48,8z"/>
	</g>
	<g>
		<path d="M48,56c-8.8,0-16-7.2-16-16s7.2-16,16-16s16,7.2,16,16S56.8,56,48,56z M48,32c-4.4,0-8,3.6-8,8s3.6,8,8,8s8-3.6,8-8
			S52.4,32,48,32z"/>
	</g>
</g>
</svg>
