<?xml version="1.0" encoding="utf-8"?>
<!-- Generator: Adobe Illustrator 18.0.0, SVG Export Plug-In . SVG Version: 6.00 Build 0)  -->
<!DOCTYPE svg PUBLIC "-//W3C//DTD SVG 1.1//EN" "http://www.w3.org/Graphics/SVG/1.1/DTD/svg11.dtd">
<svg version="1.1" id="Layer_1" xmlns="http://www.w3.org/2000/svg" xmlns:xlink="http://www.w3.org/1999/xlink" x="0px" y="0px"
	 viewBox="0 0 96 96" enable-background="new 0 0 96 96" xml:space="preserve">
<g>
	<path fill="none" d="M16,8c-4.4,0-8,3.6-8,8c0,4.4,3.6,8,8,8c4.4,0,8-3.6,8-8C24,11.6,20.4,8,16,8z"/>
	<path fill="none" d="M8,80c0,4.4,3.6,8,8,8c4.4,0,8-3.6,8-8c0-4.4-3.6-8-8-8C11.6,72,8,75.6,8,80z"/>
	<path fill="none" d="M80,72c-4.4,0-8,3.6-8,8c0,4.4,3.6,8,8,8s8-3.6,8-8C88,75.6,84.4,72,80,72z"/>
	<path d="M84,64.5V27.9C84,19.1,76.9,12,68.1,12H46.5l6.3-6.3l-5.7-5.7L32,15.2C31.5,6.8,24.6,0,16,0C7.2,0,0,7.2,0,16
		c0,7.4,5,13.7,12,15.5v33.1C5,66.3,0,72.6,0,80c0,8.8,7.2,16,16,16s16-7.2,16-16c0-7.4-5-13.7-12-15.5V31.5c7-1.7,11.7-7.7,12-14.8
		l15.2,15.2l5.7-5.7L46.6,20h21.4c4.4,0,7.9,3.6,7.9,7.9v36.6c-6.9,1.8-12,8-12,15.5c0,8.8,7.2,16,16,16s16-7.2,16-16
		C96,72.6,90.9,66.3,84,64.5z M24,80c0,4.4-3.6,8-8,8c-4.4,0-8-3.6-8-8c0-4.4,3.6-8,8-8C20.4,72,24,75.6,24,80z M16,24
		c-4.4,0-8-3.6-8-8c0-4.4,3.6-8,8-8c4.4,0,8,3.6,8,8C24,20.4,20.4,24,16,24z M80,88c-4.4,0-8-3.6-8-8c0-4.4,3.6-8,8-8s8,3.6,8,8
		C88,84.4,84.4,88,80,88z"/>
</g>
</svg>
