<?xml version="1.0" encoding="iso-8859-1"?>
<!-- Generator: Adobe Illustrator 16.0.0, SVG Export Plug-In . SVG Version: 6.00 Build 0)  -->
<!DOCTYPE svg PUBLIC "-//W3C//DTD SVG 1.1//EN" "http://www.w3.org/Graphics/SVG/1.1/DTD/svg11.dtd">
<svg version="1.1" id="Layer_1" xmlns="http://www.w3.org/2000/svg" xmlns:xlink="http://www.w3.org/1999/xlink" x="0px" y="0px"
	 width="512px" height="512px" viewBox="0 0 512 512" style="enable-background:new 0 0 512 512;" xml:space="preserve">
<g>
	<path style="fill:none;" d="M84.604,43.705c-25.965,0-47.082,21.106-47.082,47.06c0,25.954,21.117,47.071,47.082,47.071
		c25.942,0,47.037-21.117,47.037-47.071C131.641,64.811,110.546,43.705,84.604,43.705z"/>
	<path style="fill:none;" d="M37.477,430.471c0,25.965,21.117,47.06,47.082,47.06s47.082-21.095,47.082-47.06
		s-21.117-47.06-47.082-47.06S37.477,404.506,37.477,430.471z"/>
	<path style="fill:none;" d="M427.463,383.411c-25.941,0-47.037,21.095-47.037,47.06s21.096,47.06,47.037,47.06
		c25.943,0,47.061-21.095,47.061-47.06S453.406,383.411,427.463,383.411z"/>
	<path d="M445.326,351.051V159.67c0-47.52-38.666-86.175-86.174-86.175H217.143l49.125-49.124L241.896,0l-77.153,77.154
		c-6.531-38.465-39.855-67.919-80.139-67.919c-44.973,0-81.552,36.58-81.552,81.529c0,40.26,29.398,73.574,67.817,80.149v179.397
		c-38.441,6.574-67.862,39.878-67.862,80.16c0,44.95,36.579,81.529,81.552,81.529s81.553-36.579,81.553-81.529
		c0-37.725-25.898-69.276-60.771-78.522v-182.65c30.318-8.034,53.702-32.91,59.312-64.148l77.939,77.927l24.371-24.371l-50.74-50.74
		h142.929c28.5,0,51.705,23.193,51.705,51.705v190.976c-37.006,7.697-64.9,40.552-64.9,79.824c0,44.95,36.557,81.529,81.506,81.529
		c44.951,0,81.529-36.579,81.529-81.529C508.992,391.67,481.682,359.219,445.326,351.051z M131.641,430.471
		c0,25.965-21.117,47.06-47.082,47.06s-47.082-21.095-47.082-47.06s21.117-47.06,47.082-47.06S131.641,404.506,131.641,430.471z
		 M84.604,137.835c-25.965,0-47.082-21.117-47.082-47.071c0-25.953,21.117-47.06,47.082-47.06c25.942,0,47.037,21.106,47.037,47.06
		C131.641,116.718,110.546,137.835,84.604,137.835z M427.463,477.53c-25.941,0-47.037-21.095-47.037-47.06
		s21.096-47.06,47.037-47.06c25.943,0,47.061,21.095,47.061,47.06S453.406,477.53,427.463,477.53z"/>
</g>
</svg>
