<?xml version="1.0" encoding="iso-8859-1"?>
<!-- Generator: Adobe Illustrator 16.0.0, SVG Export Plug-In . SVG Version: 6.00 Build 0)  -->
<!DOCTYPE svg PUBLIC "-//W3C//DTD SVG 1.1//EN" "http://www.w3.org/Graphics/SVG/1.1/DTD/svg11.dtd">
<svg version="1.1" id="Layer_1" xmlns="http://www.w3.org/2000/svg" xmlns:xlink="http://www.w3.org/1999/xlink" x="0px" y="0px"
	 width="512px" height="512px" viewBox="0 0 512 512" style="enable-background:new 0 0 512 512;" xml:space="preserve">
<g>
	<g>
		<path d="M256,511.984c-141.138,0-255.984-114.827-255.984-255.974C0.016,114.862,114.862,0.016,256,0.016
			c141.158,0,255.984,114.847,255.984,255.995C511.984,397.157,397.158,511.984,256,511.984z M256,30.139
			c-124.534,0-225.861,101.327-225.861,225.872c0,124.544,101.327,225.86,225.861,225.86c124.555,0,225.861-101.316,225.861-225.86
			C481.861,131.466,380.555,30.139,256,30.139z"/>
	</g>
	<g>
		<rect x="168.047" y="240.948" width="180.697" height="30.123"/>
	</g>
</g>
</svg>
