<?xml version="1.0" encoding="utf-8"?>
<!-- Generator: Adobe Illustrator 18.0.0, SVG Export Plug-In . SVG Version: 6.00 Build 0)  -->
<!DOCTYPE svg PUBLIC "-//W3C//DTD SVG 1.1//EN" "http://www.w3.org/Graphics/SVG/1.1/DTD/svg11.dtd">
<svg version="1.1" id="Layer_1" xmlns="http://www.w3.org/2000/svg" xmlns:xlink="http://www.w3.org/1999/xlink" x="0px" y="0px"
	 viewBox="0 0 96 96" enable-background="new 0 0 96 96" xml:space="preserve">
<path d="M77.9,20c-7.3,0-13.7,4.4-16.5,10.8l-25.5-9.6c-0.2-4.5-2-8.7-5.2-11.9C27.4,5.9,22.8,4.1,18,4C8.1,4,0.1,12.1,0,22
	c0,9.9,8,18,17.9,18c0,0,0,0,0,0c1,0,2-0.1,2.9-0.3l6.6,19.6c-4.6,3.3-7.6,8.6-7.6,14.6c0,9.9,8,18.1,18,18.1c0,0,0,0,0,0
	c9.9,0,18-8.1,18-18c0-3.5-1-6.9-2.8-9.6L66,51.5c3.2,2.8,7.3,4.5,11.9,4.5c0,0,0,0,0,0c9.9,0,18-8,18-17.9
	C96,28.1,87.9,20.1,77.9,20z M18,32C12.5,32,8,27.5,8,22c0-5.5,4.5-10,10-10c2.7,0,5.2,1,7,2.9C27,16.9,28,19.4,28,22
	C28,27.5,23,32,18,32L18,32z M38,84L38,84c-5.6,0-10.1-4.5-10.1-10c0-5.5,4.5-10,10-10c5.5,0,10,4.5,10,10C48,79.5,43,84,38,84z
	 M47.5,58.7c-2.8-1.7-6-2.8-9.5-2.8c-1,0-2,0.1-3,0.3l-6.6-19.6c2.6-1.9,4.8-4.4,6.1-7.4l25.5,9.5C60,41,60.5,43,61.3,45
	c-0.1,0.1-0.1,0.1-0.2,0.2L47.5,58.7z M78,48L78,48c-5.6,0-10.1-4.5-10.1-10c0-5.5,4.5-10,10-10c5.5,0,10,4.5,10,10
	C88,43.5,83,48,78,48z"/>
</svg>
