<?xml version="1.0" encoding="iso-8859-1"?>
<!-- Generator: Adobe Illustrator 16.0.0, SVG Export Plug-In . SVG Version: 6.00 Build 0)  -->
<!DOCTYPE svg PUBLIC "-//W3C//DTD SVG 1.1//EN" "http://www.w3.org/Graphics/SVG/1.1/DTD/svg11.dtd">
<svg version="1.1" id="Layer_1" xmlns="http://www.w3.org/2000/svg" xmlns:xlink="http://www.w3.org/1999/xlink" x="0px" y="0px"
	 width="512px" height="512px" viewBox="0 0 512 512" style="enable-background:new 0 0 512 512;" xml:space="preserve">
<path d="M417.886,90.677c-42.623,0-78.758,28.55-90.266,67.537l-139.576-41.875c0.081-1.569,0.125-3.148,0.127-4.737
	c0.062-25.145-9.666-48.799-27.394-66.6c-17.729-17.812-41.331-27.645-66.684-27.707c-51.768,0-93.974,42.111-94.078,93.879
	c-0.125,51.883,41.998,94.183,93.891,94.297c0.021,0,0.208,0,0.208,0c6.251,0,12.361-0.619,18.275-1.79l37.843,118.45
	c-25.402,16.823-42.227,45.636-42.306,78.297c-0.041,25.134,9.688,48.778,27.437,66.579c17.728,17.821,41.33,27.644,66.454,27.696
	c0.021,0,0.229,0,0.229,0c51.768,0,93.953-42.123,94.057-93.88c0.056-22.224-7.55-43.279-21.565-60.172l86.503-80.967
	c15.75,11.979,35.373,19.12,56.639,19.167c0.021,0,0.208,0,0.208,0c51.769,0,93.974-42.112,94.099-93.88
	C512.068,133.091,469.967,90.791,417.886,90.677z M93.969,175.577c-17.166-0.031-33.248-6.749-45.352-18.904
	c-12.104-12.146-18.77-28.29-18.728-45.436c0.083-35.32,28.894-64.048,64.35-64.048c17.145,0.031,33.269,6.75,45.372,18.896
	c12.083,12.145,18.729,28.279,18.687,45.444c-0.062,35.321-28.873,64.048-64.184,64.048 M140.436,193.243
	c18.665-10.61,33.369-27.417,41.286-47.596l142.14,42.644c0.684,18.425,6.692,35.518,16.535,49.777l-88.435,82.774
	c-14.782-9.278-31.937-14.263-49.979-14.293c-8.408,0-16.562,1.118-24.326,3.203L140.436,193.243z M201.879,464.81
	c-17.146-0.021-33.228-6.738-45.331-18.884c-12.104-12.155-18.77-28.29-18.728-45.435c0.083-35.321,28.853-64.059,64.35-64.059
	c15.212,0.027,29.614,5.329,41.108,15.006c0.067,0.06,0.135,0.118,0.203,0.176c1.388,1.179,2.742,2.407,4.04,3.713
	c12.104,12.145,18.729,28.279,18.687,45.435c-0.042,35.321-28.853,64.048-64.163,64.048 M417.74,248.969
	c-35.394-0.083-64.121-28.946-64.079-64.34c0.104-35.32,28.915-64.059,64.371-64.059c35.394,0.073,64.1,28.946,64.059,64.34
	c-0.084,35.321-28.895,64.059-64.205,64.059"/>
</svg>
