<?xml version="1.0" encoding="utf-8"?>
<!-- Generator: Adobe Illustrator 18.0.0, SVG Export Plug-In . SVG Version: 6.00 Build 0)  -->
<!DOCTYPE svg PUBLIC "-//W3C//DTD SVG 1.1//EN" "http://www.w3.org/Graphics/SVG/1.1/DTD/svg11.dtd">
<svg version="1.1" id="Layer_1" xmlns="http://www.w3.org/2000/svg" xmlns:xlink="http://www.w3.org/1999/xlink" x="0px" y="0px"
	 viewBox="0 0 96 96" enable-background="new 0 0 96 96" xml:space="preserve">
<g>
	<path d="M48,95.9c-26.4,0-48-21.5-48-48c0-26.4,21.5-48,48-48s48,21.5,48,48C96,74.4,74.5,95.9,48,95.9z M48,8c-22,0-40,17.9-40,40
		c0,22,17.9,40,40,40S88,70,88,48C88,25.9,70,8,48,8z"/>
</g>
<g>
	<path d="M63.2,46.6L39.3,32.5c-1.7-1.1-3.2-0.3-3.2,1.8v27.5c0,2.1,1.4,2.9,3.2,1.8l23.9-14.1c0,0,0.8-0.6,0.8-1.4
		C64,47.2,63.2,46.6,63.2,46.6z"/>
</g>
</svg>
