<?xml version="1.0" encoding="utf-8"?>
<!-- Generator: Adobe Illustrator 18.0.0, SVG Export Plug-In . SVG Version: 6.00 Build 0)  -->
<!DOCTYPE svg PUBLIC "-//W3C//DTD SVG 1.1//EN" "http://www.w3.org/Graphics/SVG/1.1/DTD/svg11.dtd">
<svg version="1.1" id="Layer_1" xmlns="http://www.w3.org/2000/svg" xmlns:xlink="http://www.w3.org/1999/xlink" x="0px" y="0px"
	 viewBox="0 0 96 96" enable-background="new 0 0 96 96" xml:space="preserve">
<g>
	<path d="M48,0C21.5,0,0,21.5,0,48c0,26.5,21.5,48,48,48c26.5,0,48-21.5,48-48C96,21.5,74.5,0,48,0z M48,88C25.9,88,8,70.1,8,48
		C8,25.9,25.9,8,48,8c22.1,0,40,17.9,40,40C88,70.1,70.1,88,48,88z"/>
	<polygon points="52,24 44,24 44,44 24,44 24,52 44,52 44,72 52,72 52,52 72,52 72,44 52,44 	"/>
</g>
</svg>
