<?xml version="1.0" encoding="utf-8"?>
<!-- Generator: Adobe Illustrator 18.0.0, SVG Export Plug-In . SVG Version: 6.00 Build 0)  -->
<!DOCTYPE svg PUBLIC "-//W3C//DTD SVG 1.1//EN" "http://www.w3.org/Graphics/SVG/1.1/DTD/svg11.dtd">
<svg version="1.1" id="Layer_1" xmlns="http://www.w3.org/2000/svg" xmlns:xlink="http://www.w3.org/1999/xlink" x="0px" y="0px"
	 viewBox="0 0 96 96" enable-background="new 0 0 96 96" xml:space="preserve">
<g>
	<g>
		<path d="M48,96.1c-26.5,0-48-21.5-48-48C0,21.6,21.5,0,48,0c26.5,0,48,21.5,48,48C96,74.5,74.5,96.1,48,96.1z M48,8
			C25.9,8,8,26,8,48c0,22.1,18,40,40,40c22.1,0,40-18,40-40C88,26,70.1,8,48,8z"/>
	</g>
	<g>
		<path d="M52,68h-8V52h4c6.6,0,12-5.4,12-12s-5.4-12-12-12s-12,5.4-12,12c0,1.7,0.3,3.3,1,4.8L29.7,48c-1.1-2.5-1.7-5.2-1.7-8
			c0-11,9-20,20-20c11,0,20,9,20,20c0,9.7-6.9,17.7-16,19.6V68z"/>
	</g>
	<g>
		<rect x="44" y="72" width="8" height="8"/>
	</g>
</g>
</svg>
