<?xml version="1.0" encoding="utf-8"?>
<!-- Generator: Adobe Illustrator 18.0.0, SVG Export Plug-In . SVG Version: 6.00 Build 0)  -->
<!DOCTYPE svg PUBLIC "-//W3C//DTD SVG 1.1//EN" "http://www.w3.org/Graphics/SVG/1.1/DTD/svg11.dtd">
<svg version="1.1" id="Layer_1" xmlns="http://www.w3.org/2000/svg" xmlns:xlink="http://www.w3.org/1999/xlink" x="0px" y="0px"
	 viewBox="0 0 96 96" enable-background="new 0 0 96 96" xml:space="preserve">
<g>
	<path d="M48,96C21.5,96,0,74.5,0,48C0,21.6,21.5,0,48,0c26.5,0,48,21.5,48,48C96,74.5,74.5,96,48,96z M48,8C26,8,8,26,8,48
		c0,22,17.9,40,40,40c22,0,40-17.9,40-40C88,26,70,8,48,8z"/>
</g>
<g>
	<rect x="29.4" y="44" transform="matrix(0.7063 0.7079 -0.7079 0.7063 48.0739 -19.8983)" width="37.2" height="8"/>
</g>
<g>
	<rect x="44" y="29.4" transform="matrix(0.7079 0.7063 -0.7063 0.7079 47.9162 -19.8852)" width="8" height="37.2"/>
</g>
</svg>
