<?xml version="1.0" encoding="utf-8"?>
<!-- Generator: Adobe Illustrator 18.0.0, SVG Export Plug-In . SVG Version: 6.00 Build 0)  -->
<!DOCTYPE svg PUBLIC "-//W3C//DTD SVG 1.1//EN" "http://www.w3.org/Graphics/SVG/1.1/DTD/svg11.dtd">
<svg version="1.1" id="Layer_1" xmlns="http://www.w3.org/2000/svg" xmlns:xlink="http://www.w3.org/1999/xlink" x="0px" y="0px"
	 viewBox="0 0 96 96" enable-background="new 0 0 96 96" xml:space="preserve">
<g>
	<path d="M88,88h-8c0-39.7-32.3-72-72-72V8C52.1,8,88,43.9,88,88z"/>
</g>
<g>
	<path d="M64,88h-8c0-26.5-21.5-48-48-48v-8C38.9,32,64,57.2,64,88z"/>
</g>
<g>
	<g>
		<path d="M18,68c5.5,0,10,4.5,10,10c0,5.5-4.5,10-10,10c-5.5,0-10-4.5-10-10C8,72.5,12.5,68,18,68 M18,60C8.1,60,0,68.1,0,78
			c0,9.9,8.1,18,18,18c9.9,0,18-8.1,18-18C36,68.1,27.9,60,18,60L18,60z"/>
	</g>
</g>
</svg>
