<?xml version="1.0" encoding="utf-8"?>
<!-- Generator: Adobe Illustrator 18.0.0, SVG Export Plug-In . SVG Version: 6.00 Build 0)  -->
<!DOCTYPE svg PUBLIC "-//W3C//DTD SVG 1.1//EN" "http://www.w3.org/Graphics/SVG/1.1/DTD/svg11.dtd">
<svg version="1.1" id="Layer_1" xmlns="http://www.w3.org/2000/svg" xmlns:xlink="http://www.w3.org/1999/xlink" x="0px" y="0px"
	 viewBox="0 0 96 96" enable-background="new 0 0 96 96" xml:space="preserve">
<g>
	<path d="M36,72.1c-9.6,0-18.7-3.7-25.5-10.6C3.7,54.7,0,45.7,0,36.1c0-9.6,3.8-18.7,10.6-25.5C17.3,3.8,26.4,0,36,0
		c9.6,0,18.7,3.7,25.5,10.6C68.3,17.4,72,26.4,72,36.1c0,9.6-3.7,18.7-10.6,25.5C54.7,68.3,45.6,72.1,36,72.1z M36,8
		c-7.5,0-14.5,2.9-19.8,8.2C10.9,21.5,8,28.6,8,36.1c0,7.5,2.9,14.5,8.2,19.8c5.3,5.3,12.3,8.2,19.8,8.2c7.5,0,14.5-2.9,19.8-8.2
		c5.3-5.3,8.2-12.3,8.2-19.8c0-7.5-2.9-14.5-8.2-19.8C50.5,10.9,43.5,8,36,8z"/>
</g>
<g>
	<path d="M92,96c-1,0-2-0.4-2.8-1.2L57,62.6c-1.6-1.6-1.6-4.1,0-5.7c1.6-1.6,4.1-1.6,5.7,0l32.2,32.2c1.6,1.6,1.6,4.1,0,5.7
		C94.1,95.6,93.1,96,92,96z"/>
</g>
</svg>
