<?xml version="1.0" encoding="utf-8"?>
<!-- Generator: Adobe Illustrator 18.0.0, SVG Export Plug-In . SVG Version: 6.00 Build 0)  -->
<!DOCTYPE svg PUBLIC "-//W3C//DTD SVG 1.1//EN" "http://www.w3.org/Graphics/SVG/1.1/DTD/svg11.dtd">
<svg version="1.1" id="Layer_1" xmlns="http://www.w3.org/2000/svg" xmlns:xlink="http://www.w3.org/1999/xlink" x="0px" y="0px"
	 viewBox="0 0 96 96" enable-background="new 0 0 96 96" xml:space="preserve">
<g>
	<path d="M48,8c0.1,0,0.2,0.1,0.3,0.4l10.3,29c0.2,0.5,0.8,0.9,1.3,0.9h27.5c0.6,0,0.6,0.3,0.2,0.6L65.2,55.8
		c-0.4,0.3-0.7,1-0.5,1.6l8.1,29.9c0.1,0.3,0,0.5-0.2,0.5c-0.1,0-0.2-0.1-0.4-0.2L48.8,69.8c-0.2-0.2-0.5-0.3-0.8-0.3
		s-0.6,0.1-0.8,0.3L23.8,87.6c-0.2,0.1-0.3,0.2-0.4,0.2c-0.2,0-0.2-0.2-0.2-0.5l8.1-29.9c0.1-0.5-0.1-1.2-0.5-1.6L8.4,38.9
		c-0.4-0.3-0.3-0.6,0.2-0.6H36c0.6,0,1.2-0.4,1.3-0.9l10.3-29C47.8,8.1,47.9,8,48,8 M48,0c-3.6,0-6.6,2.2-7.9,5.7l-8.7,24.6H8.6
		c-3.7,0-6.9,2.2-8.1,5.6c-1.1,3.4,0,7.1,3,9.4l18.9,14.3l-6.9,25.6c-0.7,2.6-0.2,5.3,1.4,7.4c1.6,2,3.9,3.2,6.5,3.2
		c1.9,0,3.7-0.6,5.2-1.8L48,79.2L67.3,94c1.6,1.2,3.4,1.8,5.2,1.8c2.6,0,4.9-1.2,6.5-3.2c1.6-2.1,2.1-4.8,1.4-7.4l-6.9-25.6
		l18.9-14.3c3-2.3,4.2-5.9,3-9.4c-1.1-3.4-4.3-5.6-8.1-5.6H64.6L55.9,5.7C54.6,2.2,51.6,0,48,0L48,0z"/>
</g>
</svg>
