<?xml version="1.0" encoding="utf-8"?>
<!-- Generator: Adobe Illustrator 18.0.0, SVG Export Plug-In . SVG Version: 6.00 Build 0)  -->
<!DOCTYPE svg PUBLIC "-//W3C//DTD SVG 1.1//EN" "http://www.w3.org/Graphics/SVG/1.1/DTD/svg11.dtd">
<svg version="1.1" id="Layer_1" xmlns="http://www.w3.org/2000/svg" xmlns:xlink="http://www.w3.org/1999/xlink" x="0px" y="0px"
	 viewBox="0 0 96 96" enable-background="new 0 0 96 96" xml:space="preserve">
<g>
	<g>
		<path d="M62.6,8c0.1,0,0.3,0,0.4,0.1l25,25c0.2,0.2,0.2,0.5,0,0.7l-53,53.8C34.7,87.8,34.3,88,34,88H8.5C8.2,88,8,87.8,8,87.5
			V62.4c0-0.3,0.2-0.7,0.4-0.9L62.2,8.1C62.3,8,62.4,8,62.6,8 M62.6,0c-2.3,0-4.4,0.9-6,2.5L2.7,55.9C1,57.6,0,60,0,62.4v25.1
			C0,92.2,3.8,96,8.5,96H34c2.4,0,4.9-1,6.6-2.7l53-53.8c3.3-3.3,3.2-8.7,0-12l-25-25C67,0.9,64.8,0,62.6,0L62.6,0z"/>
	</g>
</g>
<g>
	<path d="M24,64.1c-2,0-3.9,0.7-5.4,2.2c-3,3-3,7.9,0,10.8c1.5,1.5,3.5,2.3,5.4,2.3c2,0,3.9-0.7,5.4-2.2c3-3,3-7.9,0-10.9
		C28,64.8,26,64.1,24,64.1L24,64.1z"/>
</g>
</svg>
