<?xml version="1.0" encoding="iso-8859-1"?>
<!-- Generator: Adobe Illustrator 16.0.0, SVG Export Plug-In . SVG Version: 6.00 Build 0)  -->
<!DOCTYPE svg PUBLIC "-//W3C//DTD SVG 1.1//EN" "http://www.w3.org/Graphics/SVG/1.1/DTD/svg11.dtd">
<svg version="1.1" id="Layer_1" xmlns="http://www.w3.org/2000/svg" xmlns:xlink="http://www.w3.org/1999/xlink" x="0px" y="0px"
	 width="512px" height="512px" viewBox="0 0 512 512" style="enable-background:new 0 0 512 512;" xml:space="preserve">
<g>
	<path d="M499.405,142.063L369.973,12.588c-8.116-8.116-18.923-12.594-30.445-12.594c-11.521,0-22.328,4.479-30.444,12.594
		L20.467,301.184c-10.029,10.008-16.988,26.261-17.346,40.411L0.009,468.42c-0.231,11.69,4.058,22.603,12.11,30.823
		c8.074,8.242,18.86,12.763,30.424,12.763l127.855-3.112c14.15-0.357,30.403-7.338,40.412-17.346l288.595-288.595
		C507.521,194.837,512,184.03,512,172.508C512,161.007,507.521,150.179,499.405,142.063z M476.571,180.119L187.977,468.715
		c-4.185,4.184-12.447,7.736-18.377,7.885l-126.783,3.111c-0.084,0-0.189,0-0.273,0c-5.803,0-10.365-4.646-10.239-10.492
		l3.112-126.825c0.146-5.929,3.7-14.192,7.885-18.376L331.916,35.422c2.104-2.103,4.857-3.133,7.611-3.133
		c2.755,0,5.509,1.03,7.611,3.133l129.433,129.475C480.756,169.081,480.756,175.935,476.571,180.119z"/>
	<path d="M118.697,361.086c-8.263,0-16.505,3.133-22.812,9.419c-12.637,12.615-12.637,33.114,0,45.604
		c6.308,6.37,14.592,9.545,22.876,9.545c8.241,0,16.483-3.154,22.792-9.42c12.594-12.615,12.594-33.114,0-45.729
		C135.244,364.219,126.961,361.086,118.697,361.086z"/>
</g>
</svg>
