<?xml version="1.0" encoding="utf-8"?>
<!-- Generator: Adobe Illustrator 18.0.0, SVG Export Plug-In . SVG Version: 6.00 Build 0)  -->
<!DOCTYPE svg PUBLIC "-//W3C//DTD SVG 1.1//EN" "http://www.w3.org/Graphics/SVG/1.1/DTD/svg11.dtd">
<svg version="1.1" id="Layer_1" xmlns="http://www.w3.org/2000/svg" xmlns:xlink="http://www.w3.org/1999/xlink" x="0px" y="0px"
	 viewBox="0 0 96 96" enable-background="new 0 0 96 96" xml:space="preserve">
<g>
	<path d="M48,26c12.1,0,22,9.9,22,22s-9.9,22-22,22s-22-9.9-22-22S35.9,26,48,26 M48,18c-16.6,0-30,13.4-30,30c0,16.6,13.4,30,30,30
		s30-13.4,30-30C78,31.4,64.6,18,48,18L48,18z"/>
</g>
<circle cx="48" cy="48" r="12"/>
<g>
	<path d="M48,8c22.1,0,40,17.9,40,40S70.1,88,48,88S8,70.1,8,48S25.9,8,48,8 M48,0C21.5,0,0,21.5,0,48c0,26.5,21.5,48,48,48
		c26.5,0,48-21.5,48-48C96,21.5,74.5,0,48,0L48,0z"/>
</g>
</svg>
