<?xml version="1.0" encoding="utf-8"?>
<!-- Generator: Adobe Illustrator 18.0.0, SVG Export Plug-In . SVG Version: 6.00 Build 0)  -->
<!DOCTYPE svg PUBLIC "-//W3C//DTD SVG 1.1//EN" "http://www.w3.org/Graphics/SVG/1.1/DTD/svg11.dtd">
<svg version="1.1" id="Layer_1" xmlns="http://www.w3.org/2000/svg" xmlns:xlink="http://www.w3.org/1999/xlink" x="0px" y="0px"
	 viewBox="0 0 96 96" enable-background="new 0 0 96 96" xml:space="preserve">
<g>
	<path d="M96,9.5C96,4.3,91.7,0,86.5,0h-77C4.3,0,0,4.3,0,9.5v77C0,91.7,4.3,96,9.5,96h77c5.2,0,9.5-4.3,9.5-9.5V9.5z M9.5,8h77
		C87.3,8,88,8.7,88,9.5V20H8V9.5C8,8.7,8.7,8,9.5,8z M86.5,88h-77C8.7,88,8,87.4,8,86.5V28h80v58.5C88,87.4,87.3,88,86.5,88z"/>
	<polygon points="20.2,49.8 28.7,58 20.3,66.4 26,72.1 40.1,58 25.8,44 	"/>
	<rect x="52" y="64" width="20" height="8"/>
</g>
</svg>
