<?xml version="1.0" encoding="iso-8859-1"?>
<!-- Generator: Adobe Illustrator 16.0.0, SVG Export Plug-In . SVG Version: 6.00 Build 0)  -->
<!DOCTYPE svg PUBLIC "-//W3C//DTD SVG 1.1//EN" "http://www.w3.org/Graphics/SVG/1.1/DTD/svg11.dtd">
<svg version="1.1" id="Layer_1" xmlns="http://www.w3.org/2000/svg" xmlns:xlink="http://www.w3.org/1999/xlink" x="0px" y="0px"
	 width="512px" height="512px" viewBox="0 0 512 512" style="enable-background:new 0 0 512 512;" xml:space="preserve">
<g>
	<path d="M466.812,0.011H45.188C20.271,0.011,0,20.261,0,45.177v421.646c0,24.916,20.271,45.166,45.188,45.166h421.625
		c24.917,0,45.188-20.25,45.188-45.166V45.177C512,20.261,491.729,0.011,466.812,0.011z M45.188,30.115h421.625
		c8.312,0,15.062,6.771,15.062,15.062v65.25H30.125v-65.25C30.125,36.886,36.875,30.115,45.188,30.115z M466.812,481.886H45.188
		c-8.312,0-15.062-6.771-15.062-15.062V140.552h451.75v326.271C481.875,475.114,475.125,481.886,466.812,481.886z"/>
	<polygon points="113.854,257.886 166.854,310.907 114.917,362.823 136.208,384.114 209.458,310.907 135.146,236.573 	"/>
	<rect x="266.042" y="361.407" width="110.438" height="30.125"/>
</g>
</svg>
