<?xml version="1.0" encoding="utf-8"?>
<!-- Generator: Adobe Illustrator 18.0.0, SVG Export Plug-In . SVG Version: 6.00 Build 0)  -->
<!DOCTYPE svg PUBLIC "-//W3C//DTD SVG 1.1//EN" "http://www.w3.org/Graphics/SVG/1.1/DTD/svg11.dtd">
<svg version="1.1" id="Layer_1" xmlns="http://www.w3.org/2000/svg" xmlns:xlink="http://www.w3.org/1999/xlink" x="0px" y="0px"
	 viewBox="0 0 96 96" enable-background="new 0 0 96 96" xml:space="preserve">
<g>
	<path d="M63.4,16c4.7,0,9,2,12,5.1c3.7-0.7,7.2-2.1,10.4-3.9c-1.2,3.8-3.8,6.9-7.2,8.9c3.3-0.4,6.5-1.3,9.4-2.5
		c-2.2,3.2-5,6.1-8.2,8.4c0,0.7,0,1.4,0,2.1c0,21.3-16.5,46-46.7,46c-9.3,0-17.9-2.7-25.2-7.3c1.3,0.2,2.6,0.2,3.9,0.2
		c7.7,0,14.8-2.6,20.4-6.9c-7.2-0.1-13.2-4.8-15.3-11.2c1,0.2,2,0.3,3.1,0.3c1.5,0,2.9-0.2,4.3-0.6c-7.5-1.5-13.2-8-13.2-15.8
		c0-0.1,0-0.1,0-0.2c2.2,1.2,4.7,1.9,7.4,2c-4.4-2.9-7.3-7.8-7.3-13.4c0-3,0.8-5.7,2.2-8.1c8.1,9.8,20.2,16.2,33.8,16.9
		c-0.3-1.2-0.4-2.4-0.4-3.7C47,23.3,54.3,16,63.4,16 M63.4,8C51.9,8,42.2,16,39.6,26.6c-7.7-2.1-14.7-6.5-19.9-12.7
		C18.2,12,16,11,13.6,11c-0.2,0-0.4,0-0.6,0c-2.6,0.2-4.9,1.7-6.3,3.9c-2.2,3.7-3.3,7.9-3.3,12.2c0,2.5,0.4,4.9,1.1,7.2
		c-0.8,1.3-1.2,2.7-1.2,4.3v0.2c0,5.9,2.2,11.3,5.8,15.6c-0.1,1,0.1,2,0.4,3c0.9,2.8,2.3,5.4,4.1,7.6c-0.5,0-1,0-1.6,0
		c-1,0-2-0.1-3-0.2c-0.3,0-0.6-0.1-0.9-0.1c-3.4,0-6.4,2.1-7.5,5.3c-1.2,3.5,0.1,7.4,3.3,9.4c8.8,5.6,19,8.5,29.4,8.5
		c16,0,30.4-6.3,40.6-17.6c8.5-9.5,13.6-22,14-34.6c2.6-2.3,4.8-4.8,6.8-7.7c2-2.9,1.8-6.9-0.5-9.6c-0.1-0.2-0.3-0.3-0.4-0.5
		c0.3-2.7-0.8-5.3-2.9-7.1c-1.5-1.2-3.2-1.8-5-1.8c-1.4,0-2.8,0.4-4,1.1c-1.4,0.8-2.9,1.5-4.4,2C73.3,9.6,68.4,8,63.4,8L63.4,8z"/>
</g>
</svg>
