<?xml version="1.0" encoding="iso-8859-1"?>
<!-- Generator: Adobe Illustrator 16.0.0, SVG Export Plug-In . SVG Version: 6.00 Build 0)  -->
<!DOCTYPE svg PUBLIC "-//W3C//DTD SVG 1.1//EN" "http://www.w3.org/Graphics/SVG/1.1/DTD/svg11.dtd">
<svg version="1.1" id="Layer_1" xmlns="http://www.w3.org/2000/svg" xmlns:xlink="http://www.w3.org/1999/xlink" x="0px" y="0px"
	 width="512px" height="512px" viewBox="0 0 512 512" style="enable-background:new 0 0 512 512;" xml:space="preserve">
<g>
	<g>
		<polygon points="148.211,326.146 126.911,304.847 256.534,175.224 385.099,303.808 363.798,325.106 256.534,217.823 		"/>
	</g>
	<g>
		<path d="M256.005,512c-141.156,0-256-114.854-256-256c0-141.155,114.844-256,256-256c141.155,0,255.99,114.845,255.99,256
			C511.995,397.146,397.16,512,256.005,512z M256.005,30.126C131.461,30.126,30.13,131.456,30.13,256
			c0,124.553,101.331,225.874,225.875,225.874c124.543,0,225.864-101.321,225.864-225.874
			C481.869,131.456,380.548,30.126,256.005,30.126z"/>
	</g>
</g>
</svg>
