<?xml version="1.0" encoding="utf-8"?>
<!-- Generator: Adobe Illustrator 18.0.0, SVG Export Plug-In . SVG Version: 6.00 Build 0)  -->
<!DOCTYPE svg PUBLIC "-//W3C//DTD SVG 1.1//EN" "http://www.w3.org/Graphics/SVG/1.1/DTD/svg11.dtd">
<svg version="1.1" id="Layer_1" xmlns="http://www.w3.org/2000/svg" xmlns:xlink="http://www.w3.org/1999/xlink" x="0px" y="0px"
	 viewBox="0 0 96 96" enable-background="new 0 0 96 96" xml:space="preserve">
<path d="M73.4,43.9c4-3.3,6.6-8.3,6.6-13.9c0-9.9-8.1-18-18-18c-6.3,0-11.9,3.3-15.1,8.2c2.3,1.7,4.2,3.8,5.7,6.2
	c1.4-3.8,5.1-6.4,9.3-6.4c5.5,0,10,4.5,10,10s-4.5,10-10,10C59.8,40,58,39.2,56,38c0,0,0,0,0,0c0,4.6-1.5,9-3.9,12.5
	c0.5,0.3,1,0.6,1.5,0.9c2.7-1,5.6-1.5,8.5-1.5c14.2,0,25.8,11.7,26,26.1l8-0.1C95.9,61.2,86.5,48.7,73.4,43.9z"/>
<path d="M8,84c0.2-12,8.2-21.9,18.9-25.1c2.3-0.7,4.6-1,7.1-1c2.4,0,4.8,0.4,7,1C51.8,62,59.9,72,60.1,84H64l4.1-0.1
	c-0.2-14.7-9.7-27.3-22.7-32c4-3.3,6.6-8.3,6.6-13.9c0-9.9-8.1-18-18-18s-18,8.1-18,18c0,5.6,2.6,10.6,6.6,13.9
	C9.6,56.7,0.2,69.2,0,83.9L4,84h0l0,0H8z M34,28c5.5,0,10,4.5,10,10c0,3.4-1.7,6.5-4.4,8.3C38,47.4,36.1,48,34,48
	c-2.1,0-4-0.6-5.6-1.7C25.7,44.5,24,41.5,24,38C24,32.5,28.5,28,34,28z"/>
</svg>
