<?xml version="1.0" encoding="utf-8"?>
<!-- Generator: Adobe Illustrator 18.0.0, SVG Export Plug-In . SVG Version: 6.00 Build 0)  -->
<!DOCTYPE svg PUBLIC "-//W3C//DTD SVG 1.1//EN" "http://www.w3.org/Graphics/SVG/1.1/DTD/svg11.dtd">
<svg version="1.1" id="Layer_1" xmlns="http://www.w3.org/2000/svg" xmlns:xlink="http://www.w3.org/1999/xlink" x="0px" y="0px"
	 viewBox="0 0 96 96" enable-background="new 0 0 96 96" xml:space="preserve">
<g>
	<g>
		<g>
			<g>
				<path d="M48,68.1c-11,0-20-9-20-20s9-20,20-20c11,0,20,9,20,20S59,68.1,48,68.1z M48,36.2c-6.6,0-12,5.4-12,12s5.4,12,12,12
					c6.6,0,12-5.4,12-12S54.6,36.2,48,36.2z"/>
			</g>
		</g>
	</g>
</g>
<g>
	<path d="M48.4,84C16.3,84,0,54.1,0,48.1s16.3-35.9,48.4-35.9c16.7,0,28.5,8.5,35.5,15.7C91.1,35.3,96,44.3,96,48.1
		C96,55.5,78.1,84,48.4,84z M8,48.1C8.9,51.4,21.4,76,48.4,76C73.4,76,87,52.7,88,48.1c-1.1-4.7-14.6-27.9-39.6-27.9
		C23,20.2,9.2,43.3,8,48.1z"/>
</g>
</svg>
