<?xml version="1.0" encoding="utf-8"?>
<!-- Generator: Adobe Illustrator 18.0.0, SVG Export Plug-In . SVG Version: 6.00 Build 0)  -->
<!DOCTYPE svg PUBLIC "-//W3C//DTD SVG 1.1//EN" "http://www.w3.org/Graphics/SVG/1.1/DTD/svg11.dtd">
<svg version="1.1" id="Layer_1" xmlns="http://www.w3.org/2000/svg" xmlns:xlink="http://www.w3.org/1999/xlink" x="0px" y="0px"
	 viewBox="0 0 96 96" enable-background="new 0 0 96 96" xml:space="preserve">
<g>
	<g>
		<path d="M73,79.6c-6,0-10.9-4.9-10.9-10.9c0-6,4.9-10.9,10.9-10.9s10.9,4.9,10.9,10.9C83.9,74.7,79,79.6,73,79.6z M73,65.9
			c-1.6,0-2.9,1.3-2.9,2.9c0,1.6,1.3,2.9,2.9,2.9s2.9-1.3,2.9-2.9C75.9,67.2,74.6,65.9,73,65.9z"/>
	</g>
	<g>
		<path d="M23.2,92C10.4,92,0,81.6,0,68.7c0-12.8,10.4-23.3,23.3-23.3v8C14.8,53.5,8,60.3,8,68.7C8,77.2,14.8,84,23.2,84
			c8.4,0,15.3-6.8,15.3-15.3v-4h28.8v8H46.1C44.2,83.7,34.7,92,23.2,92z"/>
	</g>
</g>
<g>
	<g>
		<path d="M23.3,79.7c-1.9,0-3.8-0.5-5.4-1.5c-2.5-1.5-4.3-3.8-5.1-6.6c-0.8-2.8-0.4-5.7,1.1-8.3c1.9-3.4,5.6-5.4,9.4-5.4
			c1.9,0,3.8,0.5,5.4,1.5c5.2,3,7,9.7,4,14.9C30.8,77.7,27.2,79.7,23.3,79.7z M23.3,66c-1,0-2,0.6-2.5,1.4c-0.4,0.7-0.5,1.4-0.3,2.2
			c0.2,0.7,0.7,1.4,1.3,1.7c1.4,0.8,3.2,0.3,3.9-1c0.8-1.4,0.3-3.1-1.1-3.9C24.3,66.1,23.8,66,23.3,66z"/>
	</g>
	<g>
		<path d="M29.6,66l-6.8-4.2l10.3-16.7c-3.6-3-6.2-7.1-7.5-11.8c-1.6-6-0.8-12.3,2.3-17.6C34.3,4.5,48.6,0.7,59.7,7.1
			c5.4,3.1,9.2,8.1,10.8,14.1c1.6,6,0.8,12.3-2.3,17.6l-6.9-4c2-3.5,2.6-7.6,1.5-11.6c-1.1-3.9-3.6-7.2-7.1-9.3
			c-7.3-4.2-16.6-1.7-20.8,5.6c-2,3.5-2.6,7.6-1.5,11.6s3.6,7.2,7.1,9.3l3.5,2l-2.8,4.8L29.6,66z"/>
	</g>
</g>
<g>
	<g>
		<path d="M47.9,37.8L47.9,37.8c-2.9,0-5.6-1.1-7.7-3.2c-2.1-2.1-3.2-4.8-3.2-7.7c0-2.9,1.1-5.6,3.2-7.7c2.1-2.1,4.8-3.2,7.7-3.2
			c2.9,0,5.6,1.1,7.7,3.2c2.1,2.1,3.2,4.8,3.2,7.7C58.8,32.9,53.9,37.8,47.9,37.8z M47.9,24.1c-0.8,0-1.5,0.3-2,0.8
			c-0.5,0.5-0.8,1.3-0.8,2c0,0.8,0.3,1.5,0.8,2c0.5,0.5,1.3,0.8,2,0.8h0c1.6,0,2.9-1.3,2.9-2.9c0-0.8-0.3-1.5-0.8-2
			C49.4,24.4,48.7,24.1,47.9,24.1z"/>
	</g>
	<g>
		<path d="M72.8,92c-8,0-15.9-4.2-20.2-11.6l6.9-4c4.2,7.3,13.6,9.8,20.8,5.6c3.5-2,6.1-5.3,7.1-9.3c1.1-3.9,0.5-8-1.5-11.6
			c-2-3.5-5.3-6.1-9.3-7.1c-3.9-1.1-8.1-0.5-11.6,1.5l-3.5,2l-2.7-4.7L47.2,34.3L54,30l10.7,17c4.5-1.7,9.4-1.9,14.1-0.6
			c6,1.6,11,5.5,14.1,10.8c3.1,5.4,3.9,11.6,2.3,17.6c-1.6,6-5.5,11-10.8,14.1C80.7,91,76.7,92,72.8,92z"/>
	</g>
</g>
</svg>
