<?xml version="1.0" encoding="utf-8"?>
<!-- Generator: Adobe Illustrator 18.0.0, SVG Export Plug-In . SVG Version: 6.00 Build 0)  -->
<!DOCTYPE svg PUBLIC "-//W3C//DTD SVG 1.1//EN" "http://www.w3.org/Graphics/SVG/1.1/DTD/svg11.dtd">
<svg version="1.1" id="Layer_1" xmlns="http://www.w3.org/2000/svg" xmlns:xlink="http://www.w3.org/1999/xlink" x="0px" y="0px"
	 viewBox="0 0 96 96" enable-background="new 0 0 96 96" xml:space="preserve">
<g>
	<path d="M73,79.7c6,0,10.9-4.9,10.9-10.9C83.9,62.8,79,58,73,58c-4.6,0-8.5,3-10.1,7H38v3.7C38,77.2,31.4,84,23,84
		c-8.4,0-15.3-6.8-15.3-15.3c0-8.4,7.3-15.3,15.3-15.3v-8c-13,0-23.1,10.4-23.1,23.3c0,12.8,10.5,23.4,23.3,23.4
		c11.5,0,21.1-8.1,23-19.1h16.8C64.5,77,68.4,79.7,73,79.7z M73,65.9c1.6,0,2.9,1.3,2.9,2.9c0,1.6-1.3,2.9-2.9,2.9s-2.9-1.3-2.9-2.9
		C70.1,67.2,71.4,65.9,73,65.9z"/>
	<path d="M23.3,58c-3.9,0-7.5,2.1-9.4,5.4c-1.5,2.5-1.8,5.4-1.1,8.3c0.8,2.8,2.6,5.2,5.1,6.6c1.7,1,3.5,1.5,5.4,1.5
		c3.9,0,7.5-2.1,9.4-5.4c2.3-3.9,1.8-8.7-0.8-12.1l9.2-14.9l2.8-4.8l-3.5-2c-3.5-2-6.1-5.3-7.1-9.3s-0.5-8,1.5-11.6
		C39,12.3,48.4,9.8,55.7,14c3.5,2,6.1,5.3,7.1,9.3c1.1,3.9,0.5,8-1.5,11.6l6.9,4c3.1-5.4,3.9-11.6,2.3-17.6c-1.6-6-5.5-11-10.8-14.1
		c-11.1-6.4-25.4-2.6-31.8,8.5C24.8,21,24,27.3,25.6,33.3c1.3,4.7,3.9,8.7,7.5,11.8l-8,13.1C24.5,58,23.9,58,23.3,58z M25.8,70.3
		c-0.8,1.3-2.6,1.8-3.9,1c-0.7-0.4-1.1-1-1.3-1.7c-0.2-0.7-0.1-1.5,0.3-2.2c0.5-0.9,1.5-1.4,2.5-1.4c0.5,0,1,0.1,1.4,0.4
		C26.1,67.2,26.6,68.9,25.8,70.3z"/>
	<path d="M92.9,57.1c-3.1-5.4-8.1-9.2-14.1-10.8c-4.7-1.3-9.6-1-14.1,0.6l-8.3-13.1c1.5-1.9,2.4-4.3,2.5-6.9c0-2.9-1.1-5.6-3.2-7.7
		c-2.1-2.1-4.8-3.2-7.7-3.2c-2.9,0-5.6,1.1-7.7,3.2c-2.1,2.1-3.2,4.8-3.2,7.7c0,2.9,1.1,5.7,3.2,7.8c2.1,2.1,4.8,3.3,7.7,3.3h0
		c0.5,0,1-0.1,1.4-0.2l9.6,15.1l2.7,4.7l3.5-2c3.5-2,7.6-2.6,11.6-1.5c3.9,1.1,7.2,3.6,9.3,7.1c2,3.5,2.6,7.6,1.5,11.6
		c-1.1,3.9-3.6,7.2-7.1,9.3c-7.3,4.2-16.6,1.7-20.8-5.6l-6.9,4C56.9,87.8,64.8,92,72.8,92c3.9,0,7.9-1,11.6-3.1
		c5.4-3.1,9.2-8.1,10.8-14.1C96.8,68.8,96,62.5,92.9,57.1z M45.1,26.9c0-0.8,0.3-1.5,0.8-2c0.5-0.5,1.3-0.8,2-0.8
		c0.8,0,1.5,0.3,2,0.8c0.5,0.5,0.8,1.4,0.8,2.1c0,1.6-1.3,3-2.9,3h0c-0.8,0-1.5-0.4-2-0.9C45.4,28.5,45.1,27.7,45.1,26.9z"/>
</g>
</svg>
