<?xml version="1.0" encoding="iso-8859-1"?>
<!-- Generator: Adobe Illustrator 16.0.0, SVG Export Plug-In . SVG Version: 6.00 Build 0)  -->
<!DOCTYPE svg PUBLIC "-//W3C//DTD SVG 1.1//EN" "http://www.w3.org/Graphics/SVG/1.1/DTD/svg11.dtd">
<svg version="1.1" id="Layer_1" xmlns="http://www.w3.org/2000/svg" xmlns:xlink="http://www.w3.org/1999/xlink" x="0px" y="0px"
	 width="512px" height="512px" viewBox="0 0 512 512" style="enable-background:new 0 0 512 512;" xml:space="preserve">
<g>
	<path d="M229.656,511.996c-5.281,0-9.938-3.5-11.375-8.602l-71.905-253.67l-42.75,145.679c-1.469,5.039-6.094,8.5-11.344,8.5H3.689
		v-23.656h79.749l51.75-176.529c1.5-5.047,6.125-8.5,11.375-8.5h0.031c5.281,0.023,9.906,3.531,11.344,8.602l70.749,249.529
		L334.718,9.094c1.312-5.445,6.25-9.398,11.844-9.07c5.594,0.148,10.312,4.219,11.312,9.727l66.281,370.497h84.155v23.656h-94.03
		c-5.75,0-10.625-4.102-11.656-9.742L344.562,69.718l-103.405,433.2c-1.25,5.227-5.875,8.961-11.25,9.078
		C229.844,511.996,229.75,511.996,229.656,511.996z"/>
</g>
</svg>
