<?xml version="1.0" encoding="iso-8859-1"?>
<!-- Generator: Adobe Illustrator 16.0.0, SVG Export Plug-In . SVG Version: 6.00 Build 0)  -->
<!DOCTYPE svg PUBLIC "-//W3C//DTD SVG 1.1//EN" "http://www.w3.org/Graphics/SVG/1.1/DTD/svg11.dtd">
<svg version="1.1" id="Layer_1" xmlns="http://www.w3.org/2000/svg" xmlns:xlink="http://www.w3.org/1999/xlink" x="0px" y="0px"
	 width="512px" height="512px" viewBox="0 0 512 512" style="enable-background:new 0 0 512 512;" xml:space="preserve">
<path d="M283.156,21.947l16.75,82.093c11.422,3.32,22.344,7.883,32.516,13.508l70.968-45.141l37.344,37.305l-46.312,69.883
	c5.672,10.242,10.25,21.117,13.531,32.546l82.108,18.258v52.758l-82.108,16.734c-3.281,11.444-7.859,22.327-13.531,32.554
	l45.172,70.945l-37.266,37.289l-69.921-46.242c-10.219,5.688-21.141,10.25-32.578,13.523l-18.25,82.093h-52.734L212.11,407.96
	c-11.438-3.328-22.359-7.836-32.516-13.508l-71,45.172l-37.327-37.289l46.249-69.93c-5.609-10.188-10.188-21.109-13.469-32.546
	l-82.108-18.258v-52.727l82.108-16.727c3.281-11.483,7.859-22.366,13.469-32.554L72.393,108.61l37.28-37.289l69.922,46.242
	c10.219-5.641,21.078-10.195,32.516-13.523l18.249-82.093H283.156 M255.984,302.374c25.625,0,46.359-20.741,46.359-46.351
	c0-25.617-20.734-46.398-46.359-46.398s-46.39,20.781-46.39,46.398C209.595,281.633,230.359,302.374,255.984,302.374 M283.156,0.002
	h-52.797c-10.281,0-19.187,7.141-21.421,17.188l-15.547,69.952c-4.156,1.555-8.266,3.25-12.297,5.102l-59.328-39.219
	c-3.672-2.453-7.891-3.648-12.078-3.648c-5.672,0-11.281,2.188-15.531,6.43l-37.28,37.289c-7.281,7.266-8.516,18.609-3,27.281
	l38.437,60.484c-1.859,4.055-3.562,8.172-5.109,12.328l-69.64,14.187c-10.219,2.086-17.562,11.078-17.562,21.5v52.727
	c0,10.281,7.141,19.188,17.188,21.421l69.921,15.547c1.547,4.164,3.25,8.273,5.094,12.328l-39.233,59.328
	c-5.75,8.711-4.578,20.258,2.781,27.633l37.327,37.281c4.234,4.234,9.844,6.422,15.516,6.422c4.062,0,8.156-1.117,11.766-3.43
	l60.469-38.461c4.031,1.844,8.125,3.547,12.312,5.117l14.203,69.647c2.078,10.219,11.062,17.562,21.499,17.562h52.734
	c10.281,0,19.172-7.141,21.406-17.18l15.562-69.921c4.188-1.547,8.312-3.266,12.375-5.125l59.312,39.203
	c3.672,2.453,7.906,3.647,12.078,3.647c5.672,0,11.281-2.187,15.531-6.429l37.266-37.289c7.281-7.281,8.516-18.617,3-27.297
	l-38.469-60.406c1.875-4.062,3.594-8.18,5.141-12.344l69.655-14.203c10.219-2.086,17.562-11.069,17.562-21.499v-52.758
	c0-10.281-7.141-19.188-17.188-21.422l-69.921-15.546c-1.562-4.164-3.266-8.281-5.141-12.336l39.281-59.258
	c5.75-8.711,4.594-20.266-2.781-27.641l-37.344-37.312c-4.25-4.234-9.859-6.422-15.531-6.422c-4.062,0-8.141,1.125-11.781,3.43
	l-60.421,38.453c-4.047-1.859-8.141-3.562-12.297-5.117l-14.219-69.671C302.578,7.346,293.594,0.002,283.156,0.002L283.156,0.002z
	 M255.984,280.438c-13.484,0-24.453-10.953-24.453-24.414c0-13.477,10.969-24.453,24.453-24.453
	c13.453,0,24.422,10.977,24.422,24.453C280.406,269.484,269.438,280.438,255.984,280.438L255.984,280.438z"/>
</svg>
