<?xml version="1.0" encoding="iso-8859-1"?>
<!-- Generator: Adobe Illustrator 16.0.0, SVG Export Plug-In . SVG Version: 6.00 Build 0)  -->
<!DOCTYPE svg PUBLIC "-//W3C//DTD SVG 1.1//EN" "http://www.w3.org/Graphics/SVG/1.1/DTD/svg11.dtd">
<svg version="1.1" id="Layer_1" xmlns="http://www.w3.org/2000/svg" xmlns:xlink="http://www.w3.org/1999/xlink" x="0px" y="0px"
	 width="512px" height="512px" viewBox="0 0 512 512" style="enable-background:new 0 0 512 512;" xml:space="preserve">
<path d="M332.07,0H92.977C69.805,0,50.945,18.852,50.945,42.031v427.938c0,23.172,18.859,42.031,42.031,42.031h326.047
	c23.172,0,42.031-18.859,42.031-42.031V128.984L332.07,0z M338.789,39.14l83.132,83.126h-64.038
	c-10.531,0-19.094-8.562-19.094-19.102V39.14z M419.023,489.078H92.977c-10.531,0-19.109-8.562-19.109-19.109V42.031
	c0-10.539,8.578-19.109,19.109-19.109h222.875v80.242c0,23.18,18.859,42.031,42.031,42.031h80.25v324.773
	C438.133,480.516,429.555,489.078,419.023,489.078z"/>
</svg>
