<?xml version="1.0" encoding="iso-8859-1"?>
<!-- Generator: Adobe Illustrator 16.0.0, SVG Export Plug-In . SVG Version: 6.00 Build 0)  -->
<!DOCTYPE svg PUBLIC "-//W3C//DTD SVG 1.1//EN" "http://www.w3.org/Graphics/SVG/1.1/DTD/svg11.dtd">
<svg version="1.1" id="Layer_1" xmlns="http://www.w3.org/2000/svg" xmlns:xlink="http://www.w3.org/1999/xlink" x="0px" y="0px"
	 width="512px" height="512px" viewBox="0 0 512 512" style="enable-background:new 0 0 512 512;" xml:space="preserve">
<g>
	<g>
		<path d="M255.796,511.999c-125.319,0-235.123-92.358-253.271-219.936c-11.43-80.375,16.445-162.312,74.57-219.171l16.031,16.391
			c-52.921,51.766-78.304,126.374-67.898,199.562c18.094,127.202,136.327,215.951,263.561,197.889
			c61.624-8.766,116.163-40.999,153.537-90.78c37.383-49.766,53.141-111.108,44.367-172.75c-8.758-61.624-41-116.155-90.78-153.53
			c-44.477-33.39-98.257-49.53-153.069-46.343l46.719,62.546l-18.375,13.719l-58.851-78.78c-2.414-3.234-2.953-7.516-1.391-11.266
			c1.555-3.719,4.961-6.359,8.968-6.938c67.656-9.656,135.093,7.672,189.764,48.733c54.68,41.047,90.094,100.953,99.719,168.64
			c9.633,67.688-7.68,135.062-48.734,189.734c-41.062,54.671-100.952,90.077-168.654,99.718
			C279.851,511.155,267.741,511.999,255.796,511.999z"/>
	</g>
</g>
</svg>
