<?xml version="1.0" encoding="iso-8859-1"?>
<!-- Generator: Adobe Illustrator 16.0.0, SVG Export Plug-In . SVG Version: 6.00 Build 0)  -->
<!DOCTYPE svg PUBLIC "-//W3C//DTD SVG 1.1//EN" "http://www.w3.org/Graphics/SVG/1.1/DTD/svg11.dtd">
<svg version="1.1" id="Layer_1" xmlns="http://www.w3.org/2000/svg" xmlns:xlink="http://www.w3.org/1999/xlink" x="0px" y="0px"
	 width="512px" height="512px" viewBox="0 0 512 512" style="enable-background:new 0 0 512 512;" xml:space="preserve">
<g>
	<g>
		<path d="M256,511.998C114.845,511.998,0.002,397.155,0.002,256S114.845,0.002,256,0.002
			c141.187,0,255.998,114.843,255.998,255.998S397.187,511.998,256,511.998z M256,22.924C127.47,22.924,22.908,127.485,22.908,256
			S127.47,489.076,256,489.076S489.092,384.515,489.092,256S384.53,22.924,256,22.924z"/>
	</g>
	<g>
		<path d="M219.657,347.491c-9.438,0-19.562-7.148-19.562-22.828V187.329c0-15.68,10.125-22.828,19.562-22.828
			c4.469,0,8.937,1.453,13.28,4.32l113.969,70.585c2.062,1.422,9.499,7.133,9.499,16.594c0,9.453-7.437,15.164-8.937,16.219
			l-114.781,71.116C228.594,346.038,224.126,347.491,219.657,347.491z M223.001,189.618v132.756l107.187-66.382L223.001,189.618z"/>
	</g>
</g>
</svg>
