<?xml version="1.0" encoding="iso-8859-1"?>
<!-- Generator: Adobe Illustrator 16.0.0, SVG Export Plug-In . SVG Version: 6.00 Build 0)  -->
<!DOCTYPE svg PUBLIC "-//W3C//DTD SVG 1.1//EN" "http://www.w3.org/Graphics/SVG/1.1/DTD/svg11.dtd">
<svg version="1.1" id="Layer_1" xmlns="http://www.w3.org/2000/svg" xmlns:xlink="http://www.w3.org/1999/xlink" x="0px" y="0px"
	 width="512px" height="512px" viewBox="0 0 512 512" style="enable-background:new 0 0 512 512;" xml:space="preserve">
<path d="M309.194,260.531c45.531-21.354,77.144-67.627,77.144-121.147c0-73.741-59.989-133.73-133.73-133.73
	c-73.74,0-133.729,59.989-133.729,133.73c0,54.38,32.634,101.282,79.345,122.16C86.359,287.563,1.677,387.294,0,506.025
	l22.936,0.321C24.708,380.348,129.253,277.851,256,277.851c126.763,0,231.308,102.497,233.064,228.48L512,506.025
	C510.313,385.678,423.332,284.86,309.194,260.531z M141.813,139.384c0-61.097,49.69-110.803,110.794-110.803
	c61.105,0,110.811,49.706,110.811,110.803c0,61.097-49.705,110.802-110.811,110.802C191.504,250.186,141.813,200.48,141.813,139.384
	z"/>
</svg>
