<?xml version="1.0" encoding="iso-8859-1"?>
<!-- Generator: Adobe Illustrator 16.0.0, SVG Export Plug-In . SVG Version: 6.00 Build 0)  -->
<!DOCTYPE svg PUBLIC "-//W3C//DTD SVG 1.1//EN" "http://www.w3.org/Graphics/SVG/1.1/DTD/svg11.dtd">
<svg version="1.1" id="Layer_1" xmlns="http://www.w3.org/2000/svg" xmlns:xlink="http://www.w3.org/1999/xlink" x="0px" y="0px"
	 width="512px" height="512px" viewBox="0 0 512 512" style="enable-background:new 0 0 512 512;" xml:space="preserve">
<path d="M475.062,81.516H236.891V36.922C236.891,13.797,223.094,0,199.953,0H47.125C24.281,0,0,12.938,0,36.922v427.953
	C0,488.219,23.781,512,47.125,512h427.938c24,0,36.938-24.281,36.938-47.125V118.453C512,95.328,498.188,81.516,475.062,81.516z
	 M47.125,22.922h152.828c10.609,0,14.016,3.406,14.016,14v67.516h261.094c10.609,0,14.016,3.406,14.016,14.016v54.766H22.922V36.922
	C22.922,27.391,37.359,22.922,47.125,22.922z M475.062,489.078H47.125c-10.625,0-24.203-13.578-24.203-24.203V196.141h466.156
	v268.734C489.078,474.641,484.625,489.078,475.062,489.078z"/>
</svg>
