<?xml version="1.0" encoding="iso-8859-1"?>
<!-- Generator: Adobe Illustrator 16.0.0, SVG Export Plug-In . SVG Version: 6.00 Build 0)  -->
<!DOCTYPE svg PUBLIC "-//W3C//DTD SVG 1.1//EN" "http://www.w3.org/Graphics/SVG/1.1/DTD/svg11.dtd">
<svg version="1.1" id="Layer_1" xmlns="http://www.w3.org/2000/svg" xmlns:xlink="http://www.w3.org/1999/xlink" x="0px" y="0px"
	 width="512px" height="512px" viewBox="0 0 512 512" style="enable-background:new 0 0 512 512;" xml:space="preserve">
<g>
	<g>
		<g>
			<g>
				<path d="M256,506.266c-141.172,0-256-114.844-256-256C0,167.297,40.531,89.117,108.453,41.133l13.219,18.719
					c-61.844,43.695-98.75,114.883-98.75,190.414c0,128.516,104.562,233.078,233.078,233.078s233.078-104.562,233.078-233.078
					c0-74.656-36.25-145.352-96.938-189.125l13.391-18.594C472.203,90.609,512,168.258,512,250.266
					C512,391.422,397.172,506.266,256,506.266z"/>
			</g>
		</g>
	</g>
	<g>
		<g>
			<rect x="246.172" y="5.734" width="22.922" height="244.531"/>
		</g>
	</g>
</g>
</svg>
