<?xml version="1.0" encoding="iso-8859-1"?>
<!-- Generator: Adobe Illustrator 16.0.0, SVG Export Plug-In . SVG Version: 6.00 Build 0)  -->
<!DOCTYPE svg PUBLIC "-//W3C//DTD SVG 1.1//EN" "http://www.w3.org/Graphics/SVG/1.1/DTD/svg11.dtd">
<svg version="1.1" id="Layer_1" xmlns="http://www.w3.org/2000/svg" xmlns:xlink="http://www.w3.org/1999/xlink" x="0px" y="0px"
	 width="512px" height="512px" viewBox="0 0 512 512" style="enable-background:new 0 0 512 512;" xml:space="preserve">
<g>
	<path d="M90.012,150.355h-0.375v66.516c0,5.148,2.312,14.781,17.812,21.43l120.953,51.766c7.953,3.406,18.156,5.125,28.336,5.125
		c10.125,0,20.242-1.688,28.102-5.062l120.594-51.664c14.734-6.32,16.938-15.992,16.938-21.195v-66.914h-0.375
		c0.062-0.648,0.094-1.234,0.094-1.727c0-4.078-1.625-14.258-16.531-20.664L283.184,75.418c-14.867-6.391-39.508-6.391-54.375,0
		l-122.359,52.547c-14.922,6.406-16.531,16.586-16.531,20.664C89.918,149.121,89.949,149.707,90.012,150.355z M395.965,216.41
		l-120.578,51.656c-9.781,4.195-27.672,4.18-37.531-0.055l-120.953-51.766c-1.531-0.664-2.594-1.281-3.266-1.75v-42.109
		l115.18,49.469c7.438,3.188,17.094,4.945,27.188,4.945s19.75-1.758,27.18-4.953l115.188-49.461v42.789
		C397.871,215.504,397.09,215.926,395.965,216.41z M238.277,97.465c8.883-3.812,26.539-3.812,35.438,0l119.156,51.172
		l-119.156,51.156c-8.883,3.836-26.555,3.797-35.438,0.008l-119.141-51.164L238.277,97.465z"/>
	<path d="M101.637,253.668c-6.625,0-12,5.375-12,12v24.367c0,5.156,2.312,14.781,17.812,21.438l120.961,51.781
		c7.961,3.406,18.156,5.094,28.336,5.094c10.125,0,20.234-1.688,28.094-5.062l120.594-51.641
		c14.75-6.344,16.938-16.016,16.938-21.203v-24.773c0-6.625-5.375-12-12-12s-12,5.375-12,12v22.68c-0.5,0.328-1.281,0.75-2.406,1.25
		l-120.578,51.641c-9.781,4.203-27.656,4.172-37.531-0.047L116.902,289.41c-1.531-0.656-2.594-1.281-3.266-1.75v-21.992
		C113.637,259.043,108.262,253.668,101.637,253.668z"/>
	<path d="M422.371,340.066c0-6.625-5.375-12-12-12s-12,5.375-12,12v21.469c-0.5,0.312-1.281,0.75-2.406,1.219L275.387,414.41
		c-9.781,4.188-27.656,4.172-37.531-0.062l-120.969-51.781c-1.523-0.656-2.578-1.266-3.25-1.719v-20.781c0-6.625-5.375-12-12-12
		s-12,5.375-12,12v23.156c0,5.156,2.312,14.781,17.812,21.406l120.953,51.781c7.961,3.406,18.164,5.125,28.352,5.125
		c10.125,0,20.227-1.688,28.086-5.062l120.594-51.656c14.75-6.344,16.938-16,16.938-21.219V340.066z"/>
	<path d="M42.09,391.863v-89.078c0-17.312-7.648-35.82-19.547-46.781c11.898-10.961,19.547-29.469,19.547-46.781v-89.078
		c0-30.086,9.258-36.453,18.211-42.609c6.602-4.539,23.453-6.617,33.305-6.633l-0.008-24c-3.188,0-31.555,0.305-46.898,10.859
		C29.527,69.566,18.09,84.699,18.09,120.145v89.078c0,17.805-11.977,32.539-18.086,32.539v4.484v19.516v4.484
		c6.109,0,18.086,14.727,18.086,32.539v89.078c0,35.453,11.438,50.578,28.602,62.375c15.352,10.562,43.719,10.859,46.906,10.859
		l0.008-24c-9.852,0-26.703-2.094-33.312-6.625C51.348,428.316,42.09,421.941,42.09,391.863z"/>
	<path d="M493.918,209.223v-89.078c0-35.461-11.438-50.586-28.609-62.375c-15.344-10.562-43.719-10.867-46.906-10.867v24
		c9.844,0.016,26.703,2.094,33.312,6.641c8.953,6.148,18.203,12.508,18.203,42.602v89.078c0,17.312,7.641,35.82,19.547,46.781
		c-11.906,10.961-19.547,29.469-19.547,46.781v89.078c0,30.094-9.25,36.453-18.203,42.609c-6.609,4.531-23.469,6.625-33.312,6.625
		v24c3.188,0,31.562-0.297,46.906-10.844c17.172-11.812,28.609-26.938,28.609-62.391v-89.078c0-17.812,11.984-32.539,18.078-32.539
		v-4.484v-19.516v-4.484C505.902,241.762,493.918,227.027,493.918,209.223z"/>
</g>
</svg>
