<?xml version="1.0" encoding="iso-8859-1"?>
<!-- Generator: Adobe Illustrator 16.0.0, SVG Export Plug-In . SVG Version: 6.00 Build 0)  -->
<!DOCTYPE svg PUBLIC "-//W3C//DTD SVG 1.1//EN" "http://www.w3.org/Graphics/SVG/1.1/DTD/svg11.dtd">
<svg version="1.1" id="Layer_1" xmlns="http://www.w3.org/2000/svg" xmlns:xlink="http://www.w3.org/1999/xlink" x="0px" y="0px"
	 width="512px" height="512px" viewBox="0 0 512 512" style="enable-background:new 0 0 512 512;" xml:space="preserve">
<g id="Page_1_3_">
	<g id="Logo_4_" transform="translate(-31.500000, -35.000000)">
		<g id="Doodle_4_" transform="translate(0.500000, 0.000000)">
			<g id="Bubble_flat_5_">
				<path d="M427.555,508.799c-5.865,0-12.479-1.746-19.613-5.209l0,0c-0.27,0-33.734-11.523-70.662-40.421
					c-31.555,5.553-64.646,5.284-95.992-0.717c-37.331,29.436-71.453,41.183-72.945,41.675c-13.866,6.971-30.286,5.717-37.286-4.866
					c-3.762-5.642-6.702-15.971,0.522-33.166c0.239-0.508,7.956-17.255,17.136-41.66c-2.598-1.776-5.15-3.597-7.643-5.463
					c-36.167,10.807-65.557,11.688-74.02,11.688l-2.149-0.03c-0.687,0.149-2.716,0.254-4.612,0.254
					c-18.464,0-25.151-8.971-27.509-14.314c-2.553-5.821-4.583-18.031,10.479-34.405c0.433-0.463,15.866-16.105,35.092-39.107
					c-10.747-23.181-16.195-47.652-16.195-72.886c0-108.611,102.769-196.969,229.09-196.969
					c126.322,0,229.092,88.357,229.092,196.969c0,27.682-6.479,54.303-19.285,79.274c16.613,19.464,29.256,32.256,29.391,32.405
					c15.373,16.673,13.344,28.883,10.791,34.719c-2.598,5.881-10.449,16.15-33.6,14.016l-0.627,0.075
					c-7.701,0-34.42-0.746-67.959-9.956c-3,2.194-6.061,4.299-9.166,6.329c8.777,22.972,15.941,38.524,16.016,38.704
					c7.389,17.538,4.449,27.883,0.688,33.524C442.512,505.411,435.75,508.799,427.555,508.799z M145.684,393.463l4.807,3.82
					c5.731,4.553,11.852,8.867,18.195,12.808l7.896,4.911l-3.164,8.731c-10.866,29.942-20.464,50.75-20.867,51.615
					c-2.851,6.807-2.627,10.628-2.299,11.404c0.896-0.881,3.985-1.164,9.419-3.792c1.656-0.656,35.793-12.508,71.348-41.674
					l4.269-3.508l5.388,1.149c31.689,6.762,65.543,7.045,97.439,0.761l5.27-1.029l4.164,3.373
					c35.436,28.808,68.721,40.271,69.051,40.391c10.598,4.971,11.82,3.344,11.836,3.374c-0.717,0.269-0.508-3.673-3.508-10.808
					c-0.225-0.462-9.285-20.15-19.838-48.749l-3.299-8.941l8.195-4.881c6.807-4.03,13.463-8.538,19.793-13.403l4.627-3.538
					l5.598,1.657c33.15,9.821,59.66,10.598,67.004,10.598l0.688-0.03l2.119,0.06c7.238,0.688,10.836-1.029,10.852-1.045
					c-0.822,0.403-1.613-3.433-6.791-9.045c-0.359-0.328-15.748-15.896-35.406-39.451l-5.105-6.104l3.926-6.911
					c13.359-23.479,20.121-48.734,20.121-75.035c0-95.969-92.484-174.042-206.164-174.042
					c-113.679,0-206.164,78.073-206.164,174.042c0,24.047,5.717,47.347,17.001,69.244l3.448,6.688l-4.776,5.82
					c-22.061,26.973-40.152,45.303-40.913,46.063c-4.299,4.687-5.643,8.075-5.881,9.403c0.507-0.164,2.463,0.567,6.329,0.567
					c1.224,0,2.522-0.075,3.881-0.194l2.881-0.029c5.747,0,36.256-0.598,72.781-12.389L145.684,393.463z M400.09,311.308
					c-22.314,0-40.48-18.456-40.48-41.138c0-22.681,18.166-41.137,40.48-41.137s40.48,18.456,40.48,41.137
					C440.57,292.852,422.404,311.308,400.09,311.308z M400.09,251.96c-9.672,0-17.553,8.173-17.553,18.21
					c0,10.038,7.881,18.211,17.553,18.211s17.555-8.173,17.555-18.211C417.645,260.133,409.762,251.96,400.09,251.96z
					 M291.246,311.308c-22.314,0-40.48-18.456-40.48-41.138c0-22.681,18.166-41.137,40.48-41.137
					c22.316,0,40.48,18.456,40.48,41.137C331.727,292.852,313.562,311.308,291.246,311.308z M291.246,251.96
					c-9.672,0-17.553,8.173-17.553,18.21c0,10.038,7.881,18.211,17.553,18.211c9.674,0,17.555-8.173,17.555-18.211
					C308.801,260.133,300.92,251.96,291.246,251.96z M182.448,311.308c-22.315,0-40.48-18.456-40.48-41.138
					c0-22.681,18.166-41.137,40.48-41.137c22.315,0,40.48,18.456,40.48,41.137C222.928,292.852,204.763,311.308,182.448,311.308z
					 M182.448,251.96c-9.672,0-17.554,8.173-17.554,18.21c0,10.038,7.882,18.211,17.554,18.211c9.672,0,17.554-8.173,17.554-18.211
					C200.001,260.133,192.12,251.96,182.448,251.96z"/>
			</g>
		</g>
	</g>
</g>
</svg>
