<?xml version="1.0" encoding="iso-8859-1"?>
<!-- Generator: Adobe Illustrator 16.0.0, SVG Export Plug-In . SVG Version: 6.00 Build 0)  -->
<!DOCTYPE svg PUBLIC "-//W3C//DTD SVG 1.1//EN" "http://www.w3.org/Graphics/SVG/1.1/DTD/svg11.dtd">
<svg version="1.1" id="Layer_1" xmlns="http://www.w3.org/2000/svg" xmlns:xlink="http://www.w3.org/1999/xlink" x="0px" y="0px"
	 width="512px" height="512px" viewBox="0 0 512 512" style="enable-background:new 0 0 512 512;" xml:space="preserve">
<g>
	<path d="M268.492,21.796c5.8,0,11.699,0.943,17.5,2.907c28.571,9.686,43.871,40.665,34.186,69.172
		c-7.715,22.707-28.914,36.878-51.614,36.878c-1.5,0-3.015-0.057-4.515-0.186l-6.172,20.057h124.4
		c21.643,0,39.357,17.707,39.357,39.343v185.229c0,21.629-17.715,39.314-39.357,39.314h-71.028v75.399l-90.614-75.399H128.22
		c-21.643,0-39.357-17.686-39.357-39.314V189.968c0-21.636,17.714-39.343,39.357-39.343h99.271l9.529-30.007
		c-19.086-13.6-28.071-38.4-20.172-61.743C224.549,36.139,245.763,21.796,268.492,21.796 M268.492-0.146L268.492-0.146
		c-32.801,0-61.915,20.893-72.429,51.985c-9.043,26.729-2.672,55.372,15.771,75.614l-0.4,1.229H128.22
		c-33.8,0-61.3,27.493-61.3,61.286v185.229c0,33.771,27.5,61.257,61.3,61.257h84.471l84.515,70.329
		c4.028,3.343,9.015,5.071,14.043,5.071c3.157,0,6.343-0.686,9.314-2.071c7.7-3.614,12.628-11.357,12.628-19.872v-53.457h49.086
		c33.8,0,61.3-27.485,61.3-61.257V189.968c0-33.793-27.5-61.286-61.3-61.286h-58.014c7.328-7.779,13.1-17.171,16.686-27.743
		c6.571-19.351,5.214-40.101-3.844-58.429c-9.057-18.321-24.699-32.021-44.07-38.586C285.092,1.225,276.835-0.14,268.492-0.146
		L268.492-0.146z"/>
	<g>
		<g>
			<path d="M180.335,234.768c0-7.864,6.343-14.235,14.229-14.235h3.485c7.886,0,14.243,6.371,14.243,14.235v19.507
				c0,7.864-6.357,14.236-14.243,14.236h-3.485c-7.886,0-14.229-6.372-14.229-14.236V234.768z"/>
		</g>
		<g>
			<path d="M324.277,333.768c0,8.143-6.571,14.743-14.742,14.743H195.021c-8.114,0-14.686-6.601-14.686-14.743v-2.514
				c0-8.144,6.571-14.743,14.686-14.743h114.515c8.171,0,14.742,6.6,14.742,14.743V333.768z"/>
		</g>
		<g>
			<path d="M324.277,254.275c0,7.864-6.343,14.236-14.271,14.236h-3.457c-7.886,0-14.257-6.372-14.257-14.236v-19.507
				c0-7.864,6.371-14.235,14.257-14.235h3.457c7.929,0,14.271,6.371,14.271,14.235V254.275z"/>
		</g>
	</g>
</g>
</svg>
