<?xml version="1.0" encoding="iso-8859-1"?>
<!-- Generator: Adobe Illustrator 16.0.0, SVG Export Plug-In . SVG Version: 6.00 Build 0)  -->
<!DOCTYPE svg PUBLIC "-//W3C//DTD SVG 1.1//EN" "http://www.w3.org/Graphics/SVG/1.1/DTD/svg11.dtd">
<svg version="1.1" id="Layer_1" xmlns="http://www.w3.org/2000/svg" xmlns:xlink="http://www.w3.org/1999/xlink" x="0px" y="0px"
	 width="512px" height="512px" viewBox="0 0 512 512" style="enable-background:new 0 0 512 512;" xml:space="preserve">
<g>
	<path d="M466.387,148.463c-5.347,0-10.867,1.44-16.4,4.261L403.2,176.557v-71.38c0-18.214-11.146-30.94-27.12-30.94
		c-5.347,0-10.867,1.434-16.413,4.261L312.88,102.33V30.937c0-18.213-11.16-30.939-27.146-30.939c-5.36,0-10.88,1.433-16.427,4.26
		L52.733,114.583c-19.187,9.787-34.227,34.327-34.227,55.867v162.113c0,18.213,11.146,30.934,27.12,30.934
		c5.347,0,10.866-1.44,16.413-4.267l46.8-23.841v71.387c0,18.214,11.16,30.934,27.146,30.934c5.348,0,10.867-1.427,16.414-4.24
		l46.746-23.826v71.413c0,18.214,11.16,30.946,27.134,30.946c5.347,0,10.866-1.439,16.413-4.267l216.613-110.359
		c19.174-9.8,34.187-34.347,34.187-55.867V179.403C493.493,161.19,482.347,148.463,466.387,148.463z M108.84,244.71v67.693
		L52.733,340.99c-2.601,1.333-5.054,2.026-7.106,2.026c-5.773,0-6.641-6.547-6.641-10.453V170.45c0-13.78,10.773-31.36,23.054-37.62
		L278.613,22.503c2.6-1.326,5.066-2.026,7.12-2.026c5.8,0,6.667,6.554,6.667,10.46v81.827L143.094,188.83
		C123.88,198.63,108.84,223.17,108.84,244.71z M199.146,318.937v67.72l-56.053,28.561c-2.601,1.32-5.054,2.014-7.107,2.014
		c-5.8,0-6.666-6.547-6.666-10.454V244.71c0-13.78,10.786-31.366,23.08-37.633L368.974,96.743c2.6-1.326,5.053-2.026,7.106-2.026
		c5.773,0,6.64,6.554,6.64,10.46v81.813l-149.333,76.08C214.187,272.856,199.146,297.39,199.146,318.937z M473.014,341.51
		c0,13.773-10.76,31.347-23.027,37.613l-216.6,110.374c-2.6,1.319-5.053,2.026-7.106,2.026c-5.787,0-6.653-6.561-6.653-10.467
		v-162.12c0-13.786,10.773-31.359,23.066-37.627l216.613-110.34c2.587-1.326,5.027-2.026,7.08-2.026c5.76,0,6.627,6.554,6.627,10.46
		V341.51z"/>
</g>
</svg>
