<?xml version="1.0" encoding="iso-8859-1"?>
<!-- Generator: Adobe Illustrator 16.0.0, SVG Export Plug-In . SVG Version: 6.00 Build 0)  -->
<!DOCTYPE svg PUBLIC "-//W3C//DTD SVG 1.1//EN" "http://www.w3.org/Graphics/SVG/1.1/DTD/svg11.dtd">
<svg version="1.1" id="Layer_1" xmlns="http://www.w3.org/2000/svg" xmlns:xlink="http://www.w3.org/1999/xlink" x="0px" y="0px"
	 width="512px" height="512px" viewBox="0 0 512 512" style="enable-background:new 0 0 512 512;" xml:space="preserve">
<g>
	<g>
		<path d="M255.985,511.996c-68.373,0-132.655-26.631-181.006-74.985C26.628,388.655,0,324.367,0,255.989
			C0,187.614,26.628,123.331,74.98,74.98C123.331,26.632,187.613,0.004,255.985,0.004c68.386,0,132.677,26.628,181.03,74.977
			S512,187.612,512,255.989c0,68.38-26.631,132.668-74.984,181.021C388.662,485.365,324.369,511.996,255.985,511.996z
			 M255.985,23.085c-62.208,0-120.694,24.226-164.686,68.216c-43.992,43.991-68.22,102.479-68.22,164.688
			c0,62.214,24.228,120.706,68.22,164.701c43.992,43.996,102.478,68.225,164.685,68.225c62.22,0,120.716-24.229,164.712-68.225
			c43.994-43.994,68.223-102.486,68.223-164.701c0-62.212-24.229-120.698-68.223-164.688
			C376.701,47.312,318.205,23.085,255.985,23.085z"/>
	</g>
	<g>
		<rect x="310.379" y="186.764" width="23.08" height="138.479"/>
	</g>
	<g>
		<rect x="171.899" y="186.764" width="23.08" height="138.479"/>
	</g>
</g>
</svg>
