<?xml version="1.0" encoding="utf-8"?>
<!-- Generator: Adobe Illustrator 16.0.0, SVG Export Plug-In . SVG Version: 6.00 Build 0)  -->
<!DOCTYPE svg PUBLIC "-//W3C//DTD SVG 1.1//EN" "http://www.w3.org/Graphics/SVG/1.1/DTD/svg11.dtd">
<svg version="1.1" id="Layer_1" xmlns="http://www.w3.org/2000/svg" xmlns:xlink="http://www.w3.org/1999/xlink" x="0px" y="0px"
	 width="512px" height="512px" viewBox="0 0 512 512" enable-background="new 0 0 512 512" xml:space="preserve">
<path d="M420.28,92.013c-42.854,0-78.98,29.635-88.952,69.493l-148.257-44.483c0.213-2.503,0.33-5.033,0.336-7.589
	c0.062-24.5-9.438-47.547-26.718-64.905c-17.281-17.351-40.281-26.945-65-26.992c-50.438,0-91.562,41.038-91.687,91.499
	c-0.094,50.563,40.968,91.782,91.499,91.891c0.031,0,0.219,0,0.219,0c7.258,0,14.322-0.854,21.098-2.458l40.344,126.273
	c-26.089,16.143-43.548,44.996-43.63,77.84c-0.031,24.492,9.438,47.539,26.719,64.896c17.281,17.352,40.311,26.938,64.78,26.984
	c0.031,0,0.219,0,0.219,0c50.469,0,91.593-41.038,91.688-91.498c0.028-22.852-8.218-44.439-23.357-61.323l92.827-86.885
	c15.749,12.859,35.83,20.603,57.685,20.654c0.031,0,0.219,0,0.25,0c50.438,0,91.562-41.047,91.657-91.499
	C512.092,133.349,471.061,92.13,420.28,92.013z M91.72,189.552l-0.156-11.375c-38.032-0.078-68.874-31.086-68.812-69.094
	c0.094-37.938,31.031-68.796,69.093-68.796c18.437,0.039,35.718,7.249,48.719,20.296c13,13.055,20.124,30.383,20.093,48.797
	c-0.094,37.938-30.999,68.797-68.937,68.797V189.552z M134.164,190.479c20.485-10.755,36.433-29.033,44.148-51.135l150.291,45.102
	c0.165,20.151,6.86,38.781,18.078,53.864l-94.337,88.299c-14.938-10.062-32.545-15.485-51.125-15.526
	c-9.466,0-18.604,1.446-27.204,4.129L134.164,190.479z M201.25,471.713v11.375l-0.156-11.375
	c-18.406-0.039-35.719-7.242-48.718-20.288c-13-13.055-20.125-30.383-20.094-48.789c0.094-37.946,31.031-68.805,69.093-68.805
	c16.415,0.035,31.905,5.761,44.281,16.221c0.019,0.017,0.037,0.032,0.056,0.049c1.505,1.274,2.973,2.605,4.382,4.02
	c13,13.055,20.125,30.383,20.094,48.805C270.094,440.855,239.188,471.713,201.25,471.713z M420.343,252.66v11.376l-0.188-11.375
	c-38-0.086-68.874-31.086-68.812-69.093c0.095-37.938,31.031-68.797,69.093-68.797c38.031,0.078,68.875,31.078,68.813,69.093
	C489.188,221.793,458.249,252.66,420.343,252.66z"/>
</svg>
