<?xml version="1.0" encoding="iso-8859-1"?>
<!-- Generator: Adobe Illustrator 16.0.0, SVG Export Plug-In . SVG Version: 6.00 Build 0)  -->
<!DOCTYPE svg PUBLIC "-//W3C//DTD SVG 1.1//EN" "http://www.w3.org/Graphics/SVG/1.1/DTD/svg11.dtd">
<svg version="1.1" id="Layer_1" xmlns="http://www.w3.org/2000/svg" xmlns:xlink="http://www.w3.org/1999/xlink" x="0px" y="0px"
	 width="512px" height="512px" viewBox="0 0 512 512" style="enable-background:new 0 0 512 512;" xml:space="preserve">
<g>
	<g>
		<path d="M256.004,511.998C114.849,511.998,0.006,397.155,0.006,256S114.849,0.002,256.004,0.002
			c141.147,0,255.99,114.843,255.99,255.998S397.151,511.998,256.004,511.998z M256.004,22.924
			C127.489,22.924,22.928,127.485,22.928,256s104.562,233.076,233.076,233.076c128.507,0,233.068-104.562,233.068-233.076
			S384.511,22.924,256.004,22.924z"/>
	</g>
	<g>
		<path d="M232.809,339.28c-3.156,0-6.179-1.305-8.343-3.602l-71.343-75.788l16.687-15.719l62.851,66.757l122.085-134.467
			l16.984,15.422L241.293,335.53c-2.148,2.367-5.188,3.719-8.383,3.75C232.879,339.28,232.848,339.28,232.809,339.28z"/>
	</g>
</g>
</svg>
