<?xml version="1.0" encoding="iso-8859-1"?>
<!-- Generator: Adobe Illustrator 16.0.0, SVG Export Plug-In . SVG Version: 6.00 Build 0)  -->
<!DOCTYPE svg PUBLIC "-//W3C//DTD SVG 1.1//EN" "http://www.w3.org/Graphics/SVG/1.1/DTD/svg11.dtd">
<svg version="1.1" id="Layer_1" xmlns="http://www.w3.org/2000/svg" xmlns:xlink="http://www.w3.org/1999/xlink" x="0px" y="0px"
	 width="512px" height="512px" viewBox="0 0 512 512" style="enable-background:new 0 0 512 512;" xml:space="preserve">
<g>
	<path d="M256,0.002C114.845,0.002,0.002,114.845,0.002,256S114.845,511.998,256,511.998S511.998,397.155,511.998,256
		S397.155,0.002,256,0.002z M256,489.076C127.485,489.076,22.923,384.515,22.923,256S127.485,22.924,256,22.924
		S489.076,127.485,489.076,256S384.515,489.076,256,489.076z"/>
	<polygon points="314.999,181.204 256.422,239.789 197.829,181.204 181.625,197.415 240.219,256 181.625,314.585 197.829,330.788 
		256.422,272.211 314.999,330.788 331.218,314.585 272.624,256 331.218,197.415 	"/>
</g>
</svg>
