<?xml version="1.0" encoding="iso-8859-1"?>
<!-- Generator: Adobe Illustrator 16.0.0, SVG Export Plug-In . SVG Version: 6.00 Build 0)  -->
<!DOCTYPE svg PUBLIC "-//W3C//DTD SVG 1.1//EN" "http://www.w3.org/Graphics/SVG/1.1/DTD/svg11.dtd">
<svg version="1.1" id="Layer_1" xmlns="http://www.w3.org/2000/svg" xmlns:xlink="http://www.w3.org/1999/xlink" x="0px" y="0px"
	 width="512px" height="512px" viewBox="0 0 512 512" style="enable-background:new 0 0 512 512;" xml:space="preserve">
<g>
	<g>
		<g>
			<g>
				<path d="M473.047,396.25h-106v-22.719h106c9.484,0,13.891-14.297,13.891-23.969V137.555c0-10.516-3.375-13.891-13.891-13.891
					H325.406v-87.07c0-10.508-3.375-13.883-13.875-13.883h-262.5c-9.672,0-23.969,4.414-23.969,13.883v312.969
					c0,10.516,13.438,23.969,23.969,23.969h95.922v22.719H49.031c-23.125,0-46.688-23.562-46.688-46.688V36.594
					C2.344,12.828,26.406,0,49.031,0h262.5c22.906,0,36.578,13.672,36.578,36.594v64.359h124.938
					c22.922,0,36.609,13.68,36.609,36.602v212.008C509.656,372.203,496.828,396.25,473.047,396.25z"/>
			</g>
		</g>
	</g>
	<g>
		<g>
			<polygon points="256.188,512 185.219,441.031 201.281,424.984 256.188,479.875 312.172,423.891 328.234,439.953 			"/>
		</g>
	</g>
	<g>
		<g>
			<polygon points="256.188,512 185.219,441.031 201.281,424.984 256.188,479.875 312.172,423.891 328.234,439.953 			"/>
		</g>
	</g>
	<g>
		<g>
			<rect x="244.641" y="294.031" width="22.719" height="201.922"/>
		</g>
	</g>
	<g>
		<g>
			<rect x="244.641" y="294.031" width="22.719" height="201.922"/>
		</g>
	</g>
</g>
</svg>
