<?xml version="1.0" encoding="iso-8859-1"?>
<!-- Generator: Adobe Illustrator 16.0.0, SVG Export Plug-In . SVG Version: 6.00 Build 0)  -->
<!DOCTYPE svg PUBLIC "-//W3C//DTD SVG 1.1//EN" "http://www.w3.org/Graphics/SVG/1.1/DTD/svg11.dtd">
<svg version="1.1" id="Layer_1" xmlns="http://www.w3.org/2000/svg" xmlns:xlink="http://www.w3.org/1999/xlink" x="0px" y="0px"
	 width="512px" height="512px" viewBox="0 0 512 512" style="enable-background:new 0 0 512 512;" xml:space="preserve">
<g>
	<g>
		<path d="M20.957,196.626c-3.062,0-6.046-1.234-8.234-3.492c-2.891-2.992-3.938-7.328-2.719-11.312
			C29.957,116.291,74.253,62.47,134.706,30.26C195.159-1.958,264.533-8.716,330.064,11.276
			c84.061,25.617,148.451,91.507,172.232,176.249l-22.062,6.195c-21.672-77.172-80.311-137.188-156.857-160.515
			c-59.672-18.188-122.859-12.055-177.89,17.288c-48.75,25.969-85.953,67.375-106.453,117.938l78.312-21.055l5.953,22.133
			l-99.359,26.719C22.957,196.494,21.957,196.626,20.957,196.626z"/>
	</g>
	<g>
		<path d="M256.549,511.999c-24.703,0-49.796-3.594-74.625-11.164C97.862,475.21,33.472,409.328,9.691,324.594l22.062-6.195
			c21.672,77.172,80.312,137.18,156.858,160.515c116.015,35.367,238.669-24.358,283.951-134.28l-82.076,25.258l-6.734-21.914
			L487.656,316c4.078-1.266,8.469-0.156,11.469,2.836c3,3,4.109,7.398,2.875,11.461
			C468.344,440.727,366.439,511.999,256.549,511.999z"/>
	</g>
</g>
</svg>
