<?xml version="1.0" encoding="iso-8859-1"?>
<!-- Generator: Adobe Illustrator 16.0.0, SVG Export Plug-In . SVG Version: 6.00 Build 0)  -->
<!DOCTYPE svg PUBLIC "-//W3C//DTD SVG 1.1//EN" "http://www.w3.org/Graphics/SVG/1.1/DTD/svg11.dtd">
<svg version="1.1" id="Layer_1" xmlns="http://www.w3.org/2000/svg" xmlns:xlink="http://www.w3.org/1999/xlink" x="0px" y="0px"
	 width="512px" height="512px" viewBox="0 0 512 512" style="enable-background:new 0 0 512 512;" xml:space="preserve">
<g>
	<path d="M469.969,0H42.031C18.859,0,0,18.852,0,42.031v427.938C0,493.141,18.859,512,42.031,512h427.938
		C493.141,512,512,493.141,512,469.969V42.031C512,18.852,493.141,0,469.969,0z M42.031,22.922h427.938
		c10.547,0,19.109,8.57,19.109,19.109v70.055H22.922V42.031C22.922,31.492,31.484,22.922,42.031,22.922z M469.969,489.078H42.031
		c-10.547,0-19.109-8.562-19.109-19.109V135.008h466.156v334.961C489.078,480.516,480.516,489.078,469.969,489.078z"/>
	<polygon points="114.438,255.203 170.938,311.703 115.516,367.109 131.734,383.328 203.359,311.703 130.641,238.992 	"/>
	<rect x="266.188" y="366.797" width="112.078" height="22.938"/>
</g>
</svg>
