<?xml version="1.0" encoding="iso-8859-1"?>
<!-- Generator: Adobe Illustrator 16.0.0, SVG Export Plug-In . SVG Version: 6.00 Build 0)  -->
<!DOCTYPE svg PUBLIC "-//W3C//DTD SVG 1.1//EN" "http://www.w3.org/Graphics/SVG/1.1/DTD/svg11.dtd">
<svg version="1.1" id="Layer_1" xmlns="http://www.w3.org/2000/svg" xmlns:xlink="http://www.w3.org/1999/xlink" x="0px" y="0px"
	 width="512px" height="512px" viewBox="0 0 512 512" style="enable-background:new 0 0 512 512;" xml:space="preserve">
<g>
	<g>
		<g>
			<path d="M387.594,214.105c26.328-15.641,44.078-44.289,44.078-77.078c0-49.43-40.203-89.633-89.641-89.633
				c-24.938,0-47.516,10.25-63.781,26.734c6.078,4.68,11.719,9.883,16.859,15.562c12.047-11.953,28.625-19.375,46.922-19.375
				c36.781,0,66.719,29.922,66.719,66.711c0,36.797-29.938,66.734-66.719,66.734c-5.875,0-11.484-1.008-16.922-2.438
				c-2.531,11.766-6.656,22.938-12.234,33.258c10.156-2.352,20.625-3.711,31.328-3.711c77.438,0,143.766,65.047,144.875,142.047
				L512,372.574C510.938,298.199,457.328,233.613,387.594,214.105z"/>
		</g>
	</g>
	<g>
		<path d="M250.984,270.02c34.375-18.008,57.906-53.984,57.906-95.414c0-59.375-48.297-107.695-107.656-107.695
			c-59.391,0-107.703,48.32-107.703,107.695c0,42.156,24.406,78.633,59.781,96.312C66.516,293.277,1.312,371.355,0,464.262
			l22.922,0.344c1.375-97.828,82.562-177.406,180.969-177.406c98.391,0,179.578,79.578,180.969,177.406l22.938-0.344
			C406.453,370.105,339.5,291.168,250.984,270.02z M116.469,174.605c0-46.734,38.031-84.766,84.766-84.766
			c46.719,0,84.734,38.031,84.734,84.766c0,46.742-38.016,84.773-84.734,84.773C154.5,259.379,116.469,221.348,116.469,174.605z"/>
	</g>
</g>
</svg>
