<?xml version="1.0" encoding="iso-8859-1"?>
<!-- Generator: Adobe Illustrator 16.0.0, SVG Export Plug-In . SVG Version: 6.00 Build 0)  -->
<!DOCTYPE svg PUBLIC "-//W3C//DTD SVG 1.1//EN" "http://www.w3.org/Graphics/SVG/1.1/DTD/svg11.dtd">
<svg version="1.1" id="Layer_1" xmlns="http://www.w3.org/2000/svg" xmlns:xlink="http://www.w3.org/1999/xlink" x="0px" y="0px"
	 width="512px" height="512px" viewBox="0 0 512 512" style="enable-background:new 0 0 512 512;" xml:space="preserve">
<g>
	<g>
		<g>
			<path d="M394.354,215.245c23.209-16.75,38.5-43.854,38.5-74.604c0-50.771-41.312-92.073-92.083-92.073
				c-22.104,0-42.146,8.146-58.042,21.178c8.104,6.062,15.5,12.947,22.062,20.646c10.167-7.302,22.521-11.708,35.979-11.708
				c34.167,0,61.979,27.791,61.979,61.958c0,34.188-27.812,61.989-61.979,61.989c-2.104,0-4.062-0.406-6.104-0.614
				c-2.375,12.959-6.604,25.25-12.416,36.646c6.791-1.073,13.646-1.792,20.666-1.792c74.271,0,137.917,62.396,138.959,136.229
				L512,372.683C510.979,300.475,460.833,237.359,394.354,215.245z"/>
		</g>
	</g>
	<g>
		<path d="M260.854,270.297c30.646-19.521,51.021-53.697,51.021-92.625c0-60.583-49.271-109.875-109.812-109.875
			c-60.604,0-109.896,49.292-109.896,109.875c0,39.584,21.084,74.24,52.584,93.584C62.188,296.641,1.25,373.016,0,463.016
			l30.125,0.417C31.458,369.1,109.75,292.37,204.666,292.37c94.875,0,173.188,76.729,174.542,171.062l30.125-0.417
			C408,371.683,345.229,294.558,260.854,270.297z M122.271,177.672c0-43.979,35.792-79.75,79.792-79.75
			c43.938,0,79.708,35.771,79.708,79.75s-35.771,79.75-79.708,79.75C158.062,257.422,122.271,221.651,122.271,177.672z"/>
	</g>
</g>
</svg>
