<?xml version="1.0" encoding="iso-8859-1"?>
<!-- Generator: Adobe Illustrator 16.0.0, SVG Export Plug-In . SVG Version: 6.00 Build 0)  -->
<!DOCTYPE svg PUBLIC "-//W3C//DTD SVG 1.1//EN" "http://www.w3.org/Graphics/SVG/1.1/DTD/svg11.dtd">
<svg version="1.1" id="Layer_1" xmlns="http://www.w3.org/2000/svg" xmlns:xlink="http://www.w3.org/1999/xlink" x="0px" y="0px"
	 width="512px" height="512px" viewBox="0 0 512 512" style="enable-background:new 0 0 512 512;" xml:space="preserve">
<path d="M319.248,260.973c41.133-23.296,68.96-67.464,68.96-118.024c0-74.729-60.812-135.521-135.542-135.521
	c-74.729,0-135.541,60.791-135.541,135.521c0,51.453,28.814,96.291,71.146,119.243C81.381,291.669,1.646,388.97,0,504.156
	l30.125,0.416c1.729-122.082,103.062-221.416,225.896-221.416c122.875,0,224.188,99.334,225.875,221.416L512,504.156
	C510.383,387.344,428.434,288.914,319.248,260.973z M147.25,142.948c0-58.125,47.291-105.417,105.416-105.417
	s105.417,47.292,105.417,105.417s-47.292,105.417-105.417,105.417S147.25,201.073,147.25,142.948z"/>
</svg>
