<?xml version="1.0" encoding="iso-8859-1"?>
<!-- Generator: Adobe Illustrator 16.0.0, SVG Export Plug-In . SVG Version: 6.00 Build 0)  -->
<!DOCTYPE svg PUBLIC "-//W3C//DTD SVG 1.1//EN" "http://www.w3.org/Graphics/SVG/1.1/DTD/svg11.dtd">
<svg version="1.1" id="Layer_1" xmlns="http://www.w3.org/2000/svg" xmlns:xlink="http://www.w3.org/1999/xlink" x="0px" y="0px"
	 width="512px" height="512px" viewBox="0 0 512 512" style="enable-background:new 0 0 512 512;" xml:space="preserve">
<path d="M282.414,28.472l16.271,79.809c11.104,3.218,21.727,7.666,31.623,13.124l68.975-43.883l36.289,36.278l-44.998,67.913
	c5.5,9.968,9.959,20.54,13.166,31.654l79.809,17.759v51.268l-79.809,16.281c-3.207,11.124-7.666,21.696-13.166,31.644l43.914,68.975
	l-36.246,36.237l-67.977-44.955c-9.916,5.541-20.52,9.979-31.664,13.145l-17.729,79.808h-51.289l-16.248-79.786
	c-11.104-3.24-21.729-7.625-31.603-13.146l-69.037,43.925l-36.27-36.259l44.956-67.975c-5.458-9.916-9.916-20.52-13.104-31.654
	l-79.828-17.739v-51.257l79.828-16.259c3.188-11.166,7.646-21.749,13.104-31.665l-43.872-68.996l36.247-36.247l67.976,44.955
	c9.937-5.479,20.499-9.927,31.603-13.145l17.748-79.809H282.414 M256,301.102c24.917,0,45.061-20.166,45.061-45.07
	c0-24.905-20.145-45.112-45.061-45.112c-24.915,0-45.101,20.207-45.101,45.112C210.899,280.936,231.084,301.102,256,301.102
	 M282.414,0.026h-51.33c-13.332,0-24.873,9.26-27.769,22.279l-14.291,64.277c-1.729,0.698-3.458,1.406-5.166,2.146l-54.435-35.987
	c-4.791-3.177-10.229-4.719-15.666-4.719c-7.332,0-14.645,2.834-20.123,8.334L57.408,92.614
	c-9.437,9.426-11.041,24.123-3.896,35.362l35.311,55.56c-0.729,1.738-1.458,3.479-2.167,5.218l-63.87,13.021
	c-13.25,2.688-22.77,14.353-22.77,27.862v51.257c0,13.333,9.249,24.874,22.27,27.77l64.267,14.28
	c0.688,1.739,1.396,3.479,2.146,5.198L52.7,382.565c-7.458,11.28-5.937,26.248,3.604,35.81l36.289,36.259
	c5.5,5.479,12.771,8.322,20.124,8.322c5.25,0,10.541-1.459,15.249-4.438l55.559-35.352c1.709,0.739,3.438,1.458,5.188,2.156
	l13.021,63.881c2.687,13.249,14.353,22.77,27.852,22.77h51.289c13.332,0,24.873-9.26,27.748-22.279l14.291-64.215
	c1.771-0.698,3.521-1.438,5.271-2.188l54.393,35.966c4.791,3.177,10.229,4.719,15.666,4.719c7.332,0,14.623-2.833,20.123-8.333
	l36.227-36.237c9.438-9.427,11.041-24.134,3.896-35.383l-35.332-55.507c0.75-1.729,1.459-3.479,2.166-5.219l63.914-13.03
	c13.229-2.708,22.748-14.354,22.748-27.874v-51.268c0-13.332-9.25-24.873-22.248-27.769l-64.309-14.302
	c-0.688-1.75-1.396-3.479-2.146-5.197l35.998-54.351c7.479-11.291,5.979-26.27-3.584-35.831l-36.289-36.279
	c-5.5-5.489-12.791-8.322-20.123-8.322c-5.271,0-10.562,1.469-15.25,4.447l-55.537,35.331c-1.73-0.739-3.438-1.468-5.188-2.155
	l-13.041-63.913C307.58,9.546,295.914,0.026,282.414,0.026L282.414,0.026z M256,272.655c-9.187,0-16.665-7.458-16.665-16.624
	c0-9.187,7.479-16.666,16.665-16.666c9.167,0,16.604,7.479,16.604,16.666C272.604,265.197,265.166,272.655,256,272.655L256,272.655z
	"/>
</svg>
