<?xml version="1.0" encoding="iso-8859-1"?>
<!-- Generator: Adobe Illustrator 16.0.0, SVG Export Plug-In . SVG Version: 6.00 Build 0)  -->
<!DOCTYPE svg PUBLIC "-//W3C//DTD SVG 1.1//EN" "http://www.w3.org/Graphics/SVG/1.1/DTD/svg11.dtd">
<svg version="1.1" id="Layer_1" xmlns="http://www.w3.org/2000/svg" xmlns:xlink="http://www.w3.org/1999/xlink" x="0px" y="0px"
	 width="512px" height="512px" viewBox="0 0 512 512" style="enable-background:new 0 0 512 512;" xml:space="preserve">
<g>
	<path d="M230.064,511.984c-6.938,0-13.041-4.594-14.957-11.291l-67.142-236.84l-38.29,130.534
		c-1.938,6.624-7.999,11.155-14.895,11.155H7.557v-31.051h75.6l50.163-171.042c1.938-6.625,8-11.155,14.896-11.155
		c0.021,0,0.041,0,0.062,0c6.937,0.021,12.999,4.635,14.874,11.291l65.62,231.403L329.725,11.994
		c1.688-7.146,7.729-12.624,15.541-11.916c7.332,0.208,13.541,5.541,14.832,12.78l64.746,361.634h79.6v31.051h-92.6
		c-7.52,0-13.957-5.386-15.289-12.78l-53.893-301.17l-97.495,408.476c-1.646,6.864-7.708,11.771-14.791,11.916
		C230.272,511.984,230.168,511.984,230.064,511.984z"/>
</g>
</svg>
