<?xml version="1.0" encoding="iso-8859-1"?>
<!-- Generator: Adobe Illustrator 16.0.0, SVG Export Plug-In . SVG Version: 6.00 Build 0)  -->
<!DOCTYPE svg PUBLIC "-//W3C//DTD SVG 1.1//EN" "http://www.w3.org/Graphics/SVG/1.1/DTD/svg11.dtd">
<svg version="1.1" id="Layer_1" xmlns="http://www.w3.org/2000/svg" xmlns:xlink="http://www.w3.org/1999/xlink" x="0px" y="0px"
	 width="512px" height="512px" viewBox="0 0 512 512" style="enable-background:new 0 0 512 512;" xml:space="preserve">
<g>
	<g>
		<g>
			<g>
				<path d="M256,504.469c-141.167,0-256-114.834-256-256C0,165.51,40.521,87.302,108.417,39.344l17.375,24.583
					C65.875,106.281,30.104,175.26,30.104,248.469c0,124.562,101.333,225.896,225.896,225.896
					c124.541,0,225.875-101.333,225.875-225.896c0-72.334-35.125-140.875-93.959-183.292l17.625-24.438
					C472.208,88.822,512,166.469,512,248.469C512,389.635,397.166,504.469,256,504.469z"/>
			</g>
		</g>
	</g>
	<g>
		<g>
			<rect x="242.521" y="7.531" width="30.125" height="240.938"/>
		</g>
	</g>
</g>
</svg>
