<?xml version="1.0" encoding="iso-8859-1"?>
<!-- Generator: Adobe Illustrator 16.0.0, SVG Export Plug-In . SVG Version: 6.00 Build 0)  -->
<!DOCTYPE svg PUBLIC "-//W3C//DTD SVG 1.1//EN" "http://www.w3.org/Graphics/SVG/1.1/DTD/svg11.dtd">
<svg version="1.1" id="Layer_1" xmlns="http://www.w3.org/2000/svg" xmlns:xlink="http://www.w3.org/1999/xlink" x="0px" y="0px"
	 width="512px" height="512px" viewBox="0 0 512 512" style="enable-background:new 0 0 512 512;" xml:space="preserve">
<g>
	<path d="M86.047,150.364h-0.396v66.5c0,4.928,1.969,17.24,20.25,25.115l120.927,51.771c8.531,3.646,19.219,5.479,29.896,5.479
		c10.636,0,21.25-1.812,29.709-5.438l120.562-51.656c16.833-7.229,19.375-18.688,19.375-24.865v-66.906h-0.417
		c0.062-0.625,0.104-1.229,0.104-1.719c0.021-4.875-1.834-17-18.938-24.344L284.786,71.761c-15.844-6.812-41.719-6.812-57.552,0
		l-122.344,52.541c-17.104,7.344-18.948,19.469-18.938,24.344C85.953,149.136,85.995,149.739,86.047,150.364z M273.817,264.375
		c-8.802,3.792-25.5,3.75-34.385-0.042l-120.906-51.75c-0.323-0.135-0.615-0.271-0.875-0.396v-33.729l109.583,47.073
		c7.927,3.396,18.146,5.271,28.771,5.271s20.844-1.875,28.761-5.281l109.604-47.052v34.281L273.817,264.375z M239.87,101.156
		c7.812-3.354,24.438-3.354,32.271,0l110.396,47.562l-110.396,47.417c-7.812,3.354-24.469,3.354-32.281,0l-110.364-47.584
		L239.87,101.156z"/>
	<path d="M101.651,249.667c-8.834,0-16,7.166-16,16v24.375c0,4.938,1.969,17.25,20.25,25.104l120.927,51.75
		c8.542,3.667,19.239,5.5,29.917,5.5c10.625,0,21.25-1.812,29.688-5.438l120.562-51.646c16.833-7.25,19.375-18.688,19.375-24.875
		v-24.771c0-8.834-7.167-16-16-16c-8.834,0-16,7.166-16,16v20.25l-120.553,51.625c-8.802,3.791-25.5,3.771-34.385-0.062
		l-120.928-51.75c-0.312-0.125-0.594-0.25-0.854-0.375v-19.688C117.651,256.833,110.484,249.667,101.651,249.667z"/>
	<path d="M426.37,363.604v-23.542c0-8.833-7.167-16-16-16c-8.834,0-16,7.167-16,16v19.021l-120.553,51.625
		c-8.781,3.812-25.479,3.729-34.385-0.062l-120.948-51.75c-0.302-0.146-0.583-0.271-0.833-0.375v-18.458c0-8.833-7.167-16-16-16
		c-8.834,0-16,7.167-16,16v23.125c0,4.958,1.969,17.292,20.25,25.104l120.927,51.771c8.552,3.667,19.25,5.5,29.938,5.5
		c10.625,0,21.229-1.812,29.667-5.438l120.562-51.646C423.849,381.229,426.37,369.771,426.37,363.604z"/>
	<path d="M46.109,391.833v-89.062c0-16.875-7-34.812-18.083-46.771c11.083-11.958,18.083-29.886,18.083-46.771v-89.062
		c0-27.979,8-33.49,16.479-39.323c5.822-4,21.969-5.906,31.052-5.927l-0.021-32c-5.406,0-33.167,0.562-49.167,11.572
		C26.245,67.011,14.12,82.979,14.12,120.167v89.062c0,16.229-10.595,28.197-14.084,28.521v4.5l-0.031,32
		c3.521,0.323,14.115,12.292,14.115,28.521v89.062c0,37.188,12.125,53.146,30.333,65.688c16,11,43.761,11.562,49.167,11.562
		l0.021-32c-9.083-0.021-25.229-1.938-31.052-5.938C54.109,425.312,46.109,419.812,46.109,391.833z"/>
	<path d="M497.891,209.229v-89.062c0-37.209-12.125-53.167-30.312-65.678c-16.021-11.01-43.792-11.572-49.188-11.572l-0.021,32
		c9.083,0.021,25.229,1.927,31.062,5.938c8.479,5.822,16.479,11.322,16.479,39.312v89.062c0,16.885,7,34.812,18.084,46.771
		c-11.084,11.958-18.084,29.896-18.084,46.771v89.062c0,27.979-8,33.479-16.5,39.312c-5.812,4-21.958,5.917-31.041,5.938l0.021,32
		c5.396,0,33.167-0.562,49.167-11.562c18.208-12.521,30.333-28.479,30.333-65.688v-89.062c0-16.229,10.604-28.197,14.083-28.521
		v-4.5l0.021-32C508.495,237.427,497.891,225.458,497.891,209.229z"/>
</g>
</svg>
