<?xml version="1.0" encoding="iso-8859-1"?>
<!-- Generator: Adobe Illustrator 16.0.0, SVG Export Plug-In . SVG Version: 6.00 Build 0)  -->
<!DOCTYPE svg PUBLIC "-//W3C//DTD SVG 1.1//EN" "http://www.w3.org/Graphics/SVG/1.1/DTD/svg11.dtd">
<svg version="1.1" id="Layer_1" xmlns="http://www.w3.org/2000/svg" xmlns:xlink="http://www.w3.org/1999/xlink" x="0px" y="0px"
	 width="512px" height="512px" viewBox="0 0 512 512" style="enable-background:new 0 0 512 512;" xml:space="preserve">
<g>
	<g>
		<path d="M256.039,475.922l-45.432-0.039C74.804,475.883,0,402.629,0,269.598c0-40.921,12.451-75.607,38.02-105.764
			c-2.863-22.774,0.471-70.99,18.805-117.098l4.254-10.657l11.393,1.255c2.039,0.226,49.529,5.912,120.49,53.245
			c15.666-3.265,38.098-5.108,63.039-5.108s47.373,1.843,63.039,5.108C390,43.246,437.51,37.559,439.549,37.333l11.393-1.255
			l4.255,10.657c18.313,46.098,21.647,94.313,18.784,117.098C499.549,193.991,512,228.677,512,269.598
			c0,133.031-74.804,206.285-210.607,206.285L256.039,475.922z M80.49,69.696C66,113.059,66,155.167,68.314,162.941l2.411,8.196
			l-5.432,7.304c-24,26.04-35.177,55-35.177,91.156c0,145.619,98.157,176.168,180.49,176.168L256,445.805l45.393-0.039
			c82.333,0,180.49-30.549,180.49-176.168c0-36.156-11.177-65.117-35.177-91.156l-6.471-7.02l3.589-8.853
			c2.195-7.441,2.176-49.529-12.295-92.873c-17.393,4.529-53.666,17-101,49.49l-5.784,3.961l-6.765-1.873
			c-25.373-7.02-98.588-7.02-123.961,0l-6.765,1.873l-5.784-3.961C134.156,86.716,97.902,74.246,80.49,69.696z"/>
	</g>
	<path d="M164.098,245.814c11.727,0,24.863,0.922,38.785,1.912c16.666,1.177,33.882,2.393,52.353,2.393c0.157,0,0.313,0,0.471,0
		h0.059h1c18.471,0,35.706-1.216,52.372-2.402c13.922-0.98,27.079-1.902,38.805-1.902c21.922,0,34.823,3.235,43.098,10.843
		c12.844,11.804,18.824,25.313,18.824,42.521c0,55.725-22.902,82.273-153.099,82.273h-1.529
		c-130.196,0-153.099-26.549-153.099-82.273c0-17.207,5.98-30.717,18.824-42.511C129.255,249.059,142.137,245.814,164.098,245.814
		 M347.922,215.687c-26.941,0.01-58.039,4.314-91.157,4.314c-0.235,0-0.471-0.01-0.765-0.03c-0.235,0.02-0.529,0.03-0.765,0.03
		c-33.099,0-64.196-4.314-91.138-4.314c-25.451,0-47.215,3.853-63.51,18.794c-20.098,18.46-28.568,40.726-28.568,64.697
		c0,100.078,80.216,112.391,183.216,112.391h1.529c103,0,183.216-12.312,183.216-112.391c0-23.971-8.471-46.236-28.568-64.697
		C395.137,219.53,373.393,215.687,347.922,215.687L347.922,215.687z"/>
	<g>
		<path d="M172.451,342.334c-16.529,0-29.961-13.451-29.961-29.98c0-16.51,13.432-29.941,29.961-29.941
			c16.51,0,29.941,13.432,29.941,29.941C202.393,328.883,188.961,342.334,172.451,342.334z"/>
	</g>
	<g>
		<path d="M341.863,342.334c-16.529,0-29.961-13.451-29.961-29.98c0-16.51,13.432-29.941,29.961-29.941
			c16.51,0,29.941,13.432,29.941,29.941C371.805,328.883,358.373,342.334,341.863,342.334z"/>
	</g>
</g>
</svg>
