<?xml version="1.0" encoding="iso-8859-1"?>
<!-- Generator: Adobe Illustrator 16.0.0, SVG Export Plug-In . SVG Version: 6.00 Build 0)  -->
<!DOCTYPE svg PUBLIC "-//W3C//DTD SVG 1.1//EN" "http://www.w3.org/Graphics/SVG/1.1/DTD/svg11.dtd">
<svg version="1.1" id="Layer_1" xmlns="http://www.w3.org/2000/svg" xmlns:xlink="http://www.w3.org/1999/xlink" x="0px" y="0px"
	 width="512px" height="512px" viewBox="0 0 512 512" style="enable-background:new 0 0 512 512;" xml:space="preserve">
<g>
	<path style="fill:none;" d="M366.861,281.329c23.217,0,42.119-18.893,42.119-42.118c0-23.216-18.902-42.107-42.119-42.107
		c-23.215,0-42.117,18.892-42.117,42.107C324.744,262.437,343.646,281.329,366.861,281.329z"/>
	<path style="fill:none;" d="M187.254,72.24c0-23.226-18.902-42.117-42.117-42.117c-23.216,0-42.117,18.892-42.117,42.117
		s18.901,42.118,42.117,42.118C168.352,114.358,187.254,95.466,187.254,72.24z"/>
	<path style="fill:none;" d="M366.861,397.682c-23.215,0-42.117,18.882-42.117,42.118c0,23.215,18.902,42.078,42.117,42.078
		c23.217,0,42.119-18.863,42.119-42.078C408.98,416.563,390.078,397.682,366.861,397.682z"/>
	<path d="M366.861,367.563c-34.861,0-64.039,24.824-70.764,57.727h-90.726c-24.901,0-45.176-20.275-45.176-45.177V254.27h136.058
		c6.961,32.618,35.961,57.177,70.607,57.177c39.824,0,72.236-32.402,72.236-72.235c0-39.823-32.412-72.226-72.236-72.226
		c-34.646,0-63.646,24.559-70.607,57.167H160.196v-81.313c32.607-6.951,57.176-35.932,57.176-70.599
		c0-39.833-32.411-72.235-72.234-72.235c-39.824,0-72.235,32.402-72.235,72.235c0,34.667,24.568,63.647,57.177,70.599v237.274
		c0,41.51,33.783,75.294,75.293,75.294h91.06c7.176,32.314,35.98,56.588,70.43,56.588c39.824,0,72.236-32.392,72.236-72.195
		C439.098,399.956,406.686,367.563,366.861,367.563z M366.861,197.104c23.217,0,42.119,18.892,42.119,42.107
		c0,23.226-18.902,42.118-42.119,42.118c-23.215,0-42.117-18.893-42.117-42.118C324.744,215.995,343.646,197.104,366.861,197.104z
		 M103.02,72.24c0-23.226,18.901-42.117,42.117-42.117c23.215,0,42.117,18.892,42.117,42.117s-18.902,42.118-42.117,42.118
		C121.921,114.358,103.02,95.466,103.02,72.24z M366.861,481.878c-23.215,0-42.117-18.863-42.117-42.078
		c0-23.236,18.902-42.118,42.117-42.118c23.217,0,42.119,18.882,42.119,42.118C408.98,463.015,390.078,481.878,366.861,481.878z"/>
</g>
</svg>
