<?xml version="1.0" encoding="iso-8859-1"?>
<!-- Generator: Adobe Illustrator 16.0.0, SVG Export Plug-In . SVG Version: 6.00 Build 0)  -->
<!DOCTYPE svg PUBLIC "-//W3C//DTD SVG 1.1//EN" "http://www.w3.org/Graphics/SVG/1.1/DTD/svg11.dtd">
<svg version="1.1" id="Layer_1" xmlns="http://www.w3.org/2000/svg" xmlns:xlink="http://www.w3.org/1999/xlink" x="0px" y="0px"
	 width="512px" height="512px" viewBox="0 0 512 512" style="enable-background:new 0 0 512 512;" xml:space="preserve">
<path d="M457.09,414.788c-0.203-0.687-20.162-69.858-25.678-115.96c-5.838-48.828-10.889-94.061-10.989-94.061
	c-0.021-81.373-65.718-148.344-149.273-155.656V0h-31.03v49.151c-83.273,7.616-148.606,74.444-148.566,154.606
	c-0.04,0.444-3.394,47.717-10.868,94.465c-7.435,46.545-25.697,116.242-25.879,116.929c-1.212,4.646-0.223,9.616,2.727,13.415
	c2.929,3.817,7.475,6.061,12.283,6.061h108.041C178.302,477.354,213.15,512,255.998,512c42.869,0,77.697-34.646,78.162-77.373
	h108.02c4.89,0,9.476-2.304,12.404-6.203C457.514,424.525,458.443,419.475,457.09,414.788z M255.998,480.97
	c-25.737,0-46.666-20.728-47.111-46.343h94.243C302.665,460.242,281.756,480.97,255.998,480.97z M89.776,403.596
	c6.101-24.565,16.283-67.454,21.535-100.484c7.697-48.081,11.051-95.213,11.232-98.283c0-69.151,59.858-125.414,133.454-125.414
	c73.556,0,133.395,56.263,133.495,127.131c0,0,5.151,46.102,11.091,95.96c4,33.313,14.646,76.323,21.232,101.091H89.776z"/>
</svg>
