<?xml version="1.0" encoding="iso-8859-1"?>
<!-- Generator: Adobe Illustrator 16.0.0, SVG Export Plug-In . SVG Version: 6.00 Build 0)  -->
<!DOCTYPE svg PUBLIC "-//W3C//DTD SVG 1.1//EN" "http://www.w3.org/Graphics/SVG/1.1/DTD/svg11.dtd">
<svg version="1.1" id="Layer_1" xmlns="http://www.w3.org/2000/svg" xmlns:xlink="http://www.w3.org/1999/xlink" x="0px" y="0px"
	 width="512px" height="512px" viewBox="0 0 512 512" style="enable-background:new 0 0 512 512;" xml:space="preserve">
<g>
	<g>
		<path d="M512,310.547c0-62.927-47.209-115.031-108.062-122.781C384.625,123.641,325.333,78.141,256,78.141
			c-69.333,0-128.625,45.5-147.938,109.625C47.208,195.516,0,247.62,0,310.547c0,65.166,50.667,118.604,114.667,123.312V401.4
			C68.312,396.756,32,358.109,32,310.547c0-50.678,41.083-91.771,91.771-91.771c3.521,0,6.958,0.24,10.396,0.636
			c6.625-61.448,58.646-109.271,121.833-109.271c63.208,0,115.208,47.823,121.833,109.271c3.396-0.396,6.875-0.636,10.396-0.636
			c50.709,0,91.771,41.093,91.771,91.771c0,47.562-36.292,86.209-82.667,90.854v32.459C461.333,429.15,512,375.713,512,310.547z"/>
	</g>
	<path d="M365.625,360.4l-97.875-97.863c-6.25-6.25-16.375-6.25-22.625,0l-98.75,98.738L169,383.9l71-71v120.959h32V312.025l71,71
		L365.625,360.4z"/>
</g>
</svg>
