<?xml version="1.0" encoding="iso-8859-1"?>
<!-- Generator: Adobe Illustrator 16.0.0, SVG Export Plug-In . SVG Version: 6.00 Build 0)  -->
<!DOCTYPE svg PUBLIC "-//W3C//DTD SVG 1.1//EN" "http://www.w3.org/Graphics/SVG/1.1/DTD/svg11.dtd">
<svg version="1.1" id="Layer_1" xmlns="http://www.w3.org/2000/svg" xmlns:xlink="http://www.w3.org/1999/xlink" x="0px" y="0px"
	 width="512px" height="512px" viewBox="0 0 512 512" style="enable-background:new 0 0 512 512;" xml:space="preserve">
<g id="Page_1_2_">
	<g id="Logo_2_" transform="translate(-31.500000, -35.000000)">
		<g id="Doodle_2_" transform="translate(0.500000, 0.000000)">
			<path id="Bubble_flat_2_" d="M290.944,98.966c111.858,0,202.545,77.295,202.545,172.649c0,26.931-7.224,52.419-20.116,75.109
				c18.227,21.82,32.619,36.342,32.619,36.342c14.207,15.43,10.335,27.469-8.021,27.469c-1.444,0-3.001-0.074-4.631-0.24
				c0,0-0.556,0.018-1.593,0.018c-6.612,0-32.878-0.666-65.385-10.299c-6.168,4.725-12.633,9.113-19.449,13.17
				c9.78,26.525,18.282,44.918,18.282,44.918c6.501,15.467,3.001,24.932-7.391,24.932c-3.704,0-8.298-1.205-13.614-3.779
				c0,0-32.729-11.076-67.57-39.396c-14.67,2.889-29.95,4.426-45.677,4.426c-17.003,0-33.506-1.797-49.288-5.168
				c-35.175,28.859-68.515,40.139-68.515,40.139c-5.316,2.574-9.891,3.779-13.596,3.779c-10.373,0-13.874-9.465-7.372-24.932
				c0,0,9.002-19.449,19.079-47.195c-6.279-3.908-12.281-8.133-17.949-12.633c-34.989,11.299-63.94,12.039-71.015,12.039
				c-1.093,0-1.667-0.018-1.667-0.018c-1.63,0.166-3.167,0.24-4.63,0.24c-18.338,0-22.19-12.039-8.002-27.469
				c0,0,16.967-17.133,37.416-42.121c-10.928-21.227-17.003-44.658-17.003-69.33C88.401,176.261,179.087,98.966,290.944,98.966
				 M392.244,299.232c14.893,0,27.006-12.354,27.006-27.617c0-15.244-12.113-27.617-27.006-27.617
				c-14.947,0-27.005,12.373-27.005,27.617C365.239,286.878,377.297,299.232,392.244,299.232 M290.944,299.232
				c14.948,0,27.007-12.354,27.007-27.617c0-15.244-12.059-27.617-27.007-27.617c-14.891,0-27.005,12.373-27.005,27.617
				C263.939,286.878,276.053,299.232,290.944,299.232 M189.682,299.232c14.911,0,27.006-12.354,27.006-27.617
				c0-15.244-12.095-27.617-27.006-27.617c-14.929,0-27.006,12.373-27.006,27.617C162.676,286.878,174.753,299.232,189.682,299.232
				 M290.944,70.516c-127.379,0-230.995,90.224-230.995,201.1c0,22.265,4.094,43.955,12.188,64.699
				c-13.929,16.135-24.246,26.617-24.376,26.729l-0.371,0.371l-0.352,0.408c-21.616,23.523-16.244,43.639-12.91,51.195
				c3.149,7.205,13.559,23.969,41.861,23.969c1.815,0,3.704-0.074,5.705-0.223h0.593c6.482,0,25.19-0.52,49.677-5.52
				c-3.371,8.039-5.576,12.818-5.612,12.928l-0.204,0.428l-0.204,0.463c-9.78,23.264-4.815,38.73,1.093,47.602
				c7.095,10.688,18.93,16.82,32.507,16.82c7.724,0,15.948-2.002,24.505-5.928c7.187-2.631,34.601-13.559,64.996-36.119
				c13.78,2.186,27.82,3.297,41.897,3.297c12.8,0,25.58-0.926,38.139-2.742c30.117,22.209,57.104,32.953,64.218,35.582
				c8.539,3.928,16.781,5.91,24.505,5.91c13.577,0,25.432-6.133,32.526-16.82c5.89-8.891,10.872-24.338,1.092-47.602l-0.203-0.445
				l-0.186-0.445c-0.056-0.092-2.111-4.592-5.334-12.225c22.838,4.371,40.082,4.816,46.047,4.816h0.519
				c2.001,0.148,3.89,0.223,5.705,0.223c28.339,0,38.749-16.781,41.917-23.986c3.314-7.576,8.687-27.691-12.967-51.215l-0.352-0.371
				l-0.37-0.371c-0.093-0.111-7.854-7.965-18.968-20.541c9.78-22.543,14.707-46.307,14.707-70.886
				C521.939,160.74,418.324,70.516,290.944,70.516L290.944,70.516z"/>
		</g>
	</g>
</g>
</svg>
