<?xml version="1.0" encoding="iso-8859-1"?>
<!-- Generator: Adobe Illustrator 16.0.0, SVG Export Plug-In . SVG Version: 6.00 Build 0)  -->
<!DOCTYPE svg PUBLIC "-//W3C//DTD SVG 1.1//EN" "http://www.w3.org/Graphics/SVG/1.1/DTD/svg11.dtd">
<svg version="1.1" id="Layer_1" xmlns="http://www.w3.org/2000/svg" xmlns:xlink="http://www.w3.org/1999/xlink" x="0px" y="0px"
	 width="512px" height="512px" viewBox="0 0 512 512" style="enable-background:new 0 0 512 512;" xml:space="preserve">
<path d="M352.379,122.479c11.729,0,21.333,9.594,21.333,21.333v66.979c0,7.604,3.146,11.781,7.833,11.781
	c2.562,0,5.562-1.229,8.792-3.823l72.854-58.656c3.208-2.583,6.229-3.823,8.791-3.823c4.688,0,7.834,4.177,7.834,11.781v176.479
	c0,7.604-3.146,11.791-7.834,11.791c-2.562,0-5.583-1.25-8.791-3.833l-72.854-58.667c-3.229-2.583-6.229-3.812-8.792-3.812
	c-4.688,0-7.833,4.188-7.833,11.771v67c0,11.729-9.604,21.333-21.333,21.333H53.149c-11.729,0-21.333-9.604-21.333-21.333V143.812
	c0-11.74,9.604-21.333,21.333-21.333H352.379 M352.379,90.479H53.149c-29.417,0-53.333,23.927-53.333,53.333v224.969
	c0,29.396,23.917,53.333,53.333,53.333h299.229c29.416,0,53.333-23.938,53.333-53.333v-21.5l37.417,30.125
	c11.188,9.021,21.875,10.916,28.854,10.916c19.312,0,39.834-15.354,39.834-43.791V168.052c0-28.438-20.521-43.781-39.834-43.781
	c-6.979,0-17.666,1.886-28.833,10.886l-37.438,30.135v-21.479C405.712,114.406,381.795,90.479,352.379,90.479L352.379,90.479z"/>
</svg>
