<?xml version="1.0" encoding="iso-8859-1"?>
<!-- Generator: Adobe Illustrator 16.0.0, SVG Export Plug-In . SVG Version: 6.00 Build 0)  -->
<!DOCTYPE svg PUBLIC "-//W3C//DTD SVG 1.1//EN" "http://www.w3.org/Graphics/SVG/1.1/DTD/svg11.dtd">
<svg version="1.1" id="Layer_1" xmlns="http://www.w3.org/2000/svg" xmlns:xlink="http://www.w3.org/1999/xlink" x="0px" y="0px"
	 width="512px" height="512px" viewBox="0 0 512 512" style="enable-background:new 0 0 512 512;" xml:space="preserve">
<g>
	<path d="M165.258,512v-93.312H76.541c-41.223,0-74.774-33.551-74.774-74.774V74.773C1.767,33.541,35.318,0,76.541,0h358.917
		c41.225,0,74.775,33.541,74.775,74.773v269.14c0,41.224-33.551,74.774-74.775,74.774H326.413L165.258,512z M76.541,29.909
		c-24.729,0-44.864,20.125-44.864,44.864v269.14c0,24.749,20.135,44.864,44.864,44.864h118.627v71.348l123.222-71.348h117.068
		c24.73,0,44.865-20.115,44.865-44.864V74.773c0-24.739-20.135-44.864-44.865-44.864H76.541z"/>
</g>
</svg>
