<?xml version="1.0" encoding="iso-8859-1"?>
<!-- Generator: Adobe Illustrator 16.0.0, SVG Export Plug-In . SVG Version: 6.00 Build 0)  -->
<!DOCTYPE svg PUBLIC "-//W3C//DTD SVG 1.1//EN" "http://www.w3.org/Graphics/SVG/1.1/DTD/svg11.dtd">
<svg version="1.1" id="Layer_1" xmlns="http://www.w3.org/2000/svg" xmlns:xlink="http://www.w3.org/1999/xlink" x="0px" y="0px"
	 width="512px" height="512px" viewBox="0 0 512 512" style="enable-background:new 0 0 512 512;" xml:space="preserve">
<g>
	<g>
		<polygon points="304.842,385.084 175.219,255.471 303.821,126.906 325.122,148.207 217.818,255.471 326.142,363.783 		"/>
	</g>
	<g>
		<path d="M256.005,512c-141.155,0-256-114.834-256-256c0-141.155,114.845-256,256-256c141.156,0,255.99,114.845,255.99,256
			C511.995,397.166,397.161,512,256.005,512z M256.005,30.126C131.462,30.126,30.131,131.457,30.131,256
			c0,124.533,101.331,225.875,225.874,225.875S481.87,380.533,481.87,256C481.87,131.457,380.548,30.126,256.005,30.126z"/>
	</g>
</g>
</svg>
