<?xml version="1.0" encoding="iso-8859-1"?>
<!-- Generator: Adobe Illustrator 16.0.0, SVG Export Plug-In . SVG Version: 6.00 Build 0)  -->
<!DOCTYPE svg PUBLIC "-//W3C//DTD SVG 1.1//EN" "http://www.w3.org/Graphics/SVG/1.1/DTD/svg11.dtd">
<svg version="1.1" id="Layer_1" xmlns="http://www.w3.org/2000/svg" xmlns:xlink="http://www.w3.org/1999/xlink" x="0px" y="0px"
	 width="512px" height="512px" viewBox="0 0 512 512" style="enable-background:new 0 0 512 512;" xml:space="preserve">
<g>
	<g>
		<path d="M256,512C114.843,512,0,397.178,0,256C0,114.863,114.843,0,256,0c141.157,0,256,114.863,256,256
			C512,397.178,397.157,512,256,512z M256,30.118C131.451,30.118,30.118,131.451,30.118,256
			c0,124.55,101.333,225.883,225.882,225.883S481.883,380.55,481.883,256C481.883,131.451,380.549,30.118,256,30.118z"/>
	</g>
	<g>
		<polygon points="271.02,415.099 240.902,415.099 240.902,384.98 271.02,383.099 		"/>
	</g>
	<g>
		<path d="M271.02,350.98h-30.117v-64h15.059c37.373,0,67.765-30.392,67.765-67.764c0-37.354-30.392-67.766-67.765-67.766
			c-37.373,0-67.765,30.412-67.765,67.766c0,9.451,1.882,18.549,5.607,27.039l-27.607,12.078
			c-5.393-12.334-8.118-25.471-8.118-39.117c0-53.961,43.902-97.883,97.882-97.883s97.883,43.922,97.883,97.883
			c0,48.862-35.98,89.471-82.824,96.744V350.98z"/>
	</g>
</g>
</svg>
