<?xml version="1.0" encoding="iso-8859-1"?>
<!-- Generator: Adobe Illustrator 16.0.0, SVG Export Plug-In . SVG Version: 6.00 Build 0)  -->
<!DOCTYPE svg PUBLIC "-//W3C//DTD SVG 1.1//EN" "http://www.w3.org/Graphics/SVG/1.1/DTD/svg11.dtd">
<svg version="1.1" id="Layer_1" xmlns="http://www.w3.org/2000/svg" xmlns:xlink="http://www.w3.org/1999/xlink" x="0px" y="0px"
	 width="512px" height="512px" viewBox="0 0 512 512" style="enable-background:new 0 0 512 512;" xml:space="preserve">
<g>
	<g>
		<polygon points="208.192,385.103 186.893,363.804 294.176,256.529 185.863,148.216 207.163,126.917 336.775,256.529 		"/>
	</g>
	<g>
		<path d="M256,512C114.844,512,0,397.146,0,256C0,114.845,114.844,0,256,0c141.145,0,256,114.845,256,256
			C512,397.146,397.145,512,256,512z M256,30.126C131.456,30.126,30.125,131.456,30.125,256
			c0,124.553,101.331,225.874,225.875,225.874c124.553,0,225.873-101.321,225.873-225.874
			C481.873,131.456,380.553,30.126,256,30.126z"/>
	</g>
</g>
</svg>
