<?xml version="1.0" encoding="iso-8859-1"?>
<!-- Generator: Adobe Illustrator 16.0.0, SVG Export Plug-In . SVG Version: 6.00 Build 0)  -->
<!DOCTYPE svg PUBLIC "-//W3C//DTD SVG 1.1//EN" "http://www.w3.org/Graphics/SVG/1.1/DTD/svg11.dtd">
<svg version="1.1" id="Layer_1" xmlns="http://www.w3.org/2000/svg" xmlns:xlink="http://www.w3.org/1999/xlink" x="0px" y="0px"
	 width="512px" height="512px" viewBox="0 0 512 512" style="enable-background:new 0 0 512 512;" xml:space="preserve">
<g>
	<path d="M268.87,28.444c5.648,0,11.371,0.908,17.019,2.824c27.778,9.417,42.648,39.537,33.241,67.25
		c-7.5,22.083-28.111,35.861-50.186,35.861c-1.463,0-2.926-0.065-4.389-0.186l-6,19.5H379.5c21.037,0,38.259,17.213,38.259,38.25
		v180.074c0,21.037-17.222,38.241-38.259,38.241h-69.056v73.296l-88.093-73.296H132.5c-21.037,0-38.26-17.204-38.26-38.241V191.944
		c0-21.037,17.223-38.25,38.26-38.25h96.519l9.259-29.176c-18.556-13.222-27.296-37.333-19.611-60.028
		C226.147,42.389,246.777,28.444,268.87,28.444 M268.87,0L268.87,0c-34.926,0-65.944,22.25-77.148,55.371
		c-8.147,24.046-4.574,49.546,8.556,69.879H132.5c-36.778,0-66.704,29.917-66.704,66.694v180.074
		c0,36.759,29.926,66.685,66.704,66.685h79.556l80.186,66.723c5.222,4.334,11.685,6.574,18.203,6.574
		c4.093,0,8.223-0.889,12.074-2.686c9.981-4.685,16.37-14.722,16.37-25.759v-44.853H379.5c36.778,0,66.704-29.926,66.704-66.685
		V191.944c0-36.778-29.926-66.694-66.704-66.694h-41.889c3.463-5.417,6.314-11.306,8.444-17.574c7-20.62,5.556-42.722-4.111-62.241
		c-9.629-19.519-26.297-34.111-46.926-41.102C286.556,1.463,277.759,0,268.87,0L268.87,0L268.87,0z"/>
	<g>
		<path style="fill:#231F20;" d="M183.166,235.5c0-7.648,6.167-13.843,13.834-13.843h3.389c7.667,0,13.852,6.195,13.852,13.843
			v18.963c0,7.648-6.185,13.843-13.852,13.843H197c-7.667,0-13.834-6.194-13.834-13.843V235.5z"/>
		<path style="fill:#231F20;" d="M323.111,331.74c0,7.926-6.39,14.334-14.333,14.334H197.444c-7.889,0-14.278-6.408-14.278-14.334
			v-2.443c0-7.908,6.39-14.334,14.278-14.334h111.334c7.943,0,14.333,6.426,14.333,14.334V331.74z"/>
		<path style="fill:#231F20;" d="M323.111,254.463c0,7.648-6.167,13.843-13.87,13.843h-3.371c-7.666,0-13.852-6.194-13.852-13.843
			V235.5c0-7.648,6.186-13.843,13.852-13.843h3.371c7.703,0,13.87,6.195,13.87,13.843V254.463z"/>
	</g>
</g>
</svg>
