<?xml version="1.0" encoding="iso-8859-1"?>
<!-- Generator: Adobe Illustrator 16.0.0, SVG Export Plug-In . SVG Version: 6.00 Build 0)  -->
<!DOCTYPE svg PUBLIC "-//W3C//DTD SVG 1.1//EN" "http://www.w3.org/Graphics/SVG/1.1/DTD/svg11.dtd">
<svg version="1.1" id="Layer_1" xmlns="http://www.w3.org/2000/svg" xmlns:xlink="http://www.w3.org/1999/xlink" x="0px" y="0px"
	 width="512px" height="512px" viewBox="0 0 512 512" style="enable-background:new 0 0 512 512;" xml:space="preserve">
<g>
	<path d="M466.824,143.074h-30.118V52.691c0-24.912-20.274-45.177-45.177-45.177H120.471c-24.902,0-45.177,20.265-45.177,45.177
		v90.382H45.176C20.274,143.074,0,163.338,0,188.25v271.059c0,24.902,20.274,45.177,45.176,45.177h421.648
		c24.901,0,45.176-20.274,45.176-45.177V188.25C512,163.338,491.726,143.074,466.824,143.074z M481.883,188.25v270.588
		L349.334,318.055l132.098-132.04C481.549,186.779,481.883,187.456,481.883,188.25z M436.706,173.191h14.96l-14.96,14.96V173.191z
		 M105.412,52.691c0-8.304,6.764-15.059,15.059-15.059h271.059c8.295,0,15.059,6.755,15.059,15.059v165.529L287.941,336.838
		c-16.98,16.98-46.902,16.98-63.883,0L105.412,218.171V52.691z M159.607,314.976L30.117,452.524V188.25
		c0-0.824,0.334-1.529,0.471-2.324l44.706,44.706v0.01L159.607,314.976z M75.294,173.191v14.853l-14.843-14.853H75.294z
		 M50.902,474.367l130.02-138.078l21.843,21.844c0.039,0.039,0.079,0.059,0.118,0.078l7,7.02
		c12.293,12.274,28.686,19.059,46.137,19.059c17.471,0,33.863-6.784,46.137-19.059l25.863-25.863l127.137,135H50.902z"/>
	<rect x="154.354" y="92.338" width="203.293" height="30.118"/>
	<rect x="154.354" y="177.044" width="203.293" height="30.118"/>
</g>
</svg>
