<?xml version="1.0" encoding="iso-8859-1"?>
<!-- Generator: Adobe Illustrator 16.0.0, SVG Export Plug-In . SVG Version: 6.00 Build 0)  -->
<!DOCTYPE svg PUBLIC "-//W3C//DTD SVG 1.1//EN" "http://www.w3.org/Graphics/SVG/1.1/DTD/svg11.dtd">
<svg version="1.1" id="Layer_1" xmlns="http://www.w3.org/2000/svg" xmlns:xlink="http://www.w3.org/1999/xlink" x="0px" y="0px"
	 width="512px" height="512px" viewBox="0 0 512 512" style="enable-background:new 0 0 512 512;" xml:space="preserve">
<g>
	<path d="M398.235,428.182H113.765C51.039,428.182,0,377.152,0,314.437c0-62.206,50.176-112.902,112.176-113.755
		C126.137,133.142,185.647,83.818,256,83.818c70.353,0,129.862,49.323,143.823,116.863C461.823,201.534,512,252.23,512,314.437
		C512,377.152,460.961,428.182,398.235,428.182z M113.765,230.789c-46.118,0-83.647,37.52-83.647,83.647
		c0,46.108,37.529,83.628,83.647,83.628h284.471c46.117,0,83.646-37.52,83.646-83.628c0-46.128-37.529-83.647-83.646-83.647
		c-3.177,0-6.334,0.206-9.412,0.568c-4.02,0.451-8.02-0.666-11.137-3.176c-3.157-2.5-5.157-6.157-5.607-10.157
		C365.667,158.682,315.745,113.937,256,113.937s-109.667,44.745-116.079,104.088c-0.451,4-2.451,7.657-5.588,10.157
		c-3.157,2.52-7.157,3.745-11.157,3.176C120.098,230.995,116.961,230.789,113.765,230.789z"/>
</g>
</svg>
