<?xml version="1.0" encoding="iso-8859-1"?>
<!-- Generator: Adobe Illustrator 16.0.0, SVG Export Plug-In . SVG Version: 6.00 Build 0)  -->
<!DOCTYPE svg PUBLIC "-//W3C//DTD SVG 1.1//EN" "http://www.w3.org/Graphics/SVG/1.1/DTD/svg11.dtd">
<svg version="1.1" id="Layer_1" xmlns="http://www.w3.org/2000/svg" xmlns:xlink="http://www.w3.org/1999/xlink" x="0px" y="0px"
	 width="512px" height="512px" viewBox="0 0 512 512" style="enable-background:new 0 0 512 512;" xml:space="preserve">
<g>
	<g>
		<path d="M512,460.525h-31.031c0-236.828-192.666-429.495-429.494-429.495V0C305.414,0,512,206.586,512,460.525z"/>
	</g>
	<g>
		<path d="M359.677,460.525h-31.03c0-152.849-124.344-277.192-277.172-277.192v-31.03
			C221.414,152.303,359.677,290.586,359.677,460.525z"/>
	</g>
	<g>
		<path d="M99.919,343.232c37.96,0,68.849,30.909,68.849,68.889c0,37.939-30.889,68.849-68.849,68.849
			c-37.979,0-68.889-30.909-68.889-68.849C31.03,374.142,61.939,343.232,99.919,343.232 M99.919,312.202
			C44.727,312.202,0,356.929,0,412.121C0,467.272,44.727,512,99.919,512c55.151,0,99.879-44.728,99.879-99.879
			C199.798,356.929,155.07,312.202,99.919,312.202L99.919,312.202z"/>
	</g>
</g>
</svg>
