<?xml version="1.0" encoding="iso-8859-1"?>
<!-- Generator: Adobe Illustrator 16.0.0, SVG Export Plug-In . SVG Version: 6.00 Build 0)  -->
<!DOCTYPE svg PUBLIC "-//W3C//DTD SVG 1.1//EN" "http://www.w3.org/Graphics/SVG/1.1/DTD/svg11.dtd">
<svg version="1.1" id="Layer_1" xmlns="http://www.w3.org/2000/svg" xmlns:xlink="http://www.w3.org/1999/xlink" x="0px" y="0px"
	 width="512px" height="512px" viewBox="0 0 512 512" style="enable-background:new 0 0 512 512;" xml:space="preserve">
<g>
	<g>
		<path d="M471.844,80.294H240.941V40.137C240.941,15.373,225.549,0,200.784,0H44.686C20.354,0,0,14.059,0,40.137v421.647
			C0,486.666,25.334,512,50.196,512h421.647C497.922,512,512,486.137,512,461.784V120.471C512,95.686,496.607,80.294,471.844,80.294
			z M42.588,30.118h158.196c8.353,0,10.04,1.686,10.04,10.02v70.274h261.02c8.353,0,10.039,1.687,10.039,10.059v50.176H30.117
			V40.137C30.117,34.235,33.098,30.118,42.588,30.118z M471.844,481.883H50.196c-8.255,0-20.079-11.844-20.079-20.099v-261.02
			h451.766v261.02C481.883,471.294,477.765,481.883,471.844,481.883z"/>
	</g>
	<g>
		<path d="M376.039,341.784c13.177-10.177,21.805-25.96,21.805-43.843c0-30.647-24.941-55.588-55.608-55.588
			c-30.589,0-55.49,24.941-55.49,55.588c0,17.883,8.628,33.646,21.745,43.823c-21.922,7.804-40.334,22.745-52.49,42.196
			c-12.156-19.432-30.568-34.373-52.51-42.177c13.176-10.177,21.804-25.96,21.804-43.843c0-30.647-24.94-55.588-55.608-55.588
			c-30.627,0-55.529,24.941-55.529,55.588c0,17.883,8.628,33.646,21.766,43.843c-38.961,13.843-67.451,50.451-68.078,93.765
			l30.117,0.432c0-0.078,0.02-0.137,0.02-0.216c0.686-38,33.451-70.079,71.705-70.079c37.393,0,68.197,29.021,71.256,65.53
			c-0.098,1.471-0.49,2.843-0.51,4.333l1.02,0.02c0,0.059,0.02,0.138,0.02,0.196c0,0.079,0.02,0.138,0.02,0.216l14.529-0.216
			l14.529,0.216c0-0.078,0.02-0.137,0.02-0.216c0.687-38,33.432-70.079,71.667-70.079c38.353,0,71.157,32.079,71.784,70.079
			c0,0.06,0.02,0.138,0.02,0.196l30.117-0.393C443.568,392.255,415.059,355.646,376.039,341.784z M169.686,272.471
			c14.079,0,25.49,11.412,25.49,25.471c0,14.02-11.411,25.49-25.49,25.49c-14.039,0-25.411-11.471-25.411-25.49
			C144.274,283.883,155.646,272.471,169.686,272.471z M342.235,272.471c14.079,0,25.49,11.412,25.49,25.471
			c0,14.02-11.411,25.49-25.49,25.49c-14,0-25.372-11.471-25.372-25.49C316.863,283.883,328.235,272.471,342.235,272.471z"/>
	</g>
</g>
</svg>
