<?xml version="1.0" encoding="iso-8859-1"?>
<!-- Generator: Adobe Illustrator 16.0.0, SVG Export Plug-In . SVG Version: 6.00 Build 0)  -->
<!DOCTYPE svg PUBLIC "-//W3C//DTD SVG 1.1//EN" "http://www.w3.org/Graphics/SVG/1.1/DTD/svg11.dtd">
<svg version="1.1" id="Layer_1" xmlns="http://www.w3.org/2000/svg" xmlns:xlink="http://www.w3.org/1999/xlink" x="0px" y="0px"
	 width="512px" height="512px" viewBox="0 0 512 512" style="enable-background:new 0 0 512 512;" xml:space="preserve">
<g>
	<path d="M256,0.026C114.863,0.026,0.016,114.853,0.016,256.011c0,141.137,114.848,255.963,255.984,255.963
		c141.158,0,255.984-114.826,255.984-255.963C511.984,114.853,397.158,0.026,256,0.026z M256,481.871
		c-124.534,0-225.861-101.327-225.861-225.86C30.139,131.455,131.466,30.128,256,30.128c124.555,0,225.882,101.327,225.882,225.883
		C481.882,380.544,380.555,481.871,256,481.871z"/>
	<polygon points="311.476,179.64 256.417,234.699 201.357,179.64 180.067,200.931 235.126,255.989 180.067,311.069 201.357,332.359 
		256.417,277.28 311.476,332.359 332.766,311.069 277.707,255.989 332.766,200.931 	"/>
</g>
</svg>
