<?xml version="1.0" encoding="iso-8859-1"?>
<!-- Generator: Adobe Illustrator 16.0.0, SVG Export Plug-In . SVG Version: 6.00 Build 0)  -->
<!DOCTYPE svg PUBLIC "-//W3C//DTD SVG 1.1//EN" "http://www.w3.org/Graphics/SVG/1.1/DTD/svg11.dtd">
<svg version="1.1" id="Layer_1" xmlns="http://www.w3.org/2000/svg" xmlns:xlink="http://www.w3.org/1999/xlink" x="0px" y="0px"
	 width="512px" height="512px" viewBox="0 0 512 512" style="enable-background:new 0 0 512 512;" xml:space="preserve">
<path d="M468.828,27.939c-5.091-2.707-11.252-2.323-16,0.889c-0.404,0.262-42.263,28.182-101.07,28.182
	c-26.102,0-45.172-10.95-67.232-23.616C257.252,17.737,226.363,0,177.151,0C87.475,0,41.616,42.889,39.697,44.707
	c-3.05,2.93-4.788,6.97-4.788,11.212V512h31.03V332.445c12.666-9.334,49.979-32.264,111.212-32.264
	c40.929,0,66.849,14.889,91.919,29.273c23.758,13.615,48.303,27.717,82.688,27.717c68.808,0,116.586-32.223,118.586-33.596
	c4.222-2.889,6.747-7.678,6.747-12.788V41.637C477.091,35.899,473.898,30.626,468.828,27.939z M446.061,301.98
	c-14.142,7.797-49.252,24.161-94.303,24.161c-26.102,0-45.172-10.929-67.232-23.597c-27.273-15.656-58.162-33.393-107.374-33.393
	c-51.556,0-88.646,14.182-111.212,26.564V63.232c12.465-9.333,49.333-32.202,111.212-32.202c40.929,0,66.849,14.889,91.919,29.273
	c23.758,13.636,48.303,27.737,82.688,27.737c40.303,0,73.394-11.071,94.303-20.505V301.98z"/>
</svg>
