<?xml version="1.0" encoding="iso-8859-1"?>
<!-- Generator: Adobe Illustrator 16.0.0, SVG Export Plug-In . SVG Version: 6.00 Build 0)  -->
<!DOCTYPE svg PUBLIC "-//W3C//DTD SVG 1.1//EN" "http://www.w3.org/Graphics/SVG/1.1/DTD/svg11.dtd">
<svg version="1.1" id="Layer_1" xmlns="http://www.w3.org/2000/svg" xmlns:xlink="http://www.w3.org/1999/xlink" x="0px" y="0px"
	 width="512px" height="512px" viewBox="0 0 512 512" style="enable-background:new 0 0 512 512;" xml:space="preserve">
<g>
	<path style="fill:none;" d="M359.236,77.059c0,13.844-11.256,25.099-25.098,25.099H177.863c-13.843,0-25.098-11.255-25.098-25.099
		V62.412H63.647v419.471h384.706V62.412h-89.117V77.059z M384,305.118H189.098l72.158,72.176l-21.295,21.295L131,289.608
		l108.098-108.079l21.294,21.295L188.197,275H384V305.118z"/>
	<path d="M453.373,32.294h-94.137v-7.195C359.236,11.255,347.98,0,334.139,0H177.863c-13.843,0-25.098,11.255-25.098,25.099v7.195
		H58.628c-13.843,0-25.098,11.255-25.098,25.099v429.51C33.53,500.745,44.785,512,58.628,512h394.745
		c13.844,0,25.098-11.255,25.098-25.098V57.393C478.471,43.549,467.217,32.294,453.373,32.294z M182.882,30.118h146.237v41.921
		H182.882V30.118z M448.354,481.883H63.647V62.412h89.118v14.646c0,13.844,11.255,25.099,25.098,25.099h156.276
		c13.842,0,25.098-11.255,25.098-25.099V62.412h89.117V481.883z"/>
	<polygon points="260.393,202.824 239.098,181.529 131,289.608 239.96,398.589 261.256,377.294 189.098,305.118 384,305.118 
		384,275 188.197,275 	"/>
</g>
</svg>
