<?xml version="1.0" encoding="iso-8859-1"?>
<!-- Generator: Adobe Illustrator 16.0.0, SVG Export Plug-In . SVG Version: 6.00 Build 0)  -->
<!DOCTYPE svg PUBLIC "-//W3C//DTD SVG 1.1//EN" "http://www.w3.org/Graphics/SVG/1.1/DTD/svg11.dtd">
<svg version="1.1" id="Layer_1" xmlns="http://www.w3.org/2000/svg" xmlns:xlink="http://www.w3.org/1999/xlink" x="0px" y="0px"
	 width="512px" height="512px" viewBox="0 0 512 512" style="enable-background:new 0 0 512 512;" xml:space="preserve">
<g>
	<path d="M462.252,145.562c-6.039,0-12.217,1.598-18.354,4.725l-38.568,19.647v-61.793c0-20.813-13-35.353-31.607-35.353
		c-6.039,0-12.234,1.598-18.371,4.726L316.783,97.16V35.357c0-20.813-13-35.353-31.627-35.353c-6.059,0-12.234,1.599-18.393,4.726
		L54.436,112.896c-20.354,10.382-36.294,36.4-36.294,59.243v158.919c0,20.823,13,35.372,31.607,35.372
		c6.039,0,12.235-1.608,18.372-4.745l38.588-19.646v61.803c0,20.803,13,35.332,31.627,35.332c6.039,0,12.215-1.568,18.371-4.705
		l38.529-19.628v61.822c0,20.804,13,35.333,31.627,35.333c6.039,0,12.215-1.588,18.372-4.705l212.368-108.194
		c20.334-10.412,36.254-36.431,36.254-59.254V180.913C493.857,160.1,480.859,145.562,462.252,145.562z M106.709,244.941v63.293
		l-52.273,26.627c-2.549,1.294-4.118,1.451-4.687,1.451l-0.353,0.02c-0.295-0.274-1.138-1.843-1.138-5.274V172.139
		c0-11.666,9.47-27.117,19.862-32.411l212.33-108.164c2.549-1.294,4.137-1.441,5.078-1.471c0.254,0.235,1.137,1.784,1.137,5.265
		v77.146l-143.644,73.185C122.65,196.07,106.709,222.099,106.709,244.941z M195.237,317.705v63.312l-52.215,26.607
		c-2.549,1.313-4.117,1.431-4.686,1.431l-0.373,0.04c-0.255-0.235-1.137-1.785-1.137-5.255V244.941
		c0-11.666,9.47-27.117,19.881-32.421l212.33-108.175c2.549-1.294,4.117-1.44,5.039-1.47c0.295,0.274,1.137,1.843,1.137,5.265
		v77.136l-143.664,73.185C211.178,268.843,195.237,294.862,195.237,317.705z M463.742,339.842c0,11.646-9.471,27.098-19.844,32.411
		L231.549,480.447c-2.549,1.294-4.137,1.431-4.686,1.431l-0.373,0.039c-0.254-0.235-1.137-1.784-1.137-5.255V317.705
		c0-11.667,9.471-27.117,19.882-32.411l212.368-108.175c2.529-1.294,4.098-1.441,5-1.48c0.295,0.284,1.139,1.854,1.139,5.274
		V339.842z"/>
</g>
</svg>
