<?xml version="1.0" encoding="iso-8859-1"?>
<!-- Generator: Adobe Illustrator 16.0.0, SVG Export Plug-In . SVG Version: 6.00 Build 0)  -->
<!DOCTYPE svg PUBLIC "-//W3C//DTD SVG 1.1//EN" "http://www.w3.org/Graphics/SVG/1.1/DTD/svg11.dtd">
<svg version="1.1" id="Layer_1" xmlns="http://www.w3.org/2000/svg" xmlns:xlink="http://www.w3.org/1999/xlink" x="0px" y="0px"
	 width="512px" height="512px" viewBox="0 0 512 512" style="enable-background:new 0 0 512 512;" xml:space="preserve">
<g>
	<path style="fill:none;" d="M390.742,395.047c12.861,0,23.332-10.47,23.332-23.332c0-12.842-10.471-23.293-23.332-23.293
		c-12.862,0-23.312,10.451-23.312,23.293C367.43,384.577,377.88,395.047,390.742,395.047z"/>
	<path style="fill:none;" d="M266.926,159.796c5.411-3.118,9.273-8.146,10.881-14.156c1.608-6.019,0.785-12.313-2.332-17.724
		c-4.157-7.186-11.902-11.656-20.215-11.656c-4.059,0-8.098,1.088-11.646,3.137c-5.393,3.118-9.254,8.147-10.862,14.156
		c-1.607,6.019-0.784,12.303,2.333,17.685C241.28,161.982,256.123,166.021,266.926,159.796z"/>
	<path style="fill:none;" d="M134.737,352.206c-3.529-2.059-7.568-3.137-11.627-3.137c-8.333,0-16.097,4.49-20.253,11.666
		c-3.099,5.392-3.922,11.666-2.314,17.686c1.607,6.019,5.49,11.058,10.901,14.155c10.823,6.294,25.665,2.196,31.841-8.509
		C149.717,372.931,145.874,358.657,134.737,352.206z"/>
	<path d="M390.742,425.163c29.469,0,53.447-23.96,53.447-53.448c0-29.449-23.979-53.408-53.447-53.408
		c-24.215,0-44.449,16.273-50.997,38.351H215.027v15.058c0,50.997-41.469,92.466-92.446,92.466s-92.466-41.469-92.466-92.466
		c0-50.958,41.488-92.426,92.466-92.426v-30.116C54.996,249.173,0,304.15,0,371.715c0,67.604,54.996,122.582,122.581,122.582
		c62.487,0,114.189-46.998,121.64-107.523h95.524C346.293,408.89,366.527,425.163,390.742,425.163z M390.742,348.422
		c12.861,0,23.332,10.451,23.332,23.293c0,12.862-10.471,23.332-23.332,23.332c-12.862,0-23.312-10.47-23.312-23.332
		C367.43,358.873,377.88,348.422,390.742,348.422z"/>
	<path d="M183.264,237.987l-47.82,82.868c-22.215-4.843-47.057,4.745-58.664,24.822c-7.137,12.371-9.019,26.782-5.312,40.546
		c3.686,13.804,12.548,25.312,24.9,32.43c8.117,4.706,17.332,7.196,26.685,7.196c19.058,0,36.802-10.255,46.312-26.725
		c12.097-20.939,8.137-46.645-7.745-63.368l62.368-107.984l-13.058-7.539c-21.391-12.352-36.685-32.282-43.075-56.144
		c-6.393-23.852-3.118-48.772,9.234-70.163c25.508-44.164,82.152-59.301,126.307-33.841c44.135,25.499,59.311,82.152,33.821,126.296
		l26.077,15.058c33.802-58.516,13.686-133.629-44.841-167.431c-58.546-33.773-133.64-13.646-167.441,44.86
		c-16.372,28.352-20.724,61.389-12.254,93.014C145.913,198.607,161.5,221.616,183.264,237.987z M143.285,384.067
		c-6.176,10.705-21.018,14.803-31.841,8.509c-5.411-3.098-9.294-8.137-10.901-14.155c-1.607-6.02-0.784-12.294,2.314-17.686
		c4.156-7.176,11.92-11.666,20.253-11.666c4.059,0,8.098,1.078,11.627,3.137C145.874,358.657,149.717,372.931,143.285,384.067z"/>
	<path d="M495.52,310.542c-16.371-28.351-42.801-48.634-74.426-57.104c-26.686-7.157-54.448-5.176-79.506,5.51l-47.762-82.691
		c6.098-6.382,10.725-14.068,13.078-22.832c3.686-13.774,1.783-28.175-5.354-40.557c-14.156-24.577-48.35-33.792-72.996-19.548
		c-12.352,7.137-21.194,18.656-24.9,32.439c-3.686,13.793-1.783,28.194,5.354,40.537c9.489,16.499,27.233,26.744,46.291,26.744
		c4.215,0,8.411-0.667,12.489-1.647l62.29,107.916l13.059-7.549c21.371-12.312,46.232-15.646,70.172-9.234
		c23.842,6.392,43.782,21.704,56.135,43.076c12.352,21.41,15.627,46.311,9.234,70.152c-6.392,23.861-21.685,43.802-43.076,56.153
		c-44.115,25.489-100.816,10.274-126.306-33.86l-26.077,15.077c22.705,39.272,63.996,61.252,106.387,61.252
		c20.782,0,41.82-5.294,61.055-16.392c28.352-16.371,48.645-42.802,57.114-74.427C516.244,371.931,511.892,338.894,495.52,310.542z
		 M235.084,151.237c-3.117-5.382-3.94-11.666-2.333-17.685c1.608-6.009,5.47-11.039,10.862-14.156
		c3.549-2.049,7.588-3.137,11.646-3.137c8.312,0,16.058,4.47,20.215,11.656c3.117,5.411,3.94,11.705,2.332,17.724
		c-1.607,6.01-5.47,11.039-10.881,14.156C256.123,166.021,241.28,161.982,235.084,151.237z"/>
</g>
</svg>
