<?xml version="1.0" encoding="iso-8859-1"?>
<!-- Generator: Adobe Illustrator 16.0.0, SVG Export Plug-In . SVG Version: 6.00 Build 0)  -->
<!DOCTYPE svg PUBLIC "-//W3C//DTD SVG 1.1//EN" "http://www.w3.org/Graphics/SVG/1.1/DTD/svg11.dtd">
<svg version="1.1" id="Layer_1" xmlns="http://www.w3.org/2000/svg" xmlns:xlink="http://www.w3.org/1999/xlink" x="0px" y="0px"
	 width="512px" height="512px" viewBox="0 0 512 512" style="enable-background:new 0 0 512 512;" xml:space="preserve">
<path d="M343.516,71.068c26.87,0,51.147,11.333,68.185,29.472c21.24-4.186,41.24-11.963,59.295-22.648
	c-7,21.796-21.777,40.092-41.073,51.647c18.889-2.25,36.888-7.259,53.629-14.694c-12.519,18.723-28.333,35.166-46.592,48.323
	c0.185,4.01,0.296,8.037,0.296,12.074c0,123.396-93.961,265.69-265.662,265.69c-52.759,0-101.851-15.481-143.146-41.981
	c7.297,0.871,14.723,1.315,22.277,1.315c43.76,0,83.999-14.926,115.943-39.963c-40.833-0.74-75.332-27.74-87.221-64.851
	c5.722,1.111,11.555,1.667,17.592,1.667c8.481,0,16.74-1.111,24.574-3.26c-42.686-8.573-74.889-46.323-74.889-91.563
	c0-0.389,0-0.777,0-1.166c12.574,7,27,11.185,42.314,11.666c-25.073-16.74-41.555-45.313-41.555-77.702
	c0-17.111,4.593-33.147,12.666-46.943C106.168,144.65,175,181.816,252.591,185.705c-1.592-6.833-2.426-13.963-2.426-21.277
	C250.166,112.873,291.961,71.068,343.516,71.068 M343.516,42.624c-63.48,0-115.776,48.823-121.312,110.896
	c-54.61-10.296-104.442-39.676-139.998-83.332C76.78,63.531,68.669,59.707,60.15,59.707c-0.722,0-1.463,0.027-2.185,0.083
	c-9.296,0.723-17.647,5.944-22.37,13.991c-10.833,18.518-16.555,39.721-16.555,61.313c0,15.647,2.98,30.87,8.573,44.972
	c-5.87,5.333-9.333,12.953-9.333,21.064v1.166c0,32.352,12.852,62.314,34.092,84.453c-1.796,5.555-1.852,11.629-0.018,17.407
	c8.055,25.11,23.758,46.239,44.055,61.109c-14.63,4.334-29.963,6.556-45.686,6.556c-6.352,0-12.703-0.37-18.869-1.111
	c-1.148-0.147-2.297-0.203-3.426-0.203c-11.871,0-22.648,7.426-26.741,18.814c-4.5,12.481,0.241,26.389,11.389,33.573
	c47.37,30.407,102.184,46.48,158.516,46.48c86.257,0,163.867-34.185,218.551-96.221c47.647-54.036,75.129-125.507,75.555-196.302
	c15.926-13.277,29.833-28.769,41.499-46.203c7.037-10.519,6.277-24.435-1.889-34.12c-2.37-2.824-5.203-5.083-8.314-6.75
	c0.37-1.056,0.74-2.12,1.074-3.194c3.629-11.25-0.093-23.555-9.334-30.925c-5.147-4.121-11.443-6.213-17.74-6.213
	c-5,0-10,1.306-14.48,3.963c-11.63,6.879-23.945,12.213-36.797,15.935C398.237,52.207,371.274,42.624,343.516,42.624L343.516,42.624
	z"/>
</svg>
