<?xml version="1.0" encoding="utf-8"?>
<!-- Generator: Adobe Illustrator 18.1.0, SVG Export Plug-In . SVG Version: 6.00 Build 0)  -->
<svg version="1.1" id="Layer_1" xmlns="http://www.w3.org/2000/svg" xmlns:xlink="http://www.w3.org/1999/xlink" x="0px" y="0px"
	 viewBox="0 0 512 512" enable-background="new 0 0 512 512" xml:space="preserve">
<g>
	<path fill="#010101" d="M256.3,128.5c70.6,0,128,57.4,128,128s-57.4,128-128,128s-128-57.4-128-128S185.7,128.5,256.3,128.5
		 M256.3,96.5c-88.4,0-160,71.6-160,160c0,88.4,71.6,160,160,160c88.4,0,160-71.6,160-160C416.3,168.1,344.6,96.5,256.3,96.5
		L256.3,96.5z"/>
	<path fill="#010101" d="M256.3,224.5c17.6,0,32,14.4,32,32s-14.4,32-32,32s-32-14.4-32-32S238.6,224.5,256.3,224.5 M256.3,192.5
		c-35.3,0-64,28.7-64,64s28.7,64,64,64s64-28.7,64-64S291.6,192.5,256.3,192.5L256.3,192.5z"/>
	<path fill="#010101" d="M256.3,32.5c123.5,0,224,100.5,224,224s-100.5,224-224,224s-224-100.5-224-224S132.8,32.5,256.3,32.5
		 M256.3,0.5c-141.4,0-256,114.6-256,256c0,141.4,114.6,256,256,256c141.4,0,256-114.6,256-256C512.3,115.1,397.7,0.5,256.3,0.5
		L256.3,0.5z"/>
</g>
</svg>
