<?xml version="1.0" encoding="iso-8859-1"?>
<!-- Generator: Adobe Illustrator 16.0.0, SVG Export Plug-In . SVG Version: 6.00 Build 0)  -->
<!DOCTYPE svg PUBLIC "-//W3C//DTD SVG 1.1//EN" "http://www.w3.org/Graphics/SVG/1.1/DTD/svg11.dtd">
<svg version="1.1" id="Layer_1" xmlns="http://www.w3.org/2000/svg" xmlns:xlink="http://www.w3.org/1999/xlink" x="0px" y="0px"
	 width="512px" height="512px" viewBox="0 0 512 512" style="enable-background:new 0 0 512 512;" xml:space="preserve">
<g>
	<g>
		<path d="M255.979,511.984c-141.116,0-255.942-114.827-255.942-255.974c0-141.148,114.826-255.995,255.942-255.995
			c141.158,0,255.984,114.847,255.984,255.995C511.963,397.157,397.137,511.984,255.979,511.984z M255.979,30.139
			c-124.534,0-225.841,101.327-225.841,225.872c0,124.544,101.307,225.86,225.841,225.86c124.535,0,225.902-101.316,225.902-225.86
			C481.881,131.466,380.514,30.139,255.979,30.139z"/>
	</g>
	<g>
		<path d="M220.189,349.911L220.189,349.911c-11.457,0-23.061-9.021-23.061-26.249V188.348c0-17.238,11.604-26.259,23.061-26.259
			c5.125,0,10.229,1.646,15.166,4.864l112.161,69.496c5.791,4.041,11.166,10.916,11.166,19.562c0,8.645-5.375,15.509-10.375,19.051
			l-113.285,70.193C230.417,348.275,225.314,349.911,220.189,349.911z M227.293,197.399l-0.062,117.232l94.703-58.643
			L227.293,197.399z"/>
	</g>
</g>
</svg>
