<?xml version="1.0" encoding="iso-8859-1"?>
<!-- Generator: Adobe Illustrator 16.0.0, SVG Export Plug-In . SVG Version: 6.00 Build 0)  -->
<!DOCTYPE svg PUBLIC "-//W3C//DTD SVG 1.1//EN" "http://www.w3.org/Graphics/SVG/1.1/DTD/svg11.dtd">
<svg version="1.1" id="Layer_1" xmlns="http://www.w3.org/2000/svg" xmlns:xlink="http://www.w3.org/1999/xlink" x="0px" y="0px"
	 width="512px" height="512px" viewBox="0 0 512 512" style="enable-background:new 0 0 512 512;" xml:space="preserve">
<g>
	<g>
		<polygon points="255.471,336.797 126.907,208.193 148.207,186.893 255.471,294.197 363.784,185.863 385.084,207.164 		"/>
	</g>
	<g>
		<path d="M256,512C114.845,512,0,397.166,0,256C0,114.845,114.845,0,256,0c141.166,0,256,114.845,256,256
			C512,397.166,397.166,512,256,512z M256,30.126C131.457,30.126,30.126,131.457,30.126,256
			c0,124.533,101.331,225.875,225.874,225.875c124.533,0,225.875-101.342,225.875-225.875
			C481.875,131.457,380.533,30.126,256,30.126z"/>
	</g>
</g>
</svg>
