<?xml version="1.0" encoding="iso-8859-1"?>
<!-- Generator: Adobe Illustrator 16.0.0, SVG Export Plug-In . SVG Version: 6.00 Build 0)  -->
<!DOCTYPE svg PUBLIC "-//W3C//DTD SVG 1.1//EN" "http://www.w3.org/Graphics/SVG/1.1/DTD/svg11.dtd">
<svg version="1.1" id="Layer_1" xmlns="http://www.w3.org/2000/svg" xmlns:xlink="http://www.w3.org/1999/xlink" x="0px" y="0px"
	 width="512px" height="512px" viewBox="0 0 512 512" style="enable-background:new 0 0 512 512;" xml:space="preserve">
<path d="M471.833,80.323H240.938V40.157c0-24.75-15.375-40.146-40.146-40.146H50.188C25.875,0.011,0,14.094,0,40.157v421.645
	c0,24.855,25.333,50.188,50.188,50.188h421.646c26.104,0,40.167-25.854,40.167-50.188V120.469
	C512,95.719,496.625,80.323,471.833,80.323z M50.188,30.115h150.604c8.333,0,10.021,1.688,10.021,10.042v70.271h261.021
	c8.354,0,10.042,1.688,10.042,10.042v50.188H30.125v-130.5C30.125,34.24,40.688,30.115,50.188,30.115z M471.833,481.886H50.188
	c-8.25,0-20.062-11.834-20.062-20.084v-261.02h451.75v261.02C481.875,471.302,477.75,481.886,471.833,481.886z"/>
</svg>
