<?xml version="1.0" encoding="iso-8859-1"?>
<!-- Generator: Adobe Illustrator 16.0.0, SVG Export Plug-In . SVG Version: 6.00 Build 0)  -->
<!DOCTYPE svg PUBLIC "-//W3C//DTD SVG 1.1//EN" "http://www.w3.org/Graphics/SVG/1.1/DTD/svg11.dtd">
<svg version="1.1" id="Layer_1" xmlns="http://www.w3.org/2000/svg" xmlns:xlink="http://www.w3.org/1999/xlink" x="0px" y="0px"
	 width="512px" height="512px" viewBox="0 0 512 512" style="enable-background:new 0 0 512 512;" xml:space="preserve">
<g>
	<g>
		<path d="M255.941,512L105.983,362.042c-82.679-82.689-82.679-217.237,0-299.916C146.045,22.065,199.298,0,255.961,0
			c56.644,0,109.897,22.065,149.919,62.116c40.081,40.051,62.146,93.314,62.146,149.958s-22.064,109.888-62.146,149.948L255.941,512
			z M255.961,29.755c-48.701,0-94.496,18.965-128.939,53.408c-71.075,71.085-71.075,186.746,0,257.84l128.92,128.921
			l128.901-128.939c34.443-34.443,53.428-80.22,53.428-128.911c0-48.701-18.984-94.477-53.428-128.92
			C350.438,48.721,304.662,29.755,255.961,29.755z"/>
	</g>
	<g>
		<path d="M252.745,306.425c-49.225,0-89.266-40.031-89.266-89.256c0-49.224,40.041-89.266,89.266-89.266
			s89.266,40.042,89.266,89.266C342.011,266.394,301.97,306.425,252.745,306.425z M252.745,157.659
			c-32.816,0-59.51,26.694-59.51,59.51c0,32.816,26.693,59.511,59.51,59.511s59.511-26.694,59.511-59.511
			C312.256,184.353,285.562,157.659,252.745,157.659z"/>
	</g>
</g>
</svg>
