<?xml version="1.0" encoding="iso-8859-1"?>
<!-- Generator: Adobe Illustrator 16.0.0, SVG Export Plug-In . SVG Version: 6.00 Build 0)  -->
<!DOCTYPE svg PUBLIC "-//W3C//DTD SVG 1.1//EN" "http://www.w3.org/Graphics/SVG/1.1/DTD/svg11.dtd">
<svg version="1.1" id="Layer_1" xmlns="http://www.w3.org/2000/svg" xmlns:xlink="http://www.w3.org/1999/xlink" x="0px" y="0px"
	 width="512px" height="512px" viewBox="0 0 512 512" style="enable-background:new 0 0 512 512;" xml:space="preserve">
<g>
	<path d="M67.208,220.791c19.417,0,35.209,15.771,35.209,35.209s-15.792,35.209-35.209,35.209C47.771,291.209,32,275.438,32,256
		S47.771,220.791,67.208,220.791 M67.208,188.791C30.146,188.791,0,218.938,0,256s30.146,67.209,67.208,67.209
		s67.209-30.146,67.209-67.209S104.271,188.791,67.208,188.791L67.208,188.791z"/>
	<path d="M256,220.791c19.417,0,35.208,15.771,35.208,35.209S275.417,291.209,256,291.209c-19.458,0-35.208-15.771-35.208-35.209
		S236.542,220.791,256,220.791 M256,188.791c-37.062,0-67.208,30.146-67.208,67.209s30.146,67.209,67.208,67.209
		s67.208-30.146,67.208-67.209S293.062,188.791,256,188.791L256,188.791z"/>
	<path d="M444.792,220.791C464.208,220.791,480,236.562,480,256s-15.792,35.209-35.208,35.209
		c-19.438,0-35.209-15.771-35.209-35.209S425.354,220.791,444.792,220.791 M444.792,188.791c-37.062,0-67.209,30.146-67.209,67.209
		s30.146,67.209,67.209,67.209S512,293.062,512,256S481.854,188.791,444.792,188.791L444.792,188.791z"/>
</g>
</svg>
