<?xml version="1.0" encoding="iso-8859-1"?>
<!-- Generator: Adobe Illustrator 16.0.0, SVG Export Plug-In . SVG Version: 6.00 Build 0)  -->
<!DOCTYPE svg PUBLIC "-//W3C//DTD SVG 1.1//EN" "http://www.w3.org/Graphics/SVG/1.1/DTD/svg11.dtd">
<svg version="1.1" id="Layer_1" xmlns="http://www.w3.org/2000/svg" xmlns:xlink="http://www.w3.org/1999/xlink" x="0px" y="0px"
	 width="512px" height="512px" viewBox="0 0 512 512" style="enable-background:new 0 0 512 512;" xml:space="preserve">
<g>
	<g>
		<path d="M255.99,512c-68.375,0-132.658-26.63-181.009-74.983C26.629,388.661,0,324.372,0,255.989
			c0-68.373,26.629-132.656,74.981-181.008C123.333,26.628,187.617,0,255.99,0c68.381,0,132.672,26.628,181.025,74.981
			C485.369,123.332,512,187.615,512,255.989c0,68.383-26.631,132.674-74.984,181.027S324.373,512,255.99,512z M255.99,30.318
			c-60.275,0-116.945,23.475-159.57,66.101c-42.626,42.626-66.101,99.296-66.101,159.57c0,60.284,23.475,116.961,66.101,159.59
			c42.625,42.627,99.295,66.103,159.57,66.103c60.285,0,116.961-23.476,159.588-66.104c42.627-42.627,66.104-99.304,66.104-159.589
			c0-60.275-23.477-116.945-66.104-159.57C372.951,53.793,316.273,30.318,255.99,30.318z"/>
	</g>
	<g>
		<rect x="305.791" y="187.793" width="30.318" height="136.434"/>
	</g>
	<g>
		<rect x="169.358" y="187.793" width="30.318" height="136.434"/>
	</g>
</g>
</svg>
