<?xml version="1.0" encoding="iso-8859-1"?>
<!-- Generator: Adobe Illustrator 16.0.0, SVG Export Plug-In . SVG Version: 6.00 Build 0)  -->
<!DOCTYPE svg PUBLIC "-//W3C//DTD SVG 1.1//EN" "http://www.w3.org/Graphics/SVG/1.1/DTD/svg11.dtd">
<svg version="1.1" id="Layer_1" xmlns="http://www.w3.org/2000/svg" xmlns:xlink="http://www.w3.org/1999/xlink" x="0px" y="0px"
	 width="512px" height="512px" viewBox="0 0 512 512" style="enable-background:new 0 0 512 512;" xml:space="preserve">
<path d="M507.588,486.295L351.804,330.471c31.294-36.294,48.51-81.961,48.51-130.363c0-53.46-20.824-103.715-58.627-141.5
	C303.862,20.795,253.608-0.02,200.157-0.02c-53.432,0-103.687,20.814-141.471,58.617C20.843,96.383,0,146.628,0,200.088
	c-0.02,53.471,20.843,103.736,58.686,141.54c37.784,37.804,88.039,58.607,141.471,58.607c48.392,0,94.059-17.196,130.353-48.47
	l155.784,155.822c2.941,2.941,6.784,4.432,10.646,4.432c3.863,0,7.707-1.49,10.647-4.432
	C513.47,501.726,513.47,492.177,507.588,486.295z M200.157,370.117c-45.392,0-88.079-17.666-120.177-49.783
	c-32.157-32.118-49.863-74.824-49.863-120.246c0-45.401,17.706-88.078,49.863-120.186c32.098-32.117,74.785-49.805,120.177-49.805
	c45.412,0,88.098,17.688,120.234,49.805c32.118,32.107,49.805,74.794,49.805,120.205c0,45.412-17.687,88.108-49.805,120.227
	C288.255,352.451,245.569,370.117,200.157,370.117z"/>
</svg>
