<?xml version="1.0" encoding="iso-8859-1"?>
<!-- Generator: Adobe Illustrator 16.0.0, SVG Export Plug-In . SVG Version: 6.00 Build 0)  -->
<!DOCTYPE svg PUBLIC "-//W3C//DTD SVG 1.1//EN" "http://www.w3.org/Graphics/SVG/1.1/DTD/svg11.dtd">
<svg version="1.1" id="Layer_1" xmlns="http://www.w3.org/2000/svg" xmlns:xlink="http://www.w3.org/1999/xlink" x="0px" y="0px"
	 width="512px" height="512px" viewBox="0 0 512 512" style="enable-background:new 0 0 512 512;" xml:space="preserve">
<g>
	<path d="M256.001,29.523c2.383,0,4.766,2.547,6.592,7.65l50.898,143.331c3.633,10.207,15.453,18.548,26.274,18.548h132.74
		c10.821,0,12.609,5.334,3.979,11.859l-109.003,82.237c-8.63,6.535-13.397,20.412-10.571,30.869l39.922,147.982
		c1.826,6.746,0.5,10.476-3.018,10.476c-1.903,0-4.459-1.115-7.496-3.421l-114.673-87.609c-4.306-3.307-9.976-4.94-15.646-4.94
		c-5.671,0-11.341,1.634-15.646,4.94l-114.672,87.609c-3.037,2.306-5.594,3.421-7.497,3.421c-3.517,0-4.844-3.729-3.018-10.476
		l39.941-147.982c2.825-10.457-1.941-24.334-10.571-30.859L35.517,210.912c-8.631-6.525-6.844-11.859,3.979-11.859h132.74
		c10.821,0,22.643-8.342,26.275-18.548l50.896-143.331C251.233,32.07,253.617,29.523,256.001,29.523 M256.001,0
		c-5.786,0-25.392,1.96-34.406,27.274l-50.513,142.255H39.495c-27.236,0-35.405,18.077-37.27,23.613
		c-1.864,5.545-6.247,24.892,15.493,41.316l108.252,81.68c0.154,0.308,0.309,0.77,0.385,1.115L86.663,464.294
		c-4.613,17.067,0.308,28.369,5.267,34.828C98.196,507.31,107.749,512,118.186,512c8.611,0,17.146-3.19,25.392-9.457l112.424-85.918
		l112.404,85.88c8.265,6.305,16.799,9.495,25.41,9.495c10.418,0,19.99-4.69,26.256-12.878c4.959-6.459,9.879-17.761,5.267-34.828
		l-39.673-147.041c0.077-0.346,0.23-0.808,0.385-1.135l108.215-81.641c21.758-16.443,17.375-35.79,15.511-41.335
		c-1.864-5.536-10.033-23.613-37.27-23.613H340.919L290.406,27.294C281.392,1.96,261.786,0,256.001,0L256.001,0z"/>
</g>
</svg>
