<?xml version="1.0" encoding="iso-8859-1"?>
<!-- Generator: Adobe Illustrator 16.0.0, SVG Export Plug-In . SVG Version: 6.00 Build 0)  -->
<!DOCTYPE svg PUBLIC "-//W3C//DTD SVG 1.1//EN" "http://www.w3.org/Graphics/SVG/1.1/DTD/svg11.dtd">
<svg version="1.1" id="Layer_1" xmlns="http://www.w3.org/2000/svg" xmlns:xlink="http://www.w3.org/1999/xlink" x="0px" y="0px"
	 width="512px" height="512px" viewBox="0 0 512 512" style="enable-background:new 0 0 512 512;" xml:space="preserve">
<g>
	<g>
		<path d="M256,377.49C188.98,377.49,134.471,323,134.471,256c0-67,54.51-121.5,121.529-121.5c66.98,0,121.49,54.5,121.49,121.5
			C377.49,323,322.98,377.49,256,377.49z M256,164.617c-50.412,0-91.412,40.99-91.412,91.382c0,50.393,41,91.374,91.412,91.374
			c50.392,0,91.372-40.98,91.372-91.374C347.372,205.607,306.392,164.617,256,164.617z"/>
	</g>
	<g>
		<path d="M256,447.314C121.118,447.314,0,317.373,0,256C0,194.627,121.118,64.686,256,64.686c142.471,0,256,137.382,256,191.313
			C512,309.922,398.471,447.314,256,447.314z M256,94.804C131.745,94.804,30.118,216.509,30.118,256
			c0,39.491,101.627,161.196,225.882,161.196S481.882,295.49,481.882,256C481.882,216.509,380.255,94.804,256,94.804z"/>
	</g>
</g>
</svg>
