<?xml version="1.0" standalone="no"?>
<!DOCTYPE svg PUBLIC "-//W3C//DTD SVG 1.1//EN" "http://www.w3.org/Graphics/SVG/1.1/DTD/svg11.dtd" >
<svg xmlns="http://www.w3.org/2000/svg">
<metadata>Generated by IcoMoon</metadata>
<defs>
<font id="twig-24" horiz-adv-x="1024">
<font-face units-per-em="1024" ascent="960" descent="-64" />
<missing-glyph horiz-adv-x="1024" />
<glyph unicode="&#x20;" horiz-adv-x="512" d="" />
<glyph unicode="&#xe800;" glyph-name="activity" d="M460.128-85.301c-13.876 0-26.082 9.188-29.914 22.582l-134.284 473.68-76.58-261.068c-3.876-13.248-15.998-22.31-29.79-22.31h-174.446v62.102h151.2l100.326 342.084c3.876 13.25 16 22.31 29.792 22.31 0.042 0 0.082 0 0.124 0 13.874-0.042 25.998-9.27 29.748-22.582l131.24-462.806 201.906 845.988c3.376 14.292 15.458 25.248 31.082 23.832 14.664-0.416 27.082-11.082 29.664-25.56l129.492-723.268h159.2v-62.102h-185.2c-15.040 0-27.914 10.772-30.578 25.56l-107.786 602.34-194.99-816.952c-3.292-13.728-15.416-23.542-29.582-23.832-0.208 0.002-0.416 0.002-0.624 0.002z" />
<glyph unicode="&#xe801;" glyph-name="bell" d="M914.18 109.091c-0.406 1.374-40.324 139.716-51.356 231.92-11.676 97.656-21.778 188.122-21.978 188.122-0.042 162.746-131.436 296.688-298.546 311.312v98.222h-62.060v-98.302c-166.546-15.232-297.212-148.888-297.132-309.212-0.080-0.888-6.788-95.434-21.736-188.93-14.87-93.090-51.394-232.484-51.758-233.858-2.424-9.292-0.446-19.232 5.454-26.83 5.858-7.634 14.95-12.122 24.566-12.122h216.082c0.888-85.454 70.584-154.746 156.28-154.746 85.738 0 155.394 69.292 156.324 154.746h216.040c9.78 0 18.952 4.608 24.808 12.406 5.86 7.798 7.718 17.898 5.012 27.272zM511.996-23.273c-51.474 0-93.332 41.456-94.222 92.686h188.486c-0.93-51.23-42.748-92.686-94.264-92.686zM179.552 131.475c12.202 49.13 32.566 134.908 43.070 200.968 15.394 96.162 22.102 190.426 22.464 196.566 0 138.302 119.716 250.828 266.908 250.828 147.112 0 266.79-112.526 266.99-254.262 0 0 10.302-92.204 22.182-191.92 8-66.626 29.292-152.646 42.464-202.182h-664.078z" />
<glyph unicode="&#xe802;" glyph-name="book" d="M893.168 938.667h-661.668c-90.792 0-164.666-73.834-164.666-164.624v-694.668c0-90.832 73.876-164.708 164.666-164.708h725.668v1024h-64zM130.834 658.875v115.168c0 55.458 45.166 100.624 100.666 100.624h661.668v-665.666h-661.668c-55.5 0-100.666 45.084-100.666 100.668v349.206zM893.168-21.333h-661.668c-55.5 0-100.666 45.166-100.666 100.708v100.958c27.916-21.792 62.584-35.334 100.666-35.334h661.668v-166.332zM292.584 726.791h456.624v-64h-456.624v64zM292.584 539.833h456.624v-64h-456.624v64z" />
<glyph unicode="&#xe803;" glyph-name="brackets" d="M92.25 155.001v178.124c0 33.75-14 69.624-36.166 93.542 22.166 23.916 36.166 59.792 36.166 93.542v178.124c0 55.958 16 66.958 32.916 78.624 11.668 8 43.958 11.834 62.124 11.876l-0.042 64c-10.834 0-66.334-1.124-98.334-23.124-36.416-25.082-60.666-57-60.666-131.376v-178.124c0-32.458-21.166-56.416-28.166-57.042v-9l-0.082-64c7.084-0.624 28.25-24.584 28.25-57.042v-178.124c0-74.376 24.25-106.292 60.666-131.376 32-22 87.5-23.124 98.334-23.124l0.042 64c-18.166 0.042-50.458 3.876-62.124 11.876-16.918 11.666-32.918 22.666-32.918 78.624zM995.79 520.209v178.124c0 74.418-24.25 106.334-60.624 131.376-32.040 22-87.582 23.124-98.376 23.124l-0.040-64c18.164-0.042 50.458-3.876 62.124-11.876 16.958-11.666 32.958-22.666 32.958-78.624v-178.124c0-33.75 14-69.624 36.168-93.542-22.168-23.916-36.168-59.792-36.168-93.542v-178.124c0-55.958-16-66.958-33-78.624-11.624-8-43.918-11.834-62.082-11.876l0.040-64c10.792 0 66.336 1.124 98.336 23.124 36.414 25.042 60.664 56.958 60.664 131.376v178.124c0 32.458 21.21 56.416 28.168 57.042v9l0.042 64c-7 0.624-28.21 24.584-28.21 57.042z" />
<glyph unicode="&#xe804;" glyph-name="branch" d="M733.722 203.541c-69.722 0-128.078-49.648-141.528-115.454h-181.452c-49.802 0-90.352 40.55-90.352 90.354v251.686h272.116c13.922-65.236 71.922-114.354 141.214-114.354 79.648 0 144.472 64.804 144.472 144.47 0 79.646-64.824 144.452-144.472 144.452-69.292 0-127.292-49.118-141.214-114.334h-272.114v162.626c65.214 13.902 114.352 71.864 114.352 141.198 0 79.666-64.822 144.47-144.468 144.47-79.648 0-144.47-64.804-144.47-144.47 0-69.334 49.136-127.294 114.354-141.198v-474.548c0-83.020 67.566-150.588 150.586-150.588h182.12c14.352-64.628 71.96-113.176 140.86-113.176 79.648 0 144.472 64.784 144.472 144.39-0.002 79.69-64.826 144.476-144.476 144.476zM733.722 544.459c46.434 0 84.238-37.784 84.238-84.214 0-46.452-37.804-84.236-84.238-84.236-46.43 0-84.234 37.786-84.234 84.236 0 46.432 37.804 84.214 84.234 84.214zM206.040 794.187c0 46.452 37.802 84.234 84.234 84.234 46.43 0 84.234-37.784 84.234-84.234s-37.804-84.236-84.234-84.236c-46.432 0-84.234 37.784-84.234 84.236zM733.722-25.089c-46.43 0-84.234 37.726-84.234 84.156 0 46.472 37.804 84.236 84.234 84.236 46.434 0 84.238-37.764 84.238-84.236 0-46.43-37.804-84.156-84.238-84.156z" />
<glyph unicode="&#xe805;" glyph-name="branch-add" d="M723.078 203.541c-69.726 0-128.078-49.648-141.532-115.454h-180.39c-49.804 0-90.352 40.55-90.352 90.354v251.686h160.9v60.234h-160.9v162.626c65.214 13.902 114.352 71.864 114.352 141.198 0 79.666-64.824 144.47-144.47 144.47s-144.47-64.802-144.47-144.468c0-69.334 49.136-127.294 114.354-141.198v-474.548c0-83.020 67.568-150.588 150.588-150.588h181.058c14.356-64.628 71.96-113.176 140.864-113.176 79.648 0 144.472 64.784 144.472 144.39-0.002 79.688-64.826 144.474-144.474 144.474zM196.45 794.187c0 46.452 37.804 84.234 84.236 84.234s84.236-37.784 84.236-84.234-37.804-84.236-84.236-84.236-84.236 37.784-84.236 84.236zM723.078-25.089c-46.43 0-84.234 37.726-84.234 84.156 0 46.472 37.804 84.236 84.234 84.236s84.234-37.764 84.234-84.236c0-46.43-37.804-84.156-84.234-84.156zM753.196 490.363v134.606h-60.236v-134.606h-134.628v-60.236h134.628v-134.586h60.236v134.586h134.59v60.236z" />
<glyph unicode="&#xe806;" glyph-name="camera" d="M704.758 693.709c23.458 0 42.666-19.188 42.666-42.666v-133.958c0-15.208 6.292-23.562 15.666-23.562 5.124 0 11.124 2.458 17.584 7.646l145.708 117.312c6.416 5.166 12.458 7.646 17.582 7.646 9.376 0 15.668-8.354 15.668-23.562v-352.958c0-15.208-6.292-23.582-15.668-23.582-5.124 0-11.166 2.5-17.582 7.666l-145.708 117.334c-6.458 5.166-12.458 7.624-17.584 7.624-9.376 0-15.666-8.376-15.666-23.542v-134c0-23.458-19.208-42.666-42.666-42.666h-598.46c-23.458 0-42.666 19.208-42.666 42.666v449.936c0 23.48 19.208 42.666 42.666 42.666h598.46zM704.758 757.709h-598.46c-58.834 0-106.666-47.854-106.666-106.666v-449.938c0-58.792 47.834-106.666 106.666-106.666h598.458c58.832 0 106.666 47.876 106.666 106.666v43l74.834-60.25c22.376-18.042 43.75-21.832 57.708-21.832 38.624 0 79.668 30.708 79.668 87.582v352.958c0 56.876-41.042 87.562-79.668 87.562-13.958 0-35.332-3.772-57.666-21.772l-74.876-60.27v42.958c0.002 58.814-47.832 106.668-106.664 106.668v0z" />
<glyph unicode="&#xe807;" glyph-name="check-disc" d="M512-85.301c-282.316 0-511.968 229.654-511.968 511.948 0 282.296 229.652 511.988 511.968 511.988 282.274 0 511.968-229.694 511.968-511.99 0-282.292-229.694-511.946-511.968-511.946zM512 878.389c-249.11 0-451.722-202.654-451.722-451.744 0-249.088 202.614-451.72 451.722-451.72 249.068 0 451.722 202.632 451.722 451.72 0 249.090-202.654 451.744-451.722 451.744zM466.294 255.011c-8.292 0-16.208 3.438-21.916 9.458l-140.574 149.344 43.83 41.31 118.286-125.638 235.11 258.964 44.582-40.52-257.028-283.064c-5.624-6.208-13.624-9.77-21.998-9.854-0.126 0-0.166 0-0.292 0z" />
<glyph unicode="&#xe808;" glyph-name="clock" d="M512 938.667c-282.314 0-512-229.686-512-512 0-282.312 229.686-512 512-512s512 229.688 512 512c0 282.314-229.686 512-512 512zM512-25.099c-249.098 0-451.764 202.668-451.764 451.766s202.666 451.764 451.764 451.764c249.1 0 451.764-202.666 451.764-451.764s-202.664-451.766-451.764-451.766zM542.12 699.803h-60.238v-303.254h312.824v60.236h-252.586z" />
<glyph unicode="&#xe809;" glyph-name="cloud" d="M796.47 82.303h-568.94c-125.452 0-227.53 102.060-227.53 227.49 0 124.412 100.352 225.804 224.352 227.51 27.922 135.080 146.942 233.728 287.648 233.728s259.724-98.646 287.646-233.726c124-1.706 224.354-103.098 224.354-227.512 0-125.43-102.078-227.49-227.53-227.49zM227.53 477.089c-92.236 0-167.294-75.040-167.294-167.294 0-92.216 75.058-167.256 167.294-167.256h568.942c92.234 0 167.292 75.040 167.292 167.256 0 92.256-75.058 167.294-167.292 167.294-6.354 0-12.668-0.412-18.824-1.136-8.040-0.902-16.040 1.332-22.274 6.352-6.314 5-10.314 12.314-11.214 20.314-12.826 118.684-112.67 208.174-232.16 208.174s-219.334-89.49-232.158-208.176c-0.902-8-4.902-15.314-11.176-20.314-6.314-5.040-14.314-7.49-22.314-6.352-6.156 0.726-12.43 1.138-18.822 1.138z" />
<glyph unicode="&#xe80a;" glyph-name="cloud-upload" d="M1024 317.573c0 125.854-94.418 230.062-216.124 245.562-38.626 128.25-157.21 219.25-295.876 219.25s-257.25-91-295.876-219.25c-121.708-15.5-216.124-119.708-216.124-245.562 0-130.332 101.334-237.208 229.334-246.624v64.918c-92.71 9.288-165.334 86.582-165.334 181.706 0 101.356 82.166 183.542 183.542 183.542 7.042 0 13.916-0.48 20.792-1.272 13.25 122.896 117.292 218.542 243.666 218.542 126.416 0 230.416-95.646 243.666-218.542 6.792 0.792 13.75 1.272 20.792 1.272 101.418 0 183.542-82.186 183.542-183.542 0-95.124-72.584-172.418-165.334-181.708v-64.918c128 9.42 229.334 116.294 229.334 246.626zM731.25 217.867l-195.75 195.726c-12.5 12.5-32.75 12.5-45.25 0l-197.5-197.476 45.25-45.25 142 142v-241.918h64v243.668l142-142 45.25 45.25z" />
<glyph unicode="&#xe80b;" glyph-name="cog" d="M564.828 881.723l32.542-159.618c22.208-6.436 43.454-15.332 63.246-26.248l137.95 87.766 72.578-72.556-89.996-135.826c11-19.936 19.918-41.080 26.332-63.308l159.618-35.518v-102.536l-159.618-32.562c-6.414-22.248-15.332-43.392-26.332-63.288l87.828-137.95-72.492-72.474-135.954 89.91c-19.832-11.082-41.040-19.958-63.328-26.29l-35.458-159.616h-102.578l-32.496 159.572c-22.208 6.48-43.458 15.25-63.206 26.292l-138.074-87.85-72.54 72.518 89.912 135.95c-10.916 19.832-19.832 41.040-26.208 63.308l-159.656 35.478v102.514l159.656 32.518c6.376 22.332 15.292 43.498 26.208 63.33l-87.744 137.992 72.494 72.494 135.952-89.91c19.874 10.958 40.998 19.854 63.206 26.29l35.496 159.618h102.662zM512 336.463c49.834 0 90.122 40.332 90.122 90.14 0 49.81-40.29 90.224-90.122 90.224-49.83 0-90.202-40.414-90.202-90.224 0-49.808 40.37-90.14 90.202-90.14zM564.828 938.615h-102.66c-26.664 0-49.746-18.52-55.538-44.558l-28.582-128.554c-3.458-1.396-6.916-2.812-10.332-4.292l-108.87 71.974c-9.582 6.354-20.458 9.438-31.332 9.438-14.664 0-29.29-5.668-40.246-16.668l-72.452-72.516c-18.874-18.852-22.082-48.246-7.792-70.724l70.622-111.12c-1.458-3.476-2.916-6.958-4.334-10.436l-127.74-26.042c-26.5-5.376-45.54-28.706-45.54-55.724v-102.514c0-26.666 18.498-49.748 44.54-55.54l128.534-28.56c1.376-3.478 2.792-6.958 4.292-10.396l-71.998-108.846c-14.916-22.56-11.874-52.496 7.208-71.62l72.578-72.518c11-10.958 25.542-16.644 40.248-16.644 10.5 0 21.082 2.918 30.498 8.876l111.118 70.704c3.418-1.478 6.876-2.916 10.376-4.312l26.042-127.762c5.374-26.498 28.706-45.54 55.704-45.54h102.578c26.664 0 49.746 18.52 55.496 44.558l28.582 128.43c3.542 1.396 7.042 2.876 10.542 4.376l108.786-71.932c9.582-6.354 20.458-9.438 31.332-9.438 14.664 0 29.246 5.666 40.246 16.666l72.454 72.474c18.876 18.854 22.082 48.268 7.792 70.766l-70.664 111.014c1.5 3.458 2.918 6.958 4.332 10.438l127.828 26.060c26.458 5.416 45.496 28.708 45.496 55.748v102.536c0 26.664-18.5 49.746-44.496 55.538l-128.618 28.604c-1.376 3.5-2.792 6.958-4.292 10.394l71.996 108.702c14.958 22.582 11.958 52.54-7.168 71.662l-72.578 72.558c-11 10.978-25.582 16.644-40.246 16.644-10.542 0-21.124-2.938-30.5-8.894l-111.074-70.662c-3.46 1.478-6.876 2.936-10.376 4.31l-26.082 127.826c-5.378 26.476-28.71 45.516-55.71 45.516v0zM512 393.357c-18.374 0-33.33 14.916-33.33 33.248 0 18.374 14.958 33.332 33.33 33.332 18.334 0 33.208-14.958 33.208-33.332 0-18.332-14.876-33.248-33.208-33.248v0z" />
<glyph unicode="&#xe80c;" glyph-name="comment" d="M330.516-85.333v186.624h-177.434c-82.446 0-149.548 67.102-149.548 149.548v538.282c0 82.464 67.102 149.546 149.548 149.546h717.834c82.45 0 149.55-67.082 149.55-149.546v-538.28c0-82.448-67.102-149.548-149.55-149.548h-218.090l-322.31-186.626zM153.082 878.849c-49.458 0-89.728-40.25-89.728-89.728v-538.28c0-49.498 40.27-89.728 89.728-89.728h237.254v-142.696l246.444 142.696h234.136c49.46 0 89.73 40.23 89.73 89.728v538.28c0 49.478-40.27 89.728-89.73 89.728h-717.834z" />
<glyph unicode="&#xe80d;" glyph-name="copy" d="M906.746 874.079h-188.274v14.39c0 27.688-22.512 50.198-50.194 50.198h-312.552c-27.686 0-50.196-22.51-50.196-50.198v-14.39h-188.274c-27.686 0-50.196-22.51-50.196-50.198v-859.020c0-27.684 22.51-50.194 50.196-50.194h789.49c27.688 0 50.196 22.51 50.196 50.196v859.018c0 27.688-22.508 50.198-50.196 50.198zM365.764 878.431h292.474v-83.842h-292.474v83.842zM896.708-25.099h-769.414v838.942h178.236v-29.292c0-27.688 22.51-50.198 50.196-50.198h312.552c27.684 0 50.196 22.51 50.196 50.198v29.292h178.234v-838.942zM520.786 533.019l-42.59 42.59-216.196-216.158 217.92-217.962 42.592 42.59-144.316 144.352h389.804v60.236h-391.606z" />
<glyph unicode="&#xe80e;" glyph-name="credit-card" d="M933.646 788.069h-843.294c-49.804 0-90.352-40.528-90.352-90.354v-542.096c0-49.844 40.548-90.356 90.352-90.356h843.294c49.804 0 90.354 40.512 90.354 90.356v542.096c0 49.826-40.548 90.354-90.354 90.354zM90.352 727.835h843.294c16.588 0 30.12-13.51 30.12-30.12v-85.332h-903.532v85.332c0 16.61 13.532 30.12 30.118 30.12zM933.646 125.501h-843.294c-16.586 0-30.118 13.49-30.118 30.12v396.526h903.532v-396.528c0-16.628-13.532-30.118-30.12-30.118zM171.058 303.699h150.588v-60.236h-150.588v60.236zM418.234 303.699h426.708v-60.236h-426.708v60.236z" />
<glyph unicode="&#xe80f;" glyph-name="down" d="M510.942 265.073l-257.128 257.208 42.6 42.6 214.528-214.608 216.626 216.668 42.6-42.602z" />
<glyph unicode="&#xe810;" glyph-name="down-disc" d="M510.942 265.073l-257.128 257.208 42.6 42.6 214.528-214.608 216.626 216.668 42.6-42.602zM512-85.333c-282.31 0-512 229.668-512 512 0 282.31 229.69 512 512 512 282.332 0 512-229.69 512-512 0-282.332-229.668-512-512-512zM512 878.415c-249.086 0-451.748-202.662-451.748-451.748 0-249.066 202.662-451.75 451.748-451.75 249.066 0 451.75 202.684 451.75 451.75 0 249.086-202.684 451.748-451.75 451.748z" />
<glyph unicode="&#xe811;" glyph-name="down-large" d="M509.846 147.911l-509.846 509.868 43.334 43.334 466.512-466.53 470.82 470.84 43.334-43.336z" />
<glyph unicode="&#xe812;" glyph-name="file" d="M665.020 938.677h-474.25c-49.834 0-90.376-40.542-90.376-90.376v-843.312c0-49.792 40.542-90.332 90.376-90.332h642.46c49.832 0 90.376 40.542 90.376 90.332v675.084l-258.586 258.604zM682.644 835.843l138.124-138.124h-108c-16.582 0-30.124 13.52-30.124 30.124v108zM833.23-25.093h-642.46c-16.584 0-30.124 13.5-30.124 30.082v843.312c0 16.624 13.542 30.124 30.124 30.124h431.624v-150.582c0-49.834 40.586-90.356 90.376-90.356h150.586v-632.5c0-16.58-13.544-30.080-30.126-30.080z" />
<glyph unicode="&#xe813;" glyph-name="flag" d="M937.656 882.789c-10.182 5.414-22.504 4.646-32-1.778-0.808-0.524-84.526-56.364-202.14-56.364-52.204 0-90.344 21.9-134.464 47.232-54.548 31.314-116.326 66.788-214.75 66.788-179.352 0-271.070-85.778-274.908-89.414-6.1-5.86-9.576-13.94-9.576-22.424v-912.162h62.060v359.11c25.332 18.668 99.958 64.528 222.424 64.528 81.858 0 133.698-29.778 183.838-58.546 47.516-27.23 96.606-55.434 165.376-55.434 137.616 0 233.172 64.446 237.172 67.192 8.444 5.778 13.494 15.356 13.494 25.576v538.3c0 11.476-6.386 22.022-16.526 27.396zM892.122 334.707c-28.284-15.594-98.504-48.322-188.606-48.322-52.204 0-90.344 21.858-134.464 47.194-54.546 31.312-116.324 66.786-214.748 66.786-103.112 0-177.292-28.364-222.424-53.128v464.966c24.93 18.666 98.666 64.404 222.424 64.404 81.858 0 133.698-29.778 183.838-58.546 47.516-27.272 96.606-55.474 165.376-55.474 80.606 0 146.788 22.142 188.606 41.010v-468.89z" />
<glyph unicode="&#xe814;" glyph-name="folder" d="M943.666 778.021h-461.79v80.332c0 49.5-30.75 80.292-80.292 80.292h-301.208c-48.626 0-100.376-28.166-100.376-80.292v-843.29c0-49.71 50.666-100.376 100.376-100.376h843.292c52.208 0 80.334 51.708 80.334 100.376v682.666c-0.002 49.5-30.752 80.292-80.336 80.292zM100.376 878.437h301.208c16.666 0 20.042-3.376 20.042-20.084v-140.542h522.042c16.708 0 20.084-3.376 20.084-20.084v-100.376h-903.502v261c0 11.836 21.126 20.086 40.126 20.086zM943.666-25.105h-843.29c-16.5 0-40.124 23.668-40.124 40.168v522.040h903.5v-522.040c-0.002-19-8.252-40.168-20.086-40.168z" />
<glyph unicode="&#xe815;" glyph-name="folder-download" d="M938.5 740.301h-238.042v119.022c0 48.958-30.418 79.354-79.334 79.354h-515.79c-48.084 0-99.168-27.832-99.168-79.354v-614.958c0-49.124 50.042-99.166 99.168-99.166h188.458v59.542h-188.458c-16.292 0-39.668 23.334-39.668 39.624v614.958c0 11.666 20.918 19.834 39.668 19.834h515.792c16.5 0 19.834-3.334 19.834-19.834v-178.542h297.54c16.5 0 19.834-3.334 19.834-19.834v-416.584c0-18.75-8.124-39.624-19.834-39.624h-208.292v-59.542h208.292c51.542 0 79.334 51.084 79.334 99.166v416.586c0 49.686-29.668 79.352-79.334 79.352zM541.75 28.199v325.29h-59.5v-324.552l-72.5 72.47-42.084-42.042 144.71-144.708 146.832 146.832-42.084 42.084z" />
<glyph unicode="&#xe816;" glyph-name="folder-open" d="M1019.364 479.835c8.854 28.436 4.9 57.026-10.866 78.434-15.766 21.426-41.868 33.718-71.652 33.718h-61.624v97.26c0 47.984-29.824 77.808-77.806 77.808h-330.568v77.806c0 47.984-29.822 77.808-77.806 77.808h-291.778c-47.148 0-97.26-27.278-97.26-77.808v-816.938c0-48.174 49.086-97.258 97.26-97.258h700.152c28.038 0 48.628 15.652 61.66 37.42l0.836-0.266 1.14 3.686c6.952 12.802 11.434 27.28 13.144 42.208l145.168 466.122zM97.264 864.313h291.778c16.184 0 19.452-3.268 19.452-19.452v-136.162h388.924c16.184 0 19.452-3.268 19.452-19.452v-97.258h-541.274c-56.456 0-111.202-42.95-124.65-97.792l-92.586-377.752v728.416c0 11.456 20.516 19.452 38.904 19.452zM97.264-10.981c-2.926 0-6.156 1.446-9.384 2.774l119.752 488.518c6.952 28.4 38.71 53.322 67.964 53.322h661.25c11.168 0 19.946-3.534 24.656-9.936 4.71-6.42 5.47-15.824 2.164-26.5l-146.152-469.276h-0.646c0-1.064-0.268-2.090-0.302-3.154l-9.042-29.024c-2.926-3.84-6.194-6.726-10.106-6.726h-700.154z" />
<glyph unicode="&#xe817;" glyph-name="folder-shared" d="M943.688 778.079h-461.806v80.314c0 49.528-30.784 80.274-80.314 80.274h-312.196c-48.664 0-89.372-28.118-89.372-80.274v-843.294c0-49.764 50.668-100.432 100.392-100.432h843.294c52.158 0 80.314 51.726 80.314 100.432v682.626c0 49.57-30.786 80.354-80.312 80.354zM85.176 878.431h316.392c16.706 0 20.080-3.372 20.080-20.040v-140.548h522.040c16.706 0 20.078-3.374 20.078-20.118v-100.352h-903.532v261.020c0 11.804 5.962 20.038 24.942 20.038zM943.688-25.099h-843.296c-16.51 0-40.158 23.688-40.158 40.198v522.040h903.532v-522.040c0-19.020-8.236-40.198-20.078-40.198zM752.078 255.099c26.354 20.354 43.61 51.92 43.61 87.686 0 61.294-49.882 111.176-111.216 111.176-61.178 0-110.98-49.882-110.98-111.176 0-35.766 17.256-67.292 43.49-87.646-43.844-15.608-80.668-45.49-104.98-84.392-24.312 38.864-61.136 68.746-105.020 84.354 26.352 20.354 43.608 51.92 43.608 87.686 0 61.294-49.88 111.176-111.216 111.176-61.254 0-111.058-49.882-111.058-111.176 0-35.766 17.256-67.292 43.532-87.686-77.922-27.686-134.902-100.902-136.156-187.53l60.234-0.864c0 0.156 0.040 0.274 0.040 0.432 1.372 76 66.902 140.158 143.41 140.158 74.786 0 136.394-58.042 142.512-131.060-0.196-2.942-0.98-5.686-1.020-8.666l2.040-0.040c0-0.118 0.040-0.276 0.040-0.392 0-0.158 0.040-0.276 0.040-0.432l29.058 0.432 29.058-0.432c0 0.156 0.040 0.274 0.040 0.432 1.374 76 66.864 140.158 143.334 140.158 76.706 0 142.314-64.158 143.568-140.158 0-0.12 0.040-0.276 0.040-0.392l60.234 0.786c-1.184 86.624-58.202 159.842-136.242 187.566zM339.372 393.725c28.158 0 50.98-22.824 50.98-50.942 0-28.040-22.822-50.98-50.98-50.98-28.078 0-50.822 22.942-50.822 50.98-0.002 28.118 22.742 50.942 50.822 50.942zM684.47 393.725c28.158 0 50.98-22.824 50.98-50.942 0-28.040-22.822-50.98-50.98-50.98-28 0-50.744 22.942-50.744 50.98 0 28.118 22.744 50.942 50.744 50.942z" />
<glyph unicode="&#xe818;" glyph-name="folder-z" d="M943.646 778.079h-461.764v80.314c0 49.528-30.784 80.274-80.352 80.274h-301.178c-48.666 0-100.352-28.118-100.352-80.274v-843.294c0-49.766 50.626-100.432 100.352-100.432h843.294c52.196 0 80.354 51.724 80.354 100.432v682.626c0 49.57-30.786 80.354-80.354 80.354zM100.352 878.431h301.178c16.744 0 20.118-3.372 20.118-20.040v-140.548h522c16.746 0 20.118-3.374 20.118-20.118v-100.352h-903.532v261.020c0 11.804 21.14 20.038 40.118 20.038zM943.646-25.097h-843.294c-16.51 0-40.118 23.686-40.118 40.196v522.040h903.53v-522.040c0-19.020-8.274-40.196-20.118-40.196zM848.744 297.959c7.568 8.942 9.294 21.492 4.354 32.158-4.942 10.626-15.608 17.452-27.334 17.452h-214.312v-60.234h149.254l-142.118-167.414c-7.568-8.942-9.294-21.488-4.354-32.156 4.942-10.626 15.608-17.45 27.334-17.45h214.314v60.234h-149.256l142.118 167.41z" />
<glyph unicode="&#xe819;" glyph-name="github" d="M512.078-13.177l-90.864 0.078c-271.606 0-421.214 146.508-421.214 412.57 0 81.842 24.902 151.214 76.040 211.528-5.726 45.548 0.942 141.98 37.61 234.196l8.508 21.314 22.786-2.51c4.078-0.452 99.058-11.824 240.98-106.49 31.332 6.53 76.196 10.216 126.078 10.216s94.746-3.686 126.078-10.216c141.92 94.666 236.94 106.040 241.018 106.492l22.786 2.51 8.51-21.314c36.626-92.196 43.294-188.626 37.568-234.196 51.136-60.316 76.038-129.688 76.038-211.53 0-266.062-149.608-412.57-421.214-412.57l-90.708-0.078zM160.98 799.275c-28.98-86.726-28.98-170.942-24.352-186.49l4.822-16.392-10.864-14.608c-48-52.080-70.354-110-70.354-182.312 0-291.238 196.314-352.336 360.98-352.336l181.574-0.002c164.666 0 360.98 61.098 360.98 352.336 0 72.312-22.354 130.234-70.354 182.312l-12.942 14.040 7.178 17.706c4.39 14.882 4.352 99.058-24.59 185.746-34.786-9.058-107.332-34-202-98.98l-11.568-7.922-13.53 3.746c-50.746 14.040-197.176 14.040-247.922 0l-13.53-3.746-11.568 7.922c-94.628 64.94-167.136 89.88-201.96 98.98zM328.196 447.039c23.454 0 49.726-1.844 77.57-3.824 33.332-2.354 67.764-4.786 104.706-4.786 0.314 0 0.626 0 0.942 0h2.118c36.942 0 71.412 2.432 104.744 4.804 27.844 1.96 54.158 3.804 77.61 3.804 43.844 0 69.646-6.47 86.196-21.686 25.688-23.608 37.648-50.626 37.648-85.042 0-111.45-45.804-164.546-306.198-164.546h-3.058c-260.392 0-306.198 53.098-306.198 164.546 0 34.414 11.96 61.434 37.648 85.022 16.586 15.218 42.35 21.708 86.272 21.708zM695.844 507.293c-53.882-0.020-116.078-8.628-182.314-8.628-0.47 0-0.942 0.020-1.53 0.060-0.47-0.040-1.058-0.060-1.53-0.060-66.198 0-128.392 8.628-182.276 8.628-50.902 0-94.43-7.706-127.020-37.588-40.196-36.92-57.136-81.452-57.136-129.394 0-200.156 160.432-224.782 366.432-224.782h3.058c206 0 366.432 24.624 366.432 224.782 0 47.942-16.942 92.472-57.136 129.394-32.55 29.902-76.038 37.588-126.98 37.588v0zM344.902 253.999c-33.058 0-59.922 26.902-59.922 59.96 0 33.020 26.864 59.882 59.922 59.882 33.020 0 59.882-26.864 59.882-59.882 0.002-33.058-26.862-59.96-59.882-59.96zM683.726 253.999c-33.058 0-59.922 26.902-59.922 59.96 0 33.020 26.864 59.882 59.922 59.882 33.020 0 59.882-26.864 59.882-59.882 0.002-33.058-26.862-59.96-59.882-59.96z" />
<glyph unicode="&#xe81a;" glyph-name="grip" d="M447.998 938.667h128.006v-128.004h-128.006v128.004zM447.998 490.691h128.006v-128.004h-128.006v128.004zM447.998 42.673h128.006v-128.006h-128.006v128.006z" />
<glyph unicode="&#xe81b;" glyph-name="home" d="M1025.8 418.267l-432.6 432.4c-42.4 42.4-116.6 42.4-159.2 0l-432.2-432.4 43.4-43.4 150.2 150.2v-523c0-17 13.8-30.6 30.6-30.6h203.4c17 0 30.6 13.8 30.6 30.6v310.4h107.6v-310.4c0-17 13.8-30.6 30.6-30.6h203.4c17 0 30.6 13.8 30.6 30.6v523l150.2-150.2 43.4 43.4zM770.8 32.667h-142.2v310.4c0 17-13.8 30.6-30.6 30.6h-168.8c-17 0-30.6-13.8-30.6-30.6v-310.4h-142v553.8l220.8 221c19.4 19.4 53 19.4 72.4 0l221-221v-553.8z" />
<glyph unicode="&#xe81c;" glyph-name="key" d="M762.372 221.923c-80.222 0-149.482 46.22-183.040 113.478h-94.592l-79.074 79.040-79.074-79.040h-18.296l-79.074 79.040-79.074-79.040h-4.666l-88.592 84.372 88.592 84.374h427.482c30.52 74.63 103.778 127.258 189.406 127.258 113.072 0 204.74-91.706 204.74-204.74s-91.666-204.742-204.738-204.742zM762.372 165.035c144.26 0 261.628 117.37 261.628 261.628s-117.37 261.628-261.63 261.632c-93.334 0-177.74-48.852-224.446-127.262h-392.444c-14.592 0-28.666-5.59-39.222-15.664l-88.592-84.39c-11.294-10.742-17.666-25.63-17.666-41.202 0-15.574 6.372-30.464 17.666-41.208l88.596-84.368c10.556-10.074 24.63-15.688 39.222-15.688h4.666c15.074 0 29.556 6 40.222 16.648l38.852 38.834 38.852-38.834c10.666-10.648 25.148-16.648 40.222-16.648h18.296c15.074 0 29.556 6 40.222 16.648l38.852 38.834 38.852-38.834c10.666-10.648 25.148-16.648 40.222-16.648h62.184c48.37-70.774 128.038-113.478 215.446-113.478v0zM760.666 365.849c33.63 0 60.89 27.186 60.89 60.814s-27.26 60.814-60.89 60.814c-33.554 0-60.812-27.186-60.812-60.814s27.258-60.814 60.812-60.814v0z" />
<glyph unicode="&#xe81d;" glyph-name="letter" d="M933.648 652.519h-60.236v180.766c0 49.824-40.548 90.354-90.354 90.354h-542.116c-49.804 0-90.354-40.53-90.354-90.354v-180.764h-60.236c-49.804-0.002-90.352-40.53-90.352-90.354v-542.118c0-49.804 40.548-90.354 90.352-90.354h843.296c49.802 0 90.352 40.548 90.352 90.354v542.118c0 49.824-40.548 90.352-90.352 90.352zM963.766 562.167v-541.176l-265.098 281.566 264.196 264.080c0.234-1.528 0.902-2.882 0.902-4.47zM873.412 592.285h29.92l-29.92-29.92v29.92zM210.824 833.285c0 16.608 13.528 30.118 30.118 30.118h542.118c16.59 0 30.118-13.51 30.118-30.118v-331.058l-237.296-237.236c-33.96-33.96-93.804-33.96-127.766 0l-237.292 237.334v330.96zM319.214 308.715l-258.98-275.096v528.548c0 1.648 0.668 3.058 0.942 4.648l258.038-258.1zM150.588 592.285v-29.706l-29.686 29.706h29.686zM101.804-10.067l260.040 276.156 43.686-43.688c0.078-0.078 0.158-0.118 0.236-0.156l14-14.040c24.586-24.548 57.372-38.118 92.274-38.118 34.942 0 67.726 13.568 92.274 38.118l51.726 51.726 254.274-270h-808.51zM308.708 753.991h406.586v-60.236h-406.586v60.236zM308.708 584.579h406.586v-60.236h-406.586v60.236z" />
<glyph unicode="&#xe81e;" glyph-name="link" d="M873.412 707.727h-438.59c-83.020 0-150.586-67.55-150.586-150.588v-9.294h-133.648c-83.020-0.002-150.588-67.55-150.588-150.588v-101.058c0-83.022 67.568-150.59 150.588-150.59h438.588c83.022 0 150.588 67.568 150.588 150.59v9.332h133.648c83.020 0 150.588 67.53 150.588 150.568v101.040c0 83.038-67.568 150.588-150.588 150.588zM679.53 296.199c0-49.804-40.548-90.356-90.354-90.356h-438.588c-49.804 0-90.352 40.55-90.352 90.356v101.058c0 49.822 40.546 90.352 90.352 90.352h133.648v-31.51c0-83.040 67.566-150.568 150.586-150.568h244.708v-9.332zM679.53 365.765h-244.708c-49.802 0-90.352 40.512-90.352 90.334v31.51h244.706c49.804 0 90.354-40.53 90.354-90.352v-31.492zM963.764 456.099c0-49.822-40.546-90.334-90.352-90.334h-133.648v31.492c0 83.038-67.566 150.586-150.588 150.586h-244.706v9.294c0 49.824 40.548 90.354 90.352 90.354h438.59c49.804 0 90.352-40.53 90.352-90.354v-101.038z" />
<glyph unicode="&#xe81f;" glyph-name="loading" d="M510.848-85.307c-110.096 0-216.736 35.394-306.334 102.662-109.348 82.098-180.176 201.84-199.446 337.228-22.854 160.718 32.892 324.584 149.136 438.306l42.122-43.060c-102.576-100.37-151.782-244.944-131.596-386.768 35.082-246.568 264.318-418.872 510.824-383.52 119.45 16.98 225.13 79.434 297.584 175.906 72.456 96.474 102.994 215.364 85.994 334.812-16.976 119.454-79.472 225.114-175.946 297.566-82.372 61.828-181.136 93.078-282.546 90.39l83.536-111.786-48.29-36.040-115.952 155.2c-6.354 8.52-7.77 19.77-3.666 29.58 4.084 9.812 13.042 16.748 23.56 18.27 135.2 19.248 270.15-15.332 379.498-97.452 109.37-82.1 180.198-201.864 199.448-337.25 19.246-135.368-15.356-270.128-97.474-379.458-82.1-109.326-201.884-180.134-337.292-199.404-24.434-3.454-48.89-5.182-73.16-5.182z" />
<glyph unicode="&#xe820;" glyph-name="loading-double" d="M48.846 536.145c-8.042 0-15.874 3.25-21.624 9.188-7.624 7.854-10.376 19.248-7.166 29.726 39.914 131.034 128.492 238.674 249.4 303.086 120.912 64.434 259.652 77.89 390.684 37.954 168.116-51.204 296.858-182.988 344.48-352.458l-57.998-16.27c-41.996 149.596-155.656 265.922-304.064 311.126-115.618 35.186-238.068 23.332-344.81-33.52-89.872-47.89-159.534-122.864-200.322-214.462l139.408 37.476 15.666-58.164-195.82-52.642c-2.584-0.706-5.21-1.040-7.834-1.040zM513.11-85.295c-49.414 0-99.62 7.188-149.242 22.332-168.114 51.226-296.898 182.968-344.478 352.436l57.994 16.27c41.998-149.596 155.658-265.878 304.024-311.106 219.486-66.956 451.432 41.874 543.926 245.38l-146.074-44.958-17.75 57.56 204.78 63.016c10.624 3.312 22.208 0.418 30.124-7.436 7.876-7.896 10.792-19.458 7.542-30.124-67.29-220.858-271.11-363.37-490.846-363.37z" />
<glyph unicode="&#xe821;" glyph-name="locked" d="M862.084 558.167h-47.334v145.834c0 129.416-105.25 234.666-234.666 234.666h-136.166c-129.418 0-234.668-105.25-234.668-234.666v-145.834h-47.332c-58.834 0-106.668-47.834-106.668-106.666v-430.166c0-58.834 47.834-106.668 106.668-106.668h700.166c58.834 0 106.666 47.834 106.666 106.668v430.166c0 58.832-47.832 106.666-106.666 106.666zM273.25 704.001c0 93.876 76.792 170.666 170.668 170.666h136.166c93.876 0 170.666-76.792 170.666-170.666v-145.834h-477.5v145.834zM904.75 21.335c0-23.458-19.208-42.668-42.666-42.668h-700.166c-23.458 0-42.668 19.208-42.668 42.668v430.166c0 23.458 19.208 42.666 42.668 42.666h700.166c23.458 0 42.666-19.208 42.666-42.666v-430.166zM295.042 353.667h444.582v-64h-444.582v64zM295.042 171.667h444.582v-64h-444.582v64z" />
<glyph unicode="&#xe822;" glyph-name="marker" d="M511.882-85.333l-299.916 299.916c-165.358 165.378-165.358 434.474 0 599.832 80.124 80.122 186.63 124.252 299.956 124.252 113.288 0 219.794-44.13 299.838-124.232 80.162-80.102 124.292-186.628 124.292-299.916s-44.128-219.776-124.292-299.896l-299.878-299.956zM511.922 879.157c-97.402 0-188.992-37.93-257.878-106.816-142.15-142.17-142.15-373.492 0-515.68l257.84-257.842 257.802 257.878c68.886 68.886 106.856 160.44 106.856 257.822 0 97.402-37.968 188.954-106.856 257.84-68.81 68.866-160.362 106.798-257.764 106.798zM505.49 325.817c-98.45 0-178.532 80.062-178.532 178.512 0 98.448 80.082 178.532 178.532 178.532s178.532-80.084 178.532-178.532c0-98.45-80.082-178.512-178.532-178.512zM505.49 623.349c-65.632 0-119.020-53.388-119.020-119.020s53.386-119.022 119.020-119.022 119.022 53.388 119.022 119.022c0 65.632-53.388 119.020-119.022 119.020z" />
<glyph unicode="&#xe823;" glyph-name="merge" d="M890.652 236.565v382.762c0 95.040-77.332 172.35-172.348 172.35h-284.018l98.25 98.248-48.744 48.742-154.306-154.308c-13.062 76.93-79.71 135.838-160.278 135.838-89.946 0-163.104-73.16-163.104-163.058 0-80.52 58.796-147.148 135.634-160.298v-358.794c-76.882-13.148-135.724-79.756-135.724-160.32 0-89.9 73.158-163.058 163.104-163.058s163.106 73.158 163.106 163.058c0 75.45-51.796 138.552-121.542 157.044v365.3c60.636 16.068 107.404 65.82 118.624 128.296l155.878-155.854 48.742 48.742-101.48 101.48h285.858c57 0 103.41-46.386 103.41-103.41v-381.952c-74.012-15.394-129.8-81.104-129.8-159.648 0-89.9 73.114-163.058 163.012-163.058 89.902 0 163.058 73.158 163.058 163.058 0 77.602-54.62 142.504-127.332 158.84zM263.282 77.725c0-51.93-42.234-94.12-94.164-94.12s-94.164 42.19-94.164 94.12 42.234 94.12 94.164 94.12 94.164-42.19 94.164-94.12zM169.208 662.997c-51.93 0-94.164 42.234-94.164 94.142 0 51.906 42.234 94.12 94.164 94.12 51.884 0 94.074-42.212 94.074-94.12s-42.19-94.142-94.074-94.142zM854.926-16.393c-51.882 0-94.074 42.19-94.074 94.12s42.192 94.12 94.074 94.12c51.886 0 94.122-42.19 94.122-94.12s-42.236-94.12-94.122-94.12z" />
<glyph unicode="&#xe824;" glyph-name="minus-disc" d="M512-85.301c-282.276 0-511.968 229.654-511.968 511.948 0 282.296 229.692 511.988 511.968 511.988 282.316 0 511.968-229.694 511.968-511.99 0-282.292-229.652-511.946-511.968-511.946zM512 878.389c-249.068 0-451.722-202.654-451.722-451.744 0-249.088 202.654-451.72 451.722-451.72 249.11 0 451.722 202.632 451.722 451.72 0 249.090-202.612 451.744-451.722 451.744zM336.094 456.771h361.394v-60.246h-361.394v60.246z" />
<glyph unicode="&#xe825;" glyph-name="more" d="M134.416 497.085c38.834 0 70.418-31.542 70.418-70.418s-31.584-70.418-70.418-70.418c-38.874 0-70.416 31.542-70.416 70.418s31.542 70.418 70.416 70.418zM134.416 561.085c-74.124 0-134.416-60.294-134.416-134.418s60.292-134.418 134.416-134.418 134.418 60.292 134.418 134.418-60.292 134.418-134.418 134.418v0zM512 497.085c38.834 0 70.416-31.542 70.416-70.418s-31.582-70.418-70.416-70.418c-38.916 0-70.416 31.542-70.416 70.418s31.5 70.418 70.416 70.418zM512 561.085c-74.124 0-134.416-60.292-134.416-134.418s60.292-134.418 134.416-134.418 134.416 60.292 134.416 134.418-60.292 134.418-134.416 134.418v0zM889.584 497.085c38.832 0 70.416-31.542 70.416-70.418s-31.584-70.418-70.416-70.418c-38.876 0-70.418 31.542-70.418 70.418s31.542 70.418 70.418 70.418zM889.584 561.085c-74.124 0-134.418-60.292-134.418-134.418s60.292-134.418 134.418-134.418 134.416 60.294 134.416 134.418-60.292 134.418-134.416 134.418v0z" />
<glyph unicode="&#xe826;" glyph-name="next" d="M416.384 168.459l-42.598 42.598 214.566 214.552-216.626 216.626 42.6 42.598 259.224-259.224z" />
<glyph unicode="&#xe827;" glyph-name="next-disc" d="M416.384 168.461l-42.598 42.598 214.566 214.55-216.626 216.626 42.6 42.598 259.224-259.224zM512-85.333c-282.312 0-512 229.708-512 512 0 282.31 229.688 512 512 512 282.29 0 512-229.69 512-512 0-282.292-229.71-512-512-512zM512 878.415c-249.088 0-451.75-202.66-451.75-451.748 0-249.106 202.662-451.748 451.75-451.748 249.106 0 451.746 202.642 451.746 451.748 0 249.088-202.64 451.748-451.746 451.748z" />
<glyph unicode="&#xe828;" glyph-name="nodes" d="M835.772 757.313c-85.246 0-157.516-57.1-180.532-135.074l-279.152 83.75c0.162 3.138 0.25 6.296 0.254 9.474 0.124 50.29-19.332 97.598-54.788 133.2-35.458 35.624-82.662 55.29-133.368 55.414-103.536 0-187.948-84.222-188.156-187.758-0.25-103.766 83.996-188.366 187.782-188.594 0.042 0 0.416 0 0.416 0 12.502 0 24.722 1.238 36.55 3.58l75.686-236.9c-50.804-33.646-84.454-91.272-84.612-156.594-0.082-50.268 19.376-97.556 54.874-133.158 35.456-35.642 82.66-55.288 132.908-55.392 0.042 0 0.458 0 0.458 0 103.536 0 187.906 84.246 188.114 187.76 0.112 44.448-15.1 86.558-43.13 120.344l173.006 161.934c31.5-23.958 70.746-38.24 113.278-38.334 0.042 0 0.416 0 0.416 0 103.538 0 187.948 84.224 188.198 187.76 0.162 103.76-84.040 188.36-188.202 188.588zM187.938 587.513c-34.332 0.062-66.496 13.498-90.704 37.808-24.208 24.292-37.54 56.58-37.456 90.872 0.166 70.64 57.788 128.096 128.7 128.096 34.29-0.062 66.538-13.5 90.744-37.792 24.166-24.29 37.458-56.558 37.374-90.888-0.124-70.642-57.746-128.096-128.368-128.096zM280.872 552.181c37.33 21.22 66.738 54.834 82.572 95.192l284.28-85.288c1.368-36.85 13.384-71.036 33.070-99.554l-176.87-165.548c-29.564 18.556-63.874 28.526-99.958 28.586-16.816 0-33.124-2.236-48.652-6.406l-74.442 233.018zM403.758 9.047c-34.292 0.042-66.456 13.476-90.662 37.768-24.208 24.31-37.54 56.58-37.456 90.87 0.166 70.642 57.706 128.118 128.7 128.118 30.424-0.054 59.228-10.658 82.216-30.012 0.134-0.12 0.27-0.236 0.406-0.352 2.776-2.358 5.484-4.814 8.080-7.426 24.208-24.29 37.458-56.558 37.374-90.87-0.084-70.642-57.706-128.096-128.326-128.096zM835.48 440.729c-70.788 0.166-128.242 57.892-128.158 128.68 0.208 70.64 57.83 128.118 128.742 128.118 70.788-0.146 128.2-57.892 128.118-128.68-0.168-70.642-57.79-128.118-128.41-128.118z" />
<glyph unicode="&#xe829;" glyph-name="parent" d="M503.196 642.441l-44.292-44.272-183.080 183.122v-666.484c0-51.774 42.152-93.926 93.926-93.926h654.25v-62.614h-654.252c-86.344 0-156.542 70.238-156.542 156.542v654.332l-168.934-168.934-44.272 44.272 250.588 250.588 252.608-252.626z" />
<glyph unicode="&#xe82a;" glyph-name="pause-disc" d="M511.98-85.333c-136.75 0-265.316 53.26-362.018 149.966-96.704 96.712-149.962 225.29-149.962 362.056 0 136.746 53.258 265.312 149.962 362.016 96.704 96.706 225.272 149.962 362.018 149.962 136.762 0 265.344-53.256 362.050-149.962 96.708-96.702 149.97-225.268 149.97-362.016 0-136.766-53.262-265.348-149.968-362.054s-225.286-149.968-362.052-149.968zM511.98 878.031c-120.55 0-233.89-46.95-319.14-132.202-85.252-85.252-132.202-198.592-132.202-319.14 0-120.568 46.95-233.922 132.202-319.18 85.25-85.254 198.59-132.206 319.14-132.206 120.57 0 233.922 46.952 319.176 132.208 85.254 85.254 132.208 198.608 132.208 319.178 0 120.55-46.954 233.89-132.208 319.14-85.254 85.252-198.61 132.202-319.176 132.202zM611.582 563.081h60.636v-272.868h-60.636v272.868zM338.716 563.081h60.636v-272.868h-60.636v272.868z" />
<glyph unicode="&#xe82b;" glyph-name="play-disc" d="M511.958-85.301c-282.232 0-511.884 229.654-511.884 511.948 0 282.296 229.652 511.99 511.884 511.99 282.316 0 511.968-229.694 511.968-511.99 0-282.294-229.652-511.948-511.968-511.948zM511.958 878.389c-249.068 0-451.682-202.654-451.682-451.744 0-249.088 202.614-451.72 451.682-451.72 249.070 0 451.804 202.632 451.804 451.72 0 249.090-202.734 451.744-451.804 451.744zM440.378 238.845v0c-22.914 0-46.122 18.042-46.122 52.498v270.628c0 34.476 23.208 52.518 46.122 52.518 10.25 0 20.458-3.292 30.332-9.728l224.322-138.992c11.582-8.082 22.332-21.832 22.332-39.124 0-17.29-10.75-31.018-20.75-38.102l-226.57-140.386c-9.21-6.040-19.416-9.312-29.666-9.312zM454.586 543.869l-0.124-234.464 189.406 117.286-189.282 117.178z" />
<glyph unicode="&#xe82c;" glyph-name="plus-disc" d="M512 938.615c-282.274 0-511.968-229.654-511.968-511.97 0-282.274 229.696-511.926 511.968-511.926 282.316 0 511.968 229.652 511.968 511.926 0 282.316-229.652 511.97-511.968 511.97v0zM512-25.075c-249.068 0-451.722 202.654-451.722 451.72 0 249.112 202.654 451.766 451.722 451.766 249.11 0 451.764-202.654 451.764-451.766 0-249.066-202.654-451.72-451.764-451.72v0zM482.6 612.227v-155.73l-155.732-0.001 0.001-60.219 155.729 0.001 0.030-155.76h60.217l-0.027 155.76 155.759-0.028v60.217l-155.76 0.030 0.001 155.729-60.219 0.001z" />
<glyph unicode="&#xe82d;" glyph-name="power" d="M512-70.271c-282.334 0-512 229.668-512 512 0 165.918 81.042 322.334 216.834 418.25l34.75-49.166c-119.834-84.708-191.376-222.666-191.376-369.084 0-249.124 202.666-451.792 451.792-451.792 249.082 0 451.75 202.666 451.75 451.792 0 144.668-70.25 281.75-187.918 366.584l35.25 48.876c133.334-96.166 212.918-251.46 212.918-415.46 0-282.332-229.668-512-512-512zM485.042 923.605h60.25v-481.876h-60.25v481.876z" />
<glyph unicode="&#xe82e;" glyph-name="previous" d="M609.684 168.499l-259.246 259.226 257.202 257.13 42.604-42.602-214.608-214.528 216.648-216.624z" />
<glyph unicode="&#xe82f;" glyph-name="previous-disc" d="M609.684 168.499l-259.246 259.226 257.204 257.13 42.602-42.602-214.608-214.528 216.648-216.624zM512.010-85.333c-282.31 0-512 229.668-512 512 0 282.31 229.69 512 512 512 282.312 0 511.98-229.69 511.98-512 0-282.332-229.668-512-511.98-512zM512.010 878.415c-249.086 0-451.748-202.662-451.748-451.748 0-249.066 202.662-451.75 451.748-451.75s451.73 202.684 451.73 451.75c0 249.086-202.644 451.748-451.73 451.748z" />
<glyph unicode="&#xe830;" glyph-name="question-disc" d="M512-85.333c-282.314 0-512 229.644-512 512 0 282.274 229.686 512 512 512s512-229.726 512-512c0-282.356-229.686-512-512-512zM512 878.431c-249.098 0-451.764-202.666-451.764-451.764 0-249.1 202.666-451.766 451.764-451.766s451.766 202.666 451.766 451.766c0 249.098-202.668 451.764-451.766 451.764zM542.040 108.469h-60.236v60.238l60.236 3.762zM542.040 236.707h-60.234v128h30.118c74.746 0 135.53 60.784 135.53 135.528 0 74.708-60.784 135.532-135.53 135.532s-135.53-60.824-135.53-135.532c0-18.902 3.764-37.098 11.214-54.078l-55.214-24.156c-10.786 24.668-16.236 50.942-16.236 78.234 0 107.922 87.804 195.766 195.764 195.766s195.766-87.844 195.766-195.766c0-97.724-71.96-178.942-165.648-193.488v-70.040z" />
<glyph unicode="&#xe831;" glyph-name="remove" d="M852.8 723.867l-45.2 45.2-297.4-297.4-297.4 297.4-45.2-45.2 297.4-297.4-297.4-297.4 45.2-45.2 297.4 297.4 297.4-297.4 45.2 45.2-297.4 297.4z" />
<glyph unicode="&#xe832;" glyph-name="remove-disc" d="M512 938.615c-282.274 0-511.968-229.654-511.968-511.97 0-282.274 229.696-511.926 511.968-511.926 282.316 0 511.968 229.652 511.968 511.926 0 282.316-229.652 511.97-511.968 511.97zM512-25.075c-249.068 0-451.722 202.654-451.722 451.72 0 249.112 202.654 451.766 451.722 451.766 249.11 0 451.764-202.654 451.764-451.766 0-249.066-202.654-451.72-451.764-451.72zM622.952 579.387l-110.118-110.118-110.12 110.118-42.58-42.582 110.118-110.116-110.118-110.16 42.58-42.58 110.12 110.158 110.118-110.158 42.58 42.58-110.118 110.16 110.118 110.116z" />
<glyph unicode="&#xe833;" glyph-name="rss" d="M1024 17.617h-62.062c0 473.656-385.332 858.99-858.988 858.99v62.060c507.878 0 921.050-413.172 921.050-921.050zM719.354 17.617h-62.060c0 305.698-248.688 554.384-554.344 554.384v62.060c339.878 0 616.404-276.566 616.404-616.444zM199.838 252.203c75.92 0 137.698-61.818 137.698-137.778 0-75.878-61.778-137.698-137.698-137.698-75.958 0-137.778 61.818-137.778 137.698 0 75.958 61.818 137.778 137.778 137.778zM199.838 314.263c-110.384 0-199.838-89.454-199.838-199.838 0-110.302 89.454-199.758 199.838-199.758 110.302 0 199.758 89.456 199.758 199.758 0 110.384-89.456 199.838-199.758 199.838v0z" />
<glyph unicode="&#xe834;" glyph-name="search" d="M1015.176-33.923l-311.568 311.648c62.588 72.588 97.020 163.922 97.020 260.726 0 106.92-41.648 207.43-117.254 283-75.65 75.626-176.158 117.256-283.060 117.256-106.864 0-207.374-41.628-282.942-117.234-75.686-75.572-117.372-176.062-117.372-282.982-0.040-106.942 41.686-207.472 117.372-283.080 75.568-75.608 176.078-117.214 282.942-117.214 96.784 0 188.118 34.392 260.706 96.94l311.568-311.644c5.882-5.882 13.568-8.864 21.292-8.864 7.726 0 15.414 2.98 21.294 8.864 11.766 11.722 11.766 30.82 0.002 42.584zM400.314 198.433c-90.784 0-176.158 35.332-240.354 99.566-64.314 64.236-99.726 149.648-99.726 240.492 0 90.802 35.412 176.156 99.726 240.372 64.196 64.234 149.57 99.61 240.354 99.61 90.824 0 176.196-35.376 240.468-99.61 64.236-64.214 99.61-149.588 99.61-240.41 0-90.824-35.374-176.216-99.61-240.454-64.272-64.234-149.644-99.566-240.468-99.566z" />
<glyph unicode="&#xe835;" glyph-name="star" d="M512.002 879.621c4.766 0 9.532-5.094 13.184-15.3l101.796-286.662c7.266-20.414 30.906-37.096 52.548-37.096h265.48c21.642 0 25.218-10.668 7.958-23.718l-218.006-164.474c-17.26-13.070-26.794-40.824-21.142-61.738l79.844-295.964c3.652-13.492 1-20.952-6.036-20.952-3.806 0-8.918 2.23-14.992 6.842l-229.346 175.218c-8.612 6.614-19.952 9.88-31.292 9.88-11.342 0-22.682-3.268-31.292-9.88l-229.344-175.218c-6.074-4.612-11.188-6.842-14.994-6.842-7.034 0-9.688 7.458-6.036 20.952l79.882 295.964c5.65 20.914-3.882 48.668-21.142 61.718l-218.038 164.492c-17.262 13.050-13.688 23.718 7.958 23.718h265.48c21.642 0 45.286 16.684 52.55 37.096l101.792 286.662c3.652 10.208 8.42 15.302 13.188 15.302zM512.002 938.667c-11.572 0-50.784-3.92-68.812-54.548l-101.026-284.51h-263.174c-54.472 0-70.81-36.154-74.54-47.226-3.728-11.090-12.494-49.784 30.986-82.632l216.504-163.36c0.308-0.616 0.618-1.54 0.77-2.23l-79.384-294.082c-9.226-34.134 0.616-56.738 10.534-69.656 12.532-16.376 31.638-25.756 52.512-25.756 17.222 0 34.292 6.38 50.784 18.914l224.848 171.836 224.808-171.76c16.53-12.61 33.598-18.99 50.82-18.99 20.836 0 39.98 9.38 52.512 25.756 9.918 12.918 19.758 35.522 10.534 69.656l-79.346 294.082c0.154 0.692 0.46 1.616 0.77 2.27l216.43 163.282c43.516 32.886 34.75 71.58 31.022 82.67-3.728 11.072-20.066 47.226-74.54 47.226h-263.176l-101.026 284.47c-18.028 50.668-57.24 54.588-68.81 54.588v0z" />
<glyph unicode="&#xe836;" glyph-name="tag" d="M998.81 654.541l-258.864 258.95c-16.232 16.232-37.846 25.188-60.89 25.188-23.042 0-44.656-8.958-60.888-25.188l-577.234-577.192c-20.058-20.016-33.976-52.522-34.692-80.822l-6.224-253.65c-0.462-23.38 8.116-45.206 24.22-61.646 16.148-16.484 37.72-25.526 60.848-25.526l255.71 6.224c28.3 0.714 60.806 14.676 80.824 34.692l577.19 577.19c16.232 16.232 25.19 37.846 25.19 60.89 0 23.002-8.958 44.658-25.19 60.89zM953.142 578.429l-577.188-577.192c-8.37-8.368-24.894-15.472-36.754-15.77l-253.566-6.222c-0.168 0-0.378 0-0.546 0-11.606 0-20.73 9.292-20.478 20.984l6.224 253.65c0.292 11.858 7.4 28.384 15.77 36.752l577.228 577.192c4.208 4.206 9.714 6.266 15.222 6.266 5.51 0 11.018-2.060 15.222-6.266l258.866-258.95c8.37-8.368 8.37-22.076 0-30.444zM237.394 216.495c-16.526 0-33.010-6.266-45.624-18.838-25.274-25.23-25.274-66.228 0-91.208 12.616-12.74 29.184-19.090 45.752-19.090 16.482 0 32.966 6.308 45.584 18.84 25.188 25.23 25.188 66.228 0 91.458-12.618 12.572-29.184 18.838-45.712 18.838z" />
<glyph unicode="&#xe837;" glyph-name="target" d="M512.6 681.667c141.2 0 256-114.8 256-256s-114.8-256-256-256-256 114.8-256 256 114.8 256 256 256zM512.6 745.667c-176.8 0-320-143.2-320-320s143.2-320 320-320c176.8 0 320 143.2 320 320s-143.4 320-320 320v0zM512.6 489.667c35.2 0 64-28.8 64-64s-28.8-64-64-64-64 28.8-64 64 28.6 64 64 64zM512.6 553.667c-70.6 0-128-57.4-128-128s57.4-128 128-128 128 57.4 128 128-57.4 128-128 128v0zM512.6 873.667c247 0 448-201 448-448s-201-448-448-448-448 201-448 448 201 448 448 448zM512.6 937.667c-282.8 0-512-229.2-512-512s229.2-512 512-512c282.8 0 512 229.2 512 512s-229.2 512-512 512v0z" />
<glyph unicode="&#xe838;" glyph-name="terminal" d="M933.624 938.645h-843.248c-49.834 0-90.376-40.5-90.376-90.332v-843.292c0-49.832 40.542-90.332 90.376-90.332h843.25c49.834 0 90.376 40.5 90.376 90.332v843.292c-0.002 49.832-40.544 90.332-90.378 90.332zM90.376 878.437h843.25c16.624 0 30.124-13.542 30.124-30.124v-130.5h-903.5v130.5c0 16.582 13.5 30.124 30.126 30.124zM933.624-25.105h-843.248c-16.624 0-30.124 13.542-30.124 30.124v652.544h903.5v-652.542c-0.002-16.582-13.502-30.126-30.128-30.126zM227.708 422.895l106-106.042-103.874-103.832 42.582-42.582 146.5 146.414-148.624 148.668zM532.084 215.853h220.876v-60.25h-220.876v60.25z" />
<glyph unicode="&#xe839;" glyph-name="twitter" d="M687.032 796.531c53.74 0 102.294-22.666 136.37-58.944 42.48 8.372 82.48 23.926 118.59 45.296-14-43.592-43.554-80.184-82.146-103.294 37.778 4.5 73.776 14.518 107.258 29.388-25.038-37.446-56.666-70.332-93.184-96.646 0.37-8.020 0.592-16.074 0.592-24.148 0-246.792-187.922-531.38-531.324-531.38-105.518 0-203.702 30.962-286.292 83.962 14.594-1.742 29.446-2.63 44.554-2.63 87.52 0 167.998 29.852 231.886 79.926-81.666 1.48-150.664 55.48-174.442 129.702 11.444-2.222 23.11-3.334 35.184-3.334 16.962 0 33.48 2.222 49.148 6.52-85.372 17.146-149.778 92.646-149.778 183.126 0 0.778 0 1.554 0 2.332 25.148-14 54-22.37 84.628-23.332-50.146 33.48-83.11 90.626-83.11 155.404 0 34.222 9.186 66.294 25.332 93.886 92.038-112.998 229.702-187.33 384.884-195.108-3.184 13.666-4.852 27.926-4.852 42.554 0.002 103.11 83.592 186.72 186.702 186.72zM687.032 853.419c-126.96 0-231.552-97.646-242.624-221.792-109.22 20.592-208.884 79.352-279.996 166.664-10.852 13.314-27.074 20.962-44.112 20.962-1.444 0-2.926-0.054-4.37-0.166-18.592-1.446-35.294-11.888-44.74-27.982-21.666-37.036-33.11-79.442-33.11-122.626 0-31.294 5.96-61.74 17.146-89.944-11.74-10.666-18.666-25.906-18.666-42.128v-2.332c0-64.704 25.704-124.628 68.184-168.906-3.592-11.11-3.704-23.258-0.036-34.814 16.11-50.22 47.516-92.478 88.11-122.218-29.26-8.668-59.926-13.112-91.372-13.112-12.704 0-25.406 0.74-37.738 2.222-2.296 0.294-4.594 0.406-6.852 0.406-23.742 0-45.296-14.852-53.482-37.628-9-24.962 0.482-52.778 22.778-67.146 94.74-60.814 204.368-92.96 317.032-92.96 172.514 0 327.734 68.37 437.102 192.442 95.294 108.072 150.258 251.014 151.11 392.604 31.852 26.554 59.666 57.538 82.998 92.406 14.074 21.038 12.554 48.87-3.778 68.24-4.74 5.648-10.406 10.166-16.628 13.5 0.74 2.112 1.48 4.24 2.148 6.388 7.258 22.5-0.186 47.11-18.668 61.85-10.294 8.242-22.886 12.426-35.48 12.426-10 0-20-2.612-28.96-7.926-23.26-13.758-47.89-24.426-73.594-31.87-42.96 34.274-96.886 53.44-152.402 53.44v0z" />
<glyph unicode="&#xe83a;" glyph-name="up" d="M296.422 286.375l-42.6 42.596 259.246 259.248 257.13-257.17-42.602-42.592-214.528 214.564z" />
<glyph unicode="&#xe83b;" glyph-name="up-disc" d="M296.422 286.375l-42.6 42.598 259.246 259.246 257.13-257.168-42.602-42.596-214.528 214.566zM512.010-85.333c-282.312 0-512 229.708-512 512 0 282.31 229.688 512 512 512 282.31 0 511.98-229.69 511.98-512 0-282.292-229.67-512-511.98-512zM512.010 878.415c-249.088 0-451.75-202.66-451.75-451.748 0-249.106 202.662-451.748 451.75-451.748 249.086 0 451.728 202.642 451.728 451.748 0 249.088-202.642 451.748-451.728 451.748z" />
<glyph unicode="&#xe83c;" glyph-name="user" d="M638.496 416.721c82.266 46.592 137.92 134.928 137.92 236.048 0 149.458-121.624 271.042-271.084 271.042-149.458 0-271.082-121.582-271.082-271.042 0-102.906 57.628-192.582 142.292-238.486-213.78-58.954-373.25-253.556-376.542-483.928l60.25-0.832c3.458 244.164 206.124 442.832 451.792 442.832 245.75 0 448.376-198.668 451.75-442.832l60.208 0.832c-3.234 233.624-167.132 430.484-385.504 486.366zM294.5 652.771c0 116.25 94.582 210.834 210.832 210.834s210.834-94.584 210.834-210.834-94.584-210.834-210.834-210.834-210.832 94.584-210.832 210.834z" />
<glyph unicode="&#xe83d;" glyph-name="users" d="M788.708 508.177c46.418 33.5 77 87.708 77 149.208 0 101.542-82.624 184.146-184.166 184.146-44.208 0-84.292-16.292-116.084-42.356 16.208-12.124 31-25.894 44.124-41.292 20.334 14.604 45.042 23.416 71.958 23.416 68.334 0 123.958-55.582 123.958-123.916 0-68.376-55.624-123.978-123.958-123.978-4.208 0-8.124 0.812-12.208 1.228-4.75-25.918-13.208-50.5-24.832-73.292 13.582 2.146 27.292 3.584 41.332 3.584 148.542 0 275.834-124.792 277.918-272.458l60.25 0.834c-2.042 144.416-102.334 270.648-235.292 314.876zM521.708 398.073c61.292 39.042 102.042 107.394 102.042 185.25 0 121.166-98.542 219.75-219.624 219.75-121.208 0-219.792-98.584-219.792-219.75 0-79.168 42.168-148.48 105.168-187.168-165.126-50.77-287.002-203.52-289.502-383.52l60.25-0.834c2.666 188.666 159.25 342.126 349.082 342.126 189.75 0 346.376-153.458 349.084-342.124l60.25 0.834c-2.666 182.664-128.208 336.914-296.958 385.436zM244.542 583.323c0 87.958 71.584 159.5 159.584 159.5 87.876 0 159.416-71.542 159.416-159.5s-71.542-159.5-159.416-159.5c-88.002 0-159.584 71.542-159.584 159.5z" />
<glyph unicode="&#xe83e;" glyph-name="view" d="M512 183.687c-134.040 0-243.058 108.98-243.058 242.98s109.020 243 243.058 243c133.96 0 242.98-109 242.98-243s-109.020-242.98-242.98-242.98zM512 609.433c-100.824 0-182.824-81.98-182.824-182.764 0-100.786 82-182.748 182.824-182.748 100.784 0 182.744 81.96 182.744 182.748 0 100.784-81.96 182.764-182.744 182.764zM512 44.039c-269.764 0-512 259.882-512 382.628s242.236 382.628 512 382.628c284.942 0 512-274.764 512-382.626 0-107.846-227.058-382.63-512-382.63zM512 749.059c-248.51 0-451.764-243.41-451.764-322.392s203.254-322.392 451.764-322.392 451.764 243.412 451.764 322.392c0 78.982-203.254 322.392-451.764 322.392z" />
<glyph unicode="&#xe83f;" glyph-name="webhook" d="M781.484 88.341c58.938 0 106.894 47.92 106.894 106.896 0 58.898-47.958 106.816-106.894 106.816-48.43 0-88.898-32.546-101.994-76.702h-249.436v-30.116c0-101.994-82.938-184.932-184.892-184.932s-184.932 82.938-184.932 184.932c0 101.916 82.976 184.852 184.932 184.852v60.232c-135.17 0.002-245.162-109.952-245.162-245.082 0-135.208 109.992-245.164 245.162-245.164 124.974 0 228.378 93.996 243.28 215.046h191.048c13.096-44.232 53.564-76.778 101.994-76.778zM781.484 241.823c25.722 0 46.664-20.902 46.664-46.586 0-25.724-20.942-46.664-46.664-46.664-25.724 0-46.624 20.94-46.624 46.664 0 25.684 20.9 46.586 46.624 46.586zM366.528 462.693l-95.64-165.736c-44.43 9.686-94.114-9.49-117.328-49.644-14.274-24.742-18.038-53.564-10.624-81.092 7.372-27.608 25.096-50.624 49.8-64.86 16.234-9.412 34.664-14.392 53.37-14.392 38.116 0 73.604 20.51 92.624 53.45 24.194 41.878 16.274 93.29-15.49 126.736l124.736 215.968-26.116 15.078c-42.782 24.704-73.37 64.564-86.15 112.288-12.786 47.704-6.236 97.544 18.468 140.326 51.016 88.328 164.304 118.602 252.614 67.682 88.27-50.998 118.622-164.304 67.642-252.592l52.154-30.116c67.604 117.032 27.372 267.258-89.682 334.862-117.092 67.546-267.28 27.292-334.882-89.72-32.744-56.704-41.448-122.778-24.508-186.028 14.31-53.45 45.484-99.468 89.012-132.21zM286.57 170.533c-12.352-21.41-42.036-29.606-63.682-17.018-10.822 6.196-18.588 16.274-21.802 28.31-3.214 12.040-1.568 24.588 4.628 35.372 8.312 14.352 23.84 23.332 40.506 23.332 8.118 0 16.196-2.156 23.254-6.274 22.274-12.902 29.96-41.45 17.096-63.722zM991.040 317.583c-32.742 56.702-85.602 97.268-148.852 114.208-53.372 14.314-108.896 10.352-159.012-11.020l-95.524 165.382c12.196 12.764 21.45 28.136 26.156 45.664 7.372 27.548 3.566 56.35-10.708 81.114-28.312 49.154-96.7 67.584-145.992 39.096-24.704-14.274-42.388-37.312-49.8-64.878-7.372-27.586-3.566-56.388 10.708-81.074 18.978-32.998 54.466-53.488 92.582-53.488 8.43 0 16.822 1.334 24.978 3.294l124.58-215.832 26.118 15.098c42.742 24.624 92.464 31.292 140.344 18.468 47.684-12.784 87.564-43.408 112.27-86.152 24.704-42.82 31.254-92.622 18.468-140.304-12.784-47.722-43.37-87.604-86.152-112.306-88.23-50.978-201.632-20.548-252.612 67.72l-52.154-30.154c45.41-78.544 127.992-122.504 212.774-122.504 41.564 0 83.64 10.588 122.11 32.784 56.704 32.742 97.29 85.604 114.228 148.854 16.938 63.252 8.234 129.326-24.51 186.030zM470.168 636.193c-6.234 10.764-7.88 23.332-4.666 35.37 3.216 12.018 10.94 22.078 21.724 28.312 7.098 4.098 15.176 6.274 23.292 6.274 16.624 0 32.116-8.94 40.43-23.312 6.234-10.822 7.88-23.41 4.664-35.448-3.214-12.020-10.94-22.078-21.762-28.312-21.604-12.452-51.29-4.374-63.682 17.116z" />
</font>
</defs>
</svg>
