<?xml version="1.0" encoding="iso-8859-1"?>
<!-- Generator: Adobe Illustrator 16.0.0, SVG Export Plug-In . SVG Version: 6.00 Build 0)  -->
<!DOCTYPE svg PUBLIC "-//W3C//DTD SVG 1.1//EN" "http://www.w3.org/Graphics/SVG/1.1/DTD/svg11.dtd">
<svg version="1.1" id="Layer_1" xmlns="http://www.w3.org/2000/svg" xmlns:xlink="http://www.w3.org/1999/xlink" x="0px" y="0px"
	 width="512px" height="512px" viewBox="0 0 512 512" style="enable-background:new 0 0 512 512;" xml:space="preserve">
<g>
	<path d="M300.875,512c-0.75,0-1.531-0.047-2.344-0.109c-9.719-1.031-17.656-8.25-19.625-17.844l-78.093-382.344l-54.156,171.422
		c-2.938,9.344-11.594,15.688-21.375,15.688H31.594v-44.891h77.219l75.281-238.266c3.062-9.719,12.25-16,22.562-15.641
		c10.219,0.531,18.75,7.906,20.781,17.922L308.656,415.5l64.531-148.094c3.562-8.188,11.625-13.485,20.562-13.485h86.656v44.891
		h-71.969l-86.969,199.703C317.844,506.766,309.75,512,300.875,512z"/>
</g>
</svg>
