<?xml version="1.0" encoding="iso-8859-1"?>
<!-- Generator: Adobe Illustrator 16.0.0, SVG Export Plug-In . SVG Version: 6.00 Build 0)  -->
<!DOCTYPE svg PUBLIC "-//W3C//DTD SVG 1.1//EN" "http://www.w3.org/Graphics/SVG/1.1/DTD/svg11.dtd">
<svg version="1.1" id="Layer_1" xmlns="http://www.w3.org/2000/svg" xmlns:xlink="http://www.w3.org/1999/xlink" x="0px" y="0px"
	 width="512px" height="512px" viewBox="0 0 512 512" style="enable-background:new 0 0 512 512;" xml:space="preserve">
<g>
	<path d="M56.219,121.561c0-23.533,5.659-27.445,12.803-32.377c3.433-2.258,16.204-4.422,26.315-4.469l-0.031-47.498
		c-8.102,0-35.84,0.928-53.188,12.833C24.77,61.986,8.721,78.917,8.721,121.561v88.147c0,10.56-8.783,19.389-8.721,20.316v4.453
		v46.973c2.598,1.453,8.721,10.267,8.721,20.843v88.131c0,42.675,16.049,59.59,33.429,71.558
		c17.316,11.874,45.055,12.802,53.156,12.802l0.031-47.498c-10.111-0.062-22.883-2.227-26.254-4.453
		c-7.205-4.948-12.864-8.844-12.864-32.408v-88.131c0-16.197-5.612-33.31-15.219-46.296c9.607-12.987,15.219-30.1,15.219-46.289
		V121.561z"/>
	<path d="M503.311,209.708v-88.147c0-42.644-16.08-59.574-33.459-71.526c-17.317-11.89-45.056-12.817-53.127-12.817l-0.062,47.498
		c10.081,0.047,22.883,2.211,26.285,4.453c7.174,4.947,12.864,8.859,12.864,32.393v88.147c0,16.189,5.596,33.302,15.188,46.289
		c-9.592,12.986-15.188,30.099-15.188,46.296v88.131c0,23.564-5.69,27.46-12.864,32.408c-3.402,2.227-16.204,4.391-26.285,4.453
		l0.062,47.498c8.071,0,35.81-0.928,53.127-12.833c17.379-11.937,33.459-28.852,33.459-71.526v-88.131
		c0-10.576,8.782-19.39,8.689-20.317v-4.453v-46.988C509.402,229.097,503.311,220.268,503.311,209.708z"/>
</g>
</svg>
