<?xml version="1.0" encoding="iso-8859-1"?>
<!-- Generator: Adobe Illustrator 16.0.0, SVG Export Plug-In . SVG Version: 6.00 Build 0)  -->
<!DOCTYPE svg PUBLIC "-//W3C//DTD SVG 1.1//EN" "http://www.w3.org/Graphics/SVG/1.1/DTD/svg11.dtd">
<svg version="1.1" id="Layer_1" xmlns="http://www.w3.org/2000/svg" xmlns:xlink="http://www.w3.org/1999/xlink" x="0px" y="0px"
	 width="512px" height="512px" viewBox="0 0 512 512" style="enable-background:new 0 0 512 512;" xml:space="preserve">
<path d="M349.469,131.75c8.812,0,16,7.203,16,16v69.812c0,5.703,2.375,8.828,5.875,8.828c1.938,0,4.188-0.922,6.594-2.859
	l73.594-59.25c2.438-1.938,4.688-2.859,6.594-2.859c3.531,0,5.875,3.125,5.875,8.828v171.5c0,5.688-2.344,8.812-5.875,8.812
	c-1.906,0-4.156-0.906-6.594-2.844l-73.594-59.25c-2.406-1.938-4.656-2.844-6.594-2.844c-3.5,0-5.875,3.125-5.875,8.812v69.812
	c0,8.812-7.188,16-16,16H64c-8.812,0-16-7.188-16-16v-216.5c0-8.797,7.188-16,16-16H349.469 M349.469,83.75H64
	c-35.281,0-64,28.703-64,64v216.5c0,35.312,28.719,64,64,64h285.469c30.719,0,56.469-21.75,62.594-50.688l9.375,7.562
	c11,8.812,23.656,13.438,36.688,13.438c30.219,0,53.875-24.938,53.875-56.812v-171.5c0-31.875-23.656-56.828-53.875-56.828
	c-13.031,0-25.688,4.641-36.625,13.422l-9.438,7.578C405.938,105.516,380.188,83.75,349.469,83.75L349.469,83.75z"/>
</svg>
