<?xml version="1.0" encoding="iso-8859-1"?>
<!-- Generator: Adobe Illustrator 16.0.0, SVG Export Plug-In . SVG Version: 6.00 Build 0)  -->
<!DOCTYPE svg PUBLIC "-//W3C//DTD SVG 1.1//EN" "http://www.w3.org/Graphics/SVG/1.1/DTD/svg11.dtd">
<svg version="1.1" id="Layer_1" xmlns="http://www.w3.org/2000/svg" xmlns:xlink="http://www.w3.org/1999/xlink" x="0px" y="0px"
	 width="512px" height="512px" viewBox="0 0 512 512" style="enable-background:new 0 0 512 512;" xml:space="preserve">
<path d="M298.594,0H99.969C71.75,0,48.781,22.969,48.781,51.203v409.578c0,28.25,22.969,51.219,51.188,51.219h312.062
	c28.219,0,51.188-22.969,51.188-51.219V164.625L298.594,0z M311.469,74.922l76.844,76.844h-60.844c-8.844,0-16-7.172-16-16V74.922z
	 M412.031,468.094H99.969c-4.031,0-7.312-3.25-7.312-7.312V51.203c0-4.031,3.281-7.312,7.312-7.312h167.594v91.875
	c0,33.016,26.875,59.891,59.906,59.891h91.875v265.125C419.344,464.844,416.062,468.094,412.031,468.094z"/>
</svg>
