<?xml version="1.0" encoding="iso-8859-1"?>
<!-- Generator: Adobe Illustrator 16.0.0, SVG Export Plug-In . SVG Version: 6.00 Build 0)  -->
<!DOCTYPE svg PUBLIC "-//W3C//DTD SVG 1.1//EN" "http://www.w3.org/Graphics/SVG/1.1/DTD/svg11.dtd">
<svg version="1.1" id="Layer_1" xmlns="http://www.w3.org/2000/svg" xmlns:xlink="http://www.w3.org/1999/xlink" x="0px" y="0px"
	 width="512px" height="512px" viewBox="0 0 512 512" style="enable-background:new 0 0 512 512;" xml:space="preserve">
<path d="M76.423,338.96c13.851-9.552,47.521-27.97,101.907-27.97c38.268,0,61.819,13.522,86.744,27.82
	c24.268,13.939,49.342,28.328,85.252,28.328c70.117,0,119.1-33.044,121.131-34.447c6.238-4.269,9.969-11.343,9.969-18.895V48.655
	c0-8.478-4.717-16.224-12.209-20.208c-7.402-3.97-16.566-3.507-23.611,1.253c-0.387,0.254-39.908,26.447-95.279,26.447
	c-23.672,0-40.775-9.821-62.416-22.238C260.209,18.014,228.836,0,178.331,0C86.96,0,39.619,44.267,37.648,46.147
	c-4.507,4.329-7.075,10.313-7.075,16.567V512h45.85V338.96z M76.423,73.833c13.851-9.582,47.521-27.984,101.907-27.984
	c38.268,0,61.819,13.507,86.744,27.82c24.268,13.925,49.342,28.327,85.252,28.327c34.596,0,64.057-8.044,85.25-16.357v214.904
	c-15.164,7.762-46.268,20.746-85.25,20.746c-23.672,0-40.775-9.82-62.416-22.238c-27.701-15.91-59.074-33.91-109.58-33.91
	c-44.446,0-78.445,10.479-101.907,21.434V73.833z"/>
</svg>
