<?xml version="1.0" encoding="iso-8859-1"?>
<!-- Generator: Adobe Illustrator 16.0.0, SVG Export Plug-In . SVG Version: 6.00 Build 0)  -->
<!DOCTYPE svg PUBLIC "-//W3C//DTD SVG 1.1//EN" "http://www.w3.org/Graphics/SVG/1.1/DTD/svg11.dtd">
<svg version="1.1" id="Layer_1" xmlns="http://www.w3.org/2000/svg" xmlns:xlink="http://www.w3.org/1999/xlink" x="0px" y="0px"
	 width="512px" height="512px" viewBox="0 0 512 512" style="enable-background:new 0 0 512 512;" xml:space="preserve">
<g>
	<polygon points="277.563,428.967 277.563,289.884 234.438,289.884 234.438,429.966 153.497,349.026 123.027,379.527 255.501,512 
		388.974,378.527 358.504,348.026 	"/>
	<path d="M462.007,95.831H354.223V45.517C354.223,17.86,336.347,0,308.721,0H59.525C28.118,0,4.461,19.563,4.461,45.517v297.072
		c0,27.813,27.282,55.096,55.064,55.096H93.12v-43.127H59.525c-3.969-0.031-11.938-8-11.938-11.969L47.15,46.705
		c0.844-1.047,5.625-3.595,12.375-3.595h249.195c1-0.016,1.781,0.031,2.219,0.047c0.094,0.562,0.156,1.344,0.156,2.359v93.425
		h150.911c1.031,0,1.844,0.031,2.281,0.047c0.094,0.562,0.125,1.328,0.125,2.344v201.257c0,6.75-2.531,11.562-2.406,11.969h-43.126
		v43.127h43.126c25.97,0,45.532-23.688,45.532-55.096V141.332C507.539,113.691,489.664,95.831,462.007,95.831z"/>
</g>
</svg>
