<?xml version="1.0" encoding="iso-8859-1"?>
<!-- Generator: Adobe Illustrator 16.0.0, SVG Export Plug-In . SVG Version: 6.00 Build 0)  -->
<!DOCTYPE svg PUBLIC "-//W3C//DTD SVG 1.1//EN" "http://www.w3.org/Graphics/SVG/1.1/DTD/svg11.dtd">
<svg version="1.1" id="Layer_1" xmlns="http://www.w3.org/2000/svg" xmlns:xlink="http://www.w3.org/1999/xlink" x="0px" y="0px"
	 width="512px" height="512px" viewBox="0 0 512 512" style="enable-background:new 0 0 512 512;" xml:space="preserve">
<g>
	<path d="M56.058,512h409.6C492.086,512,512,487.886,512,455.914V124.343C512,96.199,493.801,78,465.657,78H248.687V46.314
		c0-28.144-18.2-46.314-46.343-46.314H56.058C24.086,0,0,19.914,0,46.314v409.6C0,484.229,27.771,512,56.058,512z M464.829,468.114
		H56.058c-4.058-0.029-12.143-8.144-12.172-12.2V209.657h424.229v246.257C468.114,462.057,466.058,466.6,464.829,468.114z
		 M56.058,43.886h146.286c1.028,0,1.886,0.171,2.313,0.028c0.086,0.6,0.144,1.371,0.144,2.4v75.571h260.856
		c1.029,0,1.915,0.171,2.314,0.028c0.086,0.6,0.143,1.371,0.143,2.429v41.429H43.886v-41.429l-0.428-76.8
		C44.314,46.457,49.172,43.886,56.058,43.886z"/>
	<path d="M425.144,323.257c5.514-6.515,6.771-15.657,3.171-23.429c-3.6-7.743-11.371-12.714-19.914-12.714H297V331h64l-58.8,69.257
		c-5.514,6.515-6.771,15.657-3.171,23.429c3.6,7.743,11.371,12.714,19.914,12.714h111.4v-43.886h-64L425.144,323.257z"/>
</g>
</svg>
