<?xml version="1.0" encoding="iso-8859-1"?>
<!-- Generator: Adobe Illustrator 16.0.0, SVG Export Plug-In . SVG Version: 6.00 Build 0)  -->
<!DOCTYPE svg PUBLIC "-//W3C//DTD SVG 1.1//EN" "http://www.w3.org/Graphics/SVG/1.1/DTD/svg11.dtd">
<svg version="1.1" id="Layer_1" xmlns="http://www.w3.org/2000/svg" xmlns:xlink="http://www.w3.org/1999/xlink" x="0px" y="0px"
	 width="512px" height="512px" viewBox="0 0 512 512" style="enable-background:new 0 0 512 512;" xml:space="preserve">
<g>
	<path d="M460.812,0H51.188C22.969,0,0,22.969,0,51.203v409.578C0,489.031,22.969,512,51.188,512h409.625
		C489.031,512,512,489.031,512,460.781V51.203C512,22.969,489.031,0,460.812,0z M51.188,43.891h409.625
		c4.031,0,7.312,3.281,7.312,7.312v56.062H43.875V51.203C43.875,47.172,47.156,43.891,51.188,43.891z M460.812,468.094H51.188
		c-4.031,0-7.312-3.25-7.312-7.312V151.156h424.25v309.625C468.125,464.844,464.844,468.094,460.812,468.094z"/>
	<polygon points="112.75,262.984 159.094,309.328 113.812,354.594 144.844,385.625 221.156,309.328 143.781,231.953 	"/>
	<rect x="265.781" y="351.094" width="107.25" height="43.875"/>
</g>
</svg>
