<?xml version="1.0" encoding="iso-8859-1"?>
<!-- Generator: Adobe Illustrator 16.0.0, SVG Export Plug-In . SVG Version: 6.00 Build 0)  -->
<!DOCTYPE svg PUBLIC "-//W3C//DTD SVG 1.1//EN" "http://www.w3.org/Graphics/SVG/1.1/DTD/svg11.dtd">
<svg version="1.1" id="Layer_1" xmlns="http://www.w3.org/2000/svg" xmlns:xlink="http://www.w3.org/1999/xlink" x="0px" y="0px"
	 width="512px" height="512px" viewBox="0 0 512 512" style="enable-background:new 0 0 512 512;" xml:space="preserve">
<g>
	<g>
		<path d="M465.656,78H248.686V46.314c0-28.143-18.2-46.314-46.343-46.314H56.057C24.086,0,0,19.914,0,46.314v409.6
			C0,484.229,27.771,512,56.057,512h409.6c26.43,0,46.344-24.114,46.344-56.086V124.343C512,96.2,493.8,78,465.656,78z
			 M56.057,43.886h146.286c1.028,0,1.886,0.171,2.313,0.028c0.086,0.6,0.144,1.372,0.144,2.4v75.571h260.856
			c1.029,0,1.915,0.171,2.314,0.028c0.086,0.6,0.144,1.372,0.144,2.429v41.429H43.886v-41.429l-0.429-76.8
			C44.314,46.457,49.172,43.886,56.057,43.886z M464.828,468.114H56.057c-4.057-0.028-12.143-8.144-12.171-12.2V209.657h424.229
			v246.257C468.114,462.057,466.057,466.6,464.828,468.114z"/>
	</g>
	<g>
		<path d="M384.057,352.258c8.4-11.086,13.572-24.744,13.572-39.715c0-36.486-29.686-66.171-66.172-66.171
			c-36.457,0-66.114,29.685-66.114,66.171c0,14.971,5.171,28.629,13.571,39.715C270.172,357.886,262.571,364.971,256,373
			c-6.572-8.029-14.143-15.143-22.914-20.742c8.399-11.086,13.57-24.744,13.57-39.715c0-36.486-29.686-66.171-66.171-66.171
			c-36.457,0-66.114,29.685-66.114,66.171c0,14.971,5.172,28.629,13.572,39.715C101.199,369.4,83.086,399.028,82.629,432.8
			l43.885,0.629c0-0.114,0.029-0.2,0.029-0.314c0.6-28.515,25.199-52.543,53.942-52.543c27.458,0,50.915,21.886,53.515,48.628
			c-0.057,1.229-0.371,2.372-0.4,3.601h0.857c0,0.114,0.028,0.2,0.028,0.314c0,0.085,0.028,0.2,0.028,0.286l21.457-0.286
			l21.515,0.314c0-0.114,0.028-0.2,0.028-0.314c0.601-28.515,25.2-52.543,53.943-52.543c28.828,0,53.457,24.058,54,52.543
			c0,0.085,0.028,0.2,0.028,0.286l43.886-0.572C428.914,399.028,410.828,369.4,384.057,352.258z M180.485,290.258
			c12.314,0,22.286,9.971,22.286,22.285c0,12.257-9.972,22.285-22.286,22.285c-12.286,0-22.229-10.028-22.229-22.285
			C158.257,300.229,168.199,290.258,180.485,290.258z M331.457,290.258c12.314,0,22.285,9.971,22.285,22.285
			c0,12.257-9.971,22.285-22.285,22.285c-12.285,0-22.229-10.028-22.229-22.285C309.229,300.229,319.172,290.258,331.457,290.258z"
			/>
	</g>
</g>
</svg>
