<?xml version="1.0" encoding="iso-8859-1"?>
<!-- Generator: Adobe Illustrator 16.0.0, SVG Export Plug-In . SVG Version: 6.00 Build 0)  -->
<!DOCTYPE svg PUBLIC "-//W3C//DTD SVG 1.1//EN" "http://www.w3.org/Graphics/SVG/1.1/DTD/svg11.dtd">
<svg version="1.1" id="Layer_1" xmlns="http://www.w3.org/2000/svg" xmlns:xlink="http://www.w3.org/1999/xlink" x="0px" y="0px"
	 width="512px" height="512px" viewBox="0 0 512 512" style="enable-background:new 0 0 512 512;" xml:space="preserve">
<path d="M491.402,206.196L305.812,20.605C292.546,7.313,274.852,0.007,256,0.007c-18.852,0-36.547,7.307-49.811,20.599
	L20.598,206.196c-27.464,27.465-27.464,72.156,0,99.621L206.19,491.408c13.264,13.292,30.959,20.585,49.811,20.585
	c18.851,0,36.545-7.293,49.811-20.585l185.591-185.591C518.866,278.353,518.866,233.661,491.402,206.196z M461.517,275.931
	L275.925,461.522c-5.477,5.477-12.715,8.201-19.924,8.201c-7.211,0-14.448-2.725-19.924-8.201L50.485,275.931
	c-10.953-10.952-10.953-28.896,0-39.848l121.664-121.65l71.99,72.005v191.646h42.27V228.708l70.423,70.395l29.886-29.872
	L202.034,84.547l34.043-34.056c5.476-5.477,12.713-8.215,19.924-8.215c7.209,0,14.448,2.738,19.924,8.215l185.592,185.592
	C472.469,247.035,472.469,264.979,461.517,275.931z"/>
</svg>
