<?xml version="1.0" encoding="utf-8"?>
<!-- Generator: Adobe Illustrator 18.1.0, SVG Export Plug-In . SVG Version: 6.00 Build 0)  -->
<svg version="1.1" id="Layer_1" xmlns="http://www.w3.org/2000/svg" xmlns:xlink="http://www.w3.org/1999/xlink" x="0px" y="0px"
	 viewBox="0 0 512 512" enable-background="new 0 0 512 512" xml:space="preserve">
<path fill="#010101" d="M94.8,220.3V466c0,11.1,9,20.1,20.1,20.1h100.3c11.1,0,20.1-9,20.1-20.1v-148h43v148
	c0,11.1,9,20.1,20.1,20.1h100.3c11.1,0,20.1-9,20.1-20.1V220.3l65.4,65.5l28.5-28.5L299.7,44c-22.9-22.8-62.8-22.9-85.6,0L0.9,257.2
	l28.5,28.5L94.8,220.3z M242.6,72.5c7.7-7.7,21-7.6,28.6,0L378.7,180v265.9h-60v-148c0-11.1-9-20.1-20.1-20.1h-83.3
	c-11.1,0-20.1,9-20.1,20.1v148h-60V180L242.6,72.5z"/>
</svg>
