<?xml version="1.0" encoding="iso-8859-1"?>
<!-- Generator: Adobe Illustrator 16.0.0, SVG Export Plug-In . SVG Version: 6.00 Build 0)  -->
<!DOCTYPE svg PUBLIC "-//W3C//DTD SVG 1.1//EN" "http://www.w3.org/Graphics/SVG/1.1/DTD/svg11.dtd">
<svg version="1.1" id="Layer_1" xmlns="http://www.w3.org/2000/svg" xmlns:xlink="http://www.w3.org/1999/xlink" x="0px" y="0px"
	 width="512px" height="512px" viewBox="0 0 512 512" style="enable-background:new 0 0 512 512;" xml:space="preserve">
<g>
	<path d="M374.605,352.967c-38,0-70.791-21.895-86.711-53.736h-44.816l-37.447-37.447l-37.447,37.447H159.5l-37.447-37.446
		L84.605,299.23h-2.21l-41.974-39.974l41.974-39.961h202.473c14.473-35.368,49.158-60.263,89.737-60.263
		c53.553,0,96.973,43.421,96.973,96.96C471.578,309.546,428.158,352.967,374.605,352.967 M374.605,393.389
		c75.763,0,137.395-61.632,137.396-137.396c0-75.75-61.632-137.382-137.395-137.382c-46.342,0-88.527,22.949-113.737,60.264H82.395
		c-10.368,0-20.368,3.975-27.868,11.132L12.553,229.98C4.526,237.611,0,248.191,0,259.257s4.526,21.644,12.553,29.276l41.974,39.974
		c7.5,7.158,17.5,11.146,27.868,11.146h2.21c10.71,0,21-4.264,28.579-11.842l8.869-8.855l8.868,8.855
		c7.579,7.578,17.869,11.842,28.579,11.842h8.683c10.71,0,21-4.264,28.579-11.842l8.868-8.855l8.869,8.855
		c7.579,7.578,17.869,11.842,28.579,11.842h22.58C291.368,373.311,331.183,393.389,374.605,393.389L374.605,393.389z"/>
	<path d="M375.606,284.811c15.895,0,28.815-12.896,28.814-28.816c0-15.92-12.92-28.803-28.814-28.803
		c-15.947,0-28.843,12.883-28.843,28.803S359.659,284.811,375.606,284.811L375.606,284.811z"/>
</g>
</svg>
