<?xml version="1.0" encoding="iso-8859-1"?>
<!-- Generator: Adobe Illustrator 16.0.0, SVG Export Plug-In . SVG Version: 6.00 Build 0)  -->
<!DOCTYPE svg PUBLIC "-//W3C//DTD SVG 1.1//EN" "http://www.w3.org/Graphics/SVG/1.1/DTD/svg11.dtd">
<svg version="1.1" id="Layer_1" xmlns="http://www.w3.org/2000/svg" xmlns:xlink="http://www.w3.org/1999/xlink" x="0px" y="0px"
	 width="512px" height="512px" viewBox="0 0 512 512" style="enable-background:new 0 0 512 512;" xml:space="preserve">
<g>
	<path d="M460.8,138.985h-21.942V58.5c0-28.229-22.972-51.2-51.2-51.2H124.343c-28.229,0-51.2,22.972-51.2,51.2v80.485H51.199
		C22.971,138.985,0,161.957,0,190.186V453.5c0,28.229,22.971,51.2,51.199,51.2H460.8c28.229,0,51.2-22.972,51.2-51.2V190.186
		C512,161.957,489.028,138.985,460.8,138.985z M124.343,51.186h263.314c4.028,0,7.313,3.286,7.313,7.314v157.771L281.857,329.357
		c-13.715,13.714-38,13.714-51.715,0L117.028,216.229V58.5C117.028,54.472,120.314,51.186,124.343,51.186z M73.143,234.371v0.029
		l79.029,79.042L43.886,428.472V205.114L73.143,234.371z M183.229,344.5l15.886,15.886c15.143,15.143,35.343,23.485,56.886,23.485
		l0,0c0.028,0,0.028,0,0.028,0c21.543,0,41.743-8.343,56.886-23.485l12.914-12.914l106.686,113.343H73.715L183.229,344.5z
		 M356.857,316.442l111.257-111.214v229.386L356.857,316.442z"/>
	<rect x="157.257" y="89.7" width="197.485" height="43.886"/>
	<rect x="157.257" y="171.985" width="197.485" height="43.886"/>
</g>
</svg>
