<?xml version="1.0" encoding="iso-8859-1"?>
<!-- Generator: Adobe Illustrator 16.0.0, SVG Export Plug-In . SVG Version: 6.00 Build 0)  -->
<!DOCTYPE svg PUBLIC "-//W3C//DTD SVG 1.1//EN" "http://www.w3.org/Graphics/SVG/1.1/DTD/svg11.dtd">
<svg version="1.1" id="Layer_1" xmlns="http://www.w3.org/2000/svg" xmlns:xlink="http://www.w3.org/1999/xlink" x="0px" y="0px"
	 width="512px" height="512px" viewBox="0 0 512 512" style="enable-background:new 0 0 512 512;" xml:space="preserve">
<path d="M431.543,112.179H218.514c-43.428,0-78.656,34.614-80.171,77.657H80.457C36.086,189.836,0,225.921,0,270.293v49.071
	c0,44.372,36.086,80.457,80.457,80.457h213.029c43.428,0,78.656-34.6,80.171-77.657h57.886c44.371,0,80.457-36.086,80.457-80.457
	v-49.071C512,148.264,475.914,112.179,431.543,112.179z M330.057,278.279H218.514c-20.171,0-36.57-16.4-36.57-36.572v-7.985h111.543
	c20.171,0,36.57,16.4,36.57,36.571V278.279z M293.486,355.936H80.457c-20.172,0-36.571-16.4-36.571-36.571v-49.071
	c0-20.171,16.399-36.571,36.571-36.571h57.6v7.985c0,44.371,36.086,80.457,80.457,80.457h110.973
	C328,340.965,312.657,355.936,293.486,355.936z M468.114,241.707c0,20.172-16.399,36.572-36.571,36.572h-57.6v-7.986
	c0-44.372-36.086-80.457-80.457-80.457H182.514c1.486-18.8,16.829-33.771,36-33.771h213.029c20.172,0,36.571,16.4,36.571,36.571
	V241.707z"/>
</svg>
