<?xml version="1.0" encoding="iso-8859-1"?>
<!-- Generator: Adobe Illustrator 16.0.0, SVG Export Plug-In . SVG Version: 6.00 Build 0)  -->
<!DOCTYPE svg PUBLIC "-//W3C//DTD SVG 1.1//EN" "http://www.w3.org/Graphics/SVG/1.1/DTD/svg11.dtd">
<svg version="1.1" id="Layer_1" xmlns="http://www.w3.org/2000/svg" xmlns:xlink="http://www.w3.org/1999/xlink" x="0px" y="0px"
	 width="512px" height="512px" viewBox="0 0 512 512" style="enable-background:new 0 0 512 512;" xml:space="preserve">
<g>
	<g>
		<path d="M255.442,511.996c-55.047,0-108.375-17.688-153.188-51.344C47.567,419.59,12.146,359.715,2.521,292.027
			C-8.901,211.652,18.974,129.714,77.099,72.871l30.687,31.375c-48.171,47.094-71.281,115-61.796,181.625
			c7.969,56.062,37.312,105.688,82.609,139.688c45.328,34.031,101.125,48.406,157.25,40.375
			c115.781-16.438,196.594-124.031,180.125-239.813C451.38,123.527,365.208,48.402,265.192,44.089l31.75,42.5l-35.188,26.25
			l-56.329-75.406c-4.625-6.188-5.656-14.406-2.672-21.562c2.969-7.125,9.5-12.188,17.172-13.281
			c139.594-19.938,269.61,77.625,289.5,217.344c19.875,139.75-77.641,269.594-217.406,289.469
			C279.802,511.121,267.583,511.996,255.442,511.996z"/>
	</g>
</g>
</svg>
