<?xml version="1.0" encoding="iso-8859-1"?>
<!-- Generator: Adobe Illustrator 16.0.0, SVG Export Plug-In . SVG Version: 6.00 Build 0)  -->
<!DOCTYPE svg PUBLIC "-//W3C//DTD SVG 1.1//EN" "http://www.w3.org/Graphics/SVG/1.1/DTD/svg11.dtd">
<svg version="1.1" id="Layer_1" xmlns="http://www.w3.org/2000/svg" xmlns:xlink="http://www.w3.org/1999/xlink" x="0px" y="0px"
	 width="512px" height="512px" viewBox="0 0 512 512" style="enable-background:new 0 0 512 512;" xml:space="preserve">
<g>
	<g>
		<path d="M414.859,177.531V176c0-97.031-71.281-176-158.875-176S97.141,78.969,97.141,176v1.531
			c-40.062,4.281-71.5,37.906-71.5,79.125V432c0,44.125,35.906,80,80,80h300.719c44.125,0,80-35.875,80-80V256.656
			C486.359,215.438,454.953,181.812,414.859,177.531z M145.141,176c0-70.406,49.906-128,110.844-128
			c61,0,110.875,57.594,110.875,128v0.656H145.141V176z M438.359,432c0,17.594-14.406,32-32,32H105.641c-17.594,0-32-14.406-32-32
			V256.656c0-17.594,14.406-32,32-32h300.719c17.594,0,32,14.406,32,32V432z"/>
	</g>
	<g>
		<rect x="155.266" y="280.75" width="206.406" height="48"/>
	</g>
	<g>
		<rect x="155.266" y="365.25" width="206.406" height="48"/>
	</g>
</g>
</svg>
