<?xml version="1.0" encoding="iso-8859-1"?>
<!-- Generator: Adobe Illustrator 16.0.0, SVG Export Plug-In . SVG Version: 6.00 Build 0)  -->
<!DOCTYPE svg PUBLIC "-//W3C//DTD SVG 1.1//EN" "http://www.w3.org/Graphics/SVG/1.1/DTD/svg11.dtd">
<svg version="1.1" id="Layer_1" xmlns="http://www.w3.org/2000/svg" xmlns:xlink="http://www.w3.org/1999/xlink" x="0px" y="0px"
	 width="512px" height="512px" viewBox="0 0 512 512" style="enable-background:new 0 0 512 512;" xml:space="preserve">
<g>
	<path d="M80.688,223.289c18.031,0,32.688,14.641,32.688,32.703s-14.656,32.703-32.688,32.703C62.625,288.695,48,274.055,48,255.992
		S62.625,223.289,80.688,223.289 M80.688,175.289C36.188,175.289,0,211.492,0,255.992s36.188,80.719,80.688,80.719
		s80.688-36.219,80.688-80.719S125.188,175.289,80.688,175.289L80.688,175.289z"/>
	<path d="M256,223.289c18.031,0,32.688,14.641,32.688,32.703S274.031,288.695,256,288.695c-18.062,0-32.688-14.641-32.688-32.703
		S237.938,223.289,256,223.289 M256,175.289c-44.5,0-80.688,36.203-80.688,80.703S211.5,336.711,256,336.711
		s80.688-36.219,80.688-80.719S300.5,175.289,256,175.289L256,175.289z"/>
	<path d="M431.312,223.289c18.031,0,32.688,14.641,32.688,32.703s-14.656,32.703-32.688,32.703
		c-18.062,0-32.688-14.641-32.688-32.703S413.25,223.289,431.312,223.289 M431.312,175.289c-44.5,0-80.688,36.203-80.688,80.703
		s36.188,80.719,80.688,80.719S512,300.492,512,255.992S475.812,175.289,431.312,175.289L431.312,175.289z"/>
</g>
</svg>
