<?xml version="1.0" encoding="iso-8859-1"?>
<!-- Generator: Adobe Illustrator 16.0.0, SVG Export Plug-In . SVG Version: 6.00 Build 0)  -->
<!DOCTYPE svg PUBLIC "-//W3C//DTD SVG 1.1//EN" "http://www.w3.org/Graphics/SVG/1.1/DTD/svg11.dtd">
<svg version="1.1" id="Layer_1" xmlns="http://www.w3.org/2000/svg" xmlns:xlink="http://www.w3.org/1999/xlink" x="0px" y="0px"
	 width="512px" height="512px" viewBox="0 0 512 512" style="enable-background:new 0 0 512 512;" xml:space="preserve">
<g>
	<g>
		<polygon points="214.729,386.578 183.7,355.55 282.757,256.507 182.7,156.45 213.729,125.421 344.829,256.507 		"/>
	</g>
	<g>
		<path d="M256,512.007c-141.157,0-256-114.857-256-256.014c0-141.158,114.843-256,256-256c141.171,0,256,114.842,256,256
			C512,397.149,397.171,512.007,256,512.007z M256,43.878c-116.957,0-212.114,95.158-212.114,212.115S139.043,468.121,256,468.121
			c116.942,0,212.114-95.171,212.114-212.128S372.942,43.878,256,43.878z"/>
	</g>
</g>
</svg>
