<?xml version="1.0" encoding="iso-8859-1"?>
<!-- Generator: Adobe Illustrator 16.0.0, SVG Export Plug-In . SVG Version: 6.00 Build 0)  -->
<!DOCTYPE svg PUBLIC "-//W3C//DTD SVG 1.1//EN" "http://www.w3.org/Graphics/SVG/1.1/DTD/svg11.dtd">
<svg version="1.1" id="Layer_1" xmlns="http://www.w3.org/2000/svg" xmlns:xlink="http://www.w3.org/1999/xlink" x="0px" y="0px"
	 width="512px" height="512px" viewBox="0 0 512 512" style="enable-background:new 0 0 512 512;" xml:space="preserve">
<path d="M413.512,87.719c-42.096,0-78.176,26.472-92.454,63.648l-122.526-36.755c-0.498-54.065-44.594-97.957-98.988-98.065
	c-54.438,0-98.875,44.312-99,98.812c-0.094,54.562,44.219,99.078,98.812,99.203c0,0,0.188,0,0.219,0
	c4.182,0,8.304-0.264,12.352-0.771l32.915,103.065c-24.003,18.045-39.586,46.73-39.642,78.972
	c-0.125,54.578,44.188,99.094,98.781,99.219c0.031,0,0.188,0,0.219,0c54.469,0,98.875-44.312,99.031-98.812
	c0.037-21.38-6.743-41.21-18.296-57.435l74.171-69.421c15.564,10.285,34.185,16.304,54.187,16.355c0.031,0,0.219,0,0.25,0
	c54.469,0,98.875-44.328,99-98.797C512.637,132.344,468.293,87.828,413.512,87.719z M99.45,170.047
	c-30.031-0.062-54.438-24.578-54.406-54.594c0.094-30,24.531-54.391,54.625-54.391c30.031,0.047,54.438,24.547,54.375,54.609
	c-0.062,29.984-24.5,54.375-54.469,54.375 M153.736,198.366c15.075-9.903,27.303-23.805,35.153-40.187l126.064,37.824
	c1.399,14.919,6.123,28.89,13.422,41.161l-76.892,71.945c-14.055-7.668-30.173-12.044-47.314-12.078
	c-6.27,0-12.404,0.594-18.355,1.717L153.736,198.366z M204.106,450.531c-30.062-0.062-54.469-24.562-54.406-54.609
	c0.062-29.984,24.531-54.375,54.594-54.375c30.062,0.047,54.438,24.562,54.438,54.594c-0.094,30-24.562,54.391-54.531,54.391
	 M413.418,241.219c-30.03-0.062-54.437-24.562-54.374-54.625c0.062-29.969,24.5-54.375,54.593-54.375
	c30.031,0.062,54.438,24.562,54.375,54.625c-0.062,29.984-24.5,54.375-54.469,54.375"/>
</svg>
