<?xml version="1.0" encoding="iso-8859-1"?>
<!-- Generator: Adobe Illustrator 16.0.0, SVG Export Plug-In . SVG Version: 6.00 Build 0)  -->
<!DOCTYPE svg PUBLIC "-//W3C//DTD SVG 1.1//EN" "http://www.w3.org/Graphics/SVG/1.1/DTD/svg11.dtd">
<svg version="1.1" id="Layer_1" xmlns="http://www.w3.org/2000/svg" xmlns:xlink="http://www.w3.org/1999/xlink" x="0px" y="0px"
	 width="512px" height="512px" viewBox="0 0 512 512" style="enable-background:new 0 0 512 512;" xml:space="preserve">
<g>
	<g>
		<path d="M256,512C114.844,512,0,397.156,0,256S114.844,0,256,0s256,114.844,256,256S397.156,512,256,512z M256,43.891
			C139.031,43.891,43.875,139.047,43.875,256S139.031,468.109,256,468.109c116.938,0,212.094-95.156,212.094-212.109
			S372.938,43.891,256,43.891z"/>
	</g>
	<g>
		<path d="M355.562,250.391l-142.781-88.422c-10.375-6.844-18.875-1.812-18.875,11.141v171.656c0,12.984,8.5,17.984,18.875,11.156
			l142.781-88.406c0,0,5.062-3.578,5.062-8.578C360.625,253.953,355.562,250.391,355.562,250.391"/>
	</g>
</g>
</svg>
