<?xml version="1.0" encoding="UTF-8" standalone="no"?>
<svg width="512px" height="512px" viewBox="0 0 512 512" version="1.1" xmlns="http://www.w3.org/2000/svg" xmlns:xlink="http://www.w3.org/1999/xlink" xmlns:sketch="http://www.bohemiancoding.com/sketch/ns">
    <title>Untitled 5 copy</title>
    <description>Created with Sketch (http://www.bohemiancoding.com/sketch)</description>
    <defs></defs>
    <g id="Page-1" stroke="none" stroke-width="1" fill="none" fill-rule="evenodd" sketch:type="MSPage">
        <g id="16-5" sketch:type="MSLayerGroup" fill="#000000">
            <g id="Group" sketch:type="MSShapeGroup">
                <path d="M256,0 C114.844,0 0,114.844 0,256 C0,397.156 114.844,512 256,512 C397.156,512 512,397.156 512,256 C512,114.844 397.156,0 256,0 L256,0 Z M256,468.109 C139.047,468.109 43.891,372.953 43.891,256 C43.891,139.047 139.047,43.891 256,43.891 C372.953,43.891 468.109,139.047 468.109,256 C468.109,372.953 372.953,468.109 256,468.109 L256,468.109 Z" id="Shape"></path>
                <path d="M343.281,138.078 L256.406,224.969 L169.516,138.078 L138.484,169.109 L225.375,256 L138.484,342.891 L169.516,373.922 L256.406,287.031 L343.281,373.922 L374.312,342.891 L287.422,256 L374.312,169.109 L343.281,138.078 Z" id="Shape" transform="translate(256.484000, 256.078000) rotate(-45.000000) translate(-256.484000, -256.078000) "></path>
            </g>
        </g>
    </g>
</svg>