<?xml version="1.0" encoding="iso-8859-1"?>
<!-- Generator: Adobe Illustrator 16.0.0, SVG Export Plug-In . SVG Version: 6.00 Build 0)  -->
<!DOCTYPE svg PUBLIC "-//W3C//DTD SVG 1.1//EN" "http://www.w3.org/Graphics/SVG/1.1/DTD/svg11.dtd">
<svg version="1.1" id="Layer_1" xmlns="http://www.w3.org/2000/svg" xmlns:xlink="http://www.w3.org/1999/xlink" x="0px" y="0px"
	 width="512px" height="512px" viewBox="0 0 512 512" style="enable-background:new 0 0 512 512;" xml:space="preserve">
<g>
	<g>
		<g>
			<g>
				<path d="M256,501.031c-141.156,0-256-114.844-256-256c0-83,40.531-161.188,108.469-209.141l25.312,35.859
					c-56.312,39.734-89.906,104.516-89.906,173.281c0,116.938,95.156,212.125,212.125,212.125s212.125-95.188,212.125-212.125
					c0-67.938-32.969-132.281-88.25-172.125l25.656-35.609C472.188,85.391,512,163.031,512,245.031
					C512,386.188,397.156,501.031,256,501.031z"/>
			</g>
		</g>
	</g>
	<g>
		<g>
			<rect x="235.625" y="10.969" width="43.875" height="234.062"/>
		</g>
	</g>
</g>
</svg>
