<?xml version="1.0" encoding="utf-8"?>
<!-- Generator: Adobe Illustrator 18.1.0, SVG Export Plug-In . SVG Version: 6.00 Build 0)  -->
<svg version="1.1" id="Layer_1" xmlns="http://www.w3.org/2000/svg" xmlns:xlink="http://www.w3.org/1999/xlink" x="0px" y="0px"
	 viewBox="0 0 512 512" enable-background="new 0 0 512 512" xml:space="preserve">
<path fill="#010101" d="M256.1,144.5c61.8,0,112,50.2,112,112s-50.2,112-112,112s-112-50.2-112-112S194.4,144.5,256.1,144.5
	 M256.1,96.5c-88.4,0-160,71.6-160,160c0,88.4,71.6,160,160,160c88.4,0,160-71.6,160-160C416.1,168.1,344.5,96.5,256.1,96.5
	L256.1,96.5z"/>
<circle fill="#010101" cx="256.1" cy="256.5" r="64"/>
<path fill="#010101" d="M256.1,48.5c114.7,0,208,93.3,208,208s-93.3,208-208,208s-208-93.3-208-208S141.4,48.5,256.1,48.5
	 M256.1,0.5c-141.4,0-256,114.6-256,256s114.6,256,256,256c141.4,0,256-114.6,256-256S397.5,0.5,256.1,0.5L256.1,0.5z"/>
</svg>
