<?xml version="1.0" encoding="iso-8859-1"?>
<!-- Generator: Adobe Illustrator 16.0.0, SVG Export Plug-In . SVG Version: 6.00 Build 0)  -->
<!DOCTYPE svg PUBLIC "-//W3C//DTD SVG 1.1//EN" "http://www.w3.org/Graphics/SVG/1.1/DTD/svg11.dtd">
<svg version="1.1" id="Layer_1" xmlns="http://www.w3.org/2000/svg" xmlns:xlink="http://www.w3.org/1999/xlink" x="0px" y="0px"
	 width="512px" height="512px" viewBox="0 0 512 512" style="enable-background:new 0 0 512 512;" xml:space="preserve">
<g>
	<path d="M460.781,73.141H51.188C22.969,73.141,0,96.109,0,124.344v263.328c0,28.219,22.969,51.188,51.188,51.188h409.594
		c28.25,0,51.219-22.969,51.219-51.188V124.344C512,96.109,489.031,73.141,460.781,73.141z M51.188,117.031h409.594
		c4.062,0,7.344,3.281,7.344,7.312v34.125H43.875v-34.125C43.875,120.312,47.156,117.031,51.188,117.031z M460.781,394.984H51.188
		c-4.031,0-7.312-3.312-7.312-7.312V202.359h424.25v185.312C468.125,391.672,464.844,394.984,460.781,394.984z"/>
	<rect x="90.406" y="308.422" width="73.125" height="43.875"/>
	<rect x="210.469" y="308.422" width="207.25" height="43.875"/>
</g>
</svg>
