<?xml version="1.0" encoding="iso-8859-1"?>
<!-- Generator: Adobe Illustrator 16.0.0, SVG Export Plug-In . SVG Version: 6.00 Build 0)  -->
<!DOCTYPE svg PUBLIC "-//W3C//DTD SVG 1.1//EN" "http://www.w3.org/Graphics/SVG/1.1/DTD/svg11.dtd">
<svg version="1.1" id="Layer_1" xmlns="http://www.w3.org/2000/svg" xmlns:xlink="http://www.w3.org/1999/xlink" x="0px" y="0px"
	 width="512px" height="512px" viewBox="0 0 512 512" style="enable-background:new 0 0 512 512;" xml:space="preserve">
<path d="M338.92,80.805c25.445,0,48.445,10.736,64.576,27.92c20.13-3.961,39.076-11.329,56.181-21.46
	c-6.632,20.657-20.63,37.985-38.919,48.932c17.894-2.131,34.945-6.881,50.812-13.92c-11.867,17.736-26.84,33.314-44.129,45.774
	c0.158,3.802,0.264,7.618,0.264,11.446c0,116.916-88.996,251.698-251.672,251.698c-49.972,0-96.469-14.657-135.6-39.787
	c6.922,0.842,13.947,1.263,21.105,1.263c41.445,0,79.574-14.131,109.836-37.866c-38.682-0.711-71.365-26.288-82.627-61.418
	c5.42,1.026,10.946,1.578,16.656,1.578c8.053,0,15.868-1.078,23.289-3.104c-40.445-8.131-70.944-43.88-70.944-86.732
	c0-0.369,0-0.737,0-1.105c11.921,6.631,25.577,10.592,40.077,11.052c-23.736-15.867-39.367-42.932-39.367-73.614
	c0-16.21,4.369-31.406,12-44.472c43.604,53.523,108.811,88.732,182.307,92.416c-1.5-6.473-2.289-13.223-2.289-20.156
	C250.477,120.408,290.08,80.805,338.92,80.805 M338.92,40.386c-61.918,0-113.811,43.919-126.1,102.245
	c-43.234-11.171-82.338-35.959-111.021-71.168c-7.709-9.46-19.235-14.894-31.34-14.894c-1.026,0-2.079,0.039-3.131,0.118
	c-13.211,1.026-25.078,8.474-31.762,19.92c-11.474,19.617-17.525,42.037-17.525,64.853c0,13.736,2.157,27.144,6.289,39.84
	c-4.5,6.592-7,14.473-7,22.723c0,32.262,11.657,62.076,31.235,84.97c-0.605,5.578-0.079,11.263,1.685,16.735
	c5.552,17.263,14.473,32.735,25.945,45.762c-4.815,0.5-9.71,0.763-14.656,0.763c-5.475,0-10.947-0.315-16.289-0.947
	c-1.632-0.211-3.236-0.315-4.842-0.315c-16.868,0-32.183,10.578-38.025,26.762c-6.368,17.735,0.369,37.498,16.21,47.682
	c47.05,30.209,101.494,46.182,157.439,46.182c85.653,0,162.755-33.998,217.174-95.705c45.865-52.024,72.891-120.376,74.812-188.597
	c14.104-12.46,26.552-26.709,37.156-42.563c9.999-14.946,8.921-34.722-2.657-48.484c-0.922-1.079-1.869-2.092-2.869-3.053
	c2.105-14.092-3.368-28.459-14.762-37.537c-7.342-5.855-16.264-8.829-25.21-8.829c-7.104,0-14.21,1.868-20.604,5.645
	c-8.104,4.803-16.604,8.724-25.42,11.749C391.996,48.885,365.812,40.386,338.92,40.386L338.92,40.386z"/>
</svg>
