<?xml version="1.0" encoding="iso-8859-1"?>
<!-- Generator: Adobe Illustrator 16.0.0, SVG Export Plug-In . SVG Version: 6.00 Build 0)  -->
<!DOCTYPE svg PUBLIC "-//W3C//DTD SVG 1.1//EN" "http://www.w3.org/Graphics/SVG/1.1/DTD/svg11.dtd">
<svg version="1.1" id="Layer_1" xmlns="http://www.w3.org/2000/svg" xmlns:xlink="http://www.w3.org/1999/xlink" x="0px" y="0px"
	 width="512px" height="512px" viewBox="0 0 512 512" style="enable-background:new 0 0 512 512;" xml:space="preserve">
<path d="M334.776,261.892c34.499-25.312,56.942-66.133,56.942-112.103c0-76.625-62.344-138.969-138.969-138.969
	S113.781,73.164,113.781,149.789c0,46.879,23.338,88.408,59.003,113.591C73.747,297.614,1.533,391.009,0,500.586l43.875,0.594
	C45.5,386.555,140.625,293.289,256,293.289s210.5,93.266,212.125,207.891L512,500.586
	C510.444,389.378,436.088,294.839,334.776,261.892z M252.75,54.711c52.438,0,95.062,42.656,95.062,95.078
	c0,52.438-42.625,95.094-95.062,95.094s-95.094-42.656-95.094-95.094C157.656,97.367,200.312,54.711,252.75,54.711z"/>
</svg>
