<?xml version="1.0" encoding="iso-8859-1"?>
<!-- Generator: Adobe Illustrator 16.0.0, SVG Export Plug-In . SVG Version: 6.00 Build 0)  -->
<!DOCTYPE svg PUBLIC "-//W3C//DTD SVG 1.1//EN" "http://www.w3.org/Graphics/SVG/1.1/DTD/svg11.dtd">
<svg version="1.1" id="Layer_1" xmlns="http://www.w3.org/2000/svg" xmlns:xlink="http://www.w3.org/1999/xlink" x="0px" y="0px"
	 width="512px" height="512px" viewBox="0 0 512 512" style="enable-background:new 0 0 512 512;" xml:space="preserve">
<g>
	<g>
		<path d="M256,511.996C114.846,511.996,0.004,397.154,0.004,256S114.846,0.004,256,0.004S511.997,114.846,511.997,256
			S397.154,511.996,256,511.996z M256,15.519C123.397,15.519,15.52,123.397,15.52,256S123.397,496.48,256,496.48
			S496.481,388.603,496.481,256S388.603,15.519,256,15.519z"/>
	</g>
	<g>
		<path d="M232.464,359.498c-2.136,0-4.183-0.885-5.646-2.438l-72.432-76.946l11.292-10.636l66.687,70.833l126.748-139.613
			l11.484,10.422L238.209,356.951c-1.459,1.609-3.511,2.526-5.672,2.547C232.511,359.498,232.49,359.498,232.464,359.498z"/>
	</g>
</g>
</svg>
