<?xml version="1.0" encoding="iso-8859-1"?>
<!-- Generator: Adobe Illustrator 16.0.0, SVG Export Plug-In . SVG Version: 6.00 Build 0)  -->
<!DOCTYPE svg PUBLIC "-//W3C//DTD SVG 1.1//EN" "http://www.w3.org/Graphics/SVG/1.1/DTD/svg11.dtd">
<svg version="1.1" id="Layer_1" xmlns="http://www.w3.org/2000/svg" xmlns:xlink="http://www.w3.org/1999/xlink" x="0px" y="0px"
	 width="512px" height="512px" viewBox="0 0 512 512" style="enable-background:new 0 0 512 512;" xml:space="preserve">
<g>
	<path d="M256,0.004C114.846,0.004,0.003,114.846,0.003,256S114.846,511.996,256,511.996S511.996,397.154,511.996,256
		S397.154,0.004,256,0.004z M256,496.48C123.398,496.48,15.519,388.603,15.519,256S123.398,15.519,256,15.519
		c132.602,0,240.48,107.878,240.48,240.481S388.602,496.48,256,496.48z"/>
	<polygon points="318.641,182.813 256.427,245.031 194.204,182.813 183.235,193.782 245.454,256 183.235,318.218 194.204,329.187 
		256.427,266.969 318.641,329.187 329.609,318.218 267.396,256 329.609,193.782 	"/>
</g>
</svg>
