<?xml version="1.0" encoding="iso-8859-1"?>
<!-- Generator: Adobe Illustrator 16.0.0, SVG Export Plug-In . SVG Version: 6.00 Build 0)  -->
<!DOCTYPE svg PUBLIC "-//W3C//DTD SVG 1.1//EN" "http://www.w3.org/Graphics/SVG/1.1/DTD/svg11.dtd">
<svg version="1.1" id="Layer_1" xmlns="http://www.w3.org/2000/svg" xmlns:xlink="http://www.w3.org/1999/xlink" x="0px" y="0px"
	 width="512px" height="512px" viewBox="0 0 512 512" style="enable-background:new 0 0 512 512;" xml:space="preserve">
<path d="M283.947,15.061l17.24,84.504c11.771,3.422,23.01,8.12,33.488,13.911l73.051-46.463l38.428,38.401l-47.656,71.931
	c5.844,10.542,10.541,21.734,13.916,33.51l84.52,18.792v54.312l-84.52,17.229c-3.375,11.776-8.082,22.979-13.916,33.505l46.5,73.03
	l-38.365,38.39l-71.988-47.604c-10.52,5.85-21.748,10.547-33.529,13.917l-18.793,84.515h-54.27l-17.229-84.51
	c-11.771-3.422-23.021-8.072-33.469-13.911l-73.104,46.505l-38.404-38.391l47.592-71.982c-5.781-10.479-10.479-21.729-13.854-33.506
	l-84.52-18.791v-54.27l84.52-17.224c3.375-11.823,8.072-23.031,13.854-33.51l-46.447-73.077l38.385-38.385l71.979,47.604
	c10.511-5.802,21.697-10.5,33.469-13.921l18.781-84.509H283.947 M255.99,303.738c26.385,0,47.719-21.354,47.719-47.718
	s-21.344-47.754-47.719-47.754c-26.385,0-47.76,21.385-47.76,47.754C208.23,282.385,229.605,303.738,255.99,303.738 M283.947,0.004
	h-54.342c-7.053,0-13.166,4.9-14.688,11.791l-16.916,76.062c-6.719,2.333-13.303,5.067-19.729,8.192L113.68,53.331
	c-2.541-1.683-5.428-2.5-8.303-2.5c-3.885,0-7.738,1.5-10.645,4.411l-38.385,38.38c-4.99,4.995-5.844,12.771-2.062,18.729
	l41.801,65.765c-3.135,6.433-5.875,13.037-8.188,19.755l-75.842,15.458c-7.011,1.432-12.053,7.599-12.053,14.755v54.27
	c0,7.058,4.906,13.167,11.791,14.698l76.041,16.911c2.323,6.734,5.053,13.333,8.167,19.755l-42.718,64.613
	c-3.948,5.969-3.146,13.891,1.916,18.958l38.396,38.385c2.917,2.901,6.771,4.406,10.655,4.406c2.793,0,5.594-0.771,8.074-2.354
	l65.77-41.833c6.333,3.104,12.938,5.844,19.738,8.198l15.459,75.853c1.438,7.016,7.604,12.052,14.76,12.052h54.27
	c7.062,0,13.168-4.9,14.699-11.786l16.904-76.04c6.762-2.318,13.375-5.062,19.812-8.209l64.594,42.708
	c2.541,1.683,5.428,2.5,8.291,2.5c3.896,0,7.76-1.5,10.666-4.411l38.354-38.391c4.99-4.989,5.844-12.775,2.062-18.734
	l-41.832-65.696c3.146-6.438,5.896-13.047,8.219-19.766l75.854-15.458c7.01-1.433,12.051-7.599,12.051-14.755v-54.312
	c0-7.058-4.906-13.167-11.791-14.698l-76.051-16.911c-2.322-6.724-5.062-13.333-8.209-19.771l42.76-64.535
	c3.959-5.974,3.168-13.906-1.906-18.969l-38.426-38.4c-2.916-2.906-6.771-4.406-10.646-4.406c-2.801,0-5.604,0.766-8.082,2.349
	l-65.729,41.812c-6.406-3.125-13-5.87-19.74-8.208L298.709,12.05C297.271,5.045,291.104,0.004,283.947,0.004L283.947,0.004z
	 M255.99,288.682c-18.031,0-32.709-14.65-32.709-32.661c0-18.03,14.678-32.697,32.709-32.697c18.01,0,32.656,14.667,32.656,32.697
	C288.646,274.031,274,288.682,255.99,288.682L255.99,288.682z"/>
</svg>
