<?xml version="1.0" encoding="iso-8859-1"?>
<!-- Generator: Adobe Illustrator 16.0.0, SVG Export Plug-In . SVG Version: 6.00 Build 0)  -->
<!DOCTYPE svg PUBLIC "-//W3C//DTD SVG 1.1//EN" "http://www.w3.org/Graphics/SVG/1.1/DTD/svg11.dtd">
<svg version="1.1" id="Layer_1" xmlns="http://www.w3.org/2000/svg" xmlns:xlink="http://www.w3.org/1999/xlink" x="0px" y="0px"
	 width="512px" height="512px" viewBox="0 0 512 512" style="enable-background:new 0 0 512 512;" xml:space="preserve">
<g>
	<g>
		<path d="M256,511.996C114.846,511.996,0.004,397.154,0.004,256S114.846,0.004,256,0.004
			c141.165,0,255.997,114.842,255.997,255.996S397.165,511.996,256,511.996z M256,15.514C123.397,15.514,15.52,123.393,15.52,256
			S123.397,496.486,256,496.486S496.486,388.607,496.486,256S388.603,15.514,256,15.514z"/>
	</g>
	<g>
		<path d="M219.115,348.113L219.115,348.113c-7.708,0-16-6.036-16-19.297V189.412c0-13.255,8.292-19.296,16-19.296
			c3.75,0,7.573,1.26,11.364,3.75l115.76,71.708c1.635,1.125,7.781,5.854,7.781,13.541s-6.146,12.422-7.387,13.292l-116.331,72.066
			C226.688,346.853,222.865,348.113,219.115,348.113z M219.115,185.631c0.104,0.042-0.489,1.24-0.489,3.781v139.404
			c0,2.12,0.416,3.303,0.677,3.766c0.375-0.052,1.261-0.271,2.656-1.188l116.124-71.926c-0.011,0.005-0.011,0.005-0.011,0.005
			c-0.052,0,0.177-0.281,0.344-0.536c-0.136,0.036-0.562-0.297-0.844-0.516l-115.426-71.479
			C220.178,185.667,219.22,185.631,219.115,185.631z"/>
	</g>
</g>
</svg>
