<?xml version="1.0" encoding="iso-8859-1"?>
<!-- Generator: Adobe Illustrator 16.0.0, SVG Export Plug-In . SVG Version: 6.00 Build 0)  -->
<!DOCTYPE svg PUBLIC "-//W3C//DTD SVG 1.1//EN" "http://www.w3.org/Graphics/SVG/1.1/DTD/svg11.dtd">
<svg version="1.1" id="Layer_1" xmlns="http://www.w3.org/2000/svg" xmlns:xlink="http://www.w3.org/1999/xlink" x="0px" y="0px"
	 width="512px" height="512px" viewBox="0 0 512 512" style="enable-background:new 0 0 512 512;" xml:space="preserve">
<g>
	<path d="M473.208,0.003H38.792C17.406,0.003,0,17.403,0,38.789v434.427c0,21.386,17.406,38.781,38.792,38.781h434.416
		c21.386,0,38.792-17.396,38.792-38.781V38.789C512,17.403,494.594,0.003,473.208,0.003z M38.792,15.519h434.416
		c12.834,0,23.281,10.438,23.281,23.271v74.989H15.511V38.789C15.511,25.956,25.958,15.519,38.792,15.519z M473.208,496.486H38.792
		c-12.833,0-23.281-10.438-23.281-23.271V129.294h480.979v343.922C496.489,486.049,486.042,496.486,473.208,496.486z"/>
	<polygon points="115.031,252.45 175.136,312.56 116.136,371.549 127.104,382.518 197.073,312.56 126,241.481 	"/>
	<rect x="266.344" y="372.372" width="113.781" height="15.511"/>
</g>
</svg>
