<?xml version="1.0" encoding="iso-8859-1"?>
<!-- Generator: Adobe Illustrator 16.0.0, SVG Export Plug-In . SVG Version: 6.00 Build 0)  -->
<!DOCTYPE svg PUBLIC "-//W3C//DTD SVG 1.1//EN" "http://www.w3.org/Graphics/SVG/1.1/DTD/svg11.dtd">
<svg version="1.1" id="Layer_1" xmlns="http://www.w3.org/2000/svg" xmlns:xlink="http://www.w3.org/1999/xlink" x="0px" y="0px"
	 width="512px" height="512px" viewBox="0 0 512 512" style="enable-background:new 0 0 512 512;" xml:space="preserve">
<path d="M478.385,82.75H232.729V33.625C232.729,12.25,220.479,0,199.115,0H43.958C22.646,0,0,11.792,0,33.625v434.417
	C0,489.417,22.594,512,43.958,512h434.426C500.219,512,512,489.354,512,468.042V116.375C512,95,499.75,82.75,478.385,82.75z
	 M43.958,15.521h155.157c12.854,0,18.094,5.24,18.094,18.104v64.646h261.176c12.855,0,18.094,5.24,18.094,18.104v59.469H15.51
	V33.625C15.51,21.136,32.156,15.521,43.958,15.521z M478.385,496.489H43.958c-12.761,0-28.448-15.688-28.448-28.447V191.354h480.968
	v276.688C496.479,479.854,490.875,496.489,478.385,496.489z"/>
</svg>
