<?xml version="1.0" encoding="iso-8859-1"?>
<!-- Generator: Adobe Illustrator 16.0.0, SVG Export Plug-In . SVG Version: 6.00 Build 0)  -->
<!DOCTYPE svg PUBLIC "-//W3C//DTD SVG 1.1//EN" "http://www.w3.org/Graphics/SVG/1.1/DTD/svg11.dtd">
<svg version="1.1" id="Layer_1" xmlns="http://www.w3.org/2000/svg" xmlns:xlink="http://www.w3.org/1999/xlink" x="0px" y="0px"
	 width="512px" height="512px" viewBox="0 0 512 512" style="enable-background:new 0 0 512 512;" xml:space="preserve">
<g>
	<path d="M477,102.789H345.938v-69.38c0-21.234-12.177-33.406-33.406-33.406H45.281c-21.188,0-43.688,11.708-43.688,33.406v318.65
		c0,21.229,22.458,43.688,43.688,43.688h97.646V380.33H45.281c-12.677,0-28.271-15.594-28.271-28.271V33.409
		c0-12.412,16.531-17.99,28.271-17.99h267.25c12.781,0,17.989,5.209,17.989,17.99v84.802H477c12.781,0,17.989,5.208,17.989,17.984
		V352.06c0,11.729-5.583,28.271-17.989,28.271H369.073v15.417H477c21.698,0,33.406-22.521,33.406-43.688V136.195
		C510.406,114.966,498.229,102.789,477,102.789z"/>
	<polygon points="263.708,482.676 263.708,295.518 248.292,295.518 248.292,482.3 197.562,431.57 186.656,442.477 256.188,511.997 
		326.823,441.372 315.917,430.477 	"/>
</g>
</svg>
