<?xml version="1.0" encoding="iso-8859-1"?>
<!-- Generator: Adobe Illustrator 16.0.0, SVG Export Plug-In . SVG Version: 6.00 Build 0)  -->
<!DOCTYPE svg PUBLIC "-//W3C//DTD SVG 1.1//EN" "http://www.w3.org/Graphics/SVG/1.1/DTD/svg11.dtd">
<svg version="1.1" id="Layer_1" xmlns="http://www.w3.org/2000/svg" xmlns:xlink="http://www.w3.org/1999/xlink" x="0px" y="0px"
	 width="512px" height="512px" viewBox="0 0 512 512" style="enable-background:new 0 0 512 512;" xml:space="preserve">
<g>
	<g>
		<path d="M255.795,511.997C130.474,512.008,20.673,419.624,2.528,292.058C-8.91,211.673,18.97,129.742,77.094,72.878l10.849,11.088
			C33.34,137.387,7.147,214.36,17.892,289.876C36.559,421.14,158.557,512.778,289.832,494.06
			c63.587-9.036,119.852-42.307,158.419-93.66c38.572-51.354,54.827-114.654,45.78-178.248
			c-9.041-63.588-42.307-119.847-93.67-158.414c-47.807-35.896-105.937-52.479-165.066-47.291l51.671,69.16l-12.438,9.281
			L214.791,14.92c-1.641-2.192-2-5.094-0.948-7.62c1.052-2.526,3.359-4.318,6.073-4.703c67.688-9.614,135.087,7.682,189.764,48.734
			c54.677,41.057,90.087,100.941,99.718,168.638c9.629,67.693-7.678,135.083-48.739,189.743
			c-41.057,54.672-100.952,90.082-168.649,99.713C279.848,511.153,267.743,511.997,255.795,511.997z"/>
	</g>
</g>
</svg>
