<?xml version="1.0" encoding="iso-8859-1"?>
<!-- Generator: Adobe Illustrator 16.0.0, SVG Export Plug-In . SVG Version: 6.00 Build 0)  -->
<!DOCTYPE svg PUBLIC "-//W3C//DTD SVG 1.1//EN" "http://www.w3.org/Graphics/SVG/1.1/DTD/svg11.dtd">
<svg version="1.1" id="Layer_1" xmlns="http://www.w3.org/2000/svg" xmlns:xlink="http://www.w3.org/1999/xlink" x="0px" y="0px"
	 width="512px" height="512px" viewBox="0 0 512 512" style="enable-background:new 0 0 512 512;" xml:space="preserve">
<g>
	<g>
		<g>
			<g>
				<path d="M256,508.119c-141.156,0-256-114.844-256-256C0,169.162,40.531,90.974,108.448,42.984l8.947,12.667
					C53.604,100.74,15.511,174.188,15.511,252.12C15.511,384.725,123.396,492.6,256,492.6s240.489-107.875,240.489-240.48
					c0-77.031-37.396-149.984-100.021-195.141l9.062-12.583C472.198,92.458,512,170.115,512,252.12
					C512,393.275,397.156,508.119,256,508.119z"/>
			</g>
		</g>
	</g>
	<g>
		<g>
			<rect x="249.886" y="3.88" width="15.521" height="248.239"/>
		</g>
	</g>
</g>
</svg>
