<?xml version="1.0" encoding="iso-8859-1"?>
<!-- Generator: Adobe Illustrator 16.0.0, SVG Export Plug-In . SVG Version: 6.00 Build 0)  -->
<!DOCTYPE svg PUBLIC "-//W3C//DTD SVG 1.1//EN" "http://www.w3.org/Graphics/SVG/1.1/DTD/svg11.dtd">
<svg version="1.1" id="Layer_1" xmlns="http://www.w3.org/2000/svg" xmlns:xlink="http://www.w3.org/1999/xlink" x="0px" y="0px"
	 width="512px" height="512px" viewBox="0 0 512 512" style="enable-background:new 0 0 512 512;" xml:space="preserve">
<g>
	<path d="M418.083,148.63c0-4.083-1.833-11.719-14.104-16.995L281.604,79.088c-13.891-5.969-37.322-5.979-51.219,0l-122.359,52.547
		c-12.275,5.271-14.109,12.912-14.109,16.995c0,0.521,0.031,1.099,0.109,1.724H93.63v66.511c0,4.167,2,12.011,15.386,17.755
		l120.963,51.762c7.511,3.229,17.141,4.844,26.761,4.844c9.558,0,19.094-1.594,26.531-4.781l120.583-51.657
		c12.625-5.422,14.521-13.302,14.521-17.521v-66.912h-0.406C418.041,149.729,418.083,149.15,418.083,148.63z M114.338,146.333
		l122.359-52.547c9.85-4.224,28.734-4.234,38.594,0l122.365,52.547c2.114,0.911,3.291,1.745,3.916,2.297
		c-0.625,0.552-1.802,1.386-3.906,2.292l-122.375,52.547c-9.844,4.229-28.739,4.224-38.594,0.005l-122.359-52.552
		c-2.114-0.906-3.291-1.74-3.916-2.292C111.047,148.072,112.229,147.244,114.338,146.333z M397.541,220.083l-120.583,51.651
		c-10.792,4.625-29.797,4.615-40.677-0.053l-120.964-51.766c-4.317-1.854-5.558-3.458-5.688-3.219v-50.391l120.761,51.87
		c6.947,2.979,16.041,4.62,25.609,4.62c9.567,0,18.656-1.641,25.604-4.625l120.781-51.87l0.053,50.573
		C402.438,216.885,401.646,218.322,397.541,220.083z"/>
	<path d="M410.375,257.666c-4.417,0-8,3.584-8,8l0.062,24.381c0,0.01-0.792,1.447-4.896,3.209l-120.583,51.656
		c-10.797,4.635-29.802,4.604-40.677-0.053l-120.964-51.771c-4.229-1.812-5.469-3.5-5.688-3.219v-24.203c0-4.416-3.583-8-8-8
		s-8,3.584-8,8v24.371c0,4.166,2,12.01,15.386,17.76l120.963,51.771c7.516,3.207,17.146,4.832,26.766,4.832
		c9.558,0,19.1-1.604,26.526-4.791l120.583-51.646c12.625-5.438,14.521-13.312,14.521-17.52v-24.777
		C418.375,261.25,414.791,257.666,410.375,257.666z"/>
	<path d="M410.375,332.068c-4.417,0-8,3.582-8,8l0.062,23.145c0,0.021-0.792,1.459-4.896,3.219l-120.583,51.656
		c-10.808,4.625-29.812,4.584-40.677-0.062l-120.969-51.77c-4.225-1.812-5.464-3.521-5.683-3.209v-22.979c0-4.418-3.583-8-8-8
		s-8,3.582-8,8v23.145c0,4.168,2,12.012,15.386,17.75l120.963,51.762c7.516,3.229,17.151,4.844,26.771,4.844
		c9.552,0,19.094-1.594,26.521-4.781l120.583-51.656c12.625-5.428,14.521-13.312,14.521-17.521v-23.541
		C418.375,335.65,414.791,332.068,410.375,332.068z"/>
	<path d="M38.088,209.219v-89.078c0-29.823,8.641-38.136,19.933-45.901c8.719-5.995,28.636-7.328,35.578-7.339l-0.005-16
		c-3.058,0-30.287,0.287-44.636,10.151c-13.599,9.349-26.87,21.614-26.87,59.089v89.078c0,18.817-12.443,36.536-22.088,36.536v4.489
		v11.512v4.488c9.646,0,22.088,17.719,22.088,36.531v89.084c0,37.479,13.271,49.74,26.87,59.084
		c14.349,9.875,41.578,10.156,44.636,10.156l0.005-16c-6.942-0.012-26.859-1.344-35.578-7.344
		c-11.292-7.762-19.933-16.074-19.933-45.896v-89.084c0-19.354-9.572-37.797-22.177-46.775
		C28.516,247.021,38.088,228.583,38.088,209.219z"/>
	<path d="M489.916,209.219v-89.078c0-37.479-13.281-49.74-26.875-59.089C448.688,51.188,421.458,50.9,418.406,50.9l-0.011,16
		c6.948,0.011,26.864,1.344,35.583,7.339c11.292,7.761,19.938,16.073,19.938,45.901v89.078c0,19.364,9.562,37.802,22.167,46.781
		c-12.604,8.979-22.167,27.422-22.167,46.775v89.084c0,29.834-8.646,38.146-19.938,45.896c-8.719,6-28.635,7.332-35.583,7.344
		l0.011,16c3.052,0,30.281-0.281,44.635-10.156c13.594-9.344,26.875-21.605,26.875-59.084v-89.084
		c0-18.812,12.438-36.531,22.084-36.531v-4.488v-11.512v-4.489C502.354,245.755,489.916,228.036,489.916,209.219z"/>
</g>
</svg>
