<?xml version="1.0" encoding="iso-8859-1"?>
<!-- Generator: Adobe Illustrator 16.0.0, SVG Export Plug-In . SVG Version: 6.00 Build 0)  -->
<!DOCTYPE svg PUBLIC "-//W3C//DTD SVG 1.1//EN" "http://www.w3.org/Graphics/SVG/1.1/DTD/svg11.dtd">
<svg version="1.1" id="Layer_1" xmlns="http://www.w3.org/2000/svg" xmlns:xlink="http://www.w3.org/1999/xlink" x="0px" y="0px"
	 width="512px" height="512px" viewBox="0 0 512 512" style="enable-background:new 0 0 512 512;" xml:space="preserve">
<g id="Page_1_4_">
	<g id="Logo_5_" transform="translate(-31.500000, -35.000000)">
		<g id="Doodle_5_" transform="translate(0.500000, 0.000000)">
			<g id="Bubble_flat_7_">
				<path d="M429.682,508.225c-5.374,0-11.506-1.657-18.233-4.9c-0.606-0.15-34.831-11.93-72.389-41.679
					c-32.629,5.95-66.955,5.687-99.483-0.748c-37.912,30.274-72.772,42.276-74.278,42.791c-13.354,6.637-27.365,5.667-33.386-3.414
					c-3.283-4.94-5.799-14.163,0.879-30.022c0.191-0.424,8.677-18.819,18.526-45.307c-4-2.646-7.92-5.435-11.708-8.323
					c-37.043,11.354-67.287,12.264-75.894,12.264l-2.061-0.021c-1.061,0.162-2.99,0.263-4.798,0.263
					c-16.547,0-22.375-7.657-24.375-12.203c-2.213-5.051-3.869-15.738,9.919-30.749c0.364-0.384,16.981-17.214,37.346-41.761
					c-11.364-23.668-17.123-48.73-17.123-74.565c0-108.113,102.583-196.074,228.683-196.074c126.1,0,228.692,87.961,228.692,196.074
					c0,28.32-6.84,55.534-20.355,80.99c17.799,21.012,31.598,34.972,31.74,35.113c14.011,15.193,12.354,25.9,10.142,30.941
					c-2.223,5.071-9.556,13.87-30.184,11.94l-1.011,0.051c-7.828,0-35.346-0.769-69.752-10.466
					c-4.313,3.192-8.758,6.243-13.283,9.111c9.475,25.073,17.404,42.286,17.485,42.479c6.788,16.092,4.273,25.324,0.99,30.265
					C442.369,505.396,436.661,508.225,429.682,508.225z M343.201,445.048l2.818,2.283c36.497,29.679,70.944,41.538,71.287,41.659
					c11.931,5.637,14.526,4.223,15.547,2.697c0.96-1.444,1.565-6.323-2.263-15.415c-0.273-0.586-9.415-20.436-20.072-49.326
					l-2.223-6.052l5.536-3.303c7.041-4.182,13.92-8.85,20.466-13.859l3.142-2.395l3.778,1.121
					c34.153,10.122,61.539,10.91,69.115,10.91l1.516-0.01c2.484,0.172,3.93,0.252,5.283,0.252c6.111,0,9.566-1.535,10.192-2.949
					c0.737-1.697-0.546-6.818-7.151-13.98c-0.455-0.455-15.972-16.143-35.842-39.942l-3.444-4.122l2.657-4.687
					c13.899-24.437,20.94-50.711,20.94-78.081c0-99.562-95.633-180.558-213.176-180.558c-117.544,0-213.167,80.995-213.167,180.558
					c0,25.021,5.95,49.271,17.688,72.061l2.323,4.525l-3.223,3.939c-22.274,27.234-40.528,45.73-41.296,46.508
					c-6.404,6.971-7.688,12.103-6.939,13.799c0.747,1.718,6.121,3.485,14.465,2.708l2.556-0.021c8.333,0,38.396-0.909,75.065-12.748
					l3.95-1.273l3.252,2.586c5.96,4.729,12.304,9.184,18.86,13.254l5.354,3.323l-2.151,5.909
					c-10.98,30.245-20.658,51.216-21.062,52.105c-3.717,8.839-3.111,13.718-2.141,15.172c1.01,1.516,4.374,2.606,14.586-2.343
					c1.243-0.485,36.487-12.688,73.197-42.791l2.889-2.364l3.647,0.768c32.76,6.971,67.602,7.254,100.472,0.778L343.201,445.048z
					 M401.801,307.736c-20.517,0-37.215-16.996-37.215-37.887s16.698-37.881,37.215-37.881s37.215,16.99,37.215,37.881
					S422.317,307.736,401.801,307.736z M401.801,247.484c-11.96,0-21.698,10.031-21.698,22.365s9.738,22.37,21.698,22.37
					s21.698-10.036,21.698-22.37S413.761,247.484,401.801,247.484z M291.309,307.736c-20.518,0-37.216-16.996-37.216-37.887
					s16.698-37.881,37.216-37.881c20.517,0,37.215,16.99,37.215,37.881S311.825,307.736,291.309,307.736z M291.309,247.484
					c-11.961,0-21.699,10.031-21.699,22.365s9.738,22.37,21.699,22.37c11.96,0,21.698-10.036,21.698-22.37
					S303.269,247.484,291.309,247.484z M180.866,307.736c-20.527,0-37.225-16.996-37.225-37.887s16.698-37.881,37.225-37.881
					c20.517,0,37.214,16.99,37.214,37.881S201.382,307.736,180.866,307.736z M180.866,247.484c-11.97,0-21.708,10.031-21.708,22.365
					s9.738,22.37,21.708,22.37c11.96,0,21.699-10.036,21.699-22.37S192.826,247.484,180.866,247.484z"/>
			</g>
		</g>
	</g>
</g>
</svg>
