<?xml version="1.0" encoding="iso-8859-1"?>
<!-- Generator: Adobe Illustrator 16.0.0, SVG Export Plug-In . SVG Version: 6.00 Build 0)  -->
<!DOCTYPE svg PUBLIC "-//W3C//DTD SVG 1.1//EN" "http://www.w3.org/Graphics/SVG/1.1/DTD/svg11.dtd">
<svg version="1.1" id="Layer_1" xmlns="http://www.w3.org/2000/svg" xmlns:xlink="http://www.w3.org/1999/xlink" x="0px" y="0px"
	 width="512px" height="512px" viewBox="0 0 512 512" style="enable-background:new 0 0 512 512;" xml:space="preserve">
<g>
	<g>
		<path d="M17.35,191.767c-2.162,0-4.26-0.901-5.745-2.542c-1.839-2.026-2.474-4.864-1.677-7.479
			C51.157,46.461,194.785-30.053,330.064,11.166c84.103,25.63,148.514,91.524,172.294,176.284l-14.942,4.193
			c-22.338-79.635-82.857-141.556-161.878-165.639C202.613-11.47,72.49,54.498,28.959,173.747l87.754-17.745l3.073,15.214
			l-100.905,20.4C18.376,191.715,17.86,191.767,17.35,191.767z"/>
	</g>
	<g>
		<path d="M256.57,511.996c-24.708,0-49.801-3.604-74.634-11.166C97.833,475.195,33.423,409.295,9.642,324.535l14.938-4.191
			c22.344,79.639,82.858,141.561,161.883,165.643c122.52,37.334,252.278-28.094,296.188-146.68l-91.451,25.02l-4.094-14.973
			l105.504-28.865c2.713-0.738,5.635,0.047,7.609,2.084c1.968,2.025,2.677,4.959,1.854,7.666
			C468.411,440.695,366.48,511.996,256.57,511.996z"/>
	</g>
</g>
</svg>
