<?xml version="1.0" encoding="iso-8859-1"?>
<!-- Generator: Adobe Illustrator 16.0.0, SVG Export Plug-In . SVG Version: 6.00 Build 0)  -->
<!DOCTYPE svg PUBLIC "-//W3C//DTD SVG 1.1//EN" "http://www.w3.org/Graphics/SVG/1.1/DTD/svg11.dtd">
<svg version="1.1" id="Layer_1" xmlns="http://www.w3.org/2000/svg" xmlns:xlink="http://www.w3.org/1999/xlink" x="0px" y="0px"
	 width="512px" height="512px" viewBox="0 0 512 512" style="enable-background:new 0 0 512 512;" xml:space="preserve">
<g>
	<path d="M269.623,15.059c5.971,0,12.049,0.966,18.02,2.99c29.412,9.971,45.156,41.863,35.195,71.206
		c-7.941,23.383-29.764,37.966-53.137,37.966c-1.549,0-3.098-0.063-4.646-0.191l-6.354,20.647H386.76
		c22.285,0,40.52,18.226,40.52,40.5v190.667c0,22.273-18.234,40.49-40.52,40.49h-73.117v77.607l-93.275-77.607H125.23
		c-22.275,0-40.51-18.217-40.51-40.49V188.177c0-22.274,18.235-40.5,40.51-40.5h102.196l9.804-30.893
		c-19.647-14-28.902-39.529-20.765-63.559C224.387,29.819,246.23,15.059,269.623,15.059 M269.623,0L269.623,0
		c-30.53,0-57.628,19.451-67.422,48.402c-8.882,26.235-1.784,54.47,17.638,73.417l-3.432,10.799H125.23
		c-30.637,0-55.569,24.921-55.569,55.559v190.667c0,30.627,24.932,55.549,55.569,55.549h89.686l89.099,74.127
		c2.754,2.295,6.176,3.48,9.627,3.48c2.176,0,4.354-0.471,6.393-1.422c5.293-2.48,8.666-7.794,8.666-13.637v-62.549h58.059
		c30.646,0,55.578-24.922,55.578-55.549V188.177c0-30.638-24.932-55.559-55.578-55.559h-81.195
		c14.49-8.431,25.881-21.902,31.529-38.515c6.117-18.015,4.842-37.329-3.588-54.387c-8.432-17.059-23-29.813-41.029-35.927
		C285.074,1.274,277.387,0,269.623,0L269.623,0L269.623,0z"/>
	<g>
		<g>
			<path d="M178.877,234.294c0-8.098,6.529-14.656,14.647-14.656h3.588c8.118,0,14.667,6.559,14.667,14.656v20.079
				c0,8.098-6.549,14.657-14.667,14.657h-3.588c-8.118,0-14.647-6.559-14.647-14.657V234.294z"/>
		</g>
		<g>
			<path d="M327.055,336.196c0,8.392-6.766,15.177-15.178,15.177H193.995c-8.353,0-15.118-6.785-15.118-15.177v-2.589
				c0-8.372,6.765-15.166,15.118-15.166h117.882c8.412,0,15.178,6.794,15.178,15.166V336.196z"/>
		</g>
		<g>
			<path d="M327.055,254.373c0,8.098-6.529,14.657-14.688,14.657h-3.568c-8.117,0-14.666-6.559-14.666-14.657v-20.079
				c0-8.098,6.549-14.656,14.666-14.656h3.568c8.158,0,14.688,6.559,14.688,14.656V254.373z"/>
		</g>
	</g>
</g>
</svg>
