<?xml version="1.0" encoding="iso-8859-1"?>
<!-- Generator: Adobe Illustrator 16.0.0, SVG Export Plug-In . SVG Version: 6.00 Build 0)  -->
<!DOCTYPE svg PUBLIC "-//W3C//DTD SVG 1.1//EN" "http://www.w3.org/Graphics/SVG/1.1/DTD/svg11.dtd">
<svg version="1.1" id="Layer_1" xmlns="http://www.w3.org/2000/svg" xmlns:xlink="http://www.w3.org/1999/xlink" x="0px" y="0px"
	 width="512px" height="512px" viewBox="0 0 512 512" style="enable-background:new 0 0 512 512;" xml:space="preserve">
<g>
	<path d="M468.5,149.972c-4.98,0-10.162,1.354-15.385,4.021l-51.02,25.99v-76.323c0-17.146-9.969-28.667-24.809-28.667
		c-4.988,0-10.172,1.354-15.402,4.021l-51.021,25.995V28.669c0-16.879-10.211-28.667-24.838-28.667
		c-4.99,0-10.182,1.354-15.414,4.021L51.854,115.462c-18.597,9.485-33.162,33.263-33.162,54.132v163.747
		c0,17.142,9.97,28.656,24.809,28.656c4.989,0,10.172-1.354,15.403-4.02l51.03-26v76.323c0,17.151,9.98,28.677,24.839,28.677
		c4.989,0,10.172-1.354,15.403-4.021l50.98-25.97v76.344c0,17.151,9.97,28.667,24.818,28.667c4.99,0,10.172-1.354,15.404-4.021
		l218.796-111.476c18.576-9.494,33.133-33.272,33.133-54.121V178.634C493.309,161.755,483.105,149.972,468.5,149.972z
		 M109.934,244.604v69.96l-58.08,29.596c-2.99,1.525-5.879,2.323-8.354,2.323c-8.384,0-9.293-9.192-9.293-13.142V169.594
		c0-15.021,11.313-33.485,24.697-40.309L277.662,17.846c2.99-1.525,5.879-2.328,8.363-2.328c8.414,0,9.322,9.197,9.322,13.151
		v84.242l-152.221,77.551C124.51,199.957,109.934,223.74,109.934,244.604z M201.157,319.573v70l-58.03,29.556
		c-2.99,1.525-5.879,2.333-8.354,2.333c-8.414,0-9.323-9.202-9.323-13.161V244.604c0-15.021,11.323-33.485,24.727-40.318
		L368.934,92.836c2.99-1.525,5.879-2.328,8.354-2.328c8.385,0,9.293,9.196,9.293,13.151v84.228l-152.251,77.555
		C215.722,274.927,201.157,298.704,201.157,319.573z M477.793,342.381c0,15.011-11.303,33.475-24.678,40.304L234.329,494.159
		c-2.99,1.525-5.879,2.323-8.354,2.323c-8.395,0-9.303-9.192-9.303-13.151V319.573c0-15.021,11.312-33.475,24.707-40.303
		l218.796-111.455c2.971-1.525,5.859-2.328,8.324-2.328c8.385,0,9.293,9.191,9.293,13.146V342.381z"/>
</g>
</svg>
