<?xml version="1.0" encoding="iso-8859-1"?>
<!-- Generator: Adobe Illustrator 16.0.0, SVG Export Plug-In . SVG Version: 6.00 Build 0)  -->
<!DOCTYPE svg PUBLIC "-//W3C//DTD SVG 1.1//EN" "http://www.w3.org/Graphics/SVG/1.1/DTD/svg11.dtd">
<svg version="1.1" id="Layer_1" xmlns="http://www.w3.org/2000/svg" xmlns:xlink="http://www.w3.org/1999/xlink" x="0px" y="0px"
	 width="512px" height="512px" viewBox="0 0 512 512" style="enable-background:new 0 0 512 512;" xml:space="preserve">
<g>
	<g>
		<path d="M256.01,511.99c-68.381,0-132.669-26.628-181.024-74.978C26.631,388.662,0,324.377,0,256S26.631,123.338,74.986,74.987
			C123.341,26.637,187.629,0.01,256.01,0.01c68.376,0,132.66,26.628,181.011,74.978C485.372,123.338,512,187.623,512,256
			s-26.628,132.662-74.979,181.013C388.67,485.362,324.387,511.99,256.01,511.99z M256.01,15.586
			c-64.221,0-124.599,25.007-170.011,70.416S15.576,191.783,15.576,256s25.01,124.59,70.423,169.999
			c45.413,45.407,105.791,70.415,170.011,70.415c64.216,0,124.588-25.008,169.998-70.415
			c45.408-45.408,70.416-105.782,70.416-169.999s-25.008-124.59-70.416-169.999C380.599,40.593,320.227,15.586,256.01,15.586z"/>
	</g>
	<g>
		<rect x="313.477" y="186.63" width="15.576" height="134.988"/>
	</g>
	<g>
		<rect x="178.483" y="186.63" width="15.576" height="134.988"/>
	</g>
</g>
</svg>
