<?xml version="1.0" encoding="utf-8"?>
<!-- Generator: Adobe Illustrator 16.0.0, SVG Export Plug-In . SVG Version: 6.00 Build 0)  -->
<!DOCTYPE svg PUBLIC "-//W3C//DTD SVG 1.1//EN" "http://www.w3.org/Graphics/SVG/1.1/DTD/svg11.dtd">
<svg version="1.1" id="Layer_1" xmlns="http://www.w3.org/2000/svg" xmlns:xlink="http://www.w3.org/1999/xlink" x="0px" y="0px"
	 width="512px" height="512px" viewBox="0 0 512 512" enable-background="new 0 0 512 512" xml:space="preserve">
<path d="M486.016,119.667c-16.821-16.89-39.196-26.213-63.237-26.26c-43.11,0-79.217,30.807-87.438,71.564L177.79,117.715
	c0.416-3.449,0.64-6.957,0.648-10.514c0.052-23.828-9.188-46.255-26-63.14C135.626,27.17,113.251,17.837,89.22,17.79
	c-49.093,0-89.113,39.937-89.217,89.02c-0.104,49.191,39.833,89.301,89.02,89.415c0.01,0,0.198,0,0.208,0
	c8.312,0,16.364-1.149,24.006-3.291l42.991,134.591c-26.819,15.362-44.966,44.245-45.029,77.273
	c-0.053,23.834,9.177,46.26,25.989,63.146c16.823,16.89,39.198,26.218,63.02,26.265c0.021,0,0.209,0,0.219,0
	c49.062,0,89.095-39.937,89.206-89.02c0.052-23.504-8.952-45.626-25.33-62.436l99.57-93.182
	c16.241,14.337,36.864,22.207,58.729,22.25c0.012,0,0.198,0,0.208,0c49.072,0,89.093-39.931,89.186-89.015
	C512.047,158.979,502.828,136.557,486.016,119.667z M89.232,188.548l-0.167-7.672c-40.729-0.094-73.791-33.306-73.697-74.035
	c0.083-40.64,33.197-73.702,74.009-73.702c19.739,0.041,38.27,7.765,52.187,21.749c13.917,13.979,21.563,32.547,21.521,52.281
	c-0.094,40.64-33.228,73.707-73.853,73.707V188.548z M127.623,187.517c22.419-10.748,39.694-30.597,47.002-54.726l158.985,47.687
	c-0.016,0.648-0.028,1.297-0.029,1.949c-0.044,20.636,6.894,40.218,19.675,56.064l-100.626,94.17
	c-15.052-10.91-33.105-16.84-52.224-16.877c-10.565,0-20.709,1.854-30.127,5.248L127.623,187.517z M200.427,478.861v7.672
	l-0.177-7.672c-19.729-0.042-38.26-7.766-52.187-21.744c-13.917-13.979-21.562-32.552-21.51-52.286
	c0.083-40.634,33.219-73.696,74.02-73.696c19.739,0.041,38.271,7.764,52.187,21.748c13.916,13.985,21.573,32.547,21.52,52.271
	C274.177,445.794,241.041,478.861,200.427,478.861z M422.809,256.473v7.677l-0.166-7.677c-19.739-0.042-38.271-7.76-52.196-21.744
	c-13.907-13.979-21.563-32.546-21.512-52.275c0.083-40.635,33.209-73.697,74.021-73.697c19.729,0.042,38.26,7.761,52.175,21.745
	c13.927,13.978,21.563,32.546,21.51,52.275C496.558,223.411,463.434,256.473,422.809,256.473z"/>
</svg>
