<?xml version="1.0" encoding="iso-8859-1"?>
<!-- Generator: Adobe Illustrator 16.0.0, SVG Export Plug-In . SVG Version: 6.00 Build 0)  -->
<!DOCTYPE svg PUBLIC "-//W3C//DTD SVG 1.1//EN" "http://www.w3.org/Graphics/SVG/1.1/DTD/svg11.dtd">
<svg version="1.1" id="Layer_1" xmlns="http://www.w3.org/2000/svg" xmlns:xlink="http://www.w3.org/1999/xlink" x="0px" y="0px"
	 width="512px" height="512px" viewBox="0 0 512 512" style="enable-background:new 0 0 512 512;" xml:space="preserve">
<path d="M331.614,0.003H90.5c-21.375,0-38.781,17.4-38.781,38.786v434.427c0,21.386,17.406,38.781,38.781,38.781h331
	c21.375,0,38.781-17.396,38.781-38.781V128.669L331.614,0.003z M336.166,26.496l97.635,97.626h-74.363
	c-12.834,0-23.271-10.438-23.271-23.271V26.496z M421.5,496.486h-331c-12.823,0-23.271-10.438-23.271-23.271V38.789
	c0-12.833,10.448-23.271,23.271-23.271h230.146v85.333c0,21.391,17.406,38.786,38.792,38.786h85.333v333.578
	C444.771,486.049,434.322,496.486,421.5,496.486z"/>
</svg>
