<?xml version="1.0" encoding="iso-8859-1"?>
<!-- Generator: Adobe Illustrator 16.0.0, SVG Export Plug-In . SVG Version: 6.00 Build 0)  -->
<!DOCTYPE svg PUBLIC "-//W3C//DTD SVG 1.1//EN" "http://www.w3.org/Graphics/SVG/1.1/DTD/svg11.dtd">
<svg version="1.1" id="Layer_1" xmlns="http://www.w3.org/2000/svg" xmlns:xlink="http://www.w3.org/1999/xlink" x="0px" y="0px"
	 width="512px" height="512px" viewBox="0 0 512 512" style="enable-background:new 0 0 512 512;" xml:space="preserve">
<path d="M296.357,260.087c51.252-18.1,88.08-67.018,88.08-124.386c0-72.719-59.167-131.88-131.886-131.88
	s-131.875,59.162-131.875,131.88c0,58.205,37.901,107.713,90.319,125.161C92.857,282.009,1.733,384.765,0,507.95l15.521,0.229
	C17.344,378.159,125.219,272.388,256,272.388c130.791,0,238.666,105.771,240.489,235.781L512,507.95
	C510.254,383.155,416.752,279.339,296.357,260.087z M136.188,135.701c0-64.162,52.208-116.365,116.364-116.365
	c64.167,0,116.364,52.203,116.364,116.365s-52.197,116.365-116.364,116.365C188.396,252.065,136.188,199.862,136.188,135.701z"/>
</svg>
