<?xml version="1.0" encoding="utf-8"?>
<!-- Generator: Adobe Illustrator 18.0.0, SVG Export Plug-In . SVG Version: 6.00 Build 0)  -->
<!DOCTYPE svg PUBLIC "-//W3C//DTD SVG 1.1//EN" "http://www.w3.org/Graphics/SVG/1.1/DTD/svg11.dtd">
<svg version="1.1" id="Layer_1" xmlns="http://www.w3.org/2000/svg" xmlns:xlink="http://www.w3.org/1999/xlink" x="0px" y="0px"
	 viewBox="0 0 64 64" enable-background="new 0 0 64 64" xml:space="preserve">
<g>
	<path d="M40,64c-0.1,0-0.1,0-0.2,0c-1.1-0.1-2.1-0.9-2.4-2L23.7,11.9l-7.9,23.6c-0.4,1.1-1.4,1.8-2.5,1.8H2.7V32h8.7L21.5,1.8
		C21.8,0.7,22.9,0,24.1,0c1.2,0,2.2,0.8,2.5,2l13.9,51l7.7-19.3c0.4-1,1.4-1.7,2.5-1.7h10.7v5.3h-8.9l-10,25
		C42.1,63.3,41.1,64,40,64z"/>
</g>
</svg>
