<?xml version="1.0" encoding="utf-8"?>
<!-- Generator: Adobe Illustrator 18.0.0, SVG Export Plug-In . SVG Version: 6.00 Build 0)  -->
<!DOCTYPE svg PUBLIC "-//W3C//DTD SVG 1.1//EN" "http://www.w3.org/Graphics/SVG/1.1/DTD/svg11.dtd">
<svg version="1.1" id="Layer_1" xmlns="http://www.w3.org/2000/svg" xmlns:xlink="http://www.w3.org/1999/xlink" x="0px" y="0px"
	 viewBox="0 0 64 64" enable-background="new 0 0 64 64" xml:space="preserve">
<path d="M58.4,49.6c0-0.1-3.3-7.3-4-12.7c-0.7-5.5-1.1-9.5-1.1-10.3C53.3,15.9,45,6.7,34.7,5.3l0-5.3l-5.3,0l0,5.3
	C19,6.7,10.7,16,10.7,26.6c0,0-0.1,4.5-1,10.1c-0.9,5.5-4.1,12.8-4.1,12.9c-0.4,0.8-0.3,1.6,0.2,2.4s1.3,1,2.2,1h13.3
	c0,6,4.9,10.7,10.7,10.7c5.7,0,10.6-4.7,10.6-10.7H56c0.9,0,1.8-0.3,2.2-1.1C58.7,51.2,58.8,50.4,58.4,49.6z M32.1,58.3
	c-2.8,0-5.4-2.3-5.4-5.3h10.7C37.3,56,34.9,58.3,32.1,58.3z M11.9,48c1.1-2.7,2.4-6.9,3-10.4c1-6,1.1-10.6,1.1-10.9
	c0-7.7,6.4-16,16-16s16,8.3,16,16c0,0.1,0,0.2,0,0.3c0,0,0.4,4.4,1.2,10.5c0.4,3.6,1.8,7.9,2.8,10.5H11.9z"/>
</svg>
