<?xml version="1.0" encoding="utf-8"?>
<!-- Generator: Adobe Illustrator 18.0.0, SVG Export Plug-In . SVG Version: 6.00 Build 0)  -->
<!DOCTYPE svg PUBLIC "-//W3C//DTD SVG 1.1//EN" "http://www.w3.org/Graphics/SVG/1.1/DTD/svg11.dtd">
<svg version="1.1" id="Layer_1" xmlns="http://www.w3.org/2000/svg" xmlns:xlink="http://www.w3.org/1999/xlink" x="0px" y="0px"
	 viewBox="0 0 64 64" enable-background="new 0 0 64 64" xml:space="preserve">
<g>
	<path d="M11.6,0C6.8,0,3,4,3,9v46.2c0,4.8,3.8,8.8,8.7,8.8H61V0H11.6z M55,58H11.7C10.1,58,9,56.9,9,55.2V46c1,0.3,1.6,1,2.6,1H55
		v-6H11.6C10,41,9,39.4,9,37.8V9c0-1.8,1-3,2.6-3H55V58z"/>
	<rect x="20" y="12" width="24" height="5"/>
	<rect x="20" y="23" width="24" height="6"/>
</g>
</svg>
