<?xml version="1.0" encoding="iso-8859-1"?>
<!-- Generator: Adobe Illustrator 16.0.0, SVG Export Plug-In . SVG Version: 6.00 Build 0)  -->
<!DOCTYPE svg PUBLIC "-//W3C//DTD SVG 1.1//EN" "http://www.w3.org/Graphics/SVG/1.1/DTD/svg11.dtd">
<svg version="1.1" id="Layer_1" xmlns="http://www.w3.org/2000/svg" xmlns:xlink="http://www.w3.org/1999/xlink" x="0px" y="0px"
	 width="512px" height="512px" viewBox="0 0 512 512" style="enable-background:new 0 0 512 512;" xml:space="preserve">
<g>
	<g>
		<path d="M432.969,0H125.781c-52.25,0-94.75,42.5-94.75,94.719v53.469v162.125V417.25c0,52.25,42.5,94.75,94.75,94.75h307.188h48
			v-48v-58.938v-48V101.469v-48V48V0H432.969z M79.031,148.188V94.719C79.031,68.969,100,48,125.781,48h307.188v53.469v255.594
			H125.781c-25.781,0-46.75-20.938-46.75-46.75V148.188z M432.969,464H125.781c-25.781,0-46.75-20.969-46.75-46.75v-25.031
			c13.844,7.938,29.656,12.844,46.75,12.844h307.188V464z"/>
	</g>
	<g>
		<rect x="154.125" y="107.5" width="212" height="48"/>
	</g>
	<g>
		<rect x="154.125" y="194.312" width="212" height="48"/>
	</g>
</g>
</svg>
