<?xml version="1.0" encoding="utf-8"?>
<!-- Generator: Adobe Illustrator 18.0.0, SVG Export Plug-In . SVG Version: 6.00 Build 0)  -->
<!DOCTYPE svg PUBLIC "-//W3C//DTD SVG 1.1//EN" "http://www.w3.org/Graphics/SVG/1.1/DTD/svg11.dtd">
<svg version="1.1" id="Layer_1" xmlns="http://www.w3.org/2000/svg" xmlns:xlink="http://www.w3.org/1999/xlink" x="0px" y="0px"
	 viewBox="0 0 64 64" enable-background="new 0 0 64 64" xml:space="preserve">
<g>
	<path d="M3,17.2v9.1C3,28,1.8,29,0.4,29H0v6h0.4C1.8,35,3,36.2,3,37.9V47c0,6.6,4,12.3,9.9,13.9c1.1,0.3,3.1,0.4,3.1,0.4V56
		c0,0-0.8-0.1-1.4-0.2C11,54.8,9,51.2,9,47v-9.1c0-2.2-0.8-4.3-2.2-5.8C8.2,30.6,9,28.6,9,26.3v-9.1c0-4.2,2-7.8,5.6-8.8
		C15.2,8.2,16,8.2,16,8.2V2.8c0,0-2.1,0.1-3.1,0.4C7,4.9,3,10.6,3,17.2z"/>
	<path d="M64,29c-1.4,0-3-1-3-2.7v-9.1c0-6.6-4-12.3-9.9-13.9C50.1,3,48,2.8,48,2.8v5.3c0,0,1.3,0.1,1.9,0.2c3.6,1,6.1,4.6,6.1,8.8
		v9.1c0,2.2,0.8,4.3,2.2,5.8c-1.3,1.5-2.2,3.5-2.2,5.8V47c0,4.2-2.5,7.8-6.1,8.8C49.3,56,48,56,48,56v5.3c0,0,2.1-0.1,3.1-0.4
		C57,59.3,61,53.6,61,47v-9.1c0-1.7,1.6-2.9,3-2.9h0L64,29L64,29z"/>
</g>
</svg>
