<?xml version="1.0" encoding="utf-8"?>
<!-- Generator: Adobe Illustrator 18.0.0, SVG Export Plug-In . SVG Version: 6.00 Build 0)  -->
<!DOCTYPE svg PUBLIC "-//W3C//DTD SVG 1.1//EN" "http://www.w3.org/Graphics/SVG/1.1/DTD/svg11.dtd">
<svg version="1.1" id="Layer_1" xmlns="http://www.w3.org/2000/svg" xmlns:xlink="http://www.w3.org/1999/xlink" x="0px" y="0px"
	 viewBox="0 0 64 64" enable-background="new 0 0 64 64" xml:space="preserve">
<g>
	<path d="M46.7,42.8c-3.5-0.4-7.1,1.1-9.4,3.7C36.2,47.7,35.4,49,35,51h-8.4c-2.9,0-5.7-2.7-5.7-5.7V32h8v-5h-8v-6
		c2-0.5,4.1-1.6,5.5-3.3c2-2.3,3-5.4,2.7-8.4c-0.6-4.7-4.4-8.6-9.2-9.2c-3.5-0.4-7,0.9-9.4,3.5c-2,2.3-3,5.4-2.6,8.4
		C8.6,16.4,12,19.9,16,21v24.4C16,51.2,20.8,56,26.7,56H35c1.1,4,4.7,7.4,9,7.9c0.4,0.1,0.9,0.1,1.4,0.1c3.1,0,6-1.3,8-3.6
		c2-2.3,3-5.4,2.6-8.4C55.3,47.2,51.5,43.4,46.7,42.8z M13.4,11.4c-0.2-1.6,0.3-3.1,1.3-4.2c1-1.2,2.5-1.8,4-1.8c0.2,0,0.5,0,0.7,0
		c2.4,0.3,4.3,2.2,4.6,4.6c0.2,1.6-0.3,3.1-1.3,4.2c-1.2,1.3-2.9,2-4.7,1.8C15.6,15.7,13.7,13.7,13.4,11.4z M49.3,56.9
		c-1.2,1.3-2.9,2-4.7,1.8c-2.4-0.3-4.3-2.2-4.6-4.6c-0.2-1.6,0.3-3.1,1.3-4.2c1-1.2,2.5-1.8,4-1.8c0.2,0,0.5,0,0.7,0
		c2.4,0.3,4.3,2.2,4.6,4.6C50.8,54.2,50.4,55.7,49.3,56.9z"/>
	<polygon points="48,27 48,19 43,19 43,27 35,27 35,32 43,32 43,40 48,40 48,32 56,32 56,27 	"/>
</g>
</svg>
