<?xml version="1.0" encoding="iso-8859-1"?>
<!-- Generator: Adobe Illustrator 16.0.0, SVG Export Plug-In . SVG Version: 6.00 Build 0)  -->
<!DOCTYPE svg PUBLIC "-//W3C//DTD SVG 1.1//EN" "http://www.w3.org/Graphics/SVG/1.1/DTD/svg11.dtd">
<svg version="1.1" id="Layer_1" xmlns="http://www.w3.org/2000/svg" xmlns:xlink="http://www.w3.org/1999/xlink" x="0px" y="0px"
	 width="512px" height="512px" viewBox="0 0 512 512" style="enable-background:new 0 0 512 512;" xml:space="preserve">
<g>
	<path style="fill:none;" d="M363.703,273.289c18.5,0,33.594-15.062,33.594-33.594c0-18.516-15.094-33.594-33.594-33.594
		c-18.531,0-33.625,15.078-33.625,33.594C330.078,258.227,345.172,273.289,363.703,273.289z"/>
	<path style="fill:none;" d="M181.922,77.492c0-18.531-15.094-33.594-33.594-33.594c-18.531,0-33.625,15.062-33.625,33.594
		s15.094,33.594,33.625,33.594C166.828,111.086,181.922,96.023,181.922,77.492z"/>
	<path style="fill:none;" d="M363.703,400.93c-18.531,0-33.625,15.062-33.625,33.625c0,18.5,15.094,33.562,33.625,33.562
		c18.5,0,33.594-15.062,33.594-33.562C397.297,415.992,382.203,400.93,363.703,400.93z"/>
	<path d="M363.703,357.055c-35.25,0-64.75,23.812-74.125,56.062h-59.812c-32.812,0-59.5-29.5-59.5-65.812v-85.672h119.5
		c9.531,32,38.875,55.547,73.938,55.547c42.688,0,77.469-34.75,77.469-77.484c0-42.719-34.781-77.469-77.469-77.469
		c-35.062,0-64.406,23.547-73.938,55.531h-119.5V151.43c31.969-9.547,55.531-38.875,55.531-73.938
		c0-42.734-34.781-77.484-77.469-77.484c-42.719,0-77.5,34.75-77.5,77.484c0,35.047,23.562,64.391,55.531,73.922v195.891
		c0,60.5,46.375,109.719,103.406,109.719h60.156c9.719,31.719,38.938,54.969,73.781,54.969c42.688,0,77.469-34.75,77.469-77.438
		C441.172,391.805,406.391,357.055,363.703,357.055z M363.703,206.102c18.5,0,33.594,15.078,33.594,33.594
		c0,18.531-15.094,33.594-33.594,33.594c-18.531,0-33.625-15.062-33.625-33.594C330.078,221.18,345.172,206.102,363.703,206.102z
		 M114.703,77.492c0-18.531,15.094-33.594,33.625-33.594c18.5,0,33.594,15.062,33.594,33.594s-15.094,33.594-33.594,33.594
		C129.797,111.086,114.703,96.023,114.703,77.492z M363.703,468.117c-18.531,0-33.625-15.062-33.625-33.562
		c0-18.562,15.094-33.625,33.625-33.625c18.5,0,33.594,15.062,33.594,33.625C397.297,453.055,382.203,468.117,363.703,468.117z"/>
</g>
</svg>
