<?xml version="1.0" encoding="iso-8859-1"?>
<!-- Generator: Adobe Illustrator 16.0.0, SVG Export Plug-In . SVG Version: 6.00 Build 0)  -->
<!DOCTYPE svg PUBLIC "-//W3C//DTD SVG 1.1//EN" "http://www.w3.org/Graphics/SVG/1.1/DTD/svg11.dtd">
<svg version="1.1" id="Layer_1" xmlns="http://www.w3.org/2000/svg" xmlns:xlink="http://www.w3.org/1999/xlink" x="0px" y="0px"
	 width="512px" height="512px" viewBox="0 0 512 512" style="enable-background:new 0 0 512 512;" xml:space="preserve">
<g>
	<path style="fill:none;" d="M180.906,77.492c0-18.531-15.094-33.594-33.625-33.594c-18.5,0-33.594,15.062-33.594,33.594
		s15.094,33.594,33.594,33.594C165.812,111.086,180.906,96.023,180.906,77.492z"/>
	<path style="fill:none;" d="M362.188,400.93c-18.531,0-33.594,15.062-33.594,33.625c0,18.5,15.062,33.562,33.594,33.562
		c18.5,0,33.594-15.062,33.594-33.562C395.781,415.992,380.688,400.93,362.188,400.93z"/>
	<path d="M362.188,357.055c-35.25,0-64.75,23.812-74.125,56.062h-59.281c-32.812,0-59.531-29.5-59.531-65.812v-85.672h70.812
		v-43.875H169.25v-66.344c31.969-9.531,55.531-38.875,55.531-73.922c0-42.734-34.781-77.484-77.5-77.484
		c-42.688,0-77.469,34.75-77.469,77.484c0,35.062,23.562,64.391,55.531,73.938v195.875c0,60.5,46.406,109.719,103.438,109.719
		h59.625c9.719,31.719,38.938,54.969,73.781,54.969c42.719,0,77.469-34.75,77.469-77.438
		C439.656,391.805,404.906,357.055,362.188,357.055z M113.688,77.492c0-18.531,15.094-33.594,33.594-33.594
		c18.531,0,33.625,15.062,33.625,33.594s-15.094,33.594-33.625,33.594C128.781,111.086,113.688,96.023,113.688,77.492z
		 M362.188,468.117c-18.531,0-33.594-15.062-33.594-33.562c0-18.562,15.062-33.625,33.594-33.625
		c18.5,0,33.594,15.062,33.594,33.625C395.781,453.055,380.688,468.117,362.188,468.117z"/>
	<polygon points="384.125,217.758 384.125,159.68 340.25,159.68 340.25,217.758 282.156,217.758 282.156,261.633 340.25,261.633 
		340.25,319.711 384.125,319.711 384.125,261.633 442.188,261.633 442.188,217.758 	"/>
</g>
</svg>
