<?xml version="1.0" encoding="utf-8"?>
<!-- Generator: Adobe Illustrator 18.0.0, SVG Export Plug-In . SVG Version: 6.00 Build 0)  -->
<!DOCTYPE svg PUBLIC "-//W3C//DTD SVG 1.1//EN" "http://www.w3.org/Graphics/SVG/1.1/DTD/svg11.dtd">
<svg version="1.1" id="Layer_1" xmlns="http://www.w3.org/2000/svg" xmlns:xlink="http://www.w3.org/1999/xlink" x="0px" y="0px"
	 viewBox="0 0 64 64" enable-background="new 0 0 64 64" xml:space="preserve">
<path d="M43.6,16c1,0,1.8,0.8,1.8,1.8l0,7.8c0,0.7,0.3,1,0.7,1c0.2,0,0.5-0.1,0.7-0.3l10.5-7.5c0.3-0.2,0.5-0.3,0.7-0.3
	c0.4,0,0.7,0.4,0.7,1v24.8c0,0.7-0.3,1-0.7,1c-0.2,0-0.5-0.1-0.7-0.3l-10.5-7.5c-0.3-0.2-0.5-0.3-0.7-0.3c-0.4,0-0.7,0.4-0.7,1
	l0,7.9c0,1-0.8,1.8-1.8,1.8H7.1c-1,0-1.8-0.8-1.8-1.8l0-28.5c0-1,0.8-1.8,1.8-1.8H43.6 M43.6,10.6H7.1c-1.9,0-3.7,0.7-5,2.1
	c-1.3,1.3-2.1,3.1-2.1,5l0,28.5c0,3.9,3.2,7.1,7.1,7.1h36.5c1.9,0,3.7-0.7,5-2.1c1.2-1.2,1.9-2.7,2-4.3l3.5,2.5
	c1.2,0.8,2.5,1.3,3.8,1.3c3.4,0,6.1-2.8,6.1-6.4V19.6c0-3.6-2.7-6.4-6.1-6.4c-1.3,0-2.7,0.4-3.8,1.3L50.6,17c-0.2-1.6-0.9-3.1-2-4.3
	C47.2,11.4,45.5,10.6,43.6,10.6L43.6,10.6z"/>
</svg>
