<?xml version="1.0" encoding="iso-8859-1"?>
<!-- Generator: Adobe Illustrator 16.0.0, SVG Export Plug-In . SVG Version: 6.00 Build 0)  -->
<!DOCTYPE svg PUBLIC "-//W3C//DTD SVG 1.1//EN" "http://www.w3.org/Graphics/SVG/1.1/DTD/svg11.dtd">
<svg version="1.1" id="Layer_1" xmlns="http://www.w3.org/2000/svg" xmlns:xlink="http://www.w3.org/1999/xlink" x="0px" y="0px"
	 width="512px" height="512px" viewBox="0 0 512 512" style="enable-background:new 0 0 512 512;" xml:space="preserve">
<g>
	<g>
		<path d="M256,512C114.844,512,0,397.156,0,256S114.844,0,256,0s256,114.844,256,256S397.156,512,256,512z M256,43.891
			C139.062,43.891,43.906,139.047,43.906,256S139.062,468.109,256,468.109c116.969,0,212.125-95.156,212.125-212.109
			S372.969,43.891,256,43.891z"/>
	</g>
	<g>
		<path d="M233.812,368.234c-5.969,0-11.719-2.438-15.844-6.766l-97.562-101.812l31.688-30.375l79.656,83.141l109.312-146.047
			l35.156,26.281L251.375,359.422c-3.875,5.172-9.781,8.375-16.25,8.766C234.688,368.219,234.25,368.234,233.812,368.234z"/>
	</g>
</g>
</svg>
