<?xml version="1.0" encoding="iso-8859-1"?>
<!-- Generator: Adobe Illustrator 16.0.0, SVG Export Plug-In . SVG Version: 6.00 Build 0)  -->
<!DOCTYPE svg PUBLIC "-//W3C//DTD SVG 1.1//EN" "http://www.w3.org/Graphics/SVG/1.1/DTD/svg11.dtd">
<svg version="1.1" id="Layer_1" xmlns="http://www.w3.org/2000/svg" xmlns:xlink="http://www.w3.org/1999/xlink" x="0px" y="0px"
	 width="512px" height="512px" viewBox="0 0 512 512" style="enable-background:new 0 0 512 512;" xml:space="preserve">
<g>
	<path d="M256,0C114.828,0,0,114.843,0,256c0,141.172,114.828,256,256,256s256-114.828,256-256C512,114.843,397.172,0,256,0z
		 M256,468.114c-116.971,0-212.114-95.171-212.114-212.114c0-116.957,95.144-212.114,212.114-212.114
		c116.972,0,212.115,95.157,212.115,212.114C468.115,372.943,372.972,468.114,256,468.114z"/>
	<polygon points="277.943,116.014 234.058,116.014 234.058,234.057 234.058,277.943 277.943,277.943 400.629,277.943 
		400.629,234.057 277.943,234.057 	"/>
</g>
</svg>
