<?xml version="1.0" encoding="iso-8859-1"?>
<!-- Generator: Adobe Illustrator 16.0.0, SVG Export Plug-In . SVG Version: 6.00 Build 0)  -->
<!DOCTYPE svg PUBLIC "-//W3C//DTD SVG 1.1//EN" "http://www.w3.org/Graphics/SVG/1.1/DTD/svg11.dtd">
<svg version="1.1" id="Layer_1" xmlns="http://www.w3.org/2000/svg" xmlns:xlink="http://www.w3.org/1999/xlink" x="0px" y="0px"
	 width="512px" height="512px" viewBox="0 0 512 512" style="enable-background:new 0 0 512 512;" xml:space="preserve">
<g>
	<g>
		<path d="M512,306.461c0-63.734-44.969-117.141-104.844-130.188C383.812,114.914,324.594,72.352,256,72.352
			s-127.812,42.562-151.156,103.922C44.969,189.32,0,242.727,0,306.461c0,70.531,55.281,127.875,124.75,132.312v-47.969
			C81.719,386.492,48,350.617,48,306.461c0-47.078,38.156-85.234,85.219-85.234c3.25,0,6.469,0.219,9.656,0.594
			c6.156-57.062,54.438-101.469,113.125-101.469s106.969,44.406,113.125,101.469c3.156-0.375,6.406-0.594,9.656-0.594
			c47.094,0,85.219,38.156,85.219,85.234c0,44.156-33.719,80.062-76.781,84.344v48C456.688,434.336,512,377.023,512,306.461z"/>
	</g>
	<path d="M364.25,364.992l-90.906-90.906c-9.375-9.359-24.562-9.359-33.938,0l-91.688,91.688l33.938,33.938l50.312-50.312v90.25h48
		v-91.062l50.344,50.344L364.25,364.992z"/>
</g>
</svg>
