<?xml version="1.0" encoding="utf-8"?>
<!-- Generator: Adobe Illustrator 18.0.0, SVG Export Plug-In . SVG Version: 6.00 Build 0)  -->
<!DOCTYPE svg PUBLIC "-//W3C//DTD SVG 1.1//EN" "http://www.w3.org/Graphics/SVG/1.1/DTD/svg11.dtd">
<svg version="1.1" id="Layer_1" xmlns="http://www.w3.org/2000/svg" xmlns:xlink="http://www.w3.org/1999/xlink" x="0px" y="0px"
	 viewBox="0 0 64 64" enable-background="new 0 0 64 64" xml:space="preserve">
<path d="M50.7,21.3C48,13,40.7,8,32,8s-16,5-18.7,13.3C5.9,22.9,0,30.7,0,39c0,9.4,7,17,16,17v-5.3c-5,0-10.7-5.1-10.7-11.6
	c0-6.5,5.1-12.7,11.1-12.7c0.4,0,0.8,0,1.2,0.1c0.8-7.9,6.8-13.1,14.3-13.1s13.5,5.2,14.3,13.1c0.4-0.1,0.8-0.1,1.2-0.1
	c6,0,11.1,6.2,11.1,12.7c0,6.5-4.7,11.6-10.7,11.6l0,0c0,0,0,2.7,0,5.3c8.8,0,16-7.5,16-17C64,30.7,58.2,22.9,50.7,21.3z"/>
<path d="M45.3,44.1L34,32.6c-1-1-2.7-1.1-3.8,0L18.7,44l3.8,3.8l6.9-6.9l0,15l5.3,0l0-15.1l6.8,6.9L45.3,44.1z"/>
</svg>
