<?xml version="1.0" encoding="iso-8859-1"?>
<!-- Generator: Adobe Illustrator 16.0.0, SVG Export Plug-In . SVG Version: 6.00 Build 0)  -->
<!DOCTYPE svg PUBLIC "-//W3C//DTD SVG 1.1//EN" "http://www.w3.org/Graphics/SVG/1.1/DTD/svg11.dtd">
<svg version="1.1" id="Layer_1" xmlns="http://www.w3.org/2000/svg" xmlns:xlink="http://www.w3.org/1999/xlink" x="0px" y="0px"
	 width="512px" height="512px" viewBox="0 0 512 512" style="enable-background:new 0 0 512 512;" xml:space="preserve">
<g>
	<path d="M394.172,430.586H117.829C52.857,430.586,0,377.729,0,312.758C0,250.285,48.886,199,110.4,195.157
		C126.714,129.071,186.114,81.414,256,81.414s129.285,47.657,145.6,113.743C463.114,199,512,250.285,512,312.758
		C512,377.729,459.143,430.586,394.172,430.586z M117.829,238.814c-40.771,0-73.943,33.172-73.943,73.943
		S77.057,386.7,117.829,386.7h276.343c40.771,0,73.942-33.171,73.942-73.942s-33.171-73.943-73.942-73.943
		c-2.829,0-5.601,0.186-8.314,0.514c-5.887,0.644-11.657-0.985-16.229-4.643c-4.572-3.657-7.515-8.985-8.143-14.8
		C355.657,165.957,310.314,125.3,256,125.3s-99.657,40.657-105.486,94.586c-0.628,5.814-3.571,11.143-8.143,14.785
		c-4.572,3.644-10.458,5.301-16.2,4.657C123.429,239.014,120.657,238.814,117.829,238.814z"/>
</g>
</svg>
