<?xml version="1.0" encoding="iso-8859-1"?>
<!-- Generator: Adobe Illustrator 16.0.0, SVG Export Plug-In . SVG Version: 6.00 Build 0)  -->
<!DOCTYPE svg PUBLIC "-//W3C//DTD SVG 1.1//EN" "http://www.w3.org/Graphics/SVG/1.1/DTD/svg11.dtd">
<svg version="1.1" id="Layer_1" xmlns="http://www.w3.org/2000/svg" xmlns:xlink="http://www.w3.org/1999/xlink" x="0px" y="0px"
	 width="512px" height="512px" viewBox="0 0 512 512" style="enable-background:new 0 0 512 512;" xml:space="preserve">
<path d="M281,40.422l15.406,75.609c10.531,3.062,20.594,7.266,30,12.438l65.344-41.578l34.406,34.375L383.5,185.625
	c5.25,9.422,9.438,19.453,12.438,29.984l75.625,16.812v48.594l-75.625,15.406c-3,10.547-7.188,20.578-12.438,29.984l41.594,65.359
	l-34.312,34.344L326.375,383.5c-9.438,5.234-19.469,9.453-30,12.453l-16.812,75.625H231l-15.438-75.609
	c-10.5-3.078-20.562-7.234-29.938-12.438l-65.406,41.594l-34.375-34.328l42.594-64.422c-5.188-9.375-9.375-19.453-12.375-29.984
	l-75.656-16.812v-48.547l75.656-15.422c3-10.578,7.188-20.609,12.375-29.984l-41.531-65.391l34.312-34.344l64.406,42.609
	c9.438-5.203,19.438-9.391,29.938-12.469l16.812-75.609H281 M256,298.703c23.562,0,42.687-19.094,42.687-42.672
	c0-23.609-19.125-42.734-42.687-42.734c-23.625,0-42.75,19.125-42.75,42.734C213.25,279.609,232.375,298.703,256,298.703 M281,0
	h-48.625c-18.969,0-35.344,13.156-39.469,31.656l-10.312,46.391L143.5,52.188c-6.812-4.516-14.562-6.719-22.281-6.719
	c-10.438,0-20.812,4.031-28.594,11.844L58.313,91.656c-13.406,13.391-15.688,34.281-5.531,50.266l25.5,40.125l-45.938,9.375
	C13.532,195.266,0,211.812,0,231.031v48.547c0,18.953,13.156,35.344,31.656,39.469l46.375,10.297L52.125,368.5
	c-10.594,16.031-8.438,37.297,5.125,50.875l34.375,34.344c7.812,7.812,18.156,11.828,28.594,11.828c7.5,0,15.031-2.062,21.688-6.312
	l40.125-25.516l9.375,45.938C195.25,498.469,211.782,512,231,512h48.562c18.938,0,35.344-13.156,39.438-31.641l10.344-46.438
	l39.156,25.891c6.812,4.516,14.562,6.719,22.281,6.719c10.438,0,20.781-4.031,28.594-11.844l34.312-34.344
	c13.375-13.406,15.688-34.297,5.531-50.297l-25.531-40.062l45.969-9.359C498.469,316.797,512,300.219,512,281.016v-48.594
	c0-18.953-13.156-35.344-31.656-39.469l-46.375-10.297l25.875-39.062c10.625-16.047,8.5-37.344-5.125-50.938l-34.438-34.359
	C412.5,50.5,402.156,46.469,391.75,46.469c-7.5,0-15.031,2.078-21.719,6.328l-40.062,25.5l-9.375-45.953
	C316.75,13.531,300.219,0,281,0L281,0z"/>
</svg>
