<?xml version="1.0" encoding="utf-8"?>
<!-- Generator: Adobe Illustrator 18.0.0, SVG Export Plug-In . SVG Version: 6.00 Build 0)  -->
<!DOCTYPE svg PUBLIC "-//W3C//DTD SVG 1.1//EN" "http://www.w3.org/Graphics/SVG/1.1/DTD/svg11.dtd">
<svg version="1.1" id="Layer_1" xmlns="http://www.w3.org/2000/svg" xmlns:xlink="http://www.w3.org/1999/xlink" x="0px" y="0px"
	 viewBox="0 0 64 64" enable-background="new 0 0 64 64" xml:space="preserve">
<path d="M34.8,5.3c0.4,0,0.7,0.3,0.8,0.7l1.2,7.7c0.1,0.4,0.4,0.7,0.8,0.8l3.2,1.1c0.1,0,0.3,0.1,0.4,0.1c0.3,0,0.6-0.1,0.8-0.2
	l6-4.4c0.1-0.1,0.3-0.1,0.5-0.1c0.2,0,0.4,0.1,0.6,0.2l3.9,3.9c0.3,0.3,0.3,0.7,0.1,1l-4.4,6c-0.2,0.3-0.3,0.8-0.1,1.1l1.3,3.3
	c0.1,0.4,0.5,0.7,0.8,0.7l7.5,1.2c0.4,0.1,0.7,0.4,0.7,0.8v5.5c0,0.4-0.3,0.7-0.7,0.8l-7.5,1.2c-0.4,0.1-0.7,0.4-0.8,0.8l-1.2,3.3
	c-0.1,0.3-0.1,0.9,0.2,1.2l4.3,5.9c0.2,0.3,0.2,0.8-0.1,1l-4,4c-0.1,0.1-0.4,0.2-0.6,0.2c-0.2,0-0.3,0-0.5-0.1L42,48.8
	c-0.2-0.1-0.4-0.2-0.6-0.2c-0.2,0-0.4,0-0.5,0.1l-3.4,1.5c-0.3,0.1-0.7,0.5-0.7,0.9L35.6,58c-0.1,0.4-0.4,0.7-0.8,0.7h-5.6
	c-0.4,0-0.7-0.3-0.8-0.7l-1.1-6.9c-0.1-0.4-0.4-0.8-0.7-0.9l-3.4-1.6c-0.1-0.1-0.3-0.1-0.5-0.1c-0.2,0-0.4,0.1-0.6,0.2l-6,4.3
	c-0.1,0.1-0.3,0.1-0.5,0.1c-0.2,0-0.4-0.1-0.6-0.2l-3.9-3.9c-0.3-0.3-0.3-0.7-0.1-1l4.3-6c0.2-0.3,0.2-0.8,0.1-1.1L14,37.5
	c-0.1-0.3-0.5-0.7-0.9-0.7L6,35.6c-0.4-0.1-0.7-0.4-0.7-0.8v-5.6c0-0.4,0.3-0.7,0.7-0.8l7.1-1.2c0.4-0.1,0.8-0.4,0.9-0.7l1.6-3.3
	c0.2-0.3,0.2-0.8,0-1.1l-4.4-6.1c-0.2-0.3-0.2-0.8,0.1-1l3.9-3.9c0.1-0.1,0.3-0.2,0.6-0.2c0.2,0,0.3,0,0.5,0.1l6.1,4.5
	c0.2,0.1,0.5,0.2,0.7,0.2c0.2,0,0.3,0,0.4-0.1l3.2-1.2c0.4-0.1,0.7-0.5,0.7-0.8L28.5,6c0.1-0.4,0.4-0.7,0.8-0.7H34.8 M32.1,37.3
	c1.4,0,2.7-0.5,3.7-1.6c2.1-2.1,2.1-5.4,0-7.5c-1-1-2.4-1.6-3.7-1.6c-1.4,0-2.7,0.5-3.7,1.5c-2.1,2.1-2.1,5.4,0,7.5
	C29.4,36.8,30.7,37.3,32.1,37.3 M34.8,0h-5.5c-3,0-5.6,2.2-6,5.2l-0.6,4.1l-3.3-2.5c-1-0.8-2.3-1.2-3.6-1.2c-1.6,0-3.2,0.6-4.3,1.8
	l-3.9,3.9c-2.1,2.1-2.4,5.5-0.6,7.9l2.4,3.3l-4,0.7c-2.9,0.5-5.1,3.1-5.1,6v5.6c0,3,2.2,5.6,5.1,6l4,0.6l-2.4,3.3
	c-1.7,2.4-1.4,5.8,0.7,7.9l3.9,3.9c1.1,1.1,2.7,1.8,4.3,1.8c1.3,0,2.5-0.4,3.6-1.1l3.3-2.4l0.6,4c0.5,2.9,3.1,5.2,6,5.2h5.6
	c3,0,5.5-2.2,6-5.1l0.7-4l3.3,2.3c1,0.7,2.3,1.1,3.5,1.1c1.6,0,3.2-0.7,4.3-1.8l4-4c2.1-2.1,2.4-5.5,0.6-7.9l-2.4-3.3l4-0.6
	c2.9-0.5,5.2-3.1,5.2-6v-5.5c0-3-2.2-5.6-5.2-6l-4.1-0.6l2.4-3.3c1.8-2.4,1.5-5.8-0.6-7.9l-3.9-3.9c-1.1-1.1-2.7-1.8-4.3-1.8
	c-1.3,0-2.5,0.4-3.6,1.2l-3.3,2.4l-0.6-4C40.4,2.2,37.8,0,34.8,0L34.8,0z"/>
</svg>
