<?xml version="1.0" encoding="utf-8"?>
<!-- Generator: Adobe Illustrator 18.0.0, SVG Export Plug-In . SVG Version: 6.00 Build 0)  -->
<!DOCTYPE svg PUBLIC "-//W3C//DTD SVG 1.1//EN" "http://www.w3.org/Graphics/SVG/1.1/DTD/svg11.dtd">
<svg version="1.1" id="Layer_1" xmlns="http://www.w3.org/2000/svg" xmlns:xlink="http://www.w3.org/1999/xlink" x="0px" y="0px"
	 viewBox="0 0 64 64" enable-background="new 0 0 64 64" xml:space="preserve">
<g>
	<polygon points="33.1,27.9 29.3,24.1 16,37.4 29.3,50.7 33.1,46.9 26.2,40 48,40 48,35 26.2,35 	"/>
	<path d="M54.2,5H45V4.7C45,2.1,43.2,0,40.6,0H23.4C20.8,0,19,2.1,19,4.7V5H9.8C7.3,5,5,7.3,5,9.8v49.8C5,62,7.3,64,9.8,64h44.5
		c2.4,0,4.8-2,4.8-4.4V9.8C59,7.3,56.7,5,54.2,5z M24,5h16v6H24V5z M53,59H11V11h8v0.3c0,2.6,1.8,4.7,4.4,4.7h17.3
		c2.6,0,4.4-2.1,4.4-4.7V11h8V59z"/>
</g>
</svg>
