<?xml version="1.0" encoding="iso-8859-1"?>
<!-- Generator: Adobe Illustrator 16.0.0, SVG Export Plug-In . SVG Version: 6.00 Build 0)  -->
<!DOCTYPE svg PUBLIC "-//W3C//DTD SVG 1.1//EN" "http://www.w3.org/Graphics/SVG/1.1/DTD/svg11.dtd">
<svg version="1.1" id="Layer_1" xmlns="http://www.w3.org/2000/svg" xmlns:xlink="http://www.w3.org/1999/xlink" x="0px" y="0px"
	 width="512px" height="512px" viewBox="0 0 512 512" style="enable-background:new 0 0 512 512;" xml:space="preserve">
<g>
	<g>
		<path d="M442.857,31.372h-80.314C359.914,13.771,345.344,0,327.029,0H184.971c-18.314,0-32.885,13.771-35.514,31.372H69.143
			c-20.171,0-36.571,16.399-36.571,36.571v407.485c0,20.172,16.4,36.571,36.571,36.571h373.714c20.172,0,36.57-16.399,36.57-36.571
			V67.943C479.428,47.771,463.029,31.372,442.857,31.372z M192.286,43.886h127.429v26.086H192.286V43.886z M435.543,468.115H76.458
			V75.258h71.943v2.028c0,20.172,16.399,36.571,36.57,36.571h142.058c20.17,0,36.57-16.399,36.57-36.571v-2.028h71.943V468.115z"/>
	</g>
	<g>
		<polygon points="250.257,267.144 207.8,267.144 250.057,224.886 265.428,209.515 234.401,178.486 124.229,288.657 
			235.257,399.687 266.285,368.657 250.629,353 208.657,311.029 250.428,311.029 380.344,311.029 380.344,267.144 		"/>
	</g>
</g>
</svg>
