<?xml version="1.0" encoding="utf-8"?>
<!-- Generator: Adobe Illustrator 18.0.0, SVG Export Plug-In . SVG Version: 6.00 Build 0)  -->
<!DOCTYPE svg PUBLIC "-//W3C//DTD SVG 1.1//EN" "http://www.w3.org/Graphics/SVG/1.1/DTD/svg11.dtd">
<svg version="1.1" id="Layer_1" xmlns="http://www.w3.org/2000/svg" xmlns:xlink="http://www.w3.org/1999/xlink" x="0px" y="0px"
	 viewBox="0 0 64 64" enable-background="new 0 0 64 64" xml:space="preserve">
<g>
	<path d="M57.6,8H6.5C2.9,8,0,10.9,0,14.6v34.8C0,53,2.9,56,6.5,56h51.1c3.6,0,6.4-3,6.4-6.7V14.6C64,10.9,61.1,8,57.6,8z M6.5,14
		h51.1c0.5,0,0.4,0,0.4,0.6V21H6v-6.4C6,14,6,14,6.5,14z M57.6,50H6.5C6,50,6,49.9,6,49.3V27h52v22.3C58,49.9,58,50,57.6,50z"/>
	<rect x="11" y="37" width="10" height="6"/>
	<rect x="27" y="37" width="26" height="6"/>
</g>
</svg>
