<?xml version="1.0" encoding="iso-8859-1"?>
<!-- Generator: Adobe Illustrator 16.0.0, SVG Export Plug-In . SVG Version: 6.00 Build 0)  -->
<!DOCTYPE svg PUBLIC "-//W3C//DTD SVG 1.1//EN" "http://www.w3.org/Graphics/SVG/1.1/DTD/svg11.dtd">
<svg version="1.1" id="Layer_1" xmlns="http://www.w3.org/2000/svg" xmlns:xlink="http://www.w3.org/1999/xlink" x="0px" y="0px"
	 width="512px" height="512px" viewBox="0 0 512 512" style="enable-background:new 0 0 512 512;" xml:space="preserve">
<g>
	<g>
		<polygon points="255.486,344.801 125.429,214.729 156.457,183.7 255.486,282.758 355.543,182.7 386.572,213.729 		"/>
	</g>
	<g>
		<path d="M256,512C114.843,512,0,397.143,0,256C0,114.843,114.843,0,256,0c141.143,0,256,114.843,256,256
			C512,397.143,397.143,512,256,512z M256,43.886C139.043,43.886,43.886,139.043,43.886,256
			c0,116.972,95.157,212.114,212.114,212.114c116.972,0,212.114-95.143,212.114-212.114C468.114,139.043,372.972,43.886,256,43.886z
			"/>
	</g>
</g>
</svg>
