<?xml version="1.0" encoding="utf-8"?>
<!-- Generator: Adobe Illustrator 18.0.0, SVG Export Plug-In . SVG Version: 6.00 Build 0)  -->
<!DOCTYPE svg PUBLIC "-//W3C//DTD SVG 1.1//EN" "http://www.w3.org/Graphics/SVG/1.1/DTD/svg11.dtd">
<svg version="1.1" id="Layer_1" xmlns="http://www.w3.org/2000/svg" xmlns:xlink="http://www.w3.org/1999/xlink" x="0px" y="0px"
	 viewBox="0 0 64 64" enable-background="new 0 0 64 64" xml:space="preserve">
<g>
	<path fill="none" d="M43.9,16h7.2L43,7.5v7.1C43,15.4,43.5,16,43.9,16z"/>
	<path fill="none" d="M43.9,21c-3.5,0-6.9-2.8-6.9-6.3V5H11.8C11.2,5,11,5.8,11,6.3v51.3c0,0.6,0.2,1.3,0.8,1.3h40.4
		c0.6,0,0.8-0.8,0.8-1.3V21H43.9z"/>
	<path d="M42.7,0H11.8C8.2,0,5,2.8,5,6.3v51.3c0,3.5,3.2,6.3,6.8,6.3h40.4c3.6,0,6.8-2.8,6.8-6.3V16L42.7,0z M43,7.5l8.1,8.5h-7.2
		c-0.4,0-0.9-0.6-0.9-1.3V7.5z M52.2,59H11.8c-0.6,0-0.8-0.8-0.8-1.3V6.3C11,5.8,11.2,5,11.8,5H37v9.7c0,3.6,3.4,6.3,6.9,6.3H53
		v36.7C53,58.2,52.8,59,52.2,59z"/>
</g>
</svg>
