<?xml version="1.0" encoding="utf-8"?>
<!-- Generator: Adobe Illustrator 18.0.0, SVG Export Plug-In . SVG Version: 6.00 Build 0)  -->
<!DOCTYPE svg PUBLIC "-//W3C//DTD SVG 1.1//EN" "http://www.w3.org/Graphics/SVG/1.1/DTD/svg11.dtd">
<svg version="1.1" id="Layer_1" xmlns="http://www.w3.org/2000/svg" xmlns:xlink="http://www.w3.org/1999/xlink" x="0px" y="0px"
	 viewBox="0 0 64 64" enable-background="new 0 0 64 64" xml:space="preserve">
<path d="M61,7.6c-0.2-1.4-1.3-2.3-2.6-2.3l-1,0L56.8,6c0,0-2.5,2-11.6,2c-4.6,0-7.5-1.7-10.8-3.6C31,2.3,27.1,0,21.2,0
	C9.6,0,3.7,7,3.4,7.3L3,8v19.2v22V64h5V42.6c1-1.5,5.8-5.3,13.4-5.3c4.6,0,7.4,1.7,10.7,3.6c3.4,2,7.2,4.3,13.1,4.3
	c9.2,0,14.7-4.3,14.9-4.5L61,40V8L61,7.6z M56,37.3c-2,1-5.5,2.8-10.8,2.8c-4.5,0-7.3-1.7-10.5-3.6c-3.4-2.1-7.2-4.4-13.3-4.4
	c-6,0-10.4,1.9-13.4,3.9v-8.9V10c1-1.4,6-4.9,13.3-4.9c4.5,0,7.3,1.7,10.6,3.6c3.5,2,7.4,4.4,13.4,4.4c5,0,8.7-0.6,10.7-1.3V37.3z"
	/>
</svg>
