<?xml version="1.0" encoding="iso-8859-1"?>
<!-- Generator: Adobe Illustrator 16.0.0, SVG Export Plug-In . SVG Version: 6.00 Build 0)  -->
<!DOCTYPE svg PUBLIC "-//W3C//DTD SVG 1.1//EN" "http://www.w3.org/Graphics/SVG/1.1/DTD/svg11.dtd">
<svg version="1.1" id="Layer_1" xmlns="http://www.w3.org/2000/svg" xmlns:xlink="http://www.w3.org/1999/xlink" x="0px" y="0px"
	 width="512px" height="512px" viewBox="0 0 512 512" style="enable-background:new 0 0 512 512;" xml:space="preserve">
<path d="M509.441,226.419c4.729-14.261,2.844-28.826-5.223-39.968c-8.037-11.127-21.238-17.51-36.268-17.51h-34.73v-37.864
	c0-27.593-17.845-45.423-45.438-45.423H238.908V57.046c0-27.607-17.844-45.437-45.437-45.437H54.666
	c-31.162,0-54.664,19.526-54.664,45.437v388.681c0,27.622,27.07,54.664,54.664,54.664h333.117c15.958,0,29.421-8.937,37.486-23.038
	l0.639,0.203l1.857-5.57c1.422-3.221,2.523-6.645,3.395-10.242L509.441,226.419z M389.495,445.727h-0.842
	c0,1.625-0.29,2.728-0.493,4.033l-2.002,6.064H60.498l62.266-230.102c1.653-6.049,9.69-12.215,15.957-12.215l328.012,0.159
	L389.495,445.727z M54.666,56.176h138.806c0.319,0,0.609,0,0.841,0.015c0.029,0.261,0.029,0.551,0.029,0.855v73.175h193.441
	c0.318,0,0.609,0,0.842,0.015c0.028,0.262,0.028,0.537,0.028,0.842v37.864H138.721c-26.229,0-52.109,19.831-58.957,45.146
	L44.568,344.176V131.077l-0.754-71.928C44.742,58.134,49.037,56.176,54.666,56.176z"/>
</svg>
