<?xml version="1.0" encoding="iso-8859-1"?>
<!-- Generator: Adobe Illustrator 16.0.0, SVG Export Plug-In . SVG Version: 6.00 Build 0)  -->
<!DOCTYPE svg PUBLIC "-//W3C//DTD SVG 1.1//EN" "http://www.w3.org/Graphics/SVG/1.1/DTD/svg11.dtd">
<svg version="1.1" id="Layer_1" xmlns="http://www.w3.org/2000/svg" xmlns:xlink="http://www.w3.org/1999/xlink" x="0px" y="0px"
	 width="512px" height="512px" viewBox="0 0 512 512" style="enable-background:new 0 0 512 512;" xml:space="preserve">
<path d="M465.656,78.031H248.688V46.344C248.688,18.188,230.5,0,202.344,0H56.062C24.094,0,0,19.906,0,46.344v409.562
	C0,484.219,27.781,512,56.062,512h409.594C492.094,512,512,487.906,512,455.906V124.344C512,96.219,493.812,78.031,465.656,78.031z
	 M56.062,43.906h146.281c1.031-0.031,1.875,0,2.312,0c0.094,0.594,0.156,1.375,0.156,2.438v75.562h260.844
	c1.031,0,1.875,0,2.312,0.031c0.094,0.594,0.156,1.344,0.156,2.406v41.438H43.875v-41.438l-0.406-76.812
	C44.312,46.469,49.188,43.906,56.062,43.906z M464.875,468.094H56.062c-4.062,0-12.156-8.094-12.188-12.188v-246.25h424.25v246.25
	C468.125,462.094,466.062,466.594,464.875,468.094z"/>
</svg>
