<?xml version="1.0" encoding="utf-8"?>
<!-- Generator: Adobe Illustrator 18.0.0, SVG Export Plug-In . SVG Version: 6.00 Build 0)  -->
<!DOCTYPE svg PUBLIC "-//W3C//DTD SVG 1.1//EN" "http://www.w3.org/Graphics/SVG/1.1/DTD/svg11.dtd">
<svg version="1.1" id="Layer_1" xmlns="http://www.w3.org/2000/svg" xmlns:xlink="http://www.w3.org/1999/xlink" x="0px" y="0px"
	 viewBox="0 0 64 64" enable-background="new 0 0 64 64" xml:space="preserve">
<g>
	<path d="M48.2,63.9H8c-4.3,0-7.8-3.6-7.8-8V9c0-5,4-9,8.9-9h15.3C28.6,0,32,3.5,32,8v2.7l16.2,0c4,0,7.8,3.9,7.8,8v2.6l4,0
		c1.3,0,2.4,0.6,3.2,1.6c0.7,1,1,2.3,0.6,3.5L53,60.3C52.4,62.4,50.4,63.9,48.2,63.9z M7.4,58.6c0.2,0,0.4,0.1,0.6,0.1H48l10.2-32.1
		l-42.1,0.1c0,0-0.1,0-0.1,0.1L7.4,58.6z M9,5.3C7,5.3,5.4,6.9,5.4,9v36.8L11,25.2c0.7-2.3,2.8-3.9,5.2-3.9l34.6,0v-2.6
		c0-1.3-1.5-2.7-2.6-2.7l-21.4,0V8c0-1.7-1.3-2.7-2.5-2.7H9z"/>
</g>
</svg>
