<?xml version="1.0" encoding="utf-8"?>
<!-- Generator: Adobe Illustrator 18.0.0, SVG Export Plug-In . SVG Version: 6.00 Build 0)  -->
<!DOCTYPE svg PUBLIC "-//W3C//DTD SVG 1.1//EN" "http://www.w3.org/Graphics/SVG/1.1/DTD/svg11.dtd">
<svg version="1.1" id="Layer_1" xmlns="http://www.w3.org/2000/svg" xmlns:xlink="http://www.w3.org/1999/xlink" x="0px" y="0px"
	 viewBox="0 0 64 64" enable-background="new 0 0 64 64" xml:space="preserve">
<g>
	<polygon points="35,54.4 35,35 29,35 29,54.4 19.4,45.5 15.9,49.5 32,64 48,49.5 44.6,45.5 	"/>
	<path d="M56.1,13H45V8c0-4.1-3.5-8-7.6-8H7.9C3.8,0,0,3.9,0,8v34.8C0,47,3.8,51,7.9,51H11v-6H7.9C6.7,45,5,44,5,42.8V8
		c0-1.2,1.7-3,2.9-3h29.4C38.5,5,40,6.8,40,8v11h16.1c1.2,0,2.9,1.2,2.9,2.3v21.5c0,1.2-1.5,2.6-2.7,2.6l-2.8,0l0,5.4l2.7,0
		c4.2,0,7.9-3.8,7.9-8V21.3C64,17.3,60.2,13,56.1,13z"/>
</g>
</svg>
