<?xml version="1.0" encoding="utf-8"?>
<!-- Generator: Adobe Illustrator 18.0.0, SVG Export Plug-In . SVG Version: 6.00 Build 0)  -->
<!DOCTYPE svg PUBLIC "-//W3C//DTD SVG 1.1//EN" "http://www.w3.org/Graphics/SVG/1.1/DTD/svg11.dtd">
<svg version="1.1" id="Layer_1" xmlns="http://www.w3.org/2000/svg" xmlns:xlink="http://www.w3.org/1999/xlink" x="0px" y="0px"
	 viewBox="0 0 64 64" enable-background="new 0 0 64 64" xml:space="preserve">
<g>
	<path fill="none" d="M42.6,40.2c1.5,0,2.8-1.3,2.8-2.8c0-1.5-1.2-2.8-2.8-2.8c-1.5,0-2.8,1.2-2.8,2.8C39.9,39,41.1,40.2,42.6,40.2z
		"/>
	<path fill="none" d="M21.3,40.2c1.5,0,2.8-1.3,2.8-2.8c0-1.5-1.2-2.8-2.8-2.8c-1.5,0-2.8,1.2-2.8,2.8C18.5,39,19.8,40.2,21.3,40.2z
		"/>
	<path fill="none" d="M59,21v-2.3c0-1.1-1.6-2.7-2.7-2.7l-29.3,0V8c0-1.1-1.7-2.7-2.8-2.7l-16.3,0C6.7,5.3,5,6.8,5,8v13H59z"/>
	<path fill="none" d="M5,26v30.2c0,1,1.8,2.8,3,2.8H56c1.2,0,3-1.9,3-3V26H5z M50.6,53c0-3-4.2-7.4-8-7.4c-3.8,0-8,4.4-8,7.4h-0.1
		h-5.3h-0.1c0-3-4.2-7.4-8-7.4c-3.8,0-8,4.4-8,7.4H8c0-4,2.9-8.4,6.9-10.7c-1.1-1.4-1.7-3-1.7-4.9c0-4.5,3.6-8.1,8.1-8.1
		c4.5,0,8.1,3.7,8.1,8.1c0,1.9-0.6,3.6-1.7,5c1.6,1,3.1,2.3,4.3,3.8c1.2-1.5,2.6-2.8,4.3-3.8c-1.1-1.4-1.7-3.1-1.7-5
		c0-4.5,3.6-8.1,8.1-8.1c4.5,0,8.1,3.6,8.1,8.1c0,1.9-0.6,3.4-1.7,4.8C53,44.6,56,49,56,53H50.6z"/>
	<path d="M56,10.7l-24,0V8c0-4.1-3.9-8-8-8L8,0C3.8,0,0,3.8,0,8v48.2c0,4,3.9,7.8,8,7.8H56c4.1,0,8-3.9,8-8V18.7
		C64,14.7,60,10.7,56,10.7z M7.8,5.3l16.3,0C25.2,5.4,27,6.9,27,8v8l29.3,0c1.1,0,2.7,1.6,2.7,2.7V21H5V8C5,6.8,6.6,5.3,7.8,5.3z
		 M56,59H8c-1.2,0-3-1.9-3-2.8V26h54v30C59,57.1,57.2,59,56,59z"/>
	<path d="M49.1,42.3c1.1-1.4,1.7-3,1.7-4.9c0-4.5-3.6-8.1-8.1-8.1c-4.5,0-8.1,3.7-8.1,8.1c0,1.9,0.6,3.6,1.7,5
		c-1.6,1-3.1,2.3-4.3,3.8c-1.2-1.5-2.6-2.8-4.3-3.8c1.1-1.4,1.7-3.1,1.7-5c0-4.5-3.6-8.1-8.1-8.1c-4.5,0-8.1,3.6-8.1,8.1
		c0,1.9,0.6,3.4,1.7,4.8C10.9,44.6,8,49,8,53h5.3c0-3,4.2-7.4,8-7.4c3.8,0,8,4.4,8,7.4h0.1h5.3h0.1c0-3,4.2-7.4,8-7.4
		c3.8,0,8,4.4,8,7.4H56C56,49,53,44.6,49.1,42.3z M21.3,34.7c1.5,0,2.8,1.2,2.8,2.8c0,1.5-1.2,2.8-2.8,2.8c-1.5,0-2.8-1.3-2.8-2.8
		C18.5,35.9,19.8,34.7,21.3,34.7z M42.6,34.7c1.5,0,2.8,1.2,2.8,2.8c0,1.5-1.2,2.8-2.8,2.8c-1.5,0-2.8-1.3-2.8-2.8
		C39.9,35.9,41.1,34.7,42.6,34.7z"/>
</g>
</svg>
