<?xml version="1.0" encoding="utf-8"?>
<!-- Generator: Adobe Illustrator 18.0.0, SVG Export Plug-In . SVG Version: 6.00 Build 0)  -->
<!DOCTYPE svg PUBLIC "-//W3C//DTD SVG 1.1//EN" "http://www.w3.org/Graphics/SVG/1.1/DTD/svg11.dtd">
<svg version="1.1" id="Layer_1" xmlns="http://www.w3.org/2000/svg" xmlns:xlink="http://www.w3.org/1999/xlink" x="0px" y="0px"
	 viewBox="0 0 64 64" enable-background="new 0 0 64 64" xml:space="preserve">
<g>
	<path fill="none" d="M5,26v30.2c0,1,1.8,2.8,2.9,2.8H56c1.2,0,3-1.9,3-3V26H5z M53,53H40.7c-1.4,0-2.6-0.5-3.1-1.7
		c-0.5-1.2-0.3-2.4,0.7-3.5l7-7.8H37v-5h12.9c1.4,0,2.6,0.5,3.1,1.7c0.5,1.2,0.3,2.4-0.7,3.5l-7,7.8H53V53z"/>
	<path fill="none" d="M59,21v-2.3c0-1.1-1.6-2.7-2.7-2.7l-29.3,0V8c0-1.1-1.7-2.7-2.8-2.7l-16.3,0C6.7,5.3,5,6.8,5,8v13H59z"/>
	<path d="M52.4,40.1c0.9-1.1,1.2-2.2,0.7-3.4c-0.5-1.2-1.7-1.7-3.1-1.7H37v5h8.3l-7,7.9c-0.9,1.1-1.2,2.2-0.7,3.4
		c0.5,1.2,1.7,1.7,3.1,1.7H53v-5h-7.7L52.4,40.1z"/>
	<path d="M56,10.7l-24,0V8c0-4.1-3.9-8-8-8L8,0C3.8,0,0,3.8,0,8v48.2c0,4,3.9,7.8,7.9,7.8H56c4.1,0,8-3.9,8-8V18.7
		C64,14.7,60,10.7,56,10.7z M7.8,5.3l16.3,0C25.2,5.4,27,6.9,27,8v8l29.3,0c1.1,0,2.7,1.6,2.7,2.7V21H5V8C5,6.8,6.6,5.3,7.8,5.3z
		 M56,59H7.9C6.8,59,5,57.1,5,56.2V26h54v30C59,57.1,57.2,59,56,59z"/>
</g>
</svg>
