<?xml version="1.0" encoding="iso-8859-1"?>
<!-- Generator: Adobe Illustrator 16.0.0, SVG Export Plug-In . SVG Version: 6.00 Build 0)  -->
<!DOCTYPE svg PUBLIC "-//W3C//DTD SVG 1.1//EN" "http://www.w3.org/Graphics/SVG/1.1/DTD/svg11.dtd">
<svg version="1.1" id="Layer_1" xmlns="http://www.w3.org/2000/svg" xmlns:xlink="http://www.w3.org/1999/xlink" x="0px" y="0px"
	 width="512px" height="512px" viewBox="0 0 512 512" style="enable-background:new 0 0 512 512;" xml:space="preserve">
<g>
	<g>
		<g>
			<path d="M256.028,477.236l-44.114-0.058C77.229,477.179,0,401.465,0,269.479c0-40.457,12-74.914,36.6-105
				c-2.485-25.843,2.486-72.329,19.115-114.186l6.171-15.529l16.628,1.814c2.029,0.229,48.744,5.814,117.771,51.229
				c21.457-4.028,48.086-4.514,59.715-4.514s38.258,0.485,59.715,4.514c69.027-45.414,115.771-51,117.799-51.229l16.629-1.814
				l6.172,15.529c16.629,41.843,21.6,88.343,19.086,114.186c24.6,30.086,36.6,64.557,36.6,105c0,131.986-77.229,207.7-211.914,207.7
				L256.028,477.236z M90.314,84.25c-11.715,38.742-11.114,73.371-9.6,79.742l5.256,12.886l-9.856,8.986
				c-22,23.886-32.229,50.457-32.229,83.614c0,108.7,56.543,163.814,168.028,163.814L256,433.35l44.086-0.057
				c111.485,0,168.028-55.114,168.028-163.814c0-33.157-10.229-59.729-32.229-83.614l-9.429-10.229l5.229-12.886
				c1.172-5.3,1.715-39.786-9.971-78.515c-17.943,5.457-49.4,17.843-89.172,45.143l-8.429,5.786l-9.856-2.729
				c-23.486-6.485-93.029-6.485-116.516,0l-9.856,2.729l-8.429-5.786C139.715,102.106,108.314,89.707,90.314,84.25z"/>
		</g>
		<path d="M166.742,260.992c10.857,0,23.372,0.887,36.629,1.814c15.686,1.115,33.429,2.372,51.887,2.372c0.113,0,0.229,0,0.342,0
			h0.029h1.113c18.458,0,36.229-1.257,51.887-2.372c13.285-0.928,25.8-1.814,36.686-1.814c22.114,0,28.857,3.814,31.971,6.687
			c9.372,8.614,13.543,18.028,13.543,30.528c0,40.629-9.028,65.285-134.086,65.285h-1.484c-125.058,0-134.086-24.656-134.086-65.285
			c0-12.5,4.171-21.914,13.543-30.514C137.828,264.821,144.571,260.992,166.742,260.992 M345.285,217.106
			c-26.171,0-56.371,4.187-88.543,4.187c-0.229,0-0.457-0.015-0.742-0.029c-0.229,0.015-0.514,0.029-0.742,0.029
			c-32.144,0-62.344-4.187-88.516-4.187c-24.742,0-45.885,3.729-61.714,18.258c-19.515,17.929-27.743,39.558-27.743,62.843
			c0,97.229,77.915,109.172,177.973,109.172h1.484c100.058,0,177.973-11.943,177.973-109.172c0-23.285-8.229-44.914-27.744-62.843
			C391.172,220.836,370.028,217.106,345.285,217.106L345.285,217.106z"/>
	</g>
	<path d="M200.543,310.979c0,12.801-10.371,23.172-23.172,23.172c-12.8,0-23.171-10.371-23.171-23.172
		c0-12.8,10.371-23.172,23.171-23.172C190.172,287.807,200.543,298.179,200.543,310.979z"/>
	<path d="M360.258,310.979c0,12.801-10.372,23.172-23.172,23.172c-12.801,0-23.172-10.371-23.172-23.172
		c0-12.8,10.371-23.172,23.172-23.172C349.886,287.807,360.258,298.179,360.258,310.979z"/>
</g>
</svg>
