<?xml version="1.0" encoding="utf-8"?>
<!-- Generator: Adobe Illustrator 18.0.0, SVG Export Plug-In . SVG Version: 6.00 Build 0)  -->
<!DOCTYPE svg PUBLIC "-//W3C//DTD SVG 1.1//EN" "http://www.w3.org/Graphics/SVG/1.1/DTD/svg11.dtd">
<svg version="1.1" id="Layer_1" xmlns="http://www.w3.org/2000/svg" xmlns:xlink="http://www.w3.org/1999/xlink" x="0px" y="0px"
	 viewBox="0 0 64 64" enable-background="new 0 0 64 64" xml:space="preserve">
<g>
	<g>
		<path d="M32,61.5L32,61.5c-2.3,0-4.4,0-5.5,0c-7.4,0-26.5-4.3-26.5-24c0-5.3,2.3-12,5.3-16C4.9,17.8,5,10.4,7.1,5L8,2.8l2.3,0.6
			c0.4,0.1,8.4,2.2,13.7,7.4c2.2-0.3,5.1-0.3,8.1-0.3c3.7,0,6.3,0.1,8,0.3c5.3-5.2,13.3-7.3,13.7-7.4L56,2.8L56.9,5
			c1.5,3.8,1.9,8.1,2,11c0.1,1.8,0,3.9-0.2,5.5c3.1,4,5.4,10.8,5.4,16.1c0,19.6-19.1,23.9-26.5,23.9C36.5,61.5,34.3,61.5,32,61.5z
			 M10.7,21.2l0.6,1.5L10.2,24c-2.3,2.5-4.8,8.6-4.8,13.5c0,18.4,20.9,18.7,21.2,18.7c1.1,0,3.2,0,5.5,0c2.3,0,4.4,0,5.5,0
			c2.4,0,7.7-0.7,12.4-3.3c5.8-3.2,8.7-8.4,8.7-15.3c0-4.4-2.3-10.7-4.8-13.5l-1.1-1.2l0.6-1.5c0.3-1.2,0.6-7-0.6-11.9
			c-2.7,1-7,3-9.7,6.1l-1.1,1.3l-1.6-0.4c-1.1-0.3-3.9-0.5-8.3-0.5c-2.2,0-6.7,0-8.3,0.4l-1.6,0.4L21,15.4c-2.7-3.1-7-5.1-9.7-6.1
			C10.1,14.3,10.4,20.1,10.7,21.2z"/>
	</g>
	<g>
		<path d="M45.3,37.5c0,1.5-1.1,2.7-2.6,2.7c-1.4,0-2.7-1.2-2.7-2.7c0-1.5,1.2-2.6,2.7-2.6C44.2,34.8,45.3,36,45.3,37.5z"/>
	</g>
	<g>
		<path d="M24,37.5c0,1.5-1.1,2.7-2.6,2.7c-1.4,0-2.7-1.2-2.7-2.7c0-1.5,1.2-2.6,2.7-2.6C22.9,34.8,24,36,24,37.5z"/>
	</g>
	<g>
		<g>
			<path d="M43.3,26.9v5.3c2.3,0,2.7,0.5,2.9,0.6c1.5,1.4,1.7,3.4,1.7,4.4c0,4.7-1.6,5.9-3.1,6.6c-3,1.5-8.1,1.7-12.7,1.7h-0.2
				c-4.6,0-9.7-0.2-12.7-1.7c-1.5-0.7-3.1-1.9-3.1-6.6c0-1.6,0.7-3.1,1.9-4.3c0.2-0.2,0.7-0.7,3.1-0.7c1.3,0,2.7,0.1,4.3,0.3
				c2,0.2,4.2,0.4,6.5,0.4c0,0,0.1,0,0.1,0c0,0,0.1,0,0.1,0c2.4,0,4.7-0.2,6.7-0.4c1.6-0.2,3.2-0.3,4.5-0.3L43.3,26.9 M43.3,26.9
				c-3.3,0-7.1,0.7-11.2,0.7c0,0-0.1,0-0.1,0c0,0-0.1,0-0.1,0c-4,0-7.7-0.6-10.8-0.6c-2.7,0-5,0.5-6.8,2.2c-2.3,2.3-3.5,5.2-3.5,8.1
				c0,12.3,9.3,13.6,21.1,13.6h0.2c11.9,0,21.1-1.3,21.1-13.6c0-2.9-1-6-3.3-8.3C48.2,27.3,45.9,26.9,43.3,26.9L43.3,26.9z"/>
		</g>
	</g>
</g>
</svg>
