<?xml version="1.0" encoding="utf-8"?>
<!-- Generator: Adobe Illustrator 18.0.0, SVG Export Plug-In . SVG Version: 6.00 Build 0)  -->
<!DOCTYPE svg PUBLIC "-//W3C//DTD SVG 1.1//EN" "http://www.w3.org/Graphics/SVG/1.1/DTD/svg11.dtd">
<svg version="1.1" id="Layer_1" xmlns="http://www.w3.org/2000/svg" xmlns:xlink="http://www.w3.org/1999/xlink" x="0px" y="0px"
	 viewBox="0 0 64 64" enable-background="new 0 0 64 64" xml:space="preserve">
<g>
	<path fill="none" d="M30.2,6.1L16,20.1V59h8V34.6c0-1.5,1.2-2.6,2.7-2.6h10.7c1.5,0,2.6,1.1,2.6,2.6V59h8V20L33.9,6.1
		C32.8,5.1,31.2,5.1,30.2,6.1z"/>
	<path d="M63.3,27.5L37.7,2.3c-3.1-3.1-8.2-3.1-11.3,0L0.8,27.5l3.9,3.8l6.2-6v36c0,1.5,0.9,2.7,2.3,2.7h13.4c1.5,0,2.3-1.2,2.3-2.7
		V37h6v24.3c0,1.5,0.9,2.7,2.4,2.7h13.4c1.5,0,2.3-1.2,2.3-2.7v-36l6.3,6L63.3,27.5z M48,59h-8V34.6c0-1.5-1.1-2.6-2.6-2.6H26.7
		c-1.5,0-2.7,1.1-2.7,2.6V59h-8V20.1l14.2-14c1-1,2.7-1,3.7,0L48,20V59z"/>
</g>
</svg>
