<?xml version="1.0" encoding="utf-8"?>
<!-- Generator: Adobe Illustrator 18.0.0, SVG Export Plug-In . SVG Version: 6.00 Build 0)  -->
<!DOCTYPE svg PUBLIC "-//W3C//DTD SVG 1.1//EN" "http://www.w3.org/Graphics/SVG/1.1/DTD/svg11.dtd">
<svg version="1.1" id="Layer_1" xmlns="http://www.w3.org/2000/svg" xmlns:xlink="http://www.w3.org/1999/xlink" x="0px" y="0px"
	 viewBox="0 0 64 64" enable-background="new 0 0 64 64" xml:space="preserve">
<g>
	<circle cx="48.2" cy="32" r="5.4"/>
	<path d="M47.9,21.3c5.9,0,10.7,4.8,10.7,10.7s-4.8,10.7-10.7,10.7c-4,0-7.5-2.2-9.3-5.4l-6.4,0l-5.4-4l-5.4,4l-5.2-4l-5.3,4l-0.2,0
		l-5.4-4l5.3-4l24.9,0l1.9,0C38.7,24.7,42.9,21.3,47.9,21.3 M47.9,15.9c-5.9,0-11.1,3.2-14,8.1l-23.2,0c0,0,0,0,0,0
		c-1.2,0-2.3,0.4-3.2,1.1l-5.3,4c-1.3,1-2.1,2.6-2.1,4.3c0,1.7,0.8,3.3,2.2,4.3l5.4,4.1c0.9,0.7,2,1.2,3.2,1.2c0,0,0,0,0.1,0
		l0.2-0.1c1.2,0,2.3-0.5,3.2-1.2l2-1.6l2,1.5c1,0.7,2.1,1.1,3.3,1.1c1.1,0,2.3-0.4,3.2-1.1l2.1-1.6l2.1,1.6c0.9,0.7,2,1.1,3.2,1.1
		l3.8,0c3,3.4,7.4,5.4,12,5.4C56.8,48.1,64,40.9,64,32S56.8,15.9,47.9,15.9L47.9,15.9z"/>
</g>
</svg>
