<?xml version="1.0" encoding="utf-8"?>
<!-- Generator: Adobe Illustrator 18.0.0, SVG Export Plug-In . SVG Version: 6.00 Build 0)  -->
<!DOCTYPE svg PUBLIC "-//W3C//DTD SVG 1.1//EN" "http://www.w3.org/Graphics/SVG/1.1/DTD/svg11.dtd">
<svg version="1.1" id="Layer_1" xmlns="http://www.w3.org/2000/svg" xmlns:xlink="http://www.w3.org/1999/xlink" x="0px" y="0px"
	 viewBox="0 0 64 64" enable-background="new 0 0 64 64" xml:space="preserve">
<g>
	<polygon fill="none" points="19.8,40.2 9.9,30.1 5,25.2 5,55.7 	"/>
	<polygon fill="none" points="54.9,29 54.8,29 54,30 44.3,40 59,55.5 59,25.2 	"/>
	<path fill="none" d="M40.4,44.1l-5.6,5.7C34.1,50.5,33.1,51,32,51c0,0,0,0,0,0c-1.1,0-2.1-0.5-2.8-1.3l-4-4.1
		c-0.1-0.1-0.2-0.2-0.3-0.3l-1.2-1.1L9.9,59h44.5L40.4,44.1z"/>
	<path fill="none" d="M29.3,41.8c0.9,0.8,1.7,1.2,2.7,1.2h0c1.2,0,2.4-0.6,3.4-1.6l13.8-14.3L49,27V6.4C49,5.8,49.1,5,48.5,5h-33
		C14.9,5,15,5.8,15,6.4v20.6L29.3,41.8z M21,9h22v5H21V9z M21,19h22v6H21V19z"/>
	<path d="M57.6,19H55V6.4C55,2.9,52,0,48.5,0h-33C12,0,9,2.9,9,6.4V19H6.3C2.8,19,0,21.5,0,25v32.7C0,61.2,2.8,64,6.3,64h51.3
		c3.5,0,6.4-2.8,6.4-6.3V25C64,21.5,61.1,19,57.6,19z M10,30.1l9.7,10L5,55.7V25.2L10,30.1z M23.7,44.1l1.2,1.2
		c0.1,0.1,0.2,0.1,0.3,0.2l4,4.2c0.8,0.8,1.8,1.3,2.8,1.3c0,0,0,0,0,0c1.1,0,2.1-0.5,2.8-1.3l5.6-5.6L54.3,59H9.9L23.7,44.1z
		 M44.3,40.1L54.1,30l0.8-1h0l4.1-3.8v30.2L44.3,40.1z M15.5,5h33C49.1,5,49,5.8,49,6.4V27l0.2,0.1L35.3,41.4c-1,1-2.1,1.6-3.3,1.6
		h0c-1.1,0-1.8-0.4-2.7-1.2L15,26.9V6.4C15,5.8,14.9,5,15.5,5z"/>
	<rect x="21" y="9" width="22" height="5"/>
	<rect x="21" y="19" width="22" height="6"/>
</g>
</svg>
