<?xml version="1.0" encoding="utf-8"?>
<!-- Generator: Adobe Illustrator 18.0.0, SVG Export Plug-In . SVG Version: 6.00 Build 0)  -->
<!DOCTYPE svg PUBLIC "-//W3C//DTD SVG 1.1//EN" "http://www.w3.org/Graphics/SVG/1.1/DTD/svg11.dtd">
<svg version="1.1" id="Layer_1" xmlns="http://www.w3.org/2000/svg" xmlns:xlink="http://www.w3.org/1999/xlink" x="0px" y="0px"
	 viewBox="0 0 64 64" enable-background="new 0 0 64 64" xml:space="preserve">
<g>
	<path d="M37.8,50.9H7.6c-4.3,0-7.7-3.5-7.7-7.7V31.6c0-4.3,3.5-7.7,7.7-7.7h30.2c4.3,0,7.7,3.5,7.7,7.7v11.5
		C45.5,47.4,42.1,50.9,37.8,50.9z M7.6,29.3c-1.3,0-2.3,1-2.3,2.3v11.5c0,1.3,1,2.3,2.3,2.3h30.2c1.3,0,2.3-1,2.3-2.3V31.6
		c0-1.3-1-2.3-2.3-2.3H7.6z"/>
</g>
<g>
	<path d="M56.3,40.1H26.8c-4.3,0-7.7-3.5-7.7-7.7v-11c0-4.3,3.5-7.7,7.7-7.7h29.5c4.3,0,7.7,3.5,7.7,7.7v11
		C64,36.6,60.5,40.1,56.3,40.1z M26.8,19c-1.3,0-2.3,1-2.3,2.3v11c0,1.3,1,2.3,2.3,2.3h29.5c1.3,0,2.3-1,2.3-2.3v-11
		c0-1.3-1-2.3-2.3-2.3H26.8z"/>
</g>
</svg>
