<?xml version="1.0" encoding="utf-8"?>
<!-- Generator: Adobe Illustrator 18.0.0, SVG Export Plug-In . SVG Version: 6.00 Build 0)  -->
<!DOCTYPE svg PUBLIC "-//W3C//DTD SVG 1.1//EN" "http://www.w3.org/Graphics/SVG/1.1/DTD/svg11.dtd">
<svg version="1.1" id="Layer_1" xmlns="http://www.w3.org/2000/svg" xmlns:xlink="http://www.w3.org/1999/xlink" x="0px" y="0px"
	 viewBox="0 0 64 64" enable-background="new 0 0 64 64" xml:space="preserve">
<g>
	<g>
		<path d="M32,64C16.3,64,2.6,52.5,0.3,36.5C-1.1,26.8,2,17.2,8.7,10l3.9,3.7c-5.6,5.9-8.2,14-7,22.1c2.1,14.6,15.6,24.7,30.2,22.6
			c7.1-1,13.3-4.7,17.6-10.4s6.1-12.7,5.1-19.8C56.5,15.2,45.5,5.6,32.6,5.3l4.3,6.5l-4.5,2.9L25.6,4.4c-0.5-0.8-0.6-1.7-0.2-2.6
			c0.4-0.8,1.2-1.4,2.1-1.5c0.5-0.1,1.1-0.1,1.6-0.2c17-1.6,32.2,10.5,34.6,27.4c1.2,8.5-1,16.9-6.1,23.7S45,62.5,36.5,63.7
			C35,63.9,33.5,64,32,64z"/>
	</g>
</g>
</svg>
