<?xml version="1.0" encoding="iso-8859-1"?>
<!-- Generator: Adobe Illustrator 16.0.0, SVG Export Plug-In . SVG Version: 6.00 Build 0)  -->
<!DOCTYPE svg PUBLIC "-//W3C//DTD SVG 1.1//EN" "http://www.w3.org/Graphics/SVG/1.1/DTD/svg11.dtd">
<svg version="1.1" id="Layer_1" xmlns="http://www.w3.org/2000/svg" xmlns:xlink="http://www.w3.org/1999/xlink" x="0px" y="0px"
	 width="512px" height="512px" viewBox="0 0 512 512" style="enable-background:new 0 0 512 512;" xml:space="preserve">
<g>
	<g>
		<path d="M157.097,211.704l-126.312-1.625c-6.906-0.078-13.359-3.422-17.422-9c-4.078-5.562-5.281-12.719-3.281-19.328
			c19.953-65.5,64.234-119.312,124.672-151.516C195.207-1.952,264.581-8.718,330.05,11.267
			c84.047,25.578,148.422,91.438,172.219,176.172l-42.234,11.844C440.3,129.048,386.925,74.438,317.269,53.235
			c-54.266-16.547-111.765-10.953-161.89,15.719c-41.203,21.969-73.328,56.031-92.656,97.656l94.953,1.203L157.097,211.704z"/>
	</g>
	<g>
		<path d="M257.004,512.001c-25.11,0-50.36-3.734-75.063-11.266C97.878,475.126,33.519,409.267,9.738,324.563l42.234-11.859
			c19.719,70.219,73.094,124.828,142.766,146.062c54.25,16.578,111.75,10.969,161.875-15.719
			c41.484-22.125,73.797-56.531,93.078-98.562L351.3,340.36l1.859-43.859l128.688,5.422c6.781,0.281,13.047,3.688,16.969,9.234
			c3.938,5.547,5.078,12.578,3.094,19.078c-19.953,65.5-64.234,119.328-124.672,151.531
			C339.597,501.813,298.472,512.001,257.004,512.001z"/>
	</g>
</g>
</svg>
