<?xml version="1.0" encoding="utf-8"?>
<!-- Generator: Adobe Illustrator 18.0.0, SVG Export Plug-In . SVG Version: 6.00 Build 0)  -->
<!DOCTYPE svg PUBLIC "-//W3C//DTD SVG 1.1//EN" "http://www.w3.org/Graphics/SVG/1.1/DTD/svg11.dtd">
<svg version="1.1" id="Layer_1" xmlns="http://www.w3.org/2000/svg" xmlns:xlink="http://www.w3.org/1999/xlink" x="0px" y="0px"
	 viewBox="0 0 64 64" enable-background="new 0 0 64 64" xml:space="preserve">
<g>
	<path d="M3.8,26.7c-0.7,0-1.5-0.3-2-0.9c-0.6-0.7-0.8-1.6-0.6-2.5C5.1,9.6,17.8,0.1,32,0.1c0,0,0,0,0,0c14.2,0,26.9,9.6,30.8,23.3
		l-5.1,1.4C54.4,13.4,43.9,5.4,32,5.4c0,0,0,0,0,0c-10.4,0-19.7,6.1-24.1,15.2l10.2-1.8l0.9,5.2L4.3,26.7C4.1,26.7,4,26.7,3.8,26.7z
		"/>
</g>
<g>
	<path d="M32,64C32,64,32,64,32,64C17.8,64,5.1,54.4,1.2,40.8l5.1-1.5C9.6,50.7,20.1,58.7,32,58.7c0,0,0,0,0,0
		c10.3,0,19.7-6.1,24-15.2l-10.3,1.8l-0.9-5.2l14.9-2.7c0.9-0.2,1.8,0.2,2.4,0.8c0.6,0.7,0.8,1.6,0.6,2.5C58.9,54.5,46.2,64,32,64z"
		/>
</g>
</svg>
