<?xml version="1.0" encoding="utf-8"?>
<!-- Generator: Adobe Illustrator 18.0.0, SVG Export Plug-In . SVG Version: 6.00 Build 0)  -->
<!DOCTYPE svg PUBLIC "-//W3C//DTD SVG 1.1//EN" "http://www.w3.org/Graphics/SVG/1.1/DTD/svg11.dtd">
<svg version="1.1" id="Layer_1" xmlns="http://www.w3.org/2000/svg" xmlns:xlink="http://www.w3.org/1999/xlink" x="0px" y="0px"
	 viewBox="0 0 64 64" enable-background="new 0 0 64 64" xml:space="preserve">
<g>
	<g>
		<line fill="none" x1="45" y1="27" x2="19" y2="27"/>
	</g>
	<g>
		<path fill="none" d="M45,16c0-5.9-4.4-11-10.3-11h-5.3C23.4,5,19,10.1,19,16v5h26V16z"/>
	</g>
	<g>
		<path fill="none" d="M55.3,27h-42H8.7C8.3,27,8,27,8,27.3V58c0,0.4,0.3,1,0.7,1h46.7c0.4,0,0.7-0.6,0.7-1V27.3
			C56,27,55.7,27,55.3,27z"/>
	</g>
	<g>
		<path d="M55.3,21H51v-5c0-8.8-7.5-16-16.3-16h-5.3C20.5,0,13,7.2,13,16v5H8.7C5.4,21,3,24,3,27.3V58c0,3.3,2.4,6,5.7,6h46.7
			c3.3,0,5.7-2.7,5.7-6V27.3C61,24,58.6,21,55.3,21z M19,16c0-5.9,4.4-11,10.3-11h5.3C40.6,5,45,10.1,45,16v5H19V16z M56,58.3
			c0,0.4-0.3,0.7-0.7,0.7H8.7C8.3,59,8,58.7,8,58.3V27.7C8,27.3,8.3,27,8.7,27h46.7c0.4,0,0.7,0.3,0.7,0.7V58.3z"/>
	</g>
</g>
<g>
	<line fill="#FFFFFF" x1="18.6" y1="37.3" x2="45.4" y2="37.3"/>
	<rect x="18.6" y="34.7" width="26.7" height="5.3"/>
</g>
<g>
	<line fill="#FFFFFF" x1="18.6" y1="48" x2="45.4" y2="48"/>
	<rect x="18.6" y="45.4" width="26.7" height="5.3"/>
</g>
</svg>
