<?xml version="1.0" encoding="iso-8859-1"?>
<!-- Generator: Adobe Illustrator 16.0.0, SVG Export Plug-In . SVG Version: 6.00 Build 0)  -->
<!DOCTYPE svg PUBLIC "-//W3C//DTD SVG 1.1//EN" "http://www.w3.org/Graphics/SVG/1.1/DTD/svg11.dtd">
<svg version="1.1" id="Layer_1" xmlns="http://www.w3.org/2000/svg" xmlns:xlink="http://www.w3.org/1999/xlink" x="0px" y="0px"
	 width="512px" height="512px" viewBox="0 0 512 512" style="enable-background:new 0 0 512 512;" xml:space="preserve">
<g>
	<g>
		<path d="M255.955,511.993L105.987,362.054c-82.676-82.69-82.676-217.245,0-299.921c40.061-40.061,93.315-62.126,149.968-62.126
			c56.651,0,109.906,22.052,149.939,62.112c40.061,40.061,62.125,93.315,62.125,149.967c0,56.638-22.064,109.893-62.125,149.938
			L255.955,511.993z M255.955,43.127c-45.143,0-87.561,17.574-119.48,49.493c-65.859,65.874-65.859,173.058,0,238.945
			l119.48,119.452l119.451-119.479c31.92-31.906,49.493-74.338,49.493-119.452c0-45.128-17.573-87.561-49.493-119.479
			C343.516,60.701,301.097,43.127,255.955,43.127z"/>
	</g>
	<g>
		<path d="M252.867,310.427c-51.516,0-93.428-41.914-93.428-93.428c0-51.515,41.912-93.428,93.428-93.428
			c51.514,0,93.428,41.913,93.428,93.428C346.295,268.513,304.381,310.427,252.867,310.427z M252.867,166.691
			c-27.736,0-50.308,22.571-50.308,50.308s22.571,50.307,50.308,50.307s50.307-22.57,50.307-50.307S280.604,166.691,252.867,166.691
			z"/>
	</g>
</g>
</svg>
