<?xml version="1.0" encoding="utf-8"?>
<!-- Generator: Adobe Illustrator 18.0.0, SVG Export Plug-In . SVG Version: 6.00 Build 0)  -->
<!DOCTYPE svg PUBLIC "-//W3C//DTD SVG 1.1//EN" "http://www.w3.org/Graphics/SVG/1.1/DTD/svg11.dtd">
<svg version="1.1" id="Layer_1" xmlns="http://www.w3.org/2000/svg" xmlns:xlink="http://www.w3.org/1999/xlink" x="0px" y="0px"
	 viewBox="0 0 64 64" enable-background="new 0 0 64 64" xml:space="preserve">
<g>
	<g>
		<path d="M32,64.1L13.2,45.3C2.9,35,2.9,18.2,13.2,7.8c5-5,11.7-7.8,18.7-7.8c7.1,0,13.7,2.8,18.7,7.8c5,5,7.8,11.7,7.8,18.7
			s-2.8,13.7-7.8,18.7L32,64.1z M32,5.4c-5.7,0-11,2.2-15,6.2c-8.3,8.3-8.3,21.7,0,30l15,15l15-15c4-4,6.2-9.3,6.2-15
			s-2.2-11-6.2-15C43,7.6,37.7,5.4,32,5.4z"/>
	</g>
	<g>
		<path d="M32,37.4c-5.9,0-10.7-4.8-10.7-10.7S26.1,16.1,32,16.1s10.7,4.8,10.7,10.7S37.9,37.4,32,37.4z M32,21.4
			c-2.9,0-5.3,2.4-5.3,5.3s2.4,5.3,5.3,5.3c2.9,0,5.3-2.4,5.3-5.3S34.9,21.4,32,21.4z"/>
	</g>
</g>
</svg>
