<?xml version="1.0" encoding="utf-8"?>
<!-- Generator: Adobe Illustrator 18.0.0, SVG Export Plug-In . SVG Version: 6.00 Build 0)  -->
<!DOCTYPE svg PUBLIC "-//W3C//DTD SVG 1.1//EN" "http://www.w3.org/Graphics/SVG/1.1/DTD/svg11.dtd">
<svg version="1.1" id="Layer_1" xmlns="http://www.w3.org/2000/svg" xmlns:xlink="http://www.w3.org/1999/xlink" x="0px" y="0px"
	 viewBox="0 0 64 64" enable-background="new 0 0 64 64" xml:space="preserve">
<g>
	<path fill="none" d="M10.6,5.3c-2.9,0-5.3,2.4-5.3,5.3c0,2.9,2.4,5.3,5.3,5.3c2.9,0,5.3-2.4,5.3-5.3C16,7.7,13.6,5.3,10.6,5.3z"/>
	<path fill="none" d="M5.3,53.3c0,2.9,2.4,5.3,5.3,5.3c2.9,0,5.3-2.4,5.3-5.3c0-2.9-2.4-5.3-5.3-5.3C7.7,48,5.3,50.4,5.3,53.3z"/>
	<path fill="none" d="M53.3,48c-2.9,0-5.3,2.4-5.3,5.3c0,2.9,2.4,5.3,5.3,5.3s5.3-2.4,5.3-5.3C58.6,50.4,56.2,48,53.3,48z"/>
	<path d="M56,43V18.6C56,12.8,51.2,8,45.3,8H31l4.2-4.2L31.4,0L21.3,10.2C21,4.5,16.4,0,10.6,0C4.8,0,0,4.8,0,10.7c0,5,3,9.1,8,10.3
		v22c-5,1.2-8,5.4-8,10.3C0,59.2,4.8,64,10.7,64s10.5-4.8,10.5-10.7c0-5-3.2-9.1-8.2-10.3V21c5-1.2,7.9-5.1,8.1-9.9l10.2,10.1
		l3.8-3.9L31.1,13h14.3c2.9,0,5.7,2.7,5.7,5.6V43c-5,1.2-8.2,5.4-8.2,10.3c0,5.9,4.7,10.7,10.6,10.7S64,59.2,64,53.3
		C64,48.4,61,44.2,56,43z M16,53.3c0,2.9-2.4,5.3-5.3,5.3c-2.9,0-5.3-2.4-5.3-5.3c0-2.9,2.4-5.3,5.3-5.3C13.6,48,16,50.4,16,53.3z
		 M10.6,16c-2.9,0-5.3-2.4-5.3-5.3c0-2.9,2.4-5.3,5.3-5.3c2.9,0,5.3,2.4,5.3,5.3C16,13.6,13.6,16,10.6,16z M53.3,58.7
		c-2.9,0-5.3-2.4-5.3-5.3c0-2.9,2.4-5.3,5.3-5.3s5.3,2.4,5.3,5.3C58.6,56.3,56.2,58.7,53.3,58.7z"/>
</g>
</svg>
