<?xml version="1.0" encoding="iso-8859-1"?>
<!-- Generator: Adobe Illustrator 16.0.0, SVG Export Plug-In . SVG Version: 6.00 Build 0)  -->
<!DOCTYPE svg PUBLIC "-//W3C//DTD SVG 1.1//EN" "http://www.w3.org/Graphics/SVG/1.1/DTD/svg11.dtd">
<svg version="1.1" id="Layer_1" xmlns="http://www.w3.org/2000/svg" xmlns:xlink="http://www.w3.org/1999/xlink" x="0px" y="0px"
	 width="512px" height="512px" viewBox="0 0 512 512" style="enable-background:new 0 0 512 512;" xml:space="preserve">
<g>
	<path style="fill:none;" d="M90.439,59.698c-19.432,0-35.223,15.792-35.223,35.206s15.791,35.223,35.223,35.223
		c19.397,0,35.188-15.809,35.188-35.223S109.837,59.698,90.439,59.698z"/>
	<path style="fill:none;" d="M90.405,387.809c-19.434,0-35.224,15.791-35.224,35.223c0,19.397,15.79,35.188,35.224,35.188
		c19.432,0,35.223-15.791,35.223-35.188C125.628,403.6,109.837,387.809,90.405,387.809z"/>
	<path style="fill:none;" d="M421.596,387.809c-19.397,0-35.188,15.791-35.188,35.223c0,19.397,15.791,35.188,35.188,35.188
		c19.433,0,35.224-15.791,35.224-35.188C456.819,403.6,441.028,387.809,421.596,387.809z"/>
	<path d="M449.116,338.789v-136.36c0-74.14-60.328-134.451-134.451-134.451h-71.462l29.971-29.954L235.149,0l-62.183,62.149
		c-13.061-32.86-45.063-56.232-82.527-56.232c-49.089,0-89.004,39.916-89.004,88.986c0,40.896,27.871,75.068,65.511,85.45v157.176
		C29.271,347.893,1.4,382.137,1.4,423.031C1.4,472.085,41.315,512,90.405,512c49.088,0,89.003-39.915,89.003-88.969
		c0-38.375-24.544-70.867-58.682-83.332V178.235c23.599-8.613,42.611-26.733,52.064-49.946l63.024,63.023l38.023-38.024
		l-31.547-31.53h72.373c44.467,0,80.671,36.187,80.671,80.67v136.01c-36.169,11.273-62.709,44.712-62.709,84.592
		c0,49.054,39.915,88.969,88.969,88.969c49.089,0,89.004-39.915,89.004-88.969C510.6,383.606,484.69,350.484,449.116,338.789z
		 M90.405,458.22c-19.434,0-35.224-15.791-35.224-35.188c0-19.432,15.79-35.223,35.224-35.223c19.432,0,35.223,15.791,35.223,35.223
		C125.628,442.429,109.837,458.22,90.405,458.22z M90.439,130.127c-19.432,0-35.223-15.809-35.223-35.223
		s15.791-35.206,35.223-35.206c19.397,0,35.188,15.792,35.188,35.206S109.837,130.127,90.439,130.127z M421.596,458.22
		c-19.397,0-35.188-15.791-35.188-35.188c0-19.432,15.791-35.223,35.188-35.223c19.433,0,35.224,15.791,35.224,35.223
		C456.819,442.429,441.028,458.22,421.596,458.22z"/>
</g>
</svg>
