<?xml version="1.0" encoding="utf-8"?>
<!-- Generator: Adobe Illustrator 18.0.0, SVG Export Plug-In . SVG Version: 6.00 Build 0)  -->
<!DOCTYPE svg PUBLIC "-//W3C//DTD SVG 1.1//EN" "http://www.w3.org/Graphics/SVG/1.1/DTD/svg11.dtd">
<svg version="1.1" id="Layer_1" xmlns="http://www.w3.org/2000/svg" xmlns:xlink="http://www.w3.org/1999/xlink" x="0px" y="0px"
	 viewBox="0 0 64 64" enable-background="new 0 0 64 64" xml:space="preserve">
<path d="M52,13.2c-4.9,0-9.1,3-11,7.2L24,14c-0.1-3-1.3-5.8-3.5-7.9c-2.3-2.3-5.3-3.5-8.5-3.5C5.4,2.5,0,8.1,0,14.7
	C0,21.3,5.4,27,12,27c0,0,0,0,0,0c0.7,0,1.3-0.3,2-0.4l4.4,12.9c-3.1,2.2-5.1,6.1-5.1,10.1c0,6.6,5.4,12.4,12,12.4c0,0,0,0,0,0
	c6.6,0,12-5.8,12-12.4c0-2.4-0.7-4.8-1.9-6.6l8.6-8.3c2.1,1.9,4.9,3.3,7.9,3.3c0,0,0,0,0,0c6.6,0,12-5.8,12-12.4
	C64,19,58.6,13.2,52,13.2z M12,22c-3.7,0-6.6-3.4-6.6-7.1c0-3.7,3-6.9,6.7-6.9c1.8,0,3.4,0.6,4.7,1.9c1.3,1.3,1.9,3.3,1.9,5.1
	C18.6,18.6,15.3,22,12,22L12,22z M25.3,57L25.3,57c-3.7,0-6.7-3.6-6.7-7.3c0-3.7,3-7,6.7-7c3.7,0,6.7,3.5,6.7,7.1
	C32,53.6,28.7,57,25.3,57z M31.6,39c-1.8-1.2-4-1.8-6.4-1.8c-0.7,0-1.3,0.1-2,0.2l-4.4-13c1.8-1.3,3.2-3,4.1-5l17,6.4
	c0.1,1.5,0.4,2.8,0.9,4.1c0,0-0.1,0.1-0.1,0.1L31.6,39z M52,33L52,33c-3.7,0-6.7-3.6-6.7-7.3c0-3.7,3-7,6.7-7c3.7,0,6.7,3.4,6.7,7.1
	C58.7,29.6,55.4,33,52,33z"/>
</svg>
