<?xml version="1.0" encoding="iso-8859-1"?>
<!-- Generator: Adobe Illustrator 16.0.0, SVG Export Plug-In . SVG Version: 6.00 Build 0)  -->
<!DOCTYPE svg PUBLIC "-//W3C//DTD SVG 1.1//EN" "http://www.w3.org/Graphics/SVG/1.1/DTD/svg11.dtd">
<svg version="1.1" id="Layer_1" xmlns="http://www.w3.org/2000/svg" xmlns:xlink="http://www.w3.org/1999/xlink" x="0px" y="0px"
	 width="512px" height="512px" viewBox="0 0 512 512" style="enable-background:new 0 0 512 512;" xml:space="preserve">
<g>
	<g>
		<path d="M255.971,512c-68.373,0-132.652-26.629-180.996-74.981C26.632,388.667,0.008,324.377,0.008,255.992
			c0-68.378,26.624-132.663,74.968-181.014C123.32,26.629,187.599,0,255.971,0c68.384,0,132.677,26.628,181.033,74.977
			c48.357,48.351,74.988,112.637,74.988,181.016c0,68.386-26.631,132.676-74.988,181.029C388.648,485.371,324.357,512,255.971,512z
			 M255.971,45.123c-56.318,0-109.265,21.934-149.086,61.762c-39.823,39.826-61.753,92.781-61.753,149.107
			c0,56.334,21.931,109.293,61.754,149.123c39.821,39.828,92.767,61.762,149.086,61.762c56.333,0,109.294-21.935,149.126-61.765
			c39.834-39.829,61.771-92.788,61.771-149.12c0-56.324-21.938-109.278-61.77-149.106C365.266,67.059,312.305,45.123,255.971,45.123
			z"/>
	</g>
	<g>
		<rect x="287.58" y="187.867" width="45.123" height="120.328"/>
	</g>
	<g>
		<rect x="167.252" y="187.867" width="45.124" height="120.328"/>
	</g>
</g>
</svg>
