<?xml version="1.0" encoding="iso-8859-1"?>
<!-- Generator: Adobe Illustrator 16.0.0, SVG Export Plug-In . SVG Version: 6.00 Build 0)  -->
<!DOCTYPE svg PUBLIC "-//W3C//DTD SVG 1.1//EN" "http://www.w3.org/Graphics/SVG/1.1/DTD/svg11.dtd">
<svg version="1.1" id="Layer_1" xmlns="http://www.w3.org/2000/svg" xmlns:xlink="http://www.w3.org/1999/xlink" x="0px" y="0px"
	 width="512px" height="512px" viewBox="0 0 512 512" style="enable-background:new 0 0 512 512;" xml:space="preserve">
<g>
	<g>
		<path d="M256,512C114.829,512,0,397.143,0,256C0,114.828,114.829,0,256,0c141.171,0,256,114.828,256,256
			C512,397.143,397.171,512,256,512z M256,43.886C139.029,43.886,43.886,139.028,43.886,256
			c0,116.943,95.143,212.114,212.114,212.114c116.972,0,212.114-95.171,212.114-212.114C468.114,139.028,372.972,43.886,256,43.886z
			"/>
	</g>
	<g>
		<polygon points="277.886,414 234,414 234,370.114 277.886,368.285 		"/>
	</g>
	<g>
		<path d="M277.886,333.457H234V264h21.943c32.257,0,58.514-26.258,58.514-58.514c0-32.287-26.257-58.516-58.514-58.516
			c-32.257,0-58.514,26.229-58.514,58.516c0,8.171,1.628,16.027,4.8,23.371L162,246.343c-5.6-12.856-8.457-26.628-8.457-40.856
			c0-56.458,45.943-102.4,102.4-102.4c56.458,0,102.4,45.942,102.4,102.4c0,48.914-34.515,89.942-80.457,100V333.457z"/>
	</g>
</g>
</svg>
