<?xml version="1.0" encoding="utf-8"?>
<!-- Generator: Adobe Illustrator 18.0.0, SVG Export Plug-In . SVG Version: 6.00 Build 0)  -->
<!DOCTYPE svg PUBLIC "-//W3C//DTD SVG 1.1//EN" "http://www.w3.org/Graphics/SVG/1.1/DTD/svg11.dtd">
<svg version="1.1" id="Layer_1" xmlns="http://www.w3.org/2000/svg" xmlns:xlink="http://www.w3.org/1999/xlink" x="0px" y="0px"
	 viewBox="0 0 64 64" enable-background="new 0 0 64 64" xml:space="preserve">
<g>
	<g>
		<path d="M32,64C14.4,64,0,49.6,0,32C0,14.4,14.4,0,32,0c17.6,0,32,14.4,32,32C64,49.6,49.6,64,32,64z M32,5.3
			C17.3,5.3,5.3,17.3,5.3,32c0,14.7,12,26.7,26.7,26.7c14.7,0,26.7-12,26.7-26.7C58.7,17.3,46.7,5.3,32,5.3z"/>
	</g>
	<g>
		<path d="M34.7,45.3h-5.3V34.7H32c4.4,0,8-3.6,8-8s-3.6-8-8-8s-8,3.6-8,8c0,1.1,0.2,2.2,0.7,3.2L19.8,32c-0.7-1.7-1.1-3.5-1.1-5.3
			c0-7.3,6-13.3,13.3-13.3c7.3,0,13.3,6,13.3,13.3c0,6.4-4.6,11.8-10.7,13.1V45.3z"/>
	</g>
	<g>
		<rect x="29" y="48" width="6" height="5"/>
	</g>
</g>
</svg>
