<?xml version="1.0" encoding="iso-8859-1"?>
<!-- Generator: Adobe Illustrator 16.0.0, SVG Export Plug-In . SVG Version: 6.00 Build 0)  -->
<!DOCTYPE svg PUBLIC "-//W3C//DTD SVG 1.1//EN" "http://www.w3.org/Graphics/SVG/1.1/DTD/svg11.dtd">
<svg version="1.1" id="Layer_1" xmlns="http://www.w3.org/2000/svg" xmlns:xlink="http://www.w3.org/1999/xlink" x="0px" y="0px"
	 width="512px" height="512px" viewBox="0 0 512 512" style="enable-background:new 0 0 512 512;" xml:space="preserve">
<g>
	<path d="M256,0C114.844,0,0,114.844,0,256s114.844,256,256,256s256-114.844,256-256S397.156,0,256,0z M256,468.109
		c-116.953,0-212.109-95.156-212.109-212.109S139.047,43.891,256,43.891S468.109,139.047,468.109,256S372.953,468.109,256,468.109z"
		/>
	<polygon points="343.281,138.078 256.406,224.969 169.516,138.078 138.484,169.109 225.375,256 138.484,342.891 169.516,373.922 
		256.406,287.031 343.281,373.922 374.312,342.891 287.422,256 374.312,169.109 	"/>
</g>
</svg>
