<?xml version="1.0" encoding="utf-8"?>
<!-- Generator: Adobe Illustrator 18.0.0, SVG Export Plug-In . SVG Version: 6.00 Build 0)  -->
<!DOCTYPE svg PUBLIC "-//W3C//DTD SVG 1.1//EN" "http://www.w3.org/Graphics/SVG/1.1/DTD/svg11.dtd">
<svg version="1.1" id="Layer_1" xmlns="http://www.w3.org/2000/svg" xmlns:xlink="http://www.w3.org/1999/xlink" x="0px" y="0px"
	 viewBox="0 0 64 64" enable-background="new 0 0 64 64" xml:space="preserve">
<g>
	<path d="M58.7,58.7h-5.3c0-26.5-21.5-48-48-48V5.3C34.7,5.3,58.7,29.3,58.7,58.7z"/>
</g>
<g>
	<path d="M42.7,58.7h-5.3c0-17.6-14.3-32-32-32v-5.3C25.9,21.4,42.7,38.1,42.7,58.7z"/>
</g>
<g>
	<g>
		<path d="M12,45.3c3.7,0,6.7,3,6.7,6.7c0,3.7-3,6.7-6.7,6.7c-3.7,0-6.7-3-6.7-6.7C5.3,48.3,8.3,45.3,12,45.3 M12,40
			C5.4,40,0,45.4,0,52c0,6.6,5.4,12,12,12c6.6,0,12-5.4,12-12C24,45.4,18.6,40,12,40L12,40z"/>
	</g>
</g>
</svg>
