<?xml version="1.0" encoding="iso-8859-1"?>
<!-- Generator: Adobe Illustrator 16.0.0, SVG Export Plug-In . SVG Version: 6.00 Build 0)  -->
<!DOCTYPE svg PUBLIC "-//W3C//DTD SVG 1.1//EN" "http://www.w3.org/Graphics/SVG/1.1/DTD/svg11.dtd">
<svg version="1.1" id="Layer_1" xmlns="http://www.w3.org/2000/svg" xmlns:xlink="http://www.w3.org/1999/xlink" x="0px" y="0px"
	 width="512px" height="512px" viewBox="0 0 512 512" style="enable-background:new 0 0 512 512;" xml:space="preserve">
<g>
	<g>
		<path d="M512,461.283h-45.851c0-229.074-186.358-415.433-415.433-415.433V0C305.074,0,512,206.925,512,461.283z"/>
	</g>
	<g>
		<path d="M361.94,461.283H316.09c0-146.357-119.045-265.403-265.373-265.403V150.03C222.328,150.03,361.94,289.672,361.94,461.283z
			"/>
	</g>
	<g>
		<path d="M98.418,361.015c28.985,0,52.537,23.582,52.537,52.597c0,28.955-23.552,52.537-52.537,52.537
			c-28.984,0-52.566-23.582-52.566-52.537C45.852,384.597,69.434,361.015,98.418,361.015 M98.418,315.164
			C44.061,315.164,0,359.224,0,413.611C0,467.939,44.061,512,98.418,512c54.328,0,98.389-44.061,98.389-98.389
			C196.807,359.224,152.746,315.164,98.418,315.164L98.418,315.164z"/>
	</g>
</g>
</svg>
