<?xml version="1.0" encoding="iso-8859-1"?>
<!-- Generator: Adobe Illustrator 16.0.0, SVG Export Plug-In . SVG Version: 6.00 Build 0)  -->
<!DOCTYPE svg PUBLIC "-//W3C//DTD SVG 1.1//EN" "http://www.w3.org/Graphics/SVG/1.1/DTD/svg11.dtd">
<svg version="1.1" id="Layer_1" xmlns="http://www.w3.org/2000/svg" xmlns:xlink="http://www.w3.org/1999/xlink" x="0px" y="0px"
	 width="512px" height="512px" viewBox="0 0 512 512" style="enable-background:new 0 0 512 512;" xml:space="preserve">
<path d="M505.183,472.318l-144.85-144.91c28.303-35.561,43.788-79.242,43.788-125.377c0-53.971-21.03-104.713-59.182-142.85
	C306.758,21.015,256.03-0.015,202.061-0.015c-53.939,0-104.667,21.03-142.818,59.182C21.03,97.302,0,148.031,0,202
	c0,53.985,21.03,104.743,59.243,142.895c38.151,38.15,88.878,59.182,142.818,59.182c46.122,0,89.788-15.455,125.364-43.758
	l144.848,144.908c4.546,4.547,10.485,6.789,16.455,6.789s11.908-2.242,16.455-6.789
	C514.272,496.137,514.272,481.408,505.183,472.318z M202.061,357.531c-41.515,0-80.545-16.184-109.909-45.576
	c-29.424-29.363-45.606-68.41-45.606-109.94s16.182-80.561,45.606-109.924c29.364-29.379,68.394-45.561,109.909-45.561
	c41.545,0,80.575,16.182,109.97,45.561c29.363,29.363,45.545,68.408,45.545,109.939c0,41.529-16.182,80.575-45.545,109.954
	C282.636,341.348,243.606,357.531,202.061,357.531z"/>
</svg>
