<?xml version="1.0" encoding="utf-8"?>
<!-- Generator: Adobe Illustrator 18.0.0, SVG Export Plug-In . SVG Version: 6.00 Build 0)  -->
<!DOCTYPE svg PUBLIC "-//W3C//DTD SVG 1.1//EN" "http://www.w3.org/Graphics/SVG/1.1/DTD/svg11.dtd">
<svg version="1.1" id="Layer_1" xmlns="http://www.w3.org/2000/svg" xmlns:xlink="http://www.w3.org/1999/xlink" x="0px" y="0px"
	 viewBox="0 0 64 64" enable-background="new 0 0 64 64" xml:space="preserve">
<g>
	<path d="M24,48.1c-6.4,0-12.4-2.5-17-7c-4.5-4.5-7-10.6-7-17c0-6.4,2.5-12.4,7-17c4.5-4.5,10.6-7,17-7c6.4,0,12.4,2.5,17,7
		c4.5,4.5,7,10.6,7,17c0,6.4-2.5,12.4-7,17C36.4,45.6,30.4,48.1,24,48.1z M24,5.4c-5,0-9.7,1.9-13.2,5.5c-3.5,3.5-5.5,8.2-5.5,13.2
		c0,5,1.9,9.7,5.5,13.2c3.5,3.5,8.2,5.5,13.2,5.5c5,0,9.7-1.9,13.2-5.5c3.5-3.5,5.5-8.2,5.5-13.2c0-5-1.9-9.7-5.5-13.2
		C33.7,7.3,29,5.4,24,5.4z"/>
</g>
<g>
	<path d="M61.3,64c-0.7,0-1.4-0.3-1.9-0.8L38,41.8c-1-1-1-2.7,0-3.8c1-1,2.7-1,3.8,0l21.4,21.5c1,1,1,2.7,0,3.8
		C62.7,63.7,62,64,61.3,64z"/>
</g>
</svg>
