<?xml version="1.0" encoding="utf-8"?>
<!-- Generator: Adobe Illustrator 18.0.0, SVG Export Plug-In . SVG Version: 6.00 Build 0)  -->
<!DOCTYPE svg PUBLIC "-//W3C//DTD SVG 1.1//EN" "http://www.w3.org/Graphics/SVG/1.1/DTD/svg11.dtd">
<svg version="1.1" id="Layer_1" xmlns="http://www.w3.org/2000/svg" xmlns:xlink="http://www.w3.org/1999/xlink" x="0px" y="0px"
	 viewBox="0 0 64 64" enable-background="new 0 0 64 64" xml:space="preserve">
<g>
	<path d="M32,5.3c0.1,0,0.2,0.1,0.2,0.3l6.9,19.4c0.1,0.3,0.5,0.6,0.9,0.6h18.3c0.4,0,0.4,0.2,0.1,0.4l-15,11.3
		c-0.3,0.2-0.5,0.7-0.4,1l5.4,20c0.1,0.2,0,0.4-0.1,0.4c-0.1,0-0.2,0-0.3-0.1L32.5,46.6c-0.1-0.1-0.3-0.2-0.5-0.2
		c-0.2,0-0.4,0.1-0.5,0.2L15.8,58.5c-0.1,0.1-0.2,0.1-0.3,0.1c-0.1,0-0.2-0.1-0.1-0.4l5.4-20c0.1-0.4-0.1-0.8-0.4-1L5.5,26
		c-0.3-0.2-0.2-0.4,0.1-0.4H24c0.4,0,0.8-0.3,0.9-0.6l6.9-19.4C31.8,5.4,31.9,5.3,32,5.3 M32,0c-2.4,0-4.4,1.5-5.3,3.8l-5.8,16.4
		H5.7c-2.5,0-4.6,1.5-5.4,3.8c-0.8,2.3,0,4.7,2,6.2L15,39.8l-4.6,17.1c-0.5,1.8-0.1,3.6,0.9,5c1,1.4,2.6,2.1,4.3,2.1
		c1.2,0,2.5-0.4,3.5-1.2L32,52.9l12.9,9.9c1,0.8,2.2,1.2,3.5,1.2c1.7,0,3.3-0.8,4.3-2.1c1.1-1.4,1.4-3.2,0.9-5L49,39.8l12.6-9.5
		c2-1.5,2.8-4,2-6.2c-0.8-2.3-2.9-3.8-5.4-3.8H43.1L37.3,3.8C36.4,1.5,34.4,0,32,0L32,0z"/>
</g>
</svg>
