<?xml version="1.0" encoding="iso-8859-1"?>
<!-- Generator: Adobe Illustrator 16.0.0, SVG Export Plug-In . SVG Version: 6.00 Build 0)  -->
<!DOCTYPE svg PUBLIC "-//W3C//DTD SVG 1.1//EN" "http://www.w3.org/Graphics/SVG/1.1/DTD/svg11.dtd">
<svg version="1.1" id="Layer_1" xmlns="http://www.w3.org/2000/svg" xmlns:xlink="http://www.w3.org/1999/xlink" x="0px" y="0px"
	 width="512px" height="512px" viewBox="0 0 512 512" style="enable-background:new 0 0 512 512;" xml:space="preserve">
<g>
	<g>
		<path d="M256.006,41.179c1.687,0,3.343,1.797,4.656,5.391l50.842,143.214c2.594,7.172,10.906,13.047,18.531,13.047h133.776
			c7.625,0,8.875,3.766,2.781,8.343L356.94,293.921c-6.062,4.578-9.438,14.343-7.438,21.718l39.874,147.808
			c1.312,4.75,0.375,7.375-2.094,7.375c-1.344,0-3.156-0.781-5.281-2.438l-114.996-87.81c-3.031-2.312-7-3.469-11-3.469
			c-4,0-8,1.156-11.031,3.469l-114.934,87.81c-2.125,1.656-3.938,2.438-5.281,2.438c-2.438,0-3.406-2.625-2.094-7.375
			l39.874-147.808c2-7.375-1.343-17.14-7.437-21.718L45.419,211.173c-6.093-4.577-4.843-8.343,2.781-8.343h133.808
			c7.656,0,15.938-5.875,18.5-13.047l50.873-143.214C252.631,42.976,254.319,41.179,256.006,41.179 M256.006-0.383
			c-15.5,0-35.186,8.688-43.811,33.077l-45.687,128.574H48.201c-26.28,0-40.967,15.922-45.936,30.827
			c-5,14.906-2.844,36.468,18.156,52.279l98.277,74.139L82.543,452.635c-5.781,21.155,2.062,35.717,7.219,42.498
			c8.375,10.938,21.124,17.25,34.998,17.25c10.719,0,21-3.688,30.5-10.938l100.746-76.997l100.778,76.997
			c9.499,7.25,19.78,10.938,30.499,10.938c13.874,0,26.624-6.312,34.999-17.25c5.187-6.781,12.999-21.343,7.218-42.623
			l-36.154-133.996l98.277-74.17c20.969-15.78,23.094-37.342,18.125-52.248c-5-14.905-19.688-30.827-45.937-30.827H345.503
			L299.817,32.647C291.099,8.258,271.475-0.383,256.006-0.383L256.006-0.383z"/>
	</g>
</g>
</svg>
