<?xml version="1.0" encoding="iso-8859-1"?>
<!-- Generator: Adobe Illustrator 16.0.0, SVG Export Plug-In . SVG Version: 6.00 Build 0)  -->
<!DOCTYPE svg PUBLIC "-//W3C//DTD SVG 1.1//EN" "http://www.w3.org/Graphics/SVG/1.1/DTD/svg11.dtd">
<svg version="1.1" id="Layer_1" xmlns="http://www.w3.org/2000/svg" xmlns:xlink="http://www.w3.org/1999/xlink" x="0px" y="0px"
	 width="512px" height="512px" viewBox="0 0 512 512" style="enable-background:new 0 0 512 512;" xml:space="preserve">
<g>
	<path d="M381.011,18.973C368.78,6.711,352.493-0.007,335.13-0.007c-17.365,0-33.65,6.718-45.883,18.979L28.726,279.463
		c-15.146,15.146-25.634,39.703-26.109,61.06l-2.598,105.8c-0.412,17.459,6.021,33.936,18.157,46.388
		c12.135,12.453,28.453,19.297,45.912,19.297l107.543-2.599c21.324-0.538,45.818-11.058,60.9-26.141l260.49-260.49
		c12.262-12.231,18.98-28.549,18.98-45.882c0-17.332-6.719-33.65-18.98-45.881L381.011,18.973z M458.61,188.366l-260.492,260.49
		c-6.305,6.306-18.758,11.661-27.693,11.883l-105.926,2.598c-0.127,0-0.285,0-0.412,0c-8.745,0-15.621-7.002-15.398-15.812
		l2.598-105.957c0.189-8.936,5.545-21.389,11.851-27.694l260.522-260.49c3.168-3.137,7.318-4.721,11.471-4.721
		c4.15,0,8.301,1.584,11.469,4.721L458.61,165.426C464.915,171.731,464.915,182.061,458.61,188.366z"/>
	<path d="M131.42,348.158c-8.302,0-16.571,3.169-22.909,9.475c-12.706,12.706-12.706,33.271,0,45.881
		c6.338,6.369,14.639,9.538,22.941,9.538c8.301,0,16.604-3.169,22.939-9.475c12.643-12.674,12.643-33.238,0-45.944
		C148.056,351.327,139.722,348.158,131.42,348.158z"/>
</g>
</svg>
