<?xml version="1.0" encoding="utf-8"?>
<!-- Generator: Adobe Illustrator 18.0.0, SVG Export Plug-In . SVG Version: 6.00 Build 0)  -->
<!DOCTYPE svg PUBLIC "-//W3C//DTD SVG 1.1//EN" "http://www.w3.org/Graphics/SVG/1.1/DTD/svg11.dtd">
<svg version="1.1" id="Layer_1" xmlns="http://www.w3.org/2000/svg" xmlns:xlink="http://www.w3.org/1999/xlink" x="0px" y="0px"
	 viewBox="0 0 64 64" enable-background="new 0 0 64 64" xml:space="preserve">
<g>
	<path d="M41.7,5.3c0.1,0,0.2,0,0.2,0.1l16.6,16.6c0.1,0.1,0.1,0.3,0,0.5L23.2,58.4c-0.1,0.1-0.4,0.2-0.6,0.2h-17
		c-0.2,0-0.3-0.1-0.3-0.3V41.6c0-0.2,0.1-0.4,0.2-0.6L41.5,5.4C41.5,5.4,41.6,5.3,41.7,5.3 M41.7,0c-1.5,0-2.9,0.6-4,1.6L1.8,37.3
		C0.7,38.4,0,40,0,41.6v16.7C0,61.5,2.5,64,5.7,64h17c1.6,0,3.2-0.7,4.4-1.8l35.3-35.9c2.2-2.2,2.2-5.8,0-8L45.7,1.7
		C44.6,0.6,43.2,0,41.7,0L41.7,0z"/>
</g>
<path d="M16,42.7c-1.3,0-2.6,0.5-3.6,1.5c-2,2-2,5.2,0,7.2c1,1,2.3,1.5,3.6,1.5c1.3,0,2.6-0.5,3.6-1.5c2-2,2-5.2,0-7.2
	C18.6,43.2,17.3,42.7,16,42.7L16,42.7z"/>
</svg>
