<?xml version="1.0" encoding="utf-8"?>
<!-- Generator: Adobe Illustrator 18.0.0, SVG Export Plug-In . SVG Version: 6.00 Build 0)  -->
<!DOCTYPE svg PUBLIC "-//W3C//DTD SVG 1.1//EN" "http://www.w3.org/Graphics/SVG/1.1/DTD/svg11.dtd">
<svg version="1.1" id="Layer_1" xmlns="http://www.w3.org/2000/svg" xmlns:xlink="http://www.w3.org/1999/xlink" x="0px" y="0px"
	 viewBox="0 0 64 64" enable-background="new 0 0 64 64" xml:space="preserve">
<path d="M32,17.3c8.1,0,14.7,6.6,14.7,14.7S40.1,46.7,32,46.7S17.3,40.1,17.3,32S23.9,17.3,32,17.3 M32,12c-11,0-20,9-20,20
	c0,11,9,20,20,20s20-9,20-20C52,21,43,12,32,12L32,12z"/>
<circle cx="32" cy="32" r="8"/>
<path d="M32,5.3c14.7,0,26.7,12,26.7,26.7S46.7,58.7,32,58.7S5.3,46.7,5.3,32S17.3,5.3,32,5.3 M32,0C14.3,0,0,14.3,0,32
	c0,17.7,14.3,32,32,32s32-14.3,32-32C64,14.3,49.7,0,32,0L32,0z"/>
</svg>
