<?xml version="1.0" encoding="utf-8"?>
<!-- Generator: Adobe Illustrator 18.0.0, SVG Export Plug-In . SVG Version: 6.00 Build 0)  -->
<!DOCTYPE svg PUBLIC "-//W3C//DTD SVG 1.1//EN" "http://www.w3.org/Graphics/SVG/1.1/DTD/svg11.dtd">
<svg version="1.1" id="Layer_1" xmlns="http://www.w3.org/2000/svg" xmlns:xlink="http://www.w3.org/1999/xlink" x="0px" y="0px"
	 viewBox="0 0 64 64" enable-background="new 0 0 64 64" xml:space="preserve">
<g>
	<g>
		<path d="M57.7,64H6.3C2.8,64,0,61.2,0,57.7V6.3C0,2.8,2.8,0,6.3,0h51.3C61.2,0,64,2.8,64,6.3v51.3C64,61.2,61.2,64,57.7,64z
			 M6.3,5.3c-0.5,0-1,0.4-1,1v51.3c0,0.5,0.4,1,1,1h51.3c0.5,0,1-0.4,1-1V6.3c0-0.5-0.4-1-1-1H6.3z"/>
	</g>
	<g>
		<path d="M57.7,64H6.3C2.8,64,0,61.2,0,57.7V6.3C0,2.8,2.8,0,6.3,0h51.3C61.2,0,64,2.8,64,6.3v51.3C64,61.2,61.2,64,57.7,64z
			 M6.3,5.3c-0.5,0-1,0.4-1,1v51.3c0,0.5,0.4,1,1,1h51.3c0.5,0,1-0.4,1-1V6.3c0-0.5-0.4-1-1-1H6.3z"/>
	</g>
	<g>
		<rect x="2.7" y="13.4" width="58.7" height="5.3"/>
	</g>
	<g>
		<polygon points="17.3,48 13.6,44.3 19.2,38.7 13.5,33.2 17.2,29.3 26.8,38.6 		"/>
	</g>
	<g>
		<rect x="34.7" y="42.6" width="13.4" height="5.3"/>
	</g>
</g>
</svg>
