<?xml version="1.0" encoding="utf-8"?>
<!-- Generator: Adobe Illustrator 18.0.0, SVG Export Plug-In . SVG Version: 6.00 Build 0)  -->
<!DOCTYPE svg PUBLIC "-//W3C//DTD SVG 1.1//EN" "http://www.w3.org/Graphics/SVG/1.1/DTD/svg11.dtd">
<svg version="1.1" id="Layer_1" xmlns="http://www.w3.org/2000/svg" xmlns:xlink="http://www.w3.org/1999/xlink" x="0px" y="0px"
	 viewBox="0 0 64 64" enable-background="new 0 0 64 64" xml:space="preserve">
<g>
	<path d="M42.3,10.5c3.1,0,6,1.3,8,3.4c2.5-0.5,4.8-1.4,6.9-2.6c-0.8,2.5-2.6,4.6-4.8,6c2.2-0.3,4.3-0.8,6.3-1.7
		c-1.5,2.2-3.3,4.1-5.5,5.6c0,0.5,0,0.9,0,1.4c0,14.2-11,30.6-31.1,30.6c-6.2,0-11.9-1.8-16.8-4.8c0.9,0.1,1.7,0.2,2.6,0.2
		c5.1,0,9.8-1.7,13.6-4.6c-4.8-0.1-8.8-3.2-10.2-7.5c0.7,0.1,1.4,0.2,2.1,0.2c1,0,2-0.1,2.9-0.4c-5-1-8.8-5.3-8.8-10.6
		c0,0,0-0.1,0-0.1c1.5,0.8,3.2,1.3,5,1.3c-2.9-1.9-4.9-5.2-4.9-9c0-2,0.5-3.8,1.5-5.4c5.4,6.5,13.5,10.8,22.6,11.3
		c-0.2-0.8-0.3-1.6-0.3-2.5C31.3,15.3,36.2,10.5,42.3,10.5 M42.3,5.2c-7.7,0-14.1,5.3-15.8,12.4c-5.2-1.4-9.8-4.3-13.3-8.5
		c-1-1.2-2.5-1.9-4.1-1.9c-0.1,0-0.3,0-0.4,0C6.9,7.3,5.3,8.3,4.5,9.8C3,12.2,2.2,15,2.2,17.9c0,1.6,0.3,3.3,0.7,4.8
		c-0.5,0.8-0.8,1.8-0.8,2.8v0.1c0,3.9,1.4,7.6,3.8,10.4c0,0.7,0,1.4,0.3,2c0.6,1.9,1.6,3.6,2.7,5.1c-0.3,0-0.7,0-1,0
		c-0.7,0-1.3,0-2-0.1c-0.2,0-0.4,0-0.6,0c-2.2,0-4.3,1.4-5,3.6c-0.8,2.3,0.1,5,2.2,6.3c5.9,3.7,12.7,5.7,19.6,5.7
		c10.7,0,20.3-4.2,27.1-11.8c5.7-6.4,9.1-14.7,9.4-23c1.7-1.5,3.2-3.2,4.5-5.1c1.3-2,1.2-4.6-0.3-6.4c-0.1-0.1-0.2-0.2-0.3-0.3
		c0.2-1.8-0.5-3.6-2-4.7c-1-0.8-2.2-1.2-3.4-1.2c-0.9,0-1.9,0.2-2.7,0.7c-0.9,0.6-1.9,1-3,1.4C48.8,6.2,45.6,5.2,42.3,5.2L42.3,5.2z
		"/>
</g>
</svg>
