<?xml version="1.0" encoding="iso-8859-1"?>
<!-- Generator: Adobe Illustrator 16.0.0, SVG Export Plug-In . SVG Version: 6.00 Build 0)  -->
<!DOCTYPE svg PUBLIC "-//W3C//DTD SVG 1.1//EN" "http://www.w3.org/Graphics/SVG/1.1/DTD/svg11.dtd">
<svg version="1.1" id="Layer_1" xmlns="http://www.w3.org/2000/svg" xmlns:xlink="http://www.w3.org/1999/xlink" x="0px" y="0px"
	 width="512px" height="512px" viewBox="0 0 512 512" style="enable-background:new 0 0 512 512;" xml:space="preserve">
<g>
	<g>
		<path d="M404.812,217.562c18.562-17.656,30.312-42.422,30.312-70.031c0-53.359-43.406-96.75-96.781-96.75
			c-16.594,0-32,4.578-45.656,11.969c12.75,9.422,24,20.656,33.188,33.547c4.031-0.984,8.156-1.641,12.469-1.641
			c29.188,0,52.906,23.719,52.906,52.875c0,24.172-16.375,44.375-38.562,50.688c-1.781,17.859-6.375,34.781-13.844,50.281
			c0.531-0.016,1.062-0.172,1.594-0.172c68.25,0,126.719,57.297,127.688,125.141L512,372.844
			C511,304.031,466.125,243.312,404.812,217.562z"/>
	</g>
	<path d="M276,270.875c25.188-20.953,41.594-52.125,41.594-87.359c0-62.891-51.125-114.047-114-114.047
		S89.531,120.625,89.531,183.516c0,35.969,17.094,67.734,43.188,88.641C56.344,301.469,1.219,374.781,0,460.594l43.906,0.625
		c1.219-87.656,74-158.969,162.219-158.969s161,71.312,162.25,158.969l43.906-0.625C411,373.469,354.219,299.25,276,270.875z
		 M203.594,113.344c38.656,0,70.125,31.484,70.125,70.172s-31.469,70.156-70.125,70.156c-38.688,0-70.156-31.469-70.156-70.156
		S164.906,113.344,203.594,113.344z"/>
</g>
</svg>
