<?xml version="1.0" encoding="utf-8"?>
<!-- Generator: Adobe Illustrator 18.0.0, SVG Export Plug-In . SVG Version: 6.00 Build 0)  -->
<!DOCTYPE svg PUBLIC "-//W3C//DTD SVG 1.1//EN" "http://www.w3.org/Graphics/SVG/1.1/DTD/svg11.dtd">
<svg version="1.1" id="Layer_1" xmlns="http://www.w3.org/2000/svg" xmlns:xlink="http://www.w3.org/1999/xlink" x="0px" y="0px"
	 viewBox="0 0 64 64" enable-background="new 0 0 64 64" xml:space="preserve">
<path d="M48.9,29.3c2.7-2.2,4.4-5.5,4.4-9.3c0-6.6-5.4-12-12-12c-4.2,0-7.9,2.2-10,5.5c1.5,1.1,2.8,2.5,3.8,4.2
	c1-2.5,3.4-4.3,6.2-4.3c3.7,0,6.7,3,6.7,6.7s-3,6.7-6.6,6.7c-1.5,0-2.7-0.5-4-1.4c0,0,0,0,0,0c0,3.1-1,6-2.6,8.3
	c0.3,0.2,0.7,0.4,1,0.6c1.8-0.6,3.7-1,5.7-1c9.4,0,17.2,7.8,17.3,17.4l5.3-0.1C63.9,40.8,57.6,32.5,48.9,29.3z"/>
<path d="M5.3,56c0.1-8,5.4-14.6,12.6-16.7c1.5-0.4,3.1-0.7,4.7-0.7c1.6,0,3.2,0.2,4.7,0.7C34.5,41.4,39.9,48,40,56h2.6l2.7,0
	c-0.1-9.8-6.4-18.2-15.1-21.3c2.7-2.2,4.4-5.5,4.4-9.3c0-6.6-5.4-12-12-12s-12,5.4-12,12c0,3.7,1.7,7.1,4.4,9.3
	C6.4,37.8,0.1,46.2,0,56l2.6,0h0l0,0H5.3z M22.6,18.7c3.7,0,6.7,3,6.7,6.7c0,2.3-1.2,4.3-2.9,5.5c-1.1,0.7-2.4,1.2-3.8,1.2
	c-1.4,0-2.7-0.4-3.8-1.2c-1.8-1.2-2.9-3.2-2.9-5.5C16,21.7,19,18.7,22.6,18.7z"/>
</svg>
