<?xml version="1.0" encoding="utf-8"?>
<!-- Generator: Adobe Illustrator 18.0.0, SVG Export Plug-In . SVG Version: 6.00 Build 0)  -->
<!DOCTYPE svg PUBLIC "-//W3C//DTD SVG 1.1//EN" "http://www.w3.org/Graphics/SVG/1.1/DTD/svg11.dtd">
<svg version="1.1" id="Layer_1" xmlns="http://www.w3.org/2000/svg" xmlns:xlink="http://www.w3.org/1999/xlink" x="0px" y="0px"
	 viewBox="0 0 64 64" enable-background="new 0 0 64 64" xml:space="preserve">
<g>
	<path d="M32,37.3c-9.6,0-17.3-7.8-17.3-17.3S22.4,2.7,32,2.7c9.6,0,17.3,7.8,17.3,17.3S41.6,37.3,32,37.3z M32,8
		c-6.6,0-12,5.4-12,12s5.4,12,12,12c6.6,0,12-5.4,12-12S38.6,8,32,8z"/>
</g>
<g>
	<path d="M8,61.4l-5.3-0.1C2.9,45.2,16.1,32,32,32C48,32,61.1,45.2,61.3,61.3L56,61.4c-0.2-13.3-10.9-24.1-24-24.1
		C19,37.3,8.2,48.1,8,61.4z"/>
</g>
</svg>
