<?xml version="1.0" encoding="utf-8"?>
<!-- Generator: Adobe Illustrator 18.0.0, SVG Export Plug-In . SVG Version: 6.00 Build 0)  -->
<!DOCTYPE svg PUBLIC "-//W3C//DTD SVG 1.1//EN" "http://www.w3.org/Graphics/SVG/1.1/DTD/svg11.dtd">
<svg version="1.1" id="Layer_1" xmlns="http://www.w3.org/2000/svg" xmlns:xlink="http://www.w3.org/1999/xlink" x="0px" y="0px"
	 viewBox="0 0 64 64" enable-background="new 0 0 64 64" xml:space="preserve">
<g>
	<g>
		<g>
			<g>
				<path d="M32,45.4c-7.3,0-13.3-6-13.3-13.3s6-13.3,13.3-13.3c7.3,0,13.3,6,13.3,13.3S39.4,45.4,32,45.4z M32,24.1
					c-4.4,0-8,3.6-8,8s3.6,8,8,8c4.4,0,8-3.6,8-8S36.4,24.1,32,24.1z"/>
			</g>
		</g>
	</g>
</g>
<g>
	<path d="M32.3,56C10.8,56,0,36.1,0,32.1S10.8,8.1,32.3,8.1c11.2,0,19,5.7,23.7,10.5c4.8,5,8.1,11,8.1,13.5C64,37,52.1,56,32.3,56z
		 M5.4,32.1c0.6,2.2,8.9,18.6,26.9,18.6c16.6,0,25.7-15.6,26.4-18.6c-0.7-3.1-9.7-18.6-26.4-18.6C15.3,13.4,6.1,28.9,5.4,32.1z"/>
</g>
</svg>
