<?xml version="1.0" encoding="iso-8859-1"?>
<!-- Generator: Adobe Illustrator 16.0.0, SVG Export Plug-In . SVG Version: 6.00 Build 0)  -->
<!DOCTYPE svg PUBLIC "-//W3C//DTD SVG 1.1//EN" "http://www.w3.org/Graphics/SVG/1.1/DTD/svg11.dtd">
<svg version="1.1" id="Layer_1" xmlns="http://www.w3.org/2000/svg" xmlns:xlink="http://www.w3.org/1999/xlink" x="0px" y="0px"
	 width="512px" height="512px" viewBox="0 0 512 512" style="enable-background:new 0 0 512 512;" xml:space="preserve">
<g>
	<g>
		<g>
			<g>
				<g>
					<path d="M256,349.64c-51.655,0-93.633-42.033-93.633-93.646c0-51.628,41.978-93.634,93.633-93.634
						c51.6,0,93.634,42.006,93.634,93.634C349.634,307.606,307.6,349.64,256,349.64z M256,205.575
						c-27.798,0-50.417,22.62-50.417,50.418c0,27.797,22.619,50.432,50.417,50.432s50.418-22.635,50.418-50.432
						C306.418,228.195,283.798,205.575,256,205.575z"/>
				</g>
			</g>
		</g>
	</g>
	<g>
		<path d="M256,449.913c-137.495,0-256-130.068-256-193.92C0,192.141,118.505,62.087,256,62.087s256,130.054,256,193.906
			C512,319.845,393.495,449.913,256,449.913z M256,111.548c-116.226,0-206.538,115.213-206.538,144.445S139.774,400.452,256,400.452
			s206.539-115.227,206.539-144.459S372.226,111.548,256,111.548z"/>
	</g>
</g>
</svg>
