<?xml version="1.0" encoding="iso-8859-1"?>
<!-- Generator: Adobe Illustrator 16.0.0, SVG Export Plug-In . SVG Version: 6.00 Build 0)  -->
<!DOCTYPE svg PUBLIC "-//W3C//DTD SVG 1.1//EN" "http://www.w3.org/Graphics/SVG/1.1/DTD/svg11.dtd">
<svg version="1.1" id="Layer_1" xmlns="http://www.w3.org/2000/svg" xmlns:xlink="http://www.w3.org/1999/xlink" x="0px" y="0px"
	 width="512px" height="512px" viewBox="0 0 512 512" style="enable-background:new 0 0 512 512;" xml:space="preserve">
<g>
	<path style="fill:none;" d="M134.536,355.793c-2.342-1.371-4.914-2.057-7.627-2.057c-5.486,0-10.6,2.972-13.344,7.715
		c-2.027,3.514-2.57,7.656-1.514,11.6c1.057,3.941,3.6,7.256,7.172,9.313c7.199,4.228,16.855,1.485,20.941-5.601
		C144.394,369.45,141.88,360.021,134.536,355.793z"/>
	<path style="fill:none;" d="M386.899,383.793c8.456,0,15.342-6.914,15.342-15.371s-6.886-15.314-15.342-15.314
		c-8.457,0-15.343,6.857-15.343,15.314S378.442,383.793,386.899,383.793z"/>
	<path style="fill:none;" d="M262.96,156.229c7.344-4.229,9.857-13.642,5.629-20.985c-2.742-4.729-7.828-7.657-13.314-7.657
		c-2.713,0-5.285,0.686-7.656,2.071c-3.543,2.043-6.086,5.343-7.143,9.3s-0.514,8.085,1.543,11.628
		C246.104,157.687,255.732,160.358,262.96,156.229z"/>
	<path d="M386.899,427.677c32.655,0,59.226-26.571,59.226-59.255c0-32.627-26.57-59.197-59.226-59.197
		c-24.885,0-46.17,15.484-54.913,37.255H208.877v21.942c0,45.512-36.999,82.512-82.483,82.512c-45.483,0-82.511-37-82.511-82.512
		c0-45.484,37.027-82.454,82.511-82.454v-43.898c-69.683,0-126.395,56.698-126.395,126.353c0,69.711,56.712,126.396,126.395,126.396
		c62.198,0,114.054-45.17,124.453-104.454h81.14C340.729,412.191,362.015,427.677,386.899,427.677z M386.899,353.107
		c8.456,0,15.342,6.857,15.342,15.314s-6.886,15.371-15.342,15.371c-8.457,0-15.343-6.914-15.343-15.371
		S378.442,353.107,386.899,353.107z"/>
	<path d="M175.85,240.327l-40.685,70.498c-23.113-2.771-47.655,8.057-59.598,28.656c-7.914,13.713-10,29.684-5.914,44.94
		c4.114,15.285,13.914,28.056,27.6,35.942c8.999,5.199,19.228,7.941,29.599,7.941c21.113,0,40.77-11.313,51.312-29.599
		c12.457-21.542,9.686-47.712-4.828-66.197l61.598-106.567l-19.057-11c-19.084-11.028-32.741-28.813-38.455-50.098
		c-5.686-21.285-2.771-43.527,8.257-62.612c22.742-39.413,73.312-52.884,112.71-30.199c39.37,22.742,52.912,73.297,30.17,112.696
		l37.999,21.942c34.856-60.34,14.114-137.795-46.227-172.636c-60.397-34.842-137.823-14.1-172.651,46.255
		c-16.885,29.228-21.37,63.298-12.627,95.911C141.851,201.628,156.079,223.798,175.85,240.327z M140.165,376.764
		c-4.086,7.086-13.742,9.828-20.941,5.601c-3.572-2.058-6.115-5.372-7.172-9.313c-1.057-3.943-0.514-8.086,1.514-11.6
		c2.744-4.743,7.857-7.715,13.344-7.715c2.713,0,5.285,0.686,7.627,2.057C141.88,360.021,144.394,369.45,140.165,376.764z"/>
	<path d="M418.269,246.455c-25.398-6.771-51.74-5.585-75.969,3.3l-40.541-70.226c14.485-18.471,17.257-44.627,4.828-66.212
		c-15.713-27.213-53.512-37.484-80.91-21.67c-13.715,7.914-23.514,20.685-27.6,35.97s-1.971,31.242,5.943,44.913
		c10.514,18.285,30.198,29.642,51.312,29.642c2.771,0,5.457-0.686,8.2-1.086l61.74,106.996l19.027-10.972
		c19.086-11.027,41.285-13.999,62.627-8.256c21.285,5.686,39.056,19.342,50.084,38.427c11.027,19.085,13.941,41.313,8.256,62.626
		c-5.713,21.257-19.37,39.057-38.455,50.084c-39.398,22.686-89.939,9.172-112.71-30.227l-37.999,21.97
		c23.399,40.513,65.998,63.141,109.711,63.141c21.398,0,43.112-5.428,62.939-16.885c29.257-16.886,50.17-44.142,58.885-76.74
		c8.742-32.599,4.256-66.655-12.629-95.911C478.152,276.111,450.896,255.197,418.269,246.455z M242.019,150.587
		c-2.057-3.542-2.6-7.671-1.543-11.628s3.6-7.257,7.143-9.3c2.371-1.386,4.943-2.071,7.656-2.071c5.486,0,10.572,2.928,13.314,7.657
		c4.229,7.343,1.715,16.756-5.629,20.985C255.732,160.358,246.104,157.687,242.019,150.587z"/>
</g>
</svg>
