<?xml version="1.0" encoding="utf-8"?>
<!-- Generator: Adobe Illustrator 18.0.0, SVG Export Plug-In . SVG Version: 6.00 Build 0)  -->
<!DOCTYPE svg PUBLIC "-//W3C//DTD SVG 1.1//EN" "http://www.w3.org/Graphics/SVG/1.1/DTD/svg11.dtd">
<svg version="1.1" id="Layer_1" xmlns="http://www.w3.org/2000/svg" xmlns:xlink="http://www.w3.org/1999/xlink" x="0px" y="0px"
	 viewBox="0 0 64 64" enable-background="new 0 0 64 64" xml:space="preserve">
<g>
	<g>
		<path d="M48.7,53.2c-4,0-7.2-3.3-7.2-7.2c0-4,3.3-7.2,7.2-7.2s7.2,3.2,7.2,7.2C55.9,50,52.7,53.2,48.7,53.2z M48.7,44.1
			c-1.1,0-1.9,0.9-1.9,1.9c0,1.1,0.9,1.9,1.9,1.9c1.1,0,1.9-0.9,1.9-1.9C50.6,44.9,49.7,44.1,48.7,44.1z"/>
	</g>
	<g>
		<path d="M15.5,61.5C7,61.5,0,54.5,0,46c0-8.5,7-15.5,15.5-15.5v5.3C9.9,35.8,5.3,40.4,5.3,46c0,5.6,4.6,10.2,10.2,10.2
			c5.6,0,10.2-4.6,10.2-10.2v-2.7h19.2v5.3H30.8C29.5,55.9,23.1,61.5,15.5,61.5z"/>
	</g>
</g>
<g>
	<g>
		<path d="M15.6,53.3c-1.3,0-2.5-0.3-3.6-1c-1.7-1-2.9-2.5-3.4-4.4c-0.5-1.9-0.2-3.8,0.7-5.5c1.3-2.2,3.7-3.6,6.3-3.6
			c1.3,0,2.5,0.3,3.6,1c3.5,2,4.6,6.4,2.6,9.9C20.5,51.9,18.1,53.3,15.6,53.3z M15.6,44.2c-0.7,0-1.3,0.4-1.7,1
			c-0.3,0.4-0.3,1-0.2,1.4c0.1,0.5,0.5,0.9,0.9,1.2c0.9,0.5,2.1,0.2,2.6-0.7c0.5-0.9,0.2-2.1-0.7-2.6C16.2,44.2,15.9,44.2,15.6,44.2
			z"/>
	</g>
	<g>
		<path d="M19.7,44.2l-4.5-2.8l6.9-11.2c-2.4-2-4.2-4.7-5-7.9c-1.1-4-0.5-8.2,1.5-11.8c4.3-7.4,13.8-9.9,21.2-5.7
			c3.6,2.1,6.1,5.4,7.2,9.4c1.1,4,0.5,8.2-1.6,11.8l-4.6-2.7c1.4-2.4,1.7-5.1,1-7.7c-0.7-2.6-2.4-4.8-4.7-6.2
			C32.3,6.7,26,8.4,23.2,13.3c-1.4,2.4-1.7,5.1-1,7.7c0.7,2.6,2.4,4.8,4.7,6.2l2.3,1.3l-1.9,3.2L19.7,44.2z"/>
	</g>
</g>
<g>
	<g>
		<path d="M32,25.4L32,25.4c-1.9,0-3.8-0.8-5.1-2.1c-1.4-1.4-2.1-3.2-2.1-5.1c0-1.9,0.8-3.8,2.1-5.1c1.4-1.4,3.2-2.1,5.1-2.1
			c1.9,0,3.8,0.8,5.1,2.1c1.4,1.4,2.1,3.2,2.1,5.1C39.2,22.1,36,25.4,32,25.4z M32,16.2c-0.5,0-1,0.2-1.4,0.6
			c-0.4,0.4-0.6,0.8-0.6,1.4c0,0.5,0.2,1,0.6,1.4C31,19.9,31.4,20,32,20h0c1.1,0,1.9-0.9,1.9-1.9c0-0.5-0.2-1-0.6-1.4
			C33,16.4,32.5,16.2,32,16.2z"/>
	</g>
	<g>
		<path d="M48.5,61.5c-5.4,0-10.6-2.8-13.5-7.7l4.6-2.7c2.8,4.9,9,6.5,13.9,3.7c2.4-1.4,4-3.6,4.7-6.2c0.7-2.6,0.3-5.4-1-7.7
			c-1.4-2.4-3.5-4-6.2-4.7c-2.6-0.7-5.4-0.3-7.7,1l-2.3,1.3l-1.8-3.2L31.5,23l4.5-2.8l7.1,11.3c3-1.1,6.2-1.3,9.4-0.4
			c4,1.1,7.3,3.6,9.4,7.2C64,41.8,64.5,46,63.5,50c-1.1,4-3.6,7.3-7.2,9.4C53.8,60.8,51.2,61.5,48.5,61.5z"/>
	</g>
</g>
</svg>
