<?xml version="1.0" encoding="iso-8859-1"?>
<!-- Generator: Adobe Illustrator 16.0.0, SVG Export Plug-In . SVG Version: 6.00 Build 0)  -->
<!DOCTYPE svg PUBLIC "-//W3C//DTD SVG 1.1//EN" "http://www.w3.org/Graphics/SVG/1.1/DTD/svg11.dtd">
<svg version="1.1" id="Layer_1" xmlns="http://www.w3.org/2000/svg" xmlns:xlink="http://www.w3.org/1999/xlink" x="0px" y="0px"
	 width="512px" height="512px" viewBox="0 0 512 512" style="enable-background:new 0 0 512 512;" xml:space="preserve">
<path d="M485.587,192.119L319.872,26.404C302.828,9.36,280.173-0.009,256-0.009s-46.827,9.369-63.872,26.413L26.413,192.119
	c-35.218,35.218-35.218,92.526,0,127.744l165.715,165.715c17.045,17.044,39.699,26.431,63.872,26.431s46.828-9.387,63.872-26.431
	l165.715-165.715C520.805,284.646,520.805,227.337,485.587,192.119z M447.264,281.54L281.549,447.255
	c-7.022,7.022-16.268,10.551-25.549,10.551c-9.28,0-18.526-3.528-25.549-10.551L64.736,281.54
	c-14.044-14.045-14.044-37.053,0-51.098l105.83-105.83l67.26,67.277v181.506h54.203V246.093l56.145,56.161l38.323-38.341
	L208.89,86.289l21.562-21.562c7.022-7.022,16.269-10.533,25.549-10.533c9.281,0,18.526,3.511,25.549,10.533l165.715,165.715
	C461.309,244.487,461.309,267.495,447.264,281.54z"/>
</svg>
